<?xml version="1.0" encoding="utf-8"?>
<!-- Generator: Adobe Illustrator 18.0.0, SVG Export Plug-In . SVG Version: 6.00 Build 0)  -->
<!DOCTYPE svg PUBLIC "-//W3C//DTD SVG 1.1//EN" "http://www.w3.org/Graphics/SVG/1.1/DTD/svg11.dtd">
<svg version="1.1" id="Capa_1" xmlns="http://www.w3.org/2000/svg" xmlns:xlink="http://www.w3.org/1999/xlink" x="0px" y="0px"
	 viewBox="-9 -9 50 50" style="enable-background:new -9 -9 50 50;" xml:space="preserve">
<style type="text/css">
	.st0{fill:#4C4646;}
	.st1{fill:none;stroke:#4C4646;stroke-miterlimit:10;}
</style>
<g>
	<g id="Cart">
		<g>
			<path class="st0" d="M28.1,4.5c-0.1-0.4-0.5-0.7-0.9-0.5l-3,0.8c-0.3,0.1-0.5,0.3-0.6,0.6l-0.4,2.4L4.6,10c0,0,0,0,0,0
				c0,0,0,0-0.1,0c0,0-0.1,0-0.1,0.1c0,0-0.1,0-0.1,0.1c-0.1,0-0.1,0.1-0.1,0.1c0,0,0,0-0.1,0.1c0,0,0,0,0,0C4,10.4,4,10.4,4,10.5
				c0,0,0,0,0,0.1c0,0.1,0,0.2,0,0.3L6.2,20L7,23c0,0,0,0,0,0.1c0,0,0,0.1,0,0.1c0,0,0.1,0.1,0.1,0.1c0,0,0,0.1,0.1,0.1
				c0,0,0.1,0.1,0.1,0.1c0,0,0.1,0,0.1,0c0.1,0,0.2,0.1,0.3,0.1h15.9c0.4,0,0.8-0.3,0.8-0.8c0-0.4-0.3-0.8-0.8-0.8H8.3l-0.4-1.5
				h14.1c0.1,0,0.2,0,0.3,0c0,0,0.1,0,0.1-0.1c0,0,0.1,0,0.1-0.1c0,0,0-0.1,0.1-0.1c0,0,0.1-0.1,0.1-0.1c0,0,0-0.1,0-0.1
				c0,0,0-0.1,0-0.1l0,0v0L25,6l2.5-0.6C27.9,5.3,28.2,4.9,28.1,4.5z M7.5,19l-1.9-7.7L8,11.1L9.1,19H7.5z M10.6,19l-1.2-8.1
				l2.4-0.3l0.4,8.4H10.6z M15.3,19h-1.6l-0.4-8.6l2.4-0.3L15.3,19z M18.4,19h-1.6l0.4-9l2.3-0.3L18.4,19z M21.4,19h-1.5l1.2-9.5
				l1.6-0.2L21.4,19z M10.7,25.1c-0.8,0-1.5,0.7-1.5,1.5s0.7,1.5,1.5,1.5c0.8,0,1.5-0.7,1.5-1.5S11.6,25.1,10.7,25.1z M20.5,25.1
				c-0.8,0-1.5,0.7-1.5,1.5s0.7,1.5,1.5,1.5c0.8,0,1.5-0.7,1.5-1.5C22.1,25.7,21.4,25.1,20.5,25.1z"/>
		</g>
	</g>
	<circle class="st1" cx="16" cy="16" r="24.4"/>
</g>
</svg>
