<?xml version="1.0" encoding="utf-8"?>
<!-- Generator: Adobe Illustrator 18.0.0, SVG Export Plug-In . SVG Version: 6.00 Build 0)  -->
<!DOCTYPE svg PUBLIC "-//W3C//DTD SVG 1.1//EN" "http://www.w3.org/Graphics/SVG/1.1/DTD/svg11.dtd">
<svg version="1.1" id="Слой_1" xmlns="http://www.w3.org/2000/svg" xmlns:xlink="http://www.w3.org/1999/xlink" x="0px" y="0px"
	 viewBox="0 0 50 50" style="enable-background:new 0 0 50 50;" xml:space="preserve">
<style type="text/css">
	.st0{fill:none;stroke:#4B4545;stroke-miterlimit:10;}
	.st1{fill:#4B4545;}
</style>
<g>
	<circle class="st0" cx="25" cy="25" r="24.5"/>
	<g>
		<path class="st1" d="M22.6,33.4L22,33.1c0-0.4,0-0.9-0.1-1.4l0.6-0.3c0.4-0.2,0.5-0.6,0.4-1l-0.3-0.8c-0.2-0.4-0.6-0.5-1-0.4
			L21,29.7c-0.3-0.4-0.6-0.7-1-0.9l0.2-0.6c0.1-0.4-0.1-0.8-0.4-0.9L19,26.9c-0.4-0.1-0.8,0.1-0.9,0.4L17.8,28c-0.4,0-0.9,0-1.4,0.1
			l-0.3-0.6c-0.2-0.4-0.6-0.5-1-0.4l-0.8,0.3c-0.4,0.2-0.5,0.6-0.4,1l0.3,0.6c-0.4,0.3-0.7,0.6-0.9,1l-0.6-0.2
			c-0.4-0.1-0.8,0.1-0.9,0.4L11.6,31c-0.1,0.2-0.1,0.4,0,0.6c0.1,0.2,0.2,0.3,0.4,0.4l0.6,0.2c0,0.4,0,0.9,0.1,1.4l-0.6,0.3
			c-0.4,0.2-0.5,0.6-0.4,1l0.3,0.8c0.2,0.4,0.6,0.5,1,0.4l0.6-0.3c0.3,0.4,0.6,0.7,1,0.9l-0.2,0.6c-0.1,0.2-0.1,0.4,0,0.6
			c0.1,0.2,0.2,0.3,0.4,0.4l0.8,0.3c0.2,0.1,0.4,0.1,0.6,0c0.2-0.1,0.3-0.2,0.4-0.4l0.2-0.6c0.4,0,0.9,0,1.4-0.1l0.3,0.6
			c0.2,0.4,0.6,0.5,1,0.4l0.8-0.3c0.4-0.2,0.5-0.6,0.4-1l-0.3-0.6c0.4-0.3,0.7-0.6,0.9-1l0.6,0.2c0.2,0.1,0.4,0.1,0.6,0
			c0.2-0.1,0.3-0.2,0.4-0.4l0.3-0.8C23.2,33.9,23,33.5,22.6,33.4z M18.5,35.3c-0.4,0.2-0.8,0.3-1.2,0.3c-1.1,0-2.2-0.7-2.7-1.7
			c-0.7-1.5,0-3.2,1.4-3.9c0.4-0.2,0.8-0.3,1.2-0.3c1.1,0,2.2,0.7,2.7,1.7C20.6,32.9,20,34.6,18.5,35.3z"/>
		<path class="st1" d="M29.9,35.5l-0.3-0.1c0-0.2,0-0.5,0-0.8l0.3-0.2c0.2-0.1,0.3-0.3,0.2-0.5l-0.2-0.4c-0.1-0.2-0.3-0.3-0.5-0.2
			L29,33.4c-0.2-0.2-0.3-0.4-0.6-0.5l0.1-0.3c0.1-0.2,0-0.4-0.2-0.5l-0.4-0.2c-0.2-0.1-0.5,0-0.5,0.2l-0.1,0.3c-0.2,0-0.5,0-0.8,0
			l-0.2-0.3C26.2,32,26,31.9,25.8,32l-0.4,0.2c-0.2,0.1-0.3,0.3-0.2,0.5l0.2,0.3c-0.2,0.2-0.4,0.3-0.5,0.6l-0.3-0.1
			c-0.2-0.1-0.5,0-0.5,0.2l-0.2,0.4c0,0.1,0,0.2,0,0.3c0,0.1,0.1,0.2,0.2,0.2l0.3,0.1c0,0.2,0,0.5,0,0.8l-0.3,0.2
			c-0.2,0.1-0.3,0.3-0.2,0.5l0.2,0.4c0.1,0.2,0.3,0.3,0.5,0.2l0.3-0.2c0.2,0.2,0.3,0.4,0.6,0.5l-0.1,0.3c0,0.1,0,0.2,0,0.3
			c0,0.1,0.1,0.2,0.2,0.2l0.4,0.2c0.1,0,0.2,0,0.3,0c0.1,0,0.2-0.1,0.2-0.2l0.1-0.3c0.2,0,0.5,0,0.8,0l0.2,0.3
			c0.1,0.2,0.3,0.3,0.5,0.2l0.4-0.2c0.2-0.1,0.3-0.3,0.2-0.5l-0.2-0.3c0.2-0.2,0.4-0.3,0.5-0.6l0.3,0.1c0.1,0,0.2,0,0.3,0
			c0.1,0,0.2-0.1,0.2-0.2l0.2-0.4C30.2,35.8,30.1,35.6,29.9,35.5z M27.6,36.6c-0.2,0.1-0.4,0.1-0.7,0.1c-0.6,0-1.2-0.4-1.5-0.9
			c-0.4-0.8,0-1.8,0.8-2.2c0.2-0.1,0.4-0.1,0.7-0.1c0.6,0,1.2,0.4,1.5,0.9C28.8,35.2,28.5,36.2,27.6,36.6z"/>
		<path class="st1" d="M37.6,22.5l-1-0.4c0.1-0.8,0.1-1.5-0.1-2.3l1-0.5c0.6-0.3,0.9-1,0.6-1.6l-0.6-1.3c-0.3-0.6-1-0.9-1.6-0.6
			l-1,0.5c-0.5-0.6-1.1-1.1-1.7-1.5l0.4-1c0.2-0.6-0.1-1.4-0.7-1.6l-1.3-0.5c-0.6-0.2-1.4,0.1-1.6,0.7l-0.4,1
			c-0.8-0.1-1.5-0.1-2.3,0.1l-0.5-1c-0.3-0.6-1-0.9-1.6-0.6l-1.3,0.6c-0.6,0.3-0.9,1-0.6,1.6l0.5,1c-0.6,0.5-1.1,1.1-1.5,1.7l-1-0.4
			c-0.6-0.2-1.4,0.1-1.6,0.7l-0.5,1.3c-0.1,0.3-0.1,0.6,0,0.9c0.1,0.3,0.4,0.5,0.7,0.6l1,0.4c-0.1,0.8-0.1,1.5,0.1,2.3l-1,0.5
			c-0.6,0.3-0.9,1-0.6,1.6l0.6,1.3c0.3,0.6,1,0.9,1.6,0.6l1-0.5c0.5,0.6,1.1,1.1,1.7,1.5l-0.4,1c-0.1,0.3-0.1,0.6,0,0.9
			c0.1,0.3,0.4,0.5,0.7,0.6l1.3,0.5c0.3,0.1,0.6,0.1,0.9,0c0.3-0.1,0.5-0.4,0.6-0.7l0.4-1c0.8,0.1,1.5,0.1,2.3-0.1l0.5,1
			c0.3,0.6,1,0.9,1.6,0.6l1.3-0.6c0.6-0.3,0.9-1,0.6-1.6l-0.5-1c0.6-0.5,1.1-1.1,1.5-1.7l1,0.4c0.3,0.1,0.6,0.1,1,0
			c0.3-0.1,0.5-0.4,0.6-0.7l0.5-1.3C38.6,23.4,38.3,22.7,37.6,22.5z M30.8,25.7c-0.7,0.3-1.3,0.5-2.1,0.5c-1.9,0-3.7-1.1-4.5-2.9
			c-1.1-2.5-0.1-5.4,2.4-6.5c0.7-0.3,1.3-0.5,2.1-0.5c1.9,0,3.7,1.1,4.5,2.9C34.3,21.7,33.3,24.6,30.8,25.7z"/>
	</g>
</g>
</svg>
