<?xml version="1.0" encoding="utf-8"?>
<!-- Generator: Adobe Illustrator 18.0.0, SVG Export Plug-In . SVG Version: 6.00 Build 0)  -->
<!DOCTYPE svg PUBLIC "-//W3C//DTD SVG 1.1//EN" "http://www.w3.org/Graphics/SVG/1.1/DTD/svg11.dtd">
<svg version="1.1" id="Layer_1" xmlns="http://www.w3.org/2000/svg" xmlns:xlink="http://www.w3.org/1999/xlink" x="0px" y="0px"
	 viewBox="0 0 50 50" style="enable-background:new 0 0 50 50;" xml:space="preserve">
<style type="text/css">
	.st0{fill:#4C4646;}
	.st1{fill:none;stroke:#4C4646;stroke-miterlimit:10;}
</style>
<g>
	<path class="st0" d="M18.2,21.5c0-0.2,0.2-0.4,0.4-0.4H29c0.2,0,0.4,0.2,0.4,0.4s-0.2,0.4-0.4,0.4H18.6
		C18.4,21.9,18.2,21.7,18.2,21.5z M18.6,25.7H29c0.2,0,0.4-0.2,0.4-0.4s-0.2-0.4-0.4-0.4H18.6c-0.2,0-0.4,0.2-0.4,0.4
		S18.4,25.7,18.6,25.7z M23.1,28.6h-4.5c-0.2,0-0.4,0.2-0.4,0.4c0,0.2,0.2,0.4,0.4,0.4h4.5c0.2,0,0.4-0.2,0.4-0.4
		C23.6,28.8,23.4,28.6,23.1,28.6z M22.5,32.3h-3.9c-0.2,0-0.4,0.2-0.4,0.4c0,0.2,0.2,0.4,0.4,0.4h3.9c0.2,0,0.4-0.2,0.4-0.4
		C23,32.5,22.8,32.3,22.5,32.3z M34.8,32.8c0,3-2.5,5.5-5.5,5.5c-1.4,0-2.7-0.5-3.7-1.4c0,0,0,0,0,0H15.6c-0.2,0-0.4-0.2-0.4-0.4
		V16.1c0-0.2,0.2-0.4,0.4-0.4h3.7v-1.2c0-0.2,0.2-0.4,0.4-0.4h1.8c0,0,0,0,0,0c0-1.3,1-2.3,2.3-2.3s2.3,1,2.3,2.3c0,0,0,0,0,0h1.8
		c0.2,0,0.4,0.2,0.4,0.4v1.2H32c0.2,0,0.4,0.2,0.4,0.4v12.2C33.9,29.3,34.8,31,34.8,32.8z M20.1,17h7.3v-2.1h-1.8
		c-0.1,0-0.3-0.1-0.3-0.2s-0.1-0.2-0.1-0.4c0-0.1,0-0.2,0-0.3c0-0.8-0.7-1.5-1.5-1.5s-1.5,0.7-1.5,1.5c0,0.1,0,0.2,0,0.4
		c0,0.1,0,0.3-0.1,0.4s-0.2,0.2-0.3,0.2h-1.8C20.1,14.9,20.1,17,20.1,17z M16,36h8.9c-0.6-0.9-1-2-1-3.2c0-3,2.5-5.5,5.5-5.5
		c0.8,0,1.6,0.2,2.2,0.5V16.5h-3.2v0.9c0,0.2-0.2,0.4-0.4,0.4h-8.2c-0.2,0-0.4-0.2-0.4-0.4v-0.9H16L16,36L16,36z M34,32.8
		c0-2.5-2.1-4.6-4.6-4.6s-4.6,2.1-4.6,4.6s2.1,4.6,4.6,4.6S34,35.4,34,32.8z M31.8,31l-2.7,2.6l-1.8-1.4c-0.2-0.1-0.5-0.1-0.6,0.1
		c-0.1,0.2-0.1,0.5,0.1,0.6l2.1,1.7c0.1,0.1,0.2,0.1,0.3,0.1c0.1,0,0.2,0,0.3-0.1l2.9-2.8c0.2-0.2,0.2-0.4,0-0.6
		C32.2,30.9,31.9,30.9,31.8,31z"/>
	<circle class="st1" cx="25" cy="25" r="24.4"/>
</g>
</svg>
