<?xml version="1.0" encoding="utf-8"?>
<!-- Generator: Adobe Illustrator 15.0.0, SVG Export Plug-In  -->
<!DOCTYPE svg PUBLIC "-//W3C//DTD SVG 1.1//EN" "http://www.w3.org/Graphics/SVG/1.1/DTD/svg11.dtd" [
	<!ENTITY ns_flows "http://ns.adobe.com/Flows/1.0/">
]>
<svg version="1.1"
	 xmlns="http://www.w3.org/2000/svg" xmlns:xlink="http://www.w3.org/1999/xlink" xmlns:a="http://ns.adobe.com/AdobeSVGViewerExtensions/3.0/"
	 x="0px" y="0px" width="324px" height="208px" viewBox="0 0 324 208" style="enable-background:new 0 0 324 208;"
	 xml:space="preserve">
<style type="text/css">
<![CDATA[
	.st0{fill:#B2B2B2;}
	.st1{fill:#8AC8D2;}
	.st2{fill:#979898;}
	.st3{fill:#FDFDFE;}
	.st4{fill:#FFFFFF;}
	.st5{fill:#353535;}
	.st6{fill:#D25243;}
	.st7{fill:#3C5F42;}
]]>
</style>
<defs>
</defs>
<ellipse class="st7" cx="17.897" cy="93.788" rx="3.047" ry="3.491"/>
<path class="st5" d="M320.474,197.458c1.73,0,3.134-1.404,3.134-3.135v-36.828c0-1.73-1.403-3.134-3.134-3.134h-57.495
	c-1.73,0-3.133,1.403-3.133,3.134v36.827c0,1.731,1.402,3.134,3.133,3.134L320.474,197.458z M260.906,175.936
	c0-0.971,0.789-1.759,1.76-1.759c0.973,0,1.76,0.788,1.76,1.759c0,0.973-0.787,1.761-1.76,1.761
	C261.695,177.696,260.906,176.908,260.906,175.936 M265.563,195.478v-39.137h51.889v39.137H265.563z"/>
<path class="st6" d="M306.074,160.726c0,0.455-0.872,0.825-2.119,0.825H279.82c-1.248,0-2.44-0.37-2.44-0.825v-1.631
	c0-0.457,1.192-0.825,2.44-0.825h24.135c1.247,0,2.119,0.368,2.119,0.825V160.726z"/>
<path class="st1" d="M312.981,174.458c0,0.514-0.467,0.929-1.071,0.929h-39.506c-0.604,0-1.183-0.415-1.183-0.929v-8.701
	c0-0.513,0.578-0.93,1.183-0.93h39.506c0.604,0,1.071,0.417,1.071,0.93V174.458z"/>
<path class="st2" d="M282.036,184.739c0,0.558-0.442,1.011-1.105,1.011h-11.694c-0.664,0-1.297-0.453-1.297-1.011v-5.06
	c0-0.56,0.633-1.012,1.297-1.012h11.694c0.663,0,1.105,0.452,1.105,1.012V184.739z"/>
<path class="st2" d="M298.775,184.596c0,0.558-0.431,1.011-1.095,1.011h-11.695c-0.663,0-1.307-0.453-1.307-1.011v-5.06
	c0-0.56,0.644-1.012,1.307-1.012h11.695c0.664,0,1.095,0.452,1.095,1.012V184.596z"/>
<path class="st0" d="M298.775,187.518c0,0.233-0.129,0.387-0.397,0.387h-13.034c-0.269,0-0.665-0.153-0.665-0.387v-0.168
	c0-0.232,0.396-0.403,0.665-0.403h13.034c0.269,0,0.397,0.171,0.397,0.403V187.518z"/>
<path class="st0" d="M298.775,189.201c0,0.233-0.129,0.427-0.397,0.427h-13.034c-0.269,0-0.665-0.193-0.665-0.427v-0.166
	c0-0.233,0.396-0.365,0.665-0.365h13.034c0.269,0,0.397,0.132,0.397,0.365V189.201z"/>
<path class="st0" d="M298.775,190.887c0,0.233-0.129,0.463-0.397,0.463h-13.034c-0.269,0-0.665-0.229-0.665-0.463v-0.17
	c0-0.229,0.396-0.325,0.665-0.325h13.034c0.269,0,0.397,0.096,0.397,0.325V190.887z"/>
<path class="st0" d="M298.775,192.515c0,0.232-0.129,0.461-0.397,0.461h-13.034c-0.269,0-0.665-0.229-0.665-0.461v-0.168
	c0-0.233,0.396-0.327,0.665-0.327h13.034c0.269,0,0.397,0.094,0.397,0.327V192.515z"/>
<path class="st2" d="M315.514,184.596c0,0.558-0.431,1.011-1.095,1.011h-11.695c-0.663,0-1.307-0.453-1.307-1.011v-5.06
	c0-0.56,0.644-1.012,1.307-1.012h11.695c0.664,0,1.095,0.452,1.095,1.012V184.596z"/>
<path class="st0" d="M315.514,187.518c0,0.233-0.129,0.387-0.397,0.387h-13.034c-0.269,0-0.665-0.153-0.665-0.387v-0.168
	c0-0.232,0.396-0.403,0.665-0.403h13.034c0.269,0,0.397,0.171,0.397,0.403V187.518z"/>
<path class="st0" d="M315.514,189.201c0,0.233-0.129,0.427-0.397,0.427h-13.034c-0.269,0-0.665-0.193-0.665-0.427v-0.166
	c0-0.233,0.396-0.365,0.665-0.365h13.034c0.269,0,0.397,0.132,0.397,0.365V189.201z"/>
<path class="st0" d="M315.514,190.887c0,0.233-0.129,0.463-0.397,0.463h-13.034c-0.269,0-0.665-0.229-0.665-0.463v-0.17
	c0-0.229,0.396-0.325,0.665-0.325h13.034c0.269,0,0.397,0.096,0.397,0.325V190.887z"/>
<path class="st0" d="M315.514,192.515c0,0.232-0.129,0.461-0.397,0.461h-13.034c-0.269,0-0.665-0.229-0.665-0.461v-0.168
	c0-0.233,0.396-0.327,0.665-0.327h13.034c0.269,0,0.397,0.094,0.397,0.327V192.515z"/>
<path class="st0" d="M282.036,192.658c0,0.232-0.129,0.461-0.397,0.461h-13.035c-0.268,0-0.664-0.229-0.664-0.461v-0.168
	c0-0.233,0.396-0.327,0.664-0.327h13.035c0.269,0,0.397,0.094,0.397,0.327V192.658z"/>
<path class="st0" d="M281.844,187.661c0,0.233-0.095,0.387-0.364,0.387h-13.033c-0.269,0-0.507-0.153-0.507-0.387v-0.168
	c0-0.232,0.238-0.403,0.507-0.403h13.033c0.27,0,0.364,0.171,0.364,0.403V187.661z"/>
<path class="st0" d="M281.844,189.345c0,0.233-0.095,0.427-0.364,0.427h-13.033c-0.269,0-0.507-0.193-0.507-0.427v-0.166
	c0-0.233,0.238-0.365,0.507-0.365h13.033c0.27,0,0.364,0.132,0.364,0.365V189.345z"/>
<path class="st0" d="M281.844,191.03c0,0.233-0.095,0.463-0.364,0.463h-13.033c-0.269,0-0.507-0.229-0.507-0.463v-0.17
	c0-0.229,0.238-0.325,0.507-0.325h13.033c0.27,0,0.364,0.096,0.364,0.325V191.03z"/>
<ellipse class="st7" cx="20.944" cy="59.243" rx="2.892" ry="2.833"/>
<path class="st5" d="M251.241,0H72.667c-2.559,0-4.818,2.361-4.818,4.944v104.872c0,2.584,2.26,4.924,4.818,4.924h66.063h3.798
	h38.996h3.975h65.742c2.559,0,4.518-2.34,4.518-4.924V4.944C255.759,2.361,253.8,0,251.241,0 M247.997,106.426H75.055V8.314h172.942
	V106.426z"/>
<path class="st6" d="M191.054,18.766c0,0.798-1.78,1.444-4.323,1.444h-49.201c-2.545,0-4.976-0.646-4.976-1.444v-2.854
	c0-0.798,2.431-1.444,4.976-1.444h49.201c2.543,0,4.323,0.646,4.323,1.444V18.766z"/>
<path class="st1" d="M219.073,51.418c0,1.404-1.286,2.542-2.953,2.542H107.218c-1.667,0-3.262-1.138-3.262-2.542V27.616
	c0-1.404,1.595-2.542,3.262-2.542H216.12c1.667,0,2.953,1.138,2.953,2.542V51.418z"/>
<path class="st2" d="M139.171,74.515c0,1.405-1.114,2.542-2.781,2.542h-29.414c-1.669,0-3.264-1.137-3.264-2.542V61.786
	c0-1.404,1.595-2.542,3.264-2.542h29.414c1.667,0,2.781,1.139,2.781,2.542V74.515z"/>
<path class="st2" d="M178.028,74.515c0,1.405-1.086,2.542-2.753,2.542h-29.416c-1.667,0-3.289-1.137-3.289-2.542V61.786
	c0-1.404,1.622-2.542,3.289-2.542h29.416c1.667,0,2.753,1.139,2.753,2.542V74.515z"/>
<path class="st2" d="M218.829,74.515c0,1.405-1.286,2.542-2.953,2.542H186.46c-1.667,0-3.088-1.137-3.088-2.542V61.786
	c0-1.404,1.421-2.542,3.088-2.542h29.416c1.667,0,2.953,1.139,2.953,2.542V74.515z"/>
<path class="st0" d="M178.028,81.865c0,0.585-0.325,0.97-1.001,0.97h-32.784c-0.675,0-1.673-0.385-1.673-0.97v-0.423
	c0-0.586,0.998-1.015,1.673-1.015h32.784c0.676,0,1.001,0.428,1.001,1.015V81.865z"/>
<path class="st0" d="M178.028,86.103c0,0.585-0.325,1.066-1.001,1.066h-32.784c-0.675,0-1.673-0.481-1.673-1.066v-0.423
	c0-0.586,0.998-0.918,1.673-0.918h32.784c0.676,0,1.001,0.333,1.001,0.918V86.103z"/>
<path class="st0" d="M178.028,90.34c0,0.585-0.325,1.161-1.001,1.161h-32.784c-0.675,0-1.673-0.576-1.673-1.161v-0.424
	c0-0.585,0.998-0.822,1.673-0.822h32.784c0.676,0,1.001,0.237,1.001,0.822V90.34z"/>
<path class="st0" d="M178.028,94.579c0,0.585-0.325,1.256-1.001,1.256h-32.784c-0.675,0-1.673-0.671-1.673-1.256v-0.424
	c0-0.585,0.998-1.209,1.673-1.209h32.784c0.676,0,1.001,0.625,1.001,1.209V94.579z"/>
<path class="st0" d="M162,98.815c0,0.585-0.401,0.871-1.076,0.871h-16.681c-0.675,0-1.673-0.286-1.673-0.871v-0.423
	c0-0.586,0.998-1.113,1.673-1.113h16.681c0.675,0,1.076,0.527,1.076,1.113V98.815z"/>
<path class="st0" d="M217.858,81.865c0,0.585,0.107,0.97-0.568,0.97h-32.783c-0.675,0-1.135-0.385-1.135-0.97v-0.423
	c0-0.586,0.46-1.015,1.135-1.015h32.783c0.676,0,0.568,0.428,0.568,1.015V81.865z"/>
<path class="st0" d="M217.858,86.103c0,0.585,0.108,1.066-0.566,1.066h-32.785c-0.675,0-1.135-0.481-1.135-1.066v-0.423
	c0-0.586,0.46-0.918,1.135-0.918h32.785c0.675,0,0.566,0.333,0.566,0.918V86.103z"/>
<path class="st0" d="M217.858,90.34c0,0.585,0.108,1.161-0.566,1.161h-32.785c-0.675,0-1.135-0.576-1.135-1.161v-0.424
	c0-0.585,0.46-0.822,1.135-0.822h32.785c0.675,0,0.566,0.237,0.566,0.822V90.34z"/>
<path class="st0" d="M217.858,94.579c0,0.585,0.108,1.256-0.566,1.256h-32.785c-0.675,0-1.135-0.671-1.135-1.256v-0.424
	c0-0.585,0.46-1.209,1.135-1.209h32.785c0.675,0,0.566,0.625,0.566,1.209V94.579z"/>
<path class="st0" d="M201.83,98.815c0,0.585,0.031,0.871-0.644,0.871h-16.68c-0.675,0-1.135-0.286-1.135-0.871v-0.423
	c0-0.586,0.46-1.113,1.135-1.113h16.68c0.675,0,0.644,0.527,0.644,1.113V98.815z"/>
<path class="st0" d="M138.685,81.865c0,0.585-0.237,0.97-0.913,0.97h-32.783c-0.676,0-1.276-0.385-1.276-0.97v-0.423
	c0-0.586,0.601-1.015,1.276-1.015h32.783c0.676,0,0.913,0.428,0.913,1.015V81.865z"/>
<path class="st0" d="M138.685,86.103c0,0.585-0.237,1.066-0.913,1.066h-32.783c-0.676,0-1.276-0.481-1.276-1.066v-0.423
	c0-0.586,0.601-0.918,1.276-0.918h32.783c0.676,0,0.913,0.333,0.913,0.918V86.103z"/>
<path class="st0" d="M138.685,90.34c0,0.585-0.237,1.161-0.913,1.161h-32.783c-0.676,0-1.276-0.576-1.276-1.161v-0.424
	c0-0.585,0.601-0.822,1.276-0.822h32.783c0.676,0,0.913,0.237,0.913,0.822V90.34z"/>
<path class="st0" d="M138.685,94.579c0,0.585-0.237,1.256-0.913,1.256h-32.783c-0.676,0-1.276-0.671-1.276-1.256v-0.424
	c0-0.585,0.601-1.209,1.276-1.209h32.783c0.676,0,0.913,0.625,0.913,1.209V94.579z"/>
<path class="st0" d="M122.655,98.815c0,0.585-0.313,0.871-0.988,0.871h-16.679c-0.676,0-1.276-0.286-1.276-0.871v-0.423
	c0-0.586,0.601-1.113,1.276-1.113h16.679c0.675,0,0.988,0.527,0.988,1.113V98.815z"/>
<rect x="231.668" y="140.778" class="st4" width="40.532" height="58.656"/>
<path class="st5" d="M273.553,139.364c0-1.73-1.404-3.134-3.135-3.134H233.59c-1.73,0-3.134,1.403-3.134,3.134v57.495
	c0,1.73,1.403,3.133,3.134,3.133h36.827c1.731,0,3.134-1.402,3.134-3.133L273.553,139.364z M252.03,198.932
	c-0.971,0-1.759-0.789-1.759-1.76c0-0.973,0.788-1.76,1.759-1.76c0.973,0,1.761,0.787,1.761,1.76
	C253.791,198.143,253.003,198.932,252.03,198.932 M271.572,194.275h-39.137v-51.889h39.137V194.275z"/>
<path class="st6" d="M266.351,148.15c0,0.455-0.872,0.825-2.119,0.825h-24.135c-1.248,0-2.44-0.37-2.44-0.825v-1.631
	c0-0.457,1.192-0.825,2.44-0.825h24.135c1.247,0,2.119,0.368,2.119,0.825V148.15z"/>
<path class="st1" d="M269.534,164.266c0,0.708-0.392,1.28-0.899,1.28h-33.168c-0.508,0-0.993-0.572-0.993-1.28v-11.99
	c0-0.707,0.485-1.281,0.993-1.281h33.168c0.508,0,0.899,0.574,0.899,1.281V164.266z"/>
<path class="st2" d="M251.202,175.082c0,0.662-0.525,1.199-1.312,1.199h-13.877c-0.787,0-1.539-0.537-1.539-1.199v-6.004
	c0-0.664,0.752-1.2,1.539-1.2h13.877c0.786,0,1.312,0.536,1.312,1.2V175.082z"/>
<path class="st2" d="M269.534,175.082c0,0.662-0.512,1.199-1.3,1.199h-13.877c-0.787,0-1.551-0.537-1.551-1.199v-6.004
	c0-0.664,0.764-1.2,1.551-1.2h13.877c0.788,0,1.3,0.536,1.3,1.2V175.082z"/>
<path class="st0" d="M269.534,178.549c0,0.277-0.153,0.459-0.473,0.459h-15.466c-0.318,0-0.789-0.182-0.789-0.459v-0.199
	c0-0.275,0.471-0.479,0.789-0.479h15.466c0.319,0,0.473,0.203,0.473,0.479V178.549z"/>
<path class="st0" d="M269.534,180.547c0,0.277-0.153,0.506-0.473,0.506h-15.466c-0.318,0-0.789-0.229-0.789-0.506v-0.197
	c0-0.277,0.471-0.434,0.789-0.434h15.466c0.319,0,0.473,0.156,0.473,0.434V180.547z"/>
<path class="st0" d="M269.534,182.547c0,0.277-0.153,0.549-0.473,0.549h-15.466c-0.318,0-0.789-0.271-0.789-0.549v-0.201
	c0-0.273,0.471-0.387,0.789-0.387h15.466c0.319,0,0.473,0.113,0.473,0.387V182.547z"/>
<path class="st0" d="M269.534,184.479c0,0.275-0.153,0.547-0.473,0.547h-15.466c-0.318,0-0.789-0.271-0.789-0.547v-0.199
	c0-0.277,0.471-0.389,0.789-0.389h15.466c0.319,0,0.473,0.111,0.473,0.389V184.479z"/>
<path class="st0" d="M264.977,186.41c0,0.275-0.111,0.547-0.344,0.547h-11.252c-0.232,0-0.574-0.271-0.574-0.547v-0.201
	c0-0.275,0.342-0.389,0.574-0.389h11.252c0.232,0,0.344,0.113,0.344,0.389V186.41z"/>
<path class="st0" d="M251.202,184.479c0,0.275-0.153,0.547-0.472,0.547h-15.467c-0.318,0-0.789-0.271-0.789-0.547v-0.199
	c0-0.277,0.471-0.389,0.789-0.389h15.467c0.318,0,0.472,0.111,0.472,0.389V184.479z"/>
<path class="st0" d="M246.829,186.41c0,0.275-0.113,0.547-0.349,0.547h-11.424c-0.234,0-0.582-0.271-0.582-0.547v-0.201
	c0-0.275,0.348-0.389,0.582-0.389h11.424c0.235,0,0.349,0.113,0.349,0.389V186.41z"/>
<path class="st0" d="M250.974,178.549c0,0.277-0.112,0.459-0.432,0.459h-15.466c-0.318,0-0.602-0.182-0.602-0.459v-0.199
	c0-0.275,0.283-0.479,0.602-0.479h15.466c0.319,0,0.432,0.203,0.432,0.479V178.549z"/>
<path class="st0" d="M250.974,180.547c0,0.277-0.112,0.506-0.432,0.506h-15.466c-0.318,0-0.602-0.229-0.602-0.506v-0.197
	c0-0.277,0.283-0.434,0.602-0.434h15.466c0.319,0,0.432,0.156,0.432,0.434V180.547z"/>
<path class="st0" d="M250.974,182.547c0,0.277-0.112,0.549-0.432,0.549h-15.466c-0.318,0-0.602-0.271-0.602-0.549v-0.201
	c0-0.273,0.283-0.387,0.602-0.387h15.466c0.319,0,0.432,0.113,0.432,0.387V182.547z"/>
<ellipse class="st7" cx="35.926" cy="65.316" rx="2.892" ry="2.833"/>
<ellipse class="st7" cx="38.817" cy="48.684" rx="2.892" ry="2.833"/>
<path class="st5" d="M3.031,169.684c-1.674,0-3.031,1.355-3.031,3.031v14.967c0,1.672,1.357,3.029,3.031,3.029h35.005
	c1.674,0,3.031-1.357,3.031-3.029v-14.967c0-1.676-1.357-3.031-3.031-3.031H3.031z M3.48,178.096c0.264,0,0.48,0.213,0.48,0.477
	v3.248c0,0.266-0.217,0.479-0.48,0.479H3.451c-0.266,0-0.48-0.213-0.48-0.479v-3.248c0-0.264,0.215-0.477,0.48-0.477H3.48z
	 M39.376,180.258c0,1.094-0.885,1.979-1.98,1.979c-1.092,0-1.977-0.885-1.977-1.979c0-1.092,0.885-1.979,1.977-1.979
	C38.491,178.279,39.376,179.166,39.376,180.258 M33.892,171.168v18.059H6.928v-18.059H33.892z"/>
<path class="st2" d="M19.299,184.469c0,0.288-0.275,0.521-0.688,0.521h-7.283c-0.413,0-0.808-0.233-0.808-0.521v-2.609
	c0-0.288,0.395-0.521,0.808-0.521h7.283c0.413,0,0.688,0.233,0.688,0.521V184.469z"/>
<path class="st2" d="M29.724,184.395c0,0.287-0.269,0.521-0.682,0.521h-7.283c-0.413,0-0.814-0.234-0.814-0.521v-2.609
	c0-0.288,0.401-0.521,0.814-0.521h7.283c0.414,0,0.682,0.233,0.682,0.521V184.395z"/>
<path class="st0" d="M29.724,185.901c0,0.12-0.081,0.2-0.248,0.2h-8.117c-0.167,0-0.415-0.08-0.415-0.2v-0.087
	c0-0.12,0.247-0.208,0.415-0.208h8.117c0.167,0,0.248,0.088,0.248,0.208V185.901z"/>
<path class="st0" d="M29.724,186.77c0,0.12-0.081,0.221-0.248,0.221h-8.117c-0.167,0-0.415-0.101-0.415-0.221v-0.085
	c0-0.121,0.247-0.189,0.415-0.189h8.117c0.167,0,0.248,0.068,0.248,0.189V186.77z"/>
<path class="st0" d="M29.724,187.639c0,0.12-0.081,0.238-0.248,0.238h-8.117c-0.167,0-0.415-0.118-0.415-0.238v-0.088
	c0-0.118,0.247-0.167,0.415-0.167h8.117c0.167,0,0.248,0.049,0.248,0.167V187.639z"/>
<path class="st0" d="M19.179,185.976c0,0.12-0.06,0.199-0.227,0.199h-8.117c-0.167,0-0.316-0.079-0.316-0.199v-0.087
	c0-0.12,0.148-0.208,0.316-0.208h8.117c0.167,0,0.227,0.088,0.227,0.208V185.976z"/>
<path class="st0" d="M19.179,186.844c0,0.12-0.06,0.221-0.227,0.221h-8.117c-0.167,0-0.316-0.101-0.316-0.221v-0.086
	c0-0.12,0.148-0.188,0.316-0.188h8.117c0.167,0,0.227,0.068,0.227,0.188V186.844z"/>
<path class="st0" d="M19.179,187.713c0,0.12-0.06,0.238-0.227,0.238h-8.117c-0.167,0-0.316-0.118-0.316-0.238v-0.087
	c0-0.119,0.148-0.168,0.316-0.168h8.117c0.167,0,0.227,0.049,0.227,0.168V187.713z"/>
<path class="st1" d="M30.492,179.659c0,0.298-0.232,0.539-0.533,0.538H10.336c-0.298,0-0.585-0.24-0.585-0.539v-5.046
	c0-0.297,0.288-0.539,0.585-0.539h19.623c0.301,0.001,0.533,0.243,0.533,0.54V179.659z"/>
<rect x="6.928" y="171.168" class="st6" width="26.964" height="2.131"/>
<ellipse class="st7" cx="28.226" cy="25.543" rx="2.892" ry="2.833"/>
<rect x="29.396" y="157.835" class="st3" width="18.75" height="33.541"/>
<path class="st5" d="M49.312,154.698c0-1.674-1.355-3.031-3.031-3.031H31.313c-1.672,0-3.029,1.357-3.029,3.031v35.005
	c0,1.674,1.357,3.031,3.029,3.031H46.28c1.676,0,3.031-1.357,3.031-3.031V154.698z M40.899,155.147c0,0.264-0.213,0.48-0.477,0.48
	h-3.248c-0.266,0-0.479-0.217-0.479-0.48v-0.029c0-0.266,0.213-0.48,0.479-0.48h3.248c0.264,0,0.477,0.215,0.477,0.48V155.147z
	 M38.737,191.043c-1.094,0-1.979-0.885-1.979-1.98c0-1.092,0.885-1.977,1.979-1.977c1.092,0,1.979,0.885,1.979,1.977
	C40.716,190.158,39.829,191.043,38.737,191.043 M47.827,185.559H29.769v-26.964h18.059V185.559z"/>
<path class="st6" d="M46.573,161.478c0,0.291-0.473,0.525-1.148,0.525H32.347c-0.678,0-1.322-0.234-1.322-0.525v-1.041
	c0-0.291,0.645-0.525,1.322-0.525h13.078c0.676,0,1.148,0.234,1.148,0.525V161.478z"/>
<path class="st1" d="M46.481,170.634c0,0.393-0.172,0.709-0.395,0.709H31.552c-0.221,0-0.434-0.316-0.434-0.709v-6.639
	c0-0.391,0.213-0.709,0.434-0.709h14.535c0.223,0,0.395,0.318,0.395,0.709V170.634z"/>
<path class="st2" d="M46.517,176.801c0,0.391-0.473,0.705-1.195,0.705H32.546c-0.725,0-1.428-0.314-1.428-0.705v-3.529
	c0-0.389,0.703-0.705,1.428-0.705h12.775c0.723,0,1.195,0.316,1.195,0.705V176.801z"/>
<path class="st2" d="M46.499,182.961c0,0.391-0.473,0.705-1.195,0.705H32.528c-0.725,0-1.43-0.314-1.43-0.705v-3.527
	c0-0.391,0.705-0.705,1.43-0.705h12.775c0.723,0,1.195,0.314,1.195,0.705V182.961z"/>
<ellipse id="Krug_1_" class="st7" cx="43.821" cy="22.876" rx="2.753" ry="2.667"/>
<path class="st5" d="M206.599,205.485v-3.142c0-0.749-0.389-0.95-1.137-0.95h-13.367V130.49c0-1.499-0.727-2.354-2.225-2.354H82.768
	c-1.498,0-2.978,0.855-2.978,2.354v70.903H67.854c-0.748,0-1.451,0.201-1.451,0.95v3.142h0.096c0,0,3.39,2.601,5.422,2.601h129.474
	c2.033,0,5.061-2.335,5.061-2.335L206.599,205.485z M188.376,196.931H84.253v-63.589h104.123V196.931z"/>
<path class="st0" d="M148.858,203.625h-24.402c-2.034,0-2.034-2.231-2.034-2.231h28.471
	C150.893,201.394,150.893,203.625,148.858,203.625"/>
<path class="st6" d="M154.546,141.516c0,0.406-1.073,0.76-2.662,0.76h-30.656c-1.59,0-3.146-0.354-3.146-0.76v-1.469
	c0-0.404,1.556-0.766,3.146-0.766h30.656c1.589,0,2.662,0.361,2.662,0.766V141.516z"/>
<path class="st1" d="M167.366,161.688c0,0.906-0.733,1.643-1.641,1.643h-59.191c-0.906,0-1.643-0.736-1.643-1.643v-15.31
	c0-0.906,0.736-1.643,1.643-1.643h59.191c0.907,0,1.641,0.736,1.641,1.643V161.688z"/>
<path class="st2" d="M124.415,176.353c0,0.907-0.767,1.613-1.676,1.613h-15.866c-0.908,0-1.798-0.706-1.798-1.613v-8.207
	c0-0.905,0.89-1.71,1.798-1.71h15.866c0.909,0,1.676,0.805,1.676,1.71V176.353z"/>
<path class="st2" d="M145.611,176.325c0,0.904-0.734,1.641-1.642,1.641h-15.683c-0.906,0-1.643-0.736-1.643-1.641v-8.247
	c0-0.905,0.736-1.643,1.643-1.643h15.683c0.907,0,1.642,0.737,1.642,1.643V176.325z"/>
<path class="st2" d="M167.179,176.325c0,0.904-0.733,1.641-1.639,1.641h-15.685c-0.906,0-1.643-0.736-1.643-1.641v-8.247
	c0-0.905,0.736-1.643,1.643-1.643h15.685c0.905,0,1.639,0.737,1.639,1.643V176.325z"/>
<path class="st0" d="M145.611,181.143c0,0.376-0.187,0.542-0.554,0.542h-17.822c-0.367,0-0.591-0.166-0.591-0.542v-0.274
	c0-0.378,0.224-0.671,0.591-0.671h17.822c0.367,0,0.554,0.293,0.554,0.671V181.143z"/>
<path class="st0" d="M145.611,183.875c0,0.38-0.187,0.784-0.554,0.784h-17.822c-0.367,0-0.591-0.404-0.591-0.784v-0.271
	c0-0.378,0.224-0.803,0.591-0.803h17.822c0.367,0,0.554,0.425,0.554,0.803V183.875z"/>
<path class="st0" d="M145.611,186.613c0,0.379-0.187,1.021-0.554,1.021h-17.822c-0.367,0-0.591-0.643-0.591-1.021v-0.273
	c0-0.378,0.224-0.937,0.591-0.937h17.822c0.367,0,0.554,0.559,0.554,0.937V186.613z"/>
<path class="st0" d="M145.611,189.351c0,0.375-0.187,0.888-0.554,0.888h-17.822c-0.367,0-0.591-0.513-0.591-0.888v-0.273
	c0-0.379,0.224-0.7,0.591-0.7h17.822c0.367,0,0.554,0.321,0.554,0.7V189.351z"/>
<path class="st0" d="M136.686,192.085c0,0.378-0.016,0.754-0.384,0.754h-9.066c-0.367,0-0.591-0.376-0.591-0.754v-0.273
	c0-0.378,0.224-0.828,0.591-0.828h9.066c0.368,0,0.384,0.45,0.384,0.828V192.085z"/>
<path class="st0" d="M167.552,181.143c0,0.376-0.238,0.542-0.607,0.542h-17.821c-0.368,0-0.91-0.166-0.91-0.542v-0.274
	c0-0.378,0.542-0.671,0.91-0.671h17.821c0.369,0,0.607,0.293,0.607,0.671V181.143z"/>
<path class="st0" d="M167.552,183.875c0,0.38-0.238,0.784-0.607,0.784h-17.821c-0.368,0-0.91-0.404-0.91-0.784v-0.271
	c0-0.378,0.542-0.803,0.91-0.803h17.821c0.369,0,0.607,0.425,0.607,0.803V183.875z"/>
<path class="st0" d="M167.552,186.613c0,0.379-0.238,1.021-0.607,1.021h-17.821c-0.368,0-0.91-0.643-0.91-1.021v-0.273
	c0-0.378,0.542-0.937,0.91-0.937h17.821c0.369,0,0.607,0.559,0.607,0.937V186.613z"/>
<path class="st0" d="M167.552,189.351c0,0.375-0.238,0.888-0.607,0.888h-17.821c-0.368,0-0.91-0.513-0.91-0.888v-0.273
	c0-0.379,0.542-0.7,0.91-0.7h17.821c0.369,0,0.607,0.321,0.607,0.7V189.351z"/>
<path class="st0" d="M158.999,192.085c0,0.378-0.441,0.754-0.807,0.754h-9.069c-0.368,0-0.91-0.376-0.91-0.754v-0.273
	c0-0.378,0.542-0.828,0.91-0.828h9.069c0.365,0,0.807,0.45,0.807,0.828V192.085z"/>
<path class="st0" d="M124.415,181.143c0,0.376-0.33,0.542-0.696,0.542h-17.824c-0.367,0-0.819-0.166-0.819-0.542v-0.274
	c0-0.378,0.452-0.671,0.819-0.671h17.824c0.366,0,0.696,0.293,0.696,0.671V181.143z"/>
<path class="st0" d="M124.415,183.875c0,0.38-0.33,0.784-0.696,0.784h-17.824c-0.367,0-0.819-0.404-0.819-0.784v-0.271
	c0-0.378,0.452-0.803,0.819-0.803h17.824c0.366,0,0.696,0.425,0.696,0.803V183.875z"/>
<path class="st0" d="M124.415,186.613c0,0.379-0.33,1.021-0.696,1.021h-17.824c-0.367,0-0.819-0.643-0.819-1.021v-0.273
	c0-0.378,0.452-0.937,0.819-0.937h17.824c0.366,0,0.696,0.559,0.696,0.937V186.613z"/>
<path class="st0" d="M124.415,189.351c0,0.375-0.33,0.888-0.696,0.888h-17.824c-0.367,0-0.819-0.513-0.819-0.888v-0.273
	c0-0.379,0.452-0.7,0.819-0.7h17.824c0.366,0,0.696,0.321,0.696,0.7V189.351z"/>
<path class="st0" d="M115.488,192.085c0,0.378-0.161,0.754-0.526,0.754h-9.067c-0.367,0-0.819-0.376-0.819-0.754v-0.273
	c0-0.378,0.452-0.828,0.819-0.828h9.067c0.365,0,0.526,0.45,0.526,0.828V192.085z"/>
</svg>
