<?xml version="1.0" encoding="utf-8"?>
<!-- Generator: Adobe Illustrator 15.0.0, SVG Export Plug-In  -->
<!DOCTYPE svg PUBLIC "-//W3C//DTD SVG 1.1//EN" "http://www.w3.org/Graphics/SVG/1.1/DTD/svg11.dtd" [
	<!ENTITY ns_flows "http://ns.adobe.com/Flows/1.0/">
]>
<svg version="1.1"
	 xmlns="http://www.w3.org/2000/svg" xmlns:xlink="http://www.w3.org/1999/xlink" xmlns:a="http://ns.adobe.com/AdobeSVGViewerExtensions/3.0/"
	 x="0px" y="0px" width="102px" height="48px" viewBox="0 0 102 48" style="enable-background:new 0 0 102 48;"
	 xml:space="preserve">

	<ellipse class="svg_light_broun_stroke" cx="75" cy="25" rx="24.4" ry="24.4"/>
<path id="test_path" class="svg_light_broun" d="M87.4,13.5c-0.1-0.4-0.5-0.7-0.9-0.5l-3,0.8c-0.3,0.1-0.5,0.3-0.6,0.6l-0.4,2.4L63.9,19l0,0c0,0,0,0-0.1,0
	c0,0-0.1,0-0.1,0.1c0,0-0.1,0-0.1,0.1c-0.1,0-0.1,0.1-0.1,0.1s0,0-0.1,0.1l0,0c-0.1,0-0.1,0-0.1,0.1c0,0,0,0,0,0.1s0,0.2,0,0.3
	l2.2,9.1l0.8,3c0,0,0,0,0,0.1v0.1l0.1,0.1c0,0,0,0.1,0.1,0.1l0.1,0.1h0.1c0.1,0,0.2,0.1,0.3,0.1h15.9c0.4,0,0.8-0.3,0.8-0.8
	c0-0.4-0.3-0.8-0.8-0.8H67.6l-0.4-1.5h14.1c0.1,0,0.2,0,0.3,0c0,0,0.1,0,0.1-0.1c0,0,0.1,0,0.1-0.1c0,0,0-0.1,0.1-0.1l0.1-0.1V29
	v-0.1l0,0l0,0L84.3,15l2.5-0.6C87.2,14.3,87.5,13.9,87.4,13.5z M66.8,28l-1.9-7.7l2.4-0.2l1.1,7.9H66.8z M69.9,28l-1.2-8.1l2.4-0.3
	l0.4,8.4H69.9z M74.6,28H73l-0.4-8.6l2.4-0.3L74.6,28z M77.7,28h-1.6l0.4-9l2.3-0.3L77.7,28z M80.7,28h-1.5l1.2-9.5l1.6-0.2L80.7,28
	z M70,34.1c-0.8,0-1.5,0.7-1.5,1.5s0.7,1.5,1.5,1.5c0.8,0,1.5-0.7,1.5-1.5S70.9,34.1,70,34.1z M79.8,34.1c-0.8,0-1.5,0.7-1.5,1.5
	s0.7,1.5,1.5,1.5c0.8,0,1.5-0.7,1.5-1.5C81.4,34.7,80.7,34.1,79.8,34.1z"/>

</svg>
