<?xml version="1.0" encoding="utf-8"?>
<!-- Generator: Adobe Illustrator 15.0.0, SVG Export Plug-In  -->
<!DOCTYPE svg PUBLIC "-//W3C//DTD SVG 1.1//EN" "http://www.w3.org/Graphics/SVG/1.1/DTD/svg11.dtd" [
	<!ENTITY ns_flows "http://ns.adobe.com/Flows/1.0/">
]>
<svg version="1.1"
	 xmlns="http://www.w3.org/2000/svg" xmlns:xlink="http://www.w3.org/1999/xlink" xmlns:a="http://ns.adobe.com/AdobeSVGViewerExtensions/3.0/"
	 x="0px" y="0px" width="102px" height="48px" viewBox="0 0 102 48" style="enable-background:new 0 0 102 48;"
	 xml:space="preserve">

<defs>

	<symbol id="Arow">
<path class="style0" d="M20.246,41.386C10.883,32.061,5.728,19.667,5.728,6.49c0-1.989,0.123-4.006,0.366-5.995L6.163,0H0v0.901h5.146
	C4.94,2.759,4.83,4.636,4.83,6.49c0,13.248,5.138,25.753,14.468,35.214l0.066,0.067h1.268L20.246,41.386z"/>
<path class="style0" d="M81.15,41.386c9.363-9.325,14.518-21.719,14.518-34.896c0-1.989-0.122-4.006-0.365-5.995L95.232,0H102v0.901
	h-5.75c0.206,1.858,0.316,3.735,0.316,5.589c0,13.248-5.14,25.753-14.469,35.214l-0.066,0.067h-1.266L81.15,41.386z"/>
<polygon class="style1" points="50.76,32.574 31.467,17.215 29.516,18.768 50.76,35.682 72.004,18.768 70.053,17.215 "/>
<polygon class="style1" points="50.76,19.9 31.467,4.541 29.516,6.094 50.76,23.007 72.004,6.094 70.053,4.541 "/>
</symbol>

</defs>

</svg>
