<?xml version="1.0" encoding="utf-8"?>
<!-- Generator: Adobe Illustrator 18.0.0, SVG Export Plug-In . SVG Version: 6.00 Build 0)  -->
<!DOCTYPE svg PUBLIC "-//W3C//DTD SVG 1.1//EN" "http://www.w3.org/Graphics/SVG/1.1/DTD/svg11.dtd">
<svg version="1.1" id="Слой_1" xmlns="http://www.w3.org/2000/svg" xmlns:xlink="http://www.w3.org/1999/xlink" x="0px" y="0px"
	 viewBox="0 0 150 50" style="enable-background:new 0 0 150 50;" xml:space="preserve">
<defs>
	<clipPath id="arrow_left_icon">
		<path class="st0" d="M26.4,50c-0.9,0-1.8-0.3-2.5-1L0.4,31.1c-0.2-0.2-0.4-0.4-0.4-0.7s0-0.5,0.2-0.8l4.7-6.3L5,23.8
	c0.1,0.5,0,1.1-0.3,1.5L1.2,30c-0.1,0.1-0.1,0.3,0.1,0.4l23.3,17.8c0.9,0.8,2.1,1,3.1,0.4l11.6-6.8c4.2-2.5,9.1-3.8,14-3.8H150v1
	H53.2c-4.7,0-9.3,1.2-13.3,3.6l-11.7,6.8C27.6,49.8,27,50,26.4,50z"/>
	</clipPath>
</defs>

</svg>
