<?xml version="1.0" encoding="utf-8"?>
<!-- Generator: Adobe Illustrator 15.0.0, SVG Export Plug-In  -->
<!DOCTYPE svg PUBLIC "-//W3C//DTD SVG 1.1//EN" "http://www.w3.org/Graphics/SVG/1.1/DTD/svg11.dtd" [
	<!ENTITY ns_flows "http://ns.adobe.com/Flows/1.0/">
]>
<svg version="1.1"
	 xmlns="http://www.w3.org/2000/svg" xmlns:xlink="http://www.w3.org/1999/xlink" xmlns:a="http://ns.adobe.com/AdobeSVGViewerExtensions/3.0/"
	 x="0px" y="0px" width="208px" height="180px" viewBox="0 0 208 180" enable-background="new 0 0 208 180" xml:space="preserve">
<defs>
</defs>
<rect fill="#EDEFED" width="208" height="180"/>
<path fill="#266031" d="M166.696,81.462c-0.374-0.416-0.878-0.638-1.461-0.638c-0.897,0-1.716,0.523-1.808,0.582
	c-0.242,0.166-0.381,0.454-0.336,0.747c0.582,4.342-0.647,5.15-1.633,5.802c-0.595,0.388-1.267,0.832-1.396,1.788
	c-0.073,0.564,0.039,1.023,0.326,1.364c0.199,0.221,0.564,0.487,1.211,0.487c0.8,0,1.738-0.418,2.065-0.571
	c0.695-0.146,3.062-1.005,3.646-5.937C167.506,83.347,167.312,82.157,166.696,81.462z"/>
<path fill="#266031" d="M162.321,82.503c-0.248-0.133-0.554-0.127-0.789,0.023c-0.01,0.004-1.083,0.645-3.002,0.645
	c-0.354,0-0.719-0.021-1.094-0.065c-0.396-0.046-0.745,0.2-0.839,0.578c-0.457,1.812-1.605,4.325-2.58,4.325
	c-0.406,0-0.938-0.455-1.485-1.271c-0.194-0.283-0.548-0.408-0.868-0.309s-0.55,0.398-0.55,0.741c0,1.959,0.733,5.28,3.485,5.28
	c1.345,0,2.925-0.836,4.812-2.542c1.331-1.198,3.295-4.163,3.295-6.729C162.717,82.902,162.557,82.641,162.321,82.503z"/>
<path fill="#266031" d="M112.048,59.269c0.305,0.166,33.157,17.624,40.7,21.566c2.358,1.234,4.483,1.856,6.307,1.856
	c3.33,0,4.55-2.077,4.6-2.161c0.105-0.18,0.133-0.398,0.063-0.594c-0.045-0.202-0.188-0.37-0.371-0.468l-49.128-26.337
	c-0.229-0.131-0.515-0.127-0.746,0.004l-2.603,1.476c-1.104,0.628-1.326,1.38-1.311,1.898C109.607,58,111.638,59.073,112.048,59.269
	z"/>
<path fill="#266031" d="M153.031,82.87c0.178-0.17,0.268-0.417,0.229-0.659c-0.035-0.246-0.179-0.46-0.397-0.575L112.49,59.885
	c-0.379-0.198-0.84-0.065-1.042,0.307l-1.388,2.515c-0.188,0.337-0.103,0.76,0.222,0.993C115.1,67.315,115,71.935,115,71.985
	c-0.018,0.296,0.146,0.568,0.4,0.707l33.792,17.935c0.112,0.061,0.229,0.09,0.358,0.09c0.174,0,0.353-0.061,0.486-0.177
	c0.24-0.2,0.331-0.52,0.246-0.819C149.309,86.483,152.994,82.91,153.031,82.87z"/>
<path fill="#266031" d="M134.806,84.289c0.037-0.305-0.133-0.595-0.396-0.741l-11.354-6.155c-0.323-0.178-0.732-0.093-0.976,0.197
	c-0.104,0.131-2.58,3.255-2.133,6.796c0.238,1.901,1.271,3.543,3.051,4.875c1.308,0.973,2.658,1.465,4.039,1.465
	C131.47,90.726,134.705,85.578,134.806,84.289z M126.763,87.422c-1.479,0-2.674-1.201-2.674-2.68c0-1.48,1.193-2.676,2.674-2.676
	c1.479,0,2.682,1.196,2.682,2.676C129.443,86.221,128.241,87.422,126.763,87.422z"/>
<circle fill="#266031" cx="126.763" cy="84.744" r="1.135"/>
<path fill="#266031" d="M129.443,91.678c0-0.431-0.345-0.771-0.774-0.771h-3.813c-0.316,0-0.602,0.194-0.719,0.489
	c-0.058,0.152-1.561,3.754-6.816,3.754h-11.878v-2.694c0-0.418-0.335-0.759-0.754-0.773l-3.645-0.082
	c-0.188,0-0.405,0.072-0.553,0.22c-0.147,0.141-0.231,0.343-0.231,0.556v3.386c-0.125-0.156-0.232-0.326-0.363-0.484v-5.313
	c0-0.425-0.344-0.771-0.772-0.771h-4.286c-0.428,0-0.772,0.345-0.772,0.771v1.146c-1.478-0.548-3.066-0.862-4.728-0.862
	c-3.827,0-7.501,1.626-10.082,4.455l2.851,2.601c1.85-2.031,4.486-3.197,7.231-3.197c5.39,0,9.775,4.382,9.775,9.771
	c0,1.288-0.243,2.532-0.729,3.709l3.569,1.465c0.677-1.639,1.015-3.384,1.015-5.174c0-0.43-0.026-0.854-0.063-1.279h1.874
	c0.211,0,0.401-0.082,0.55-0.226c0.146-0.146,0.228-0.348,0.224-0.561l-0.021-1.838l12.34,0.022
	C123.204,99.984,129.443,97.813,129.443,91.678z"/>
<path fill="#266031" d="M156.184,94.389c-0.506,0.287-1.1,0.481-1.687,0.465c-0.257,0.063-0.536,0.053-0.798-0.023
	c-0.004,0-0.009,0.006-0.014,0.006c-0.141,0-0.284-0.034-0.418-0.104L142.28,88.9c0.323,0.281,0.655,0.576,0.977,0.875
	c0.604,0.49,1.211,0.984,1.777,1.517c0.274,0.234,0.546,0.488,0.813,0.746c0.024,0.017,0.045,0.031,0.051,0.044
	c0.031,0.016,0.051,0.024,0.076,0.041c0.25,0.207,0.482,0.418,0.703,0.646c0.17,0.149,0.351,0.293,0.517,0.455
	c0.022,0.022,0.043,0.043,0.056,0.078c3.225,2.871,5.246,7.063,5.172,11.707c-0.129,8.356-7.026,15.166-15.392,15.166h-0.31
	l-70.845,0.269c-10.5-0.18-18.908-8.863-18.752-19.363c0.164-10.362,8.713-18.787,19.068-18.787l0.303,0.002
	c2.471,0.038,4.878,0.551,7.179,1.524l3.16,1.343l1.175-3.228c3.822-10.446,13.832-17.462,24.916-17.462l0.418,0.004
	c2.365,0.036,4.662,0.394,6.833,1.008c0.058-0.019,0.111-0.025,0.17-0.019c0.021-0.002,0.027-0.01,0.045-0.021
	c-0.012-0.042-0.021-0.078-0.022-0.116c-0.465-0.458-0.963-0.907-1.544-1.345c-0.146-0.107-0.227-0.258-0.278-0.417
	c-0.1-0.091-0.197-0.178-0.299-0.274c-0.045-0.049-0.068-0.099-0.095-0.15c-0.029-0.038-0.055-0.069-0.085-0.104
	c-0.028-0.03-0.043-0.05-0.072-0.083l0,0c-0.021-0.026-0.043-0.046-0.06-0.072c-0.157-0.243-0.188-0.567-0.035-0.834l1.441-2.618
	c0.025-0.04,0.053-0.068,0.082-0.099c0-0.002,0.004-0.004,0.004-0.009c0.004-0.008,0.015-0.015,0.017-0.027
	c0.006,0,0.006-0.004,0.006-0.006c0,0,0.004-0.004,0.004-0.008c0.077-0.167,0.173-0.32,0.266-0.48v-0.108
	c-0.008-0.008-0.01-0.019-0.02-0.029c-2.021-0.421-4.103-0.671-6.239-0.705l-0.526-0.002c-12.733,0-24.322,7.425-29.789,18.772
	c-2.126-0.599-4.31-0.919-6.539-0.952l-0.402-0.004c-13.893,0-25.371,11.307-25.585,25.206
	c-0.222,14.113,11.083,25.768,25.199,25.984h0.034l70.84-0.281h0.354c11.891,0,21.725-9.683,21.911-21.578
	c0.049-3.344-0.662-6.531-1.959-9.389C156.665,95.325,156.405,94.87,156.184,94.389z"/>
</svg>
