<?xml version="1.0" encoding="utf-8"?>
<!-- Generator: Adobe Illustrator 15.0.0, SVG Export Plug-In  -->
<!DOCTYPE svg PUBLIC "-//W3C//DTD SVG 1.1//EN" "http://www.w3.org/Graphics/SVG/1.1/DTD/svg11.dtd" [
	<!ENTITY ns_flows "http://ns.adobe.com/Flows/1.0/">
]>
<svg version="1.1"
	 xmlns="http://www.w3.org/2000/svg" xmlns:xlink="http://www.w3.org/1999/xlink" xmlns:a="http://ns.adobe.com/AdobeSVGViewerExtensions/3.0/"
	 x="0px" y="0px" width="208px" height="180px" viewBox="-40.615 -53.034 208 180" enable-background="new -40.615 -53.034 208 180"
	 xml:space="preserve">
<defs>
</defs>
<path fill="#266031" d="M126.083,28.428c-0.374-0.416-0.878-0.638-1.461-0.638c-0.897,0-1.716,0.523-1.808,0.582
	c-0.242,0.166-0.381,0.454-0.336,0.747c0.582,4.342-0.647,5.15-1.633,5.802c-0.594,0.388-1.266,0.832-1.396,1.788
	c-0.073,0.564,0.039,1.023,0.326,1.364c0.199,0.221,0.565,0.487,1.211,0.487c0.8,0,1.738-0.418,2.066-0.571
	c0.695-0.146,3.061-1.005,3.645-5.937C126.893,30.312,126.698,29.122,126.083,28.428z"/>
<path fill="#266031" d="M121.708,29.469c-0.248-0.133-0.553-0.127-0.789,0.023c-0.01,0.004-1.083,0.645-3.002,0.645
	c-0.355,0-0.719-0.021-1.094-0.065c-0.396-0.046-0.745,0.2-0.838,0.578c-0.457,1.812-1.606,4.325-2.58,4.325
	c-0.407,0-0.938-0.455-1.486-1.271c-0.195-0.283-0.548-0.408-0.868-0.309c-0.321,0.099-0.55,0.398-0.55,0.741
	c0,1.959,0.734,5.28,3.486,5.28c1.344,0,2.924-0.836,4.811-2.543c1.331-1.198,3.295-4.163,3.295-6.729
	C122.104,29.867,121.944,29.606,121.708,29.469z"/>
<path fill="#266031" d="M71.434,6.234C71.739,6.4,104.592,23.858,112.135,27.8c2.358,1.234,4.483,1.856,6.307,1.856
	c3.33,0,4.549-2.077,4.599-2.161c0.106-0.18,0.133-0.398,0.063-0.594c-0.045-0.202-0.189-0.37-0.371-0.468L73.604,0.096
	C73.375-0.035,73.09-0.031,72.858,0.1l-2.602,1.476c-1.105,0.628-1.327,1.38-1.311,1.898C68.994,4.966,71.024,6.038,71.434,6.234z"
	/>
<path fill="#266031" d="M112.418,29.835c0.178-0.17,0.268-0.417,0.229-0.659c-0.035-0.246-0.179-0.46-0.398-0.575L71.877,6.85
	c-0.379-0.198-0.84-0.065-1.042,0.307l-1.388,2.515c-0.188,0.337-0.103,0.76,0.222,0.993c4.817,3.615,4.717,8.235,4.717,8.285
	c-0.017,0.296,0.146,0.568,0.401,0.707l33.792,17.936c0.112,0.06,0.229,0.089,0.358,0.089c0.174,0,0.353-0.06,0.487-0.176
	c0.24-0.201,0.331-0.52,0.246-0.82C108.696,33.448,112.381,29.875,112.418,29.835z"/>
<path fill="#266031" d="M94.192,31.254c0.037-0.305-0.133-0.595-0.396-0.741l-11.354-6.155c-0.323-0.178-0.732-0.093-0.975,0.197
	c-0.105,0.131-2.581,3.255-2.133,6.796c0.238,1.901,1.27,3.543,3.051,4.875c1.307,0.973,2.658,1.465,4.039,1.465
	C90.856,37.691,94.092,32.543,94.192,31.254z M86.149,34.387c-1.479,0-2.674-1.201-2.674-2.68c0-1.48,1.194-2.676,2.674-2.676
	c1.48,0,2.682,1.196,2.682,2.676C88.83,33.186,87.628,34.387,86.149,34.387z"/>
<circle fill="#266031" cx="86.149" cy="31.709" r="1.135"/>
<path fill="#266031" d="M88.83,38.643c0-0.43-0.345-0.771-0.775-0.771h-3.813c-0.316,0-0.602,0.194-0.719,0.489
	c-0.057,0.152-1.56,3.754-6.816,3.754H64.829v-2.694c0-0.418-0.335-0.759-0.754-0.774l-3.646-0.082c-0.188,0-0.405,0.072-0.552,0.22
	c-0.148,0.141-0.232,0.343-0.232,0.556v3.385c-0.125-0.156-0.232-0.326-0.363-0.484v-5.313c0-0.425-0.344-0.771-0.772-0.771h-4.287
	c-0.427,0-0.772,0.345-0.772,0.771v1.146c-1.478-0.548-3.066-0.862-4.728-0.862c-3.827,0-7.501,1.627-10.082,4.455l2.851,2.6
	c1.85-2.031,4.486-3.197,7.231-3.197c5.39,0,9.776,4.382,9.776,9.771c0,1.288-0.243,2.532-0.729,3.709l3.57,1.464
	c0.676-1.638,1.014-3.383,1.014-5.173c0-0.43-0.026-0.854-0.063-1.28h1.874c0.211,0,0.401-0.082,0.55-0.225
	c0.145-0.146,0.227-0.348,0.223-0.561l-0.021-1.838l12.34,0.023C82.591,46.95,88.83,44.779,88.83,38.643z"/>
<path fill="#266031" d="M115.571,41.354c-0.506,0.287-1.1,0.482-1.687,0.465c-0.257,0.063-0.537,0.053-0.798-0.023
	c-0.004,0-0.009,0.006-0.014,0.006c-0.141,0-0.284-0.035-0.418-0.105l-10.987-5.832c0.323,0.281,0.655,0.576,0.976,0.875
	c0.604,0.49,1.211,0.984,1.778,1.518c0.274,0.234,0.546,0.488,0.813,0.746c0.025,0.016,0.045,0.031,0.051,0.044
	c0.031,0.015,0.051,0.024,0.076,0.041c0.25,0.207,0.483,0.418,0.703,0.646c0.17,0.15,0.351,0.293,0.517,0.455
	c0.022,0.023,0.043,0.043,0.056,0.078c3.225,2.871,5.246,7.063,5.172,11.707c-0.129,8.357-7.027,15.166-15.392,15.166h-0.31
	L25.261,67.41c-10.5-0.18-18.908-8.863-18.752-19.363C6.673,37.684,15.222,29.26,25.578,29.26l0.303,0.002
	c2.47,0.038,4.878,0.551,7.178,1.524l3.16,1.343l1.175-3.228c3.823-10.446,13.832-17.462,24.916-17.462l0.418,0.004
	c2.366,0.036,4.662,0.394,6.834,1.008c0.058-0.019,0.112-0.025,0.17-0.019c0.021-0.002,0.028-0.01,0.045-0.021
	c-0.012-0.042-0.021-0.078-0.022-0.116c-0.465-0.458-0.963-0.907-1.544-1.345c-0.146-0.107-0.227-0.258-0.279-0.417
	c-0.099-0.091-0.197-0.178-0.298-0.274c-0.045-0.049-0.069-0.099-0.095-0.15c-0.029-0.038-0.055-0.069-0.085-0.104
	c-0.028-0.03-0.043-0.05-0.072-0.083l0,0c-0.021-0.026-0.043-0.046-0.06-0.072c-0.157-0.243-0.187-0.567-0.035-0.834l1.441-2.618
	c0.026-0.04,0.053-0.068,0.082-0.099c0-0.002,0.004-0.004,0.004-0.009c0.004-0.008,0.015-0.015,0.017-0.027
	c0.006,0,0.006-0.004,0.006-0.006c0,0,0.004-0.004,0.004-0.008c0.077-0.167,0.172-0.32,0.265-0.48V5.661
	c-0.008-0.008-0.01-0.019-0.019-0.029c-2.021-0.421-4.103-0.671-6.24-0.705l-0.526-0.002c-12.733,0-24.322,7.425-29.789,18.772
	c-2.126-0.599-4.31-0.919-6.539-0.952l-0.402-0.004c-13.894,0-25.372,11.307-25.586,25.206c-0.222,14.113,11.083,25.768,25.2,25.984
	h0.034l70.841-0.281h0.354c11.891,0,21.725-9.682,21.912-21.578c0.049-3.344-0.662-6.531-1.96-9.389
	C116.052,42.291,115.792,41.836,115.571,41.354z"/>
</svg>
