<?xml version="1.0" encoding="utf-8"?>
<!-- Generator: Adobe Illustrator 15.0.0, SVG Export Plug-In  -->
<!DOCTYPE svg PUBLIC "-//W3C//DTD SVG 1.1//EN" "http://www.w3.org/Graphics/SVG/1.1/DTD/svg11.dtd" [
	<!ENTITY ns_flows "http://ns.adobe.com/Flows/1.0/">
]>
<svg version="1.1"
	 xmlns="http://www.w3.org/2000/svg" xmlns:xlink="http://www.w3.org/1999/xlink" xmlns:a="http://ns.adobe.com/AdobeSVGViewerExtensions/3.0/"
	 x="0px" y="0px" width="224px" height="106px" viewBox="0 -0.001 224 106" enable-background="new 0 -0.001 224 106"
	 xml:space="preserve">
<defs>
</defs>
<path fill="#D7844D" d="M115.469,20.003c2.715,0,4.518-1.896,4.918-4.549l1.363-10.905c0-2.513-2.2-4.549-4.915-4.549h-11.791
	c-2.715,0-4.917,2.037-4.917,4.549l1.366,10.905c0.341,2.97,2.201,4.549,4.916,4.549c2.085,0,2.541-0.632,4.816-0.632
	C113.673,19.371,114.078,20.003,115.469,20.003"/>
<polygon fill="#D7844D" points="121.445,49.977 98.411,62.162 97.768,66.024 121.986,53.213 "/>
<polygon fill="#D7844D" points="119.154,36.224 101.146,45.75 98.761,60.063 121.154,48.217 "/>
<polygon fill="#D7844D" points="101.496,43.65 118.859,34.465 118.373,31.537 102.078,40.158 "/>
<path fill="#D7844D" d="M96.238,81.996l2.623,3.117l26.138-13.826l-2.427-14.558L97.068,70.224l-0.83,4.977
	C96.032,76.213,94.509,80.118,96.238,81.996"/>
<path fill="#D7844D" d="M104.058,91.293l4.984,5.926c1.73,1.874,2.074,1.874,3.806,0l12.803-15.223
	c0.634-0.688,0.824-1.604,0.806-2.554L104.058,91.293z"/>
<path fill="#D7844D" d="M117.787,28.02l-0.903-5.416c-1.729-1.877-10.148-1.877-11.88,0l-2.226,13.354L117.787,28.02z"/>
<path fill="#D7844D" d="M125.65,75.199l-0.065-0.396L101.09,87.763l1.854,2.204l23.281-12.317
	C126.012,76.64,125.717,75.737,125.65,75.199"/>
<path fill="#D7844D" d="M71.249,24.101c1.924,0,3.201-1.343,3.484-3.224l0.967-7.729c0-1.781-1.559-3.224-3.482-3.224h-8.355
	c-1.925,0-3.485,1.443-3.485,3.224l0.969,7.729c0.241,2.105,1.56,3.224,3.483,3.224c1.479,0,1.801-0.448,3.413-0.448
	C69.977,23.653,70.264,24.101,71.249,24.101"/>
<polygon fill="#D7844D" points="75.485,45.344 59.161,53.979 58.704,56.716 75.868,47.637 "/>
<polygon fill="#D7844D" points="73.861,35.597 61.1,42.348 59.409,52.491 75.278,44.096 "/>
<polygon fill="#D7844D" points="61.348,40.859 73.653,34.35 73.308,32.275 61.76,38.385 "/>
<path fill="#D7844D" d="M57.62,68.034l1.859,2.211l18.523-9.801l-1.72-10.315l-18.074,9.563l-0.589,3.525
	C57.476,63.937,56.396,66.704,57.62,68.034"/>
<path fill="#D7844D" d="M63.163,74.623l3.532,4.2c1.227,1.326,1.47,1.326,2.696,0l9.073-10.789c0.448-0.486,0.583-1.137,0.57-1.809
	L63.163,74.623z"/>
<path fill="#D7844D" d="M72.893,29.783l-0.641-3.838c-1.226-1.331-7.191-1.331-8.418,0l-1.578,9.464L72.893,29.783z"/>
<path fill="#D7844D" d="M78.465,63.218l-0.047-0.279L61.06,72.122l1.313,1.563l16.499-8.729
	C78.721,64.239,78.512,63.601,78.465,63.218"/>
<path fill="#D7844D" d="M158.896,24.572c1.924,0,3.201-1.343,3.484-3.224l0.967-7.729c0-1.781-1.56-3.224-3.482-3.224h-8.355
	c-1.924,0-3.484,1.443-3.484,3.224l0.97,7.729c0.241,2.105,1.56,3.224,3.483,3.224c1.478,0,1.801-0.448,3.412-0.448
	C157.625,24.124,157.912,24.572,158.896,24.572"/>
<polygon fill="#D7844D" points="163.134,45.814 146.811,54.451 146.354,57.187 163.516,48.107 "/>
<polygon fill="#D7844D" points="161.51,36.068 148.748,42.819 147.057,52.963 162.926,44.568 "/>
<polygon fill="#D7844D" points="148.996,41.331 161.301,34.821 160.955,32.746 149.408,38.855 "/>
<path fill="#D7844D" d="M145.27,68.506l1.857,2.211l18.523-9.8l-1.719-10.316l-18.074,9.563l-0.59,3.526
	C145.123,64.408,144.044,67.176,145.27,68.506"/>
<path fill="#D7844D" d="M150.811,75.095l3.533,4.2c1.227,1.327,1.471,1.327,2.696,0l9.073-10.789
	c0.447-0.485,0.582-1.136,0.57-1.809L150.811,75.095z"/>
<path fill="#D7844D" d="M160.541,30.254l-0.641-3.837c-1.228-1.331-7.191-1.331-8.418,0l-1.578,9.464L160.541,30.254z"/>
<path fill="#D7844D" d="M166.113,63.688l-0.047-0.279l-17.359,9.185l1.314,1.563l16.498-8.729
	C166.369,64.711,166.16,64.071,166.113,63.688"/>
<path fill="#373637" d="M44.928,104.782C24.152,84.085,12.711,56.581,12.711,27.338c0-4.413,0.273-8.889,0.812-13.304l0.154-1.098H0
	v2h11.422c-0.459,4.123-0.703,8.288-0.703,12.402c0,29.401,11.403,57.155,32.108,78.151l0.147,0.148h2.811L44.928,104.782z"/>
<path fill="#373637" d="M178.799,104.782c20.775-20.697,32.217-48.201,32.217-77.444c0-4.413-0.272-8.889-0.812-13.304l-0.154-1.098
	h15.017v2h-12.762c0.459,4.123,0.702,8.288,0.702,12.402c0,29.401-11.403,57.155-32.108,78.151l-0.146,0.148h-2.812L178.799,104.782
	z"/>
</svg>
