<?xml version="1.0" encoding="utf-8"?>
<!-- Generator: Adobe Illustrator 15.0.0, SVG Export Plug-In  -->
<!DOCTYPE svg PUBLIC "-//W3C//DTD SVG 1.1//EN" "http://www.w3.org/Graphics/SVG/1.1/DTD/svg11.dtd" [
	<!ENTITY ns_flows "http://ns.adobe.com/Flows/1.0/">
]>
<svg version="1.1"
	 xmlns="http://www.w3.org/2000/svg" xmlns:xlink="http://www.w3.org/1999/xlink" xmlns:a="http://ns.adobe.com/AdobeSVGViewerExtensions/3.0/"
	 x="0px" y="0px" width="102px" height="48px" viewBox="0 0 102 48" enable-background="new 0 0 102 48" xml:space="preserve" id="Corp_site">
<defs>
</defs>
<path fill="#373637" d="M48.469,9.055c0.944,0,1.15-0.286,2.181-0.286c1.108,0,1.292,0.286,1.92,0.286
	c1.229,0,2.046-0.858,2.228-2.059l0.617-4.937C55.415,0.921,54.418,0,53.189,0h-5.337c-1.229,0-2.227,0.922-2.227,2.059l0.619,4.937
	C46.398,8.34,47.24,9.055,48.469,9.055z"/>
<polygon fill="#373637" points="55.277,22.623 44.849,28.139 44.558,29.887 55.521,24.087 "/>
<polygon fill="#373637" points="54.24,16.397 46.087,20.709 45.008,27.188 55.145,21.826 "/>
<polygon fill="#373637" points="46.246,19.759 54.105,15.601 53.887,14.276 46.509,18.178 "/>
<path fill="#373637" d="M55.787,25.677l-11.545,6.109l-0.376,2.253c-0.093,0.46-0.783,2.229,0,3.078l1.188,1.41l11.833-6.258
	L55.787,25.677z"/>
<path fill="#373637" d="M49.662,44.008c0.783,0.848,0.939,0.848,1.723,0l5.797-6.891c0.286-0.313,0.373-0.727,0.364-1.157
	l-10.14,5.365L49.662,44.008z"/>
<path fill="#373637" d="M47.835,10.232l-1.008,6.045l6.794-3.593l-0.408-2.452C52.432,9.382,48.619,9.382,47.835,10.232z"/>
<path fill="#373637" d="M57.18,34.04l-0.029-0.181l-11.087,5.867l0.84,0.998l10.539-5.576C57.343,34.691,57.21,34.283,57.18,34.04z"
	/>
<path fill="#373637" d="M29.647,10.91c0.67,0,0.815-0.203,1.546-0.203c0.785,0,0.915,0.203,1.361,0.203
	c0.871,0,1.449-0.608,1.577-1.459l0.438-3.499c0-0.806-0.706-1.459-1.576-1.459H29.21c-0.871,0-1.577,0.653-1.577,1.459l0.438,3.499
	C28.18,10.404,28.777,10.91,29.647,10.91z"/>
<polygon fill="#373637" points="34.472,20.525 27.083,24.434 26.875,25.673 34.645,21.563 "/>
<polygon fill="#373637" points="33.737,16.113 27.96,19.169 27.195,23.761 34.378,19.961 "/>
<polygon fill="#373637" points="28.072,18.495 33.642,15.549 33.486,14.61 28.258,17.375 "/>
<path fill="#373637" d="M34.833,22.692l-8.182,4.33l-0.267,1.597c-0.064,0.323-0.553,1.575,0,2.179l0.842,1.001l8.385-4.438
	L34.833,22.692z"/>
<path fill="#373637" d="M30.493,35.68c0.556,0.601,0.665,0.601,1.221,0l4.106-4.885c0.203-0.221,0.265-0.516,0.259-0.818
	l-7.185,3.803L30.493,35.68z"/>
<path fill="#373637" d="M29.197,11.744l-0.715,4.284l4.816-2.546l-0.29-1.738C32.453,11.142,29.753,11.142,29.197,11.744z"/>
<path fill="#373637" d="M35.821,28.616L35.8,28.49l-7.857,4.158l0.595,0.707l7.468-3.951C35.936,29.079,35.842,28.79,35.821,28.616z
	"/>
<path fill="#373637" d="M69.325,11.123c0.67,0,0.815-0.203,1.544-0.203c0.785,0,0.915,0.203,1.359,0.203
	c0.871,0,1.449-0.608,1.578-1.459l0.438-3.499c0-0.806-0.707-1.459-1.576-1.459h-3.782c-0.871,0-1.576,0.653-1.576,1.459
	l0.438,3.499C67.857,10.617,68.456,11.123,69.325,11.123z"/>
<polygon fill="#373637" points="74.148,20.738 66.758,24.648 66.551,25.887 74.32,21.776 "/>
<polygon fill="#373637" points="73.413,16.327 67.635,19.382 66.87,23.975 74.053,20.174 "/>
<polygon fill="#373637" points="67.748,18.709 73.318,15.762 73.162,14.823 67.934,17.588 "/>
<path fill="#373637" d="M74.509,22.905l-8.181,4.329l-0.27,1.596c-0.063,0.325-0.553,1.578,0.002,2.18l0.842,1.001l8.385-4.436
	L74.509,22.905z"/>
<path fill="#373637" d="M68.568,33.993l1.601,1.901c0.556,0.601,0.666,0.601,1.22,0l4.107-4.887
	c0.201-0.219,0.264-0.514,0.257-0.816L68.568,33.993z"/>
<path fill="#373637" d="M68.873,11.958l-0.715,4.284l4.816-2.547l-0.291-1.737C72.127,11.355,69.428,11.355,68.873,11.958z"/>
<path fill="#373637" d="M75.497,28.829l-0.021-0.126l-7.858,4.158l0.596,0.707l7.468-3.95
	C75.611,29.292,75.518,29.002,75.497,28.829z"/>
<path fill="#373637" d="M20.337,47.602C10.933,38.232,5.753,25.782,5.753,12.544c0-1.998,0.124-4.023,0.368-6.022l0.07-0.497H0V6.93
	h5.17c-0.208,1.866-0.318,3.752-0.318,5.614c0,13.31,5.162,25.873,14.534,35.376l0.066,0.066h1.272L20.337,47.602z"/>
<path fill="#373637" d="M81.055,47.602c9.404-9.369,14.584-21.817,14.584-35.057c0-1.998-0.123-4.023-0.367-6.022l-0.07-0.497H102
	v0.905h-5.776c0.208,1.866,0.317,3.752,0.317,5.614c0,13.309-5.162,25.873-14.535,35.376l-0.064,0.065H80.67L81.055,47.602z"/>
</svg>
