<?xml version="1.0" encoding="utf-8"?>
<!-- Generator: Adobe Illustrator 15.0.0, SVG Export Plug-In  -->
<!DOCTYPE svg PUBLIC "-//W3C//DTD SVG 1.1//EN" "http://www.w3.org/Graphics/SVG/1.1/DTD/svg11.dtd" [
	<!ENTITY ns_flows "http://ns.adobe.com/Flows/1.0/">
]>
<svg version="1.1"
	 xmlns="http://www.w3.org/2000/svg" xmlns:xlink="http://www.w3.org/1999/xlink" xmlns:a="http://ns.adobe.com/AdobeSVGViewerExtensions/3.0/"
	 x="0px" y="0px" width="224px" height="106px" viewBox="0 0 224 106" enable-background="new 0 0 224 106" xml:space="preserve">
<defs>
</defs>
<path fill="#363436" d="M115.469,20.004c2.715,0,4.518-1.896,4.917-4.549l1.364-10.905c0-2.513-2.2-4.549-4.915-4.549h-11.791
	c-2.715,0-4.917,2.037-4.917,4.549l1.366,10.905c0.341,2.97,2.201,4.549,4.916,4.549c2.085,0,2.541-0.632,4.816-0.632
	C113.673,19.372,114.078,20.004,115.469,20.004"/>
<polygon fill="#363436" points="121.446,49.978 98.411,62.163 97.768,66.026 121.986,53.214 "/>
<polygon fill="#363436" points="119.154,36.225 101.146,45.751 98.761,60.064 121.154,48.218 "/>
<polygon fill="#363436" points="101.496,43.651 118.86,34.466 118.373,31.538 102.078,40.159 "/>
<path fill="#363436" d="M96.238,81.997l2.623,3.117l26.138-13.826l-2.427-14.558L97.068,70.224l-0.83,4.977
	C96.032,76.214,94.509,80.119,96.238,81.997"/>
<path fill="#363436" d="M104.058,91.294l4.984,5.926c1.73,1.874,2.074,1.874,3.805,0l12.804-15.223
	c0.633-0.688,0.823-1.604,0.805-2.554L104.058,91.294z"/>
<path fill="#363436" d="M117.787,28.021l-0.903-5.416c-1.729-1.877-10.148-1.877-11.88,0l-2.226,13.354L117.787,28.021z"/>
<path fill="#363436" d="M125.65,75.2l-0.065-0.396L101.09,87.764l1.854,2.204l23.281-12.317
	C126.011,76.641,125.717,75.738,125.65,75.2"/>
<path fill="#363436" d="M71.249,24.102c1.924,0,3.201-1.343,3.484-3.224l0.967-7.729c0-1.781-1.559-3.224-3.482-3.224h-8.355
	c-1.925,0-3.485,1.443-3.485,3.224l0.969,7.729c0.241,2.105,1.56,3.224,3.483,3.224c1.479,0,1.801-0.448,3.413-0.448
	C69.977,23.654,70.264,24.102,71.249,24.102"/>
<polygon fill="#363436" points="75.485,45.345 59.161,53.98 58.704,56.717 75.868,47.638 "/>
<polygon fill="#363436" points="73.861,35.598 61.1,42.349 59.409,52.492 75.278,44.097 "/>
<polygon fill="#363436" points="61.348,40.86 73.653,34.351 73.308,32.276 61.76,38.386 "/>
<path fill="#363436" d="M57.62,68.035l1.859,2.211l18.523-9.8l-1.72-10.316l-18.074,9.563l-0.589,3.526
	C57.476,63.938,56.396,66.705,57.62,68.035"/>
<path fill="#363436" d="M63.163,74.624l3.532,4.2c1.227,1.327,1.47,1.327,2.696,0l9.073-10.789c0.448-0.486,0.583-1.136,0.57-1.809
	L63.163,74.624z"/>
<path fill="#363436" d="M72.893,29.784l-0.641-3.838c-1.226-1.331-7.191-1.331-8.418,0l-1.578,9.464L72.893,29.784z"/>
<path fill="#363436" d="M78.465,63.219l-0.047-0.28L61.06,72.123l1.313,1.562l16.499-8.729
	C78.721,64.24,78.512,63.601,78.465,63.219"/>
<path fill="#363436" d="M158.896,24.573c1.925,0,3.202-1.343,3.485-3.224l0.967-7.729c0-1.781-1.56-3.224-3.483-3.224h-8.355
	c-1.924,0-3.484,1.443-3.484,3.224l0.969,7.729c0.241,2.105,1.559,3.224,3.483,3.224c1.478,0,1.801-0.448,3.413-0.448
	C157.625,24.125,157.912,24.573,158.896,24.573"/>
<polygon fill="#363436" points="163.134,45.815 146.81,54.452 146.353,57.188 163.516,48.108 "/>
<polygon fill="#363436" points="161.51,36.069 148.748,42.82 147.057,52.964 162.926,44.569 "/>
<polygon fill="#363436" points="148.996,41.332 161.301,34.822 160.955,32.747 149.408,38.856 "/>
<path fill="#363436" d="M145.269,68.507l1.858,2.211l18.524-9.8l-1.72-10.316l-18.074,9.563l-0.589,3.526
	C145.123,64.409,144.044,67.177,145.269,68.507"/>
<path fill="#363436" d="M150.811,75.096l3.533,4.2c1.227,1.327,1.47,1.327,2.696,0l9.073-10.789c0.448-0.486,0.583-1.136,0.57-1.809
	L150.811,75.096z"/>
<path fill="#363436" d="M160.541,30.255l-0.641-3.837c-1.227-1.331-7.191-1.331-8.418,0l-1.578,9.464L160.541,30.255z"/>
<path fill="#363436" d="M166.113,63.69l-0.047-0.28l-17.359,9.185l1.314,1.562l16.498-8.729
	C166.369,64.712,166.16,64.072,166.113,63.69"/>
<path fill="#373637" d="M44.928,104.783C24.152,84.086,12.711,56.582,12.711,27.339c0-4.413,0.273-8.889,0.812-13.304l0.154-1.098H0
	v2h11.422c-0.459,4.123-0.703,8.288-0.703,12.402c0,29.401,11.403,57.155,32.108,78.151l0.147,0.148h2.811L44.928,104.783z"/>
<path fill="#373637" d="M178.799,104.783c20.775-20.697,32.217-48.201,32.217-77.444c0-4.413-0.273-8.889-0.812-13.304l-0.154-1.098
	h15.017v2h-12.762c0.459,4.123,0.702,8.288,0.702,12.402c0,29.401-11.403,57.155-32.108,78.151l-0.146,0.148h-2.811L178.799,104.783
	z"/>
</svg>
