<svg xmlns="http://www.w3.org/2000/svg" xmlns:xlink="http://www.w3.org/1999/xlink" xmlns:a="http://ns.adobe.com/AdobeSVGViewerExtensions/3.0/" version="1.1" x="0px" y="0px" width="102px" height="48px" viewBox="0 0 102 48" enable-background="new 0 0 102 48" xml:space="preserve" >
	<?xml-stylesheet type="text/css" href="/css/style.css"?>
<defs>
<symbol id="Corp_site">
	<g id="Flex">
<path d="M48.469 9.055c0.944 0 1.15-0.286 2.181-0.286c1.108 0 1.29 0.29 1.92 0.29 c1.229 0 2.046-0.858 2.228-2.059l0.617-4.937C55.415 0.92 54.42 0 53.19 0h-5.337c-1.229 0-2.227 0.922-2.227 2.059l0.619 4.94 C46.398 8.34 47.24 9.05 48.47 9.055z" class="style0"/>
<polygon points="55.28,22.62 44.85,28.14 44.56,29.89 55.52,24.09" />
<polygon points="54.24,16.4 46.09,20.71 45.01,27.19 55.15,21.83" />
<polygon points="46.25,19.76 54.1,15.6 53.89,14.28 46.51,18.18" />
<path d="M55.787 25.677l-11.545 6.109l-0.376 2.253c-0.093 0.46-0.783 2.23 0 3.078l1.188 1.41l11.833-6.258 L55.787 25.677z" />
<path d="M49.662 44.008c0.783 0.85 0.94 0.85 1.72 0l5.797-6.891c0.286-0.313 0.373-0.727 0.364-1.157 l-10.14 5.365L49.662 44.008z" />
<path d="M47.835 10.232l-1.008 6.045l6.794-3.593l-0.408-2.452C52.432 9.38 48.62 9.38 47.84 10.232z" />
<path d="M57.18 34.04l-0.029-0.181l-11.087 5.867l0.84 0.998l10.539-5.576C57.343 34.69 57.21 34.28 57.18 34.04z" />
<path d="M29.647 10.91c0.67 0 0.815-0.203 1.546-0.203c0.785 0 0.92 0.2 1.36 0.2 c0.871 0 1.449-0.608 1.577-1.459l0.438-3.499c0-0.806-0.706-1.459-1.576-1.459H29.21c-0.871 0-1.577 0.653-1.577 1.459l0.438 3.5 C28.18 10.4 28.78 10.91 29.65 10.91z" />
<polygon points="34.47,20.52 27.08,24.43 26.88,25.67 34.65,21.56" />
<polygon points="33.74,16.11 27.96,19.17 27.2,23.76 34.38,19.96" />
<polygon points="28.07,18.5 33.64,15.55 33.49,14.61 28.26,17.38" />
<path d="M34.833 22.692l-8.182 4.33l-0.267 1.597c-0.064 0.323-0.553 1.57 0 2.179l0.842 1.001l8.385-4.438 L34.833 22.692z"/>
<path d="M30.493 35.68c0.556 0.6 0.67 0.6 1.22 0l4.106-4.885c0.203-0.221 0.265-0.516 0.259-0.818 l-7.185 3.803L30.493 35.68z"/>
<path d="M29.197 11.744l-0.715 4.284l4.816-2.546l-0.29-1.738C32.453 11.14 29.75 11.14 29.2 11.744z"/>
<path d="M35.821 28.616L35.8 28.49l-7.857 4.158l0.595 0.707l7.468-3.951C35.936 29.08 35.84 28.79 35.82 28.616z "/>
<path d="M69.325 11.123c0.67 0 0.815-0.203 1.544-0.203c0.785 0 0.92 0.2 1.36 0.2 c0.871 0 1.449-0.608 1.578-1.459l0.438-3.499c0-0.806-0.707-1.459-1.576-1.459h-3.782c-0.871 0-1.576 0.653-1.576 1.46 l0.438 3.499C67.857 10.62 68.46 11.12 69.33 11.123z"/>
<polygon points="74.15,20.74 66.76,24.65 66.55,25.89 74.32,21.78"/>
<polygon points="73.41,16.33 67.64,19.38 66.87,23.98 74.05,20.17"/>
<polygon points="67.75,18.71 73.32,15.76 73.16,14.82 67.93,17.59"/>
<path d="M74.509 22.905l-8.181 4.329l-0.27 1.596c-0.063 0.325-0.553 1.58 0 2.18l0.842 1.001l8.385-4.436 L74.509 22.905z"/>
<path d="M68.568 33.993l1.601 1.901c0.556 0.6 0.67 0.6 1.22 0l4.107-4.887 c0.201-0.219 0.264-0.514 0.257-0.816L68.568 33.993z"/>
<path d="M68.873 11.958l-0.715 4.284l4.816-2.547l-0.291-1.737C72.127 11.36 69.43 11.36 68.87 11.958z"/>
<path d="M75.497 28.829l-0.021-0.126l-7.858 4.158l0.596 0.707l7.468-3.95 C75.611 29.29 75.52 29 75.5 28.829z"/>
</g>
<path d="M20.337 47.602C10.933 38.23 5.75 25.78 5.75 12.544c0-1.998 0.124-4.023 0.368-6.022l0.07-0.497H0V6.93 h5.17c-0.208 1.866-0.318 3.752-0.318 5.614c0 13.31 5.16 25.87 14.53 35.376l0.066 0.066h1.272L20.337 47.602z" class="style0"/>
<path d="M81.055 47.602c9.404-9.369 14.584-21.817 14.584-35.057c0-1.998-0.123-4.023-0.367-6.022l-0.07-0.497H102 v0.905h-5.776c0.208 1.87 0.32 3.75 0.32 5.614c0 13.309-5.162 25.873-14.535 35.376l-0.064 0.065H80.67L81.055 47.602z" class="style0"/>
</symbol>
</defs>



</svg>
