<?xml version="1.0" encoding="utf-8"?>
<!-- Generator: Adobe Illustrator 18.0.0, SVG Export Plug-In . SVG Version: 6.00 Build 0)  -->
<!DOCTYPE svg PUBLIC "-//W3C//DTD SVG 1.1//EN" "http://www.w3.org/Graphics/SVG/1.1/DTD/svg11.dtd">
<svg version="1.1" id="Description_x5F_icon" xmlns="http://www.w3.org/2000/svg" xmlns:xlink="http://www.w3.org/1999/xlink"
	 x="0px" y="0px" viewBox="0 0 56.5 50" enable-background="new 0 0 56.5 50" xml:space="preserve">
<g id="CardIcon">
	<path id="test_path" display="inline" fill="#4C4646" d="M37.3,13.5c-0.1-0.4-0.5-0.7-0.9-0.5l-3,0.8c-0.3,0.1-0.5,0.3-0.6,0.6
		l-0.4,2.4L13.8,19l0,0c0,0,0,0-0.1,0c0,0-0.1,0-0.1,0.1c0,0-0.1,0-0.1,0.1c-0.1,0-0.1,0.1-0.1,0.1s0,0-0.1,0.1l0,0
		c-0.1,0-0.1,0-0.1,0.1c0,0,0,0,0,0.1s0,0.2,0,0.3l2.2,9.1l0.8,3c0,0,0,0,0,0.1v0.1l0.1,0.1c0,0,0,0.1,0.1,0.1l0.1,0.1h0.1
		c0.1,0,0.2,0.1,0.3,0.1h15.9c0.4,0,0.8-0.3,0.8-0.8c0-0.4-0.3-0.8-0.8-0.8H17.5l-0.4-1.5h14.1c0.1,0,0.2,0,0.3,0c0,0,0.1,0,0.1-0.1
		c0,0,0.1,0,0.1-0.1c0,0,0-0.1,0.1-0.1l0.1-0.1V29v-0.1l0,0l0,0L34.2,15l2.5-0.6C37.1,14.3,37.4,13.9,37.3,13.5z M16.7,28l-1.9-7.7
		l2.4-0.2l1.1,7.9C18.3,28,16.7,28,16.7,28z M19.8,28l-1.2-8.1l2.4-0.3l0.4,8.4H19.8z M24.5,28h-1.6l-0.4-8.6l2.4-0.3L24.5,28z
		 M27.6,28H26l0.4-9l2.3-0.3L27.6,28z M30.6,28h-1.5l1.2-9.5l1.6-0.2L30.6,28z M19.9,34.1c-0.8,0-1.5,0.7-1.5,1.5s0.7,1.5,1.5,1.5
		s1.5-0.7,1.5-1.5S20.8,34.1,19.9,34.1z M29.7,34.1c-0.8,0-1.5,0.7-1.5,1.5s0.7,1.5,1.5,1.5s1.5-0.7,1.5-1.5
		C31.3,34.7,30.6,34.1,29.7,34.1z"/>
	<path display="inline" fill="#4C4646" d="M56.5,25l-7.3-6.8c-0.3-0.2-0.5-0.6-0.6-0.9C45,6.3,34-1.4,21.5,0.3
		C10.3,1.8,1.4,10.9,0.2,22.1c-1.7,15,10.1,27.8,24.7,27.8c11,0,20.4-7.2,23.7-17.2c0.1-0.3,0.3-0.6,0.6-0.9L56.5,25z M47.9,31.6
		c-2.9,10-12.1,17.3-23,17.3C11.7,48.9,1,38.2,1,25C1,11.8,11.7,1.1,24.9,1.1c10.9,0,20.1,7.3,23,17.3L55,25"/>
</g>
<g id="DeliveryIcon">
	<path display="inline" fill="#4C4646" d="M36,17.2l-2.8-3.5c-0.3-0.3-0.7-0.5-1.1-0.5H17.7c-0.4,0-0.8,0.2-1.1,0.5l-2.8,3.5
		c-0.3,0.4-0.5,1-0.5,1.6v2.6c0.2-0.3,0.5-0.6,0.9-0.7c0-0.3,0.1-0.6,0.3-0.8c0.3-0.4,0.7-0.8,1.2-0.9c0.2,0,0.3-0.1,0.5-0.1
		c0.7,0,1.3,0.3,1.6,0.9c0.1,0,0.2,0,0.3,0c0.3,0,0.6,0.1,0.9,0.2l1.5-0.4c0.2-0.1,0.4-0.1,0.6-0.1c1.1,0,2,0.7,2.3,1.8l3,11.6
		c0.2,0.6,0.1,1.2-0.2,1.8c-0.3,0.5-0.8,0.9-1.4,1.1l-1.4,0.4h11.4c1,0,1.7-0.8,1.7-1.7V18.9C36.6,18.3,36.3,17.6,36,17.2z
		 M14.8,17.2l0.9-1.2H22l0.6-1h-6.1l0.7-0.9c0.1-0.2,0.3-0.3,0.5-0.3h14.4c0.2,0,0.4,0.1,0.5,0.3l0.7,0.9h-6.2l0.3,1h6.7l0.9,1.2
		H14.8z M15,21.5l-0.4,0.1c-0.4,0.1-0.7,0.5-0.6,0.9l0,0c0.1,0.4,0.5,0.7,0.9,0.6l3.3-0.9c0.4-0.1,0.7-0.5,0.6-0.9l0,0
		c-0.1-0.4-0.5-0.7-0.9-0.6l-0.4,0.1c-0.2,0.1-0.4-0.1-0.5-0.3l0,0c-0.1-0.5-0.6-0.8-1.1-0.6l0,0c-0.5,0.1-0.8,0.6-0.6,1.1l0,0
		C15.4,21.2,15.3,21.4,15,21.5z M16.1,20.4c0.2-0.1,0.4,0.1,0.5,0.3c0.1,0.2-0.1,0.4-0.3,0.5c-0.2,0.1-0.4-0.1-0.5-0.3
		C15.8,20.6,15.9,20.4,16.1,20.4z M21,32.4c0,0.1,0,0.3-0.2,0.3L16,34c-0.1,0-0.3,0-0.3-0.2l-0.1-0.3c0-0.1,0-0.3,0.2-0.3l4.8-1.3
		c0.1,0,0.3,0,0.3,0.2L21,32.4z M21.6,27.3l0.1,0.3c0,0.1,0,0.3-0.2,0.3l-6.6,1.7c-0.1,0-0.3,0-0.3-0.2l-0.1-0.3
		c0-0.1,0-0.3,0.2-0.3l6.6-1.7C21.4,27.1,21.5,27.2,21.6,27.3z M20.9,25.6l-6.6,1.7c-0.1,0-0.3,0-0.3-0.2l-0.1-0.3
		c0-0.1,0-0.3,0.2-0.3l6.6-1.7c0.1,0,0.3,0,0.3,0.2l0.1,0.3C21.1,25.4,21,25.6,20.9,25.6z M20.7,30.3l-5.3,1.4c-0.1,0-0.3,0-0.3-0.2
		L15,31.2c0-0.1,0-0.3,0.2-0.3l5.3-1.4c0.1,0,0.3,0,0.3,0.2l0.1,0.3C20.9,30.1,20.9,30.2,20.7,30.3z M25.5,33.1l-3-11.6
		c-0.2-0.7-0.9-1.1-1.6-0.9l-1.6,0.3c0,0.1,0.1,0.2,0.1,0.2c0.2,0.7-0.2,1.4-0.9,1.6l-3.3,0.8c-0.7,0.2-1.4-0.2-1.6-0.8
		c0-0.1-0.1-0.2-0.1-0.4L12,22.7c-0.7,0.2-1.1,0.9-0.9,1.6l3,11.6c0.2,0.7,0.9,1.1,1.6,0.9l8.9-2.3C25.3,34.5,25.7,33.8,25.5,33.1z
		 M15.4,35.7l-2.6-10.1l8.9-2.3l2.6,10.1L15.4,35.7z"/>
	<path display="inline" fill="#4C4646" d="M56.5,25l-7.3-6.8c-0.3-0.2-0.5-0.6-0.6-0.9C45,6.3,34-1.4,21.5,0.3
		C10.3,1.8,1.4,10.9,0.2,22.1c-1.7,15,10.1,27.8,24.7,27.8c11,0,20.4-7.2,23.7-17.2c0.1-0.3,0.3-0.6,0.6-0.9L56.5,25z M47.9,31.6
		c-2.9,10-12.1,17.3-23,17.3C11.7,48.9,1,38.2,1,25C1,11.8,11.7,1.1,24.9,1.1c10.9,0,20.1,7.3,23,17.3L55,25"/>
</g>
<g id="SettingsIcon">
	<path display="inline" fill="#4C4646" d="M22.7,32.7l-0.6-0.3c0-0.4,0-0.8-0.1-1.3l0.6-0.3c0.4-0.2,0.5-0.6,0.4-0.9l-0.3-0.8
		c-0.2-0.4-0.6-0.5-0.9-0.4l-0.6,0.5c-0.3-0.4-0.6-0.7-0.9-0.8l0.2-0.6c0.1-0.4-0.1-0.8-0.4-0.8l-0.8-0.4c-0.4-0.1-0.8,0.1-0.8,0.4
		l-0.3,0.7c-0.4,0-0.8,0-1.3,0.1l-0.3-0.6c-0.2-0.4-0.6-0.5-0.9-0.4l-0.8,0.3c-0.4,0.2-0.5,0.6-0.4,0.9l0.3,0.6
		c-0.4,0.3-0.7,0.6-0.8,0.9l-0.6-0.2c-0.4-0.1-0.8,0.1-0.8,0.4l-0.2,0.8c-0.1,0.2-0.1,0.4,0,0.6c0.1,0.2,0.2,0.3,0.4,0.4l0.6,0.2
		c0,0.4,0,0.8,0.1,1.3l-0.6,0.3c-0.4,0.2-0.5,0.6-0.4,0.9l0.3,0.8c0.2,0.4,0.6,0.5,0.9,0.4l0.6-0.3c0.3,0.4,0.6,0.7,0.9,0.8L15,36.3
		c-0.1,0.2-0.1,0.4,0,0.6c0.1,0.2,0.2,0.3,0.4,0.4l0.8,0.3c0.2,0.1,0.4,0.1,0.6,0s0.3-0.2,0.4-0.4l0.2-0.6c0.4,0,0.8,0,1.3-0.1
		l0.3,0.6c0.2,0.4,0.6,0.5,0.9,0.4l0.8-0.3c0.4-0.2,0.5-0.6,0.4-0.9l-0.3-0.6c0.4-0.3,0.7-0.6,0.8-0.9l0.6,0.2
		c0.2,0.1,0.4,0.1,0.6,0c0.2-0.1,0.3-0.2,0.4-0.4l0.3-0.8C23.2,33.2,23.1,32.8,22.7,32.7z M18.8,34.5c-0.4,0.2-0.8,0.3-1.1,0.3
		c-1,0-2.1-0.7-2.5-1.6c-0.7-1.4,0-3,1.3-3.7c0.4-0.2,0.8-0.3,1.1-0.3c1,0,2.1,0.7,2.5,1.6C20.8,32.2,20.2,33.8,18.8,34.5z"/>
	<path display="inline" fill="#4C4646" d="M29.5,34.7l-0.3-0.1c0-0.2,0-0.5,0-0.8l0.3-0.2c0.2-0.1,0.3-0.3,0.2-0.5l-0.2-0.4
		c-0.1-0.2-0.3-0.3-0.5-0.2l-0.4,0.1c-0.2-0.2-0.3-0.4-0.6-0.5l0.1-0.3c0.1-0.2,0-0.4-0.2-0.5l-0.4-0.2c-0.2-0.1-0.5,0-0.5,0.2
		l-0.1,0.3c-0.2,0-0.5,0-0.8,0l-0.2-0.3c-0.1-0.1-0.3-0.2-0.5-0.1l-0.4,0.2c-0.2,0.1-0.3,0.3-0.2,0.5l0.2,0.3
		c-0.2,0.2-0.4,0.3-0.5,0.6l-0.3-0.1c-0.2-0.1-0.5,0-0.5,0.2l-0.2,0.4c0,0.1,0,0.2,0,0.3s0.1,0.2,0.2,0.2l0.3,0.1c0,0.2,0,0.5,0,0.8
		l-0.3,0.2c-0.2,0.1-0.3,0.3-0.2,0.5l0.2,0.4c0.1,0.2,0.3,0.3,0.5,0.2l0.3-0.2c0.2,0.2,0.3,0.4,0.6,0.5l-0.1,0.3c0,0.1,0,0.2,0,0.3
		s0.1,0.2,0.2,0.2l0.4,0.2c0.1,0,0.2,0,0.3,0c0.1,0,0.2-0.1,0.2-0.2l0.1-0.3c0.2,0,0.5,0,0.8,0l0.2,0.3c0.1,0.2,0.3,0.3,0.5,0.2
		l0.4-0.2c0.2-0.1,0.3-0.3,0.2-0.5l-0.2-0.3c0.2-0.2,0.4-0.3,0.5-0.6l0.3,0.1c0.1,0,0.2,0,0.3,0s0.2-0.1,0.2-0.2l0.2-0.4
		C29.8,34.9,29.7,34.8,29.5,34.7z M27.4,35.7c-0.2,0.1-0.4,0.1-0.7,0.1c-0.6,0-1.1-0.4-1.4-0.8c-0.4-0.8,0-1.7,0.8-2.1
		c0.2-0.1,0.4-0.1,0.7-0.1c0.6,0,1.1,0.4,1.4,0.8C28.5,34.4,28.2,35.3,27.4,35.7z"/>
	<path display="inline" fill="#4C4646" d="M36.8,22.5l-0.9-0.4c0.1-0.8,0.1-1.4-0.1-2.2l0.9-0.5c0.6-0.3,0.8-0.9,0.6-1.5l-0.6-1.2
		c-0.3-0.6-0.9-0.8-1.5-0.6l-0.9,0.5c-0.5-0.6-1-1-1.6-1.4l0.4-0.9c0.2-0.6-0.1-1.3-0.7-1.5l-1.2-0.5c-0.6-0.2-1.3,0.1-1.5,0.7
		l-0.4,0.9c-0.8-0.1-1.4-0.1-2.2,0.1l-0.5-0.9c-0.3-0.6-0.9-0.8-1.5-0.6l-1.2,0.6c-0.6,0.3-0.8,0.9-0.6,1.5l0.5,0.9
		c-0.6,0.5-1,1-1.4,1.6l-0.9-0.4c-0.6-0.2-1.3,0.1-1.5,0.7l-0.5,1.2c-0.1,0.3-0.1,0.6,0,0.8s0.4,0.5,0.7,0.6l0.9,0.4
		c-0.1,0.8-0.1,1.4,0.1,2.2L20.2,23c-0.6,0.3-0.8,0.9-0.6,1.5l0.6,1.2c0.3,0.6,0.9,0.8,1.5,0.6l0.9-0.5c0.5,0.6,1,1,1.6,1.4
		l-0.4,0.9c-0.1,0.3-0.1,0.6,0,0.8c0.1,0.3,0.4,0.5,0.7,0.6l1.2,0.5c0.3,0.1,0.6,0.1,0.8,0s0.5-0.4,0.6-0.7l0.4-0.9
		c0.8,0.1,1.4,0.1,2.2-0.1l0.5,0.9c0.3,0.6,0.9,0.8,1.5,0.6l1.2-0.6c0.6-0.3,0.8-0.9,0.6-1.5L33,26.9c0.6-0.5,1-1,1.4-1.6l0.9,0.4
		c0.3,0.1,0.6,0.1,0.9,0c0.3-0.1,0.5-0.4,0.6-0.7l0.5-1.2C37.7,23.3,37.4,22.7,36.8,22.5z M30.4,25.5c-0.7,0.3-1.2,0.5-2,0.5
		c-1.8,0-3.5-1-4.2-2.7c-1-2.3-0.1-5.1,2.3-6.1c0.7-0.3,1.2-0.5,2-0.5c1.8,0,3.5,1,4.2,2.7C33.7,21.7,32.7,24.4,30.4,25.5z"/>
	<path display="inline" fill="#4C4646" d="M56.5,25l-7.3-6.8c-0.3-0.2-0.5-0.6-0.6-0.9C45,6.3,34-1.4,21.5,0.3
		C10.3,1.8,1.4,10.9,0.2,22.1c-1.7,15,10.1,27.8,24.7,27.8c11,0,20.4-7.2,23.7-17.2c0.1-0.3,0.3-0.6,0.6-0.9L56.5,25z M47.9,31.6
		c-2.9,10-12.1,17.3-23,17.3C11.7,48.9,1,38.2,1,25C1,11.8,11.7,1.1,24.9,1.1c10.9,0,20.1,7.3,23,17.3L55,25"/>
</g>
<g id="ListIcon">
	<path display="inline" fill="#4C4646" d="M25.9,12.5h-0.6c-0.3,0-0.6-0.3-0.6-0.6l0,0c0-0.8-0.6-1.4-1.4-1.4l0,0
		c-0.8,0-1.4,0.6-1.4,1.4l0,0c0,0.3-0.3,0.6-0.6,0.6h-0.6c-0.7,0-1.2,0.5-1.2,1.2l0,0c0,0.7,0.5,1.2,1.2,1.2h5.2
		c0.7,0,1.2-0.5,1.2-1.2l0,0C27.1,13,26.6,12.5,25.9,12.5z M23.3,12.5c-0.3,0-0.6-0.3-0.6-0.6s0.3-0.6,0.6-0.6
		c0.3,0,0.6,0.3,0.6,0.6S23.6,12.5,23.3,12.5z M26,35.7H15.9c-0.9,0-1.6-0.7-1.6-1.6V14.9c0-0.9,0.7-1.6,1.2-1.6h3.2
		c0,0.1,0,0.3,0,0.4c0,1.1,0.9,2,2,2h5.2c1.1,0,2-0.9,2-2c0-0.1,0-0.3,0-0.4h2.4c1.3,0,2,0.7,2,1.6v12c-0.1,0-0.3,0-0.4,0
		c-0.6,0-1.1,0.1-1.6,0.2v-9.4h-14v16h9.2C25.6,34.4,25.7,35.1,26,35.7z M31.9,28.1c-2.9,0-5.2,2.3-5.2,5.2c0,2.9,2.3,5.2,5.2,5.2
		s5.2-2.3,5.2-5.2S34.8,28.1,31.9,28.1z M35.3,32.2l-3.2,3.6c-0.2,0.2-0.4,0.3-0.6,0.3S31.1,36,31,35.9l-2-1.6
		c-0.3-0.3-0.4-0.8-0.1-1.1s0.8-0.4,1.1-0.1l1.4,1.1l2.7-3c0.3-0.3,0.8-0.4,1.1-0.1C35.6,31.4,35.6,31.9,35.3,32.2z M28.3,24.5h-6.4
		c-0.2,0-0.4-0.2-0.4-0.4v-0.4c0-0.2,0.2-0.4,0.4-0.4h6.4c0.2,0,0.4,0.2,0.4,0.4v0.4C28.7,24.3,28.5,24.5,28.3,24.5z M28.3,20.9
		h-6.4c-0.2,0-0.4-0.2-0.4-0.4v-0.4c0-0.2,0.2-0.4,0.4-0.4h6.4c0.2,0,0.4,0.2,0.4,0.4v0.4C28.7,20.7,28.5,20.9,28.3,20.9z
		 M26.3,27.7h-4.4c-0.2,0-0.4-0.2-0.4-0.4v-0.4c0-0.2,0.2-0.4,0.4-0.4h4.4c0.2,0,0.4,0.2,0.4,0.4v0.4C26.7,27.5,26.5,27.7,26.3,27.7
		z M25.5,31.3h-3.6c-0.2,0-0.4-0.2-0.4-0.4v-0.4c0-0.2,0.2-0.4,0.4-0.4h3.6c0.2,0,0.4,0.2,0.4,0.4v0.4
		C25.9,31.1,25.7,31.3,25.5,31.3z M20.7,19.4l-1.5,1.7c-0.1,0.1-0.2,0.1-0.3,0.1s-0.2,0-0.2-0.1l-0.9-0.7c-0.2-0.1-0.2-0.4-0.1-0.5
		c0.1-0.2,0.4-0.2,0.5-0.1l0.6,0.5l1.2-1.4c0.1-0.2,0.4-0.2,0.5,0C20.8,19,20.9,19.3,20.7,19.4z M20.7,23l-1.5,1.7
		c-0.1,0.1-0.2,0.1-0.3,0.1s-0.2,0-0.2-0.1L17.8,24c-0.2-0.1-0.2-0.4-0.1-0.5c0.1-0.2,0.4-0.2,0.5-0.1l0.6,0.5l1.2-1.4
		c0.1-0.2,0.4-0.2,0.5,0C20.8,22.6,20.9,22.8,20.7,23z M20.7,26.4l-1.5,1.7c-0.1,0.1-0.2,0.1-0.3,0.1s-0.2,0-0.2-0.1l-0.9-0.7
		c-0.2-0.1-0.2-0.4-0.1-0.5c0.1-0.2,0.4-0.2,0.5-0.1l0.6,0.5l1.2-1.4c0.1-0.2,0.4-0.2,0.5,0C20.8,26,20.9,26.2,20.7,26.4z
		 M20.7,29.8l-1.5,1.7c-0.1,0.1-0.2,0.1-0.3,0.1s-0.2,0-0.2-0.1l-0.9-0.7c-0.2-0.1-0.2-0.4-0.1-0.5c0.1-0.2,0.4-0.2,0.5-0.1l0.6,0.5
		l1.2-1.4c0.1-0.2,0.4-0.2,0.5,0C20.8,29.4,20.9,29.7,20.7,29.8z"/>
	<path display="inline" fill="#4C4646" d="M56.5,25l-7.3-6.8c-0.3-0.2-0.5-0.6-0.6-0.9C45,6.3,34-1.4,21.5,0.3
		C10.3,1.8,1.4,10.9,0.2,22.1c-1.7,15,10.1,27.8,24.7,27.8c11,0,20.4-7.2,23.7-17.2c0.1-0.3,0.3-0.6,0.6-0.9L56.5,25z M47.9,31.6
		c-2.9,10-12.1,17.3-23,17.3C11.7,48.9,1,38.2,1,25C1,11.8,11.7,1.1,24.9,1.1c10.9,0,20.1,7.3,23,17.3L55,25"/>
</g>
<g id="MailIcon">
	<path display="inline" fill="#4C4646" d="M37.9,31.2c0,0.5-0.2,1.1-0.4,1.5l-8.2-8.8l8.1-6.7c0.3,0.5,0.5,1,0.5,1.7V31.2z
		 M24.9,25.5l11.4-9.4c-0.4-0.2-1-0.4-1.5-0.4H15.2c-0.5,0-1.1,0.1-1.5,0.4L24.9,25.5z M28.1,25l-2.6,2.2c-0.1,0.1-0.3,0.2-0.5,0.2
		s-0.4-0.1-0.5-0.2L21.8,25l-8.3,8.8c0.5,0.3,1.1,0.5,1.6,0.5h19.5c0.6,0,1.3-0.2,1.6-0.5L28.1,25z M12.5,17.2
		c-0.3,0.5-0.5,1-0.5,1.7v12.3c0,0.5,0.2,1.1,0.4,1.5l8.2-8.7L12.5,17.2z"/>
	<path display="inline" fill="#4C4646" d="M56.5,25l-7.3-6.8c-0.3-0.2-0.5-0.6-0.6-0.9C45,6.3,34-1.4,21.5,0.3
		C10.3,1.8,1.4,10.9,0.2,22.1c-1.7,15,10.1,27.8,24.7,27.8c11,0,20.4-7.2,23.7-17.2c0.1-0.3,0.3-0.6,0.6-0.9L56.5,25z M47.9,31.6
		c-2.9,10-12.1,17.3-23,17.3C11.7,48.9,1,38.2,1,25C1,11.8,11.7,1.1,24.9,1.1c10.9,0,20.1,7.3,23,17.3L55,25"/>
</g>
<g id="MarketIcon">
	<path display="inline" fill="#4C4646" d="M14.2,16.1c-0.5-1.5,0.3-3.2,1.7-3.7c1.5-0.5,2.9,0.4,3.4,1.8l5.3,17.4
		c-0.5-0.2-1-0.2-1.5-0.1l-5.1-16.8c-0.2-0.7-0.9-1.1-1.5-0.8c-0.6,0.3-1,1-0.8,1.7c0.1,0.5-0.1,0.8-0.5,1
		C14.8,16.7,14.3,16.6,14.2,16.1z M34.8,29.8l-8.6,3.1c0.3,0.4,0.5,0.8,0.7,1.4c0,0,0,0,0,0.1l8.4-3c0.4-0.1,0.5-0.5,0.5-1
		C35.7,29.9,35.2,29.6,34.8,29.8z M26.3,34.4c0.5,1.6-0.3,3.4-1.8,3.9c-1.5,0.5-3.1-0.4-3.5-2s0.3-3.4,1.8-3.9
		C24.2,32,25.8,32.9,26.3,34.4z M24.9,35c-0.3-0.8-1-1.3-1.8-1c-0.7,0.3-1.2,1.2-0.9,1.9c0.3,0.8,1,1.3,1.8,1
		C24.8,36.6,25.2,35.8,24.9,35z M32.7,18l2.9,9.7c0.1,0.2,0,0.5-0.3,0.5l-9.2,3.4c-0.2,0.1-0.4,0-0.5-0.3l-2.9-9.7
		c-0.1-0.2,0-0.5,0.3-0.5l9.2-3.4C32.5,17.6,32.7,17.8,32.7,18z M31.5,23.6l-3.1-1.9l-1.5,3.5l1,0.5l0.6-1.5l1.2,3.8l1.1-0.4
		l-1.2-3.8l1.4,0.8L31.5,23.6z M28.8,17.8l-1.9-6.2c0-0.1-0.2-0.2-0.3-0.2L24.9,12l0,0l0,0l-0.8,0.3l0.7,2.3l-0.9,0.4l-0.7-2.3
		l-0.8,0.3l0,0l0,0l-1.6,0.5c-0.1,0-0.2,0.2-0.2,0.3l1.9,6.2c0,0.1,0.2,0.2,0.3,0.2l5.9-2.1C28.8,18.1,28.8,18,28.8,17.8z"/>
	<path display="inline" fill="#4C4646" d="M56.5,25l-7.3-6.8c-0.3-0.2-0.5-0.6-0.6-0.9C45,6.3,34-1.4,21.5,0.3
		C10.3,1.8,1.4,10.9,0.2,22.1c-1.7,15,10.1,27.8,24.7,27.8c11,0,20.4-7.2,23.7-17.2c0.1-0.3,0.3-0.6,0.6-0.9L56.5,25z M47.9,31.6
		c-2.9,10-12.1,17.3-23,17.3C11.7,48.9,1,38.2,1,25C1,11.8,11.7,1.1,24.9,1.1c10.9,0,20.1,7.3,23,17.3L55,25"/>
</g>
<g id="PadIcon">
	<path display="inline" fill="#4C4646" d="M20.2,20.1c-0.8,0-1.5,0.7-1.5,1.5s0.7,1.5,1.5,1.5s1.5-0.7,1.5-1.5S21,20.1,20.2,20.1z"
		/>
	<path display="inline" fill="#4C4646" d="M24.3,17c-1.2-0.1-2.5-0.5-4.1-1.2h-0.1H20c-4.7,0-8,8.2-8,13.8c0,1.3,0.2,2.4,0.6,3.2
		c0.5,0.9,1.2,1.4,2.1,1.4c2.1,0,3.3-1.2,4.6-2.4c1.4-1.3,2.9-2.7,5.7-2.7c2.4,0,4.2,1.4,5.9,2.8c1.5,1.2,2.8,2.2,4.4,2.2
		c0.8,0,1.5-0.4,1.9-1.2c0.3-0.7,0.5-1.6,0.5-2.7c0-4.9-3.6-14.4-7.9-14.4h-0.1h-0.1c-1.7,0.8-3,1.2-4.3,1.2 M20.2,24
		c-1.3,0-2.4-1.1-2.4-2.4s1.1-2.4,2.4-2.4s2.4,1.1,2.4,2.4C22.6,23,21.5,24,20.2,24z M29.7,18.2c0.5-0.3,1.2-0.2,1.6,0.3
		c0.2,0.3,0.2,0.6,0.2,0.8c-0.1,0.3-0.2,0.5-0.5,0.7c-0.2,0.1-0.4,0.2-0.6,0.2c-0.4,0-0.7-0.2-1-0.5C29,19.2,29.1,18.5,29.7,18.2z
		 M27.3,21.7c-0.3-0.5-0.2-1.2,0.3-1.6c0.5-0.3,1.2-0.2,1.6,0.3c0.2,0.3,0.2,0.6,0.2,0.9c-0.1,0.3-0.2,0.5-0.5,0.7
		c-0.2,0.1-0.4,0.2-0.6,0.2C27.8,22.3,27.6,22.1,27.3,21.7z M30.3,24.4c-0.2,0.1-0.4,0.2-0.6,0.2c-0.4,0-0.7-0.2-1-0.5
		c-0.2-0.3-0.2-0.6-0.2-0.9c0.1-0.3,0.2-0.5,0.5-0.7c0.5-0.3,1.2-0.2,1.6,0.3C31.1,23.4,30.8,24.1,30.3,24.4z M32.7,21.7
		c-0.1,0.3-0.2,0.5-0.5,0.7c-0.2,0.1-0.4,0.2-0.6,0.2c-0.4,0-0.7-0.2-1-0.5c-0.2-0.3-0.2-0.6-0.2-0.9c0.1-0.3,0.2-0.5,0.5-0.7
		c0.5-0.3,1.2-0.2,1.6,0.3C32.8,21.1,32.8,21.4,32.7,21.7z"/>
	<path display="inline" fill="#4C4646" d="M56.5,25l-7.3-6.8c-0.3-0.2-0.5-0.6-0.6-0.9C45,6.3,34-1.4,21.5,0.3
		C10.3,1.8,1.4,10.9,0.2,22.1c-1.7,15,10.1,27.8,24.7,27.8c11,0,20.4-7.2,23.7-17.2c0.1-0.3,0.3-0.6,0.6-0.9L56.5,25z M47.9,31.6
		c-2.9,10-12.1,17.3-23,17.3C11.7,48.9,1,38.2,1,25C1,11.8,11.7,1.1,24.9,1.1c10.9,0,20.1,7.3,23,17.3L55,25"/>
</g>
<g id="PaidIcon">
	<path display="inline" fill="#4C4646" d="M16.5,17.3h12.6c0.7,0,1.2-0.6,1.2-1.2v-0.7c0-0.7-0.6-1.2-1.2-1.2H16.5
		c-0.7,0-1.2,0.6-1.2,1.2v0.7C15.2,16.8,15.8,17.3,16.5,17.3z"/>
	<path display="inline" fill="#4C4646" d="M14.6,21.6h12.6c0.7,0,1.2-0.6,1.2-1.2v-0.7c0-0.7-0.6-1.2-1.2-1.2H14.6
		c-0.7,0-1.2,0.6-1.2,1.2v0.7C13.4,21.1,13.9,21.6,14.6,21.6z"/>
	<path display="inline" fill="#4C4646" d="M14.6,25.9h8.6c0.4-0.8,0.8-1.5,1.5-2.1c0.4-0.4,0.8-0.7,1.2-0.9H14.6
		c-0.7,0-1.2,0.6-1.2,1.2v0.7C13.4,25.4,13.9,25.9,14.6,25.9z"/>
	<path display="inline" fill="#4C4646" d="M16.5,27.1c-0.7,0-1.2,0.6-1.2,1.2V29c0,0.7,0.6,1.2,1.2,1.2h6c-0.1-0.4-0.1-0.8-0.1-1.1
		c0-0.7,0.1-1.3,0.3-2L16.5,27.1L16.5,27.1z"/>
	<path display="inline" fill="#4C4646" d="M14.6,34.5h10.2c-0.1-0.1-0.1-0.1-0.2-0.2c-0.7-0.7-1.2-1.5-1.6-2.4
		c-0.1-0.2-0.2-0.4-0.2-0.6h-8.2c-0.7,0-1.2,0.6-1.2,1.2v0.7C13.4,33.9,13.9,34.5,14.6,34.5z"/>
	<polygon display="inline" fill="#4C4646" points="28.5,27.1 28.5,28.5 29.3,28.5 29.3,27.1 29.3,26.9 28.5,26.9 	"/>
	<rect x="30.5" y="29.7" display="inline" fill="#4C4646" width="0.7" height="1.6"/>
	<path display="inline" fill="#4C4646" d="M27.4,22.8c-1.5,0.6-2.7,1.7-3.5,3.1c-0.2,0.4-0.4,0.8-0.5,1.1c-0.2,0.7-0.3,1.3-0.3,2
		c0,0.4,0,0.8,0.1,1.1c0.1,0.5,0.2,0.8,0.4,1.2c0.5,1.2,1.3,2.4,2.4,3.1c1.1,0.8,2.4,1.3,4,1.3c3.7,0,6.7-3,6.7-6.7s-3-6.7-6.7-6.7
		C29,22.4,28.1,22.6,27.4,22.8z M30.5,24.8v0.8h1.1c0.4,0,0.6,0.3,0.6,0.6s-0.3,0.7-0.7,0.7h-1.1v1.6h1.3c0.4,0,0.6,0.3,0.6,0.6v2.8
		c0,0.4-0.3,0.6-0.6,0.6h-1.3v0.8c0,0.4-0.3,0.6-0.6,0.6c-0.3,0-0.6-0.3-0.6-0.6v-0.8h-0.8H28c-0.4,0-0.6-0.3-0.6-0.6
		c0-0.2,0.1-0.3,0.2-0.4c0.1-0.1,0.3-0.2,0.5-0.2h1.2v-1.1v-0.6H28c-0.4,0-0.6-0.3-0.6-0.6v-2v-0.8c0-0.1,0-0.3,0.1-0.4
		c0.1-0.2,0.3-0.3,0.5-0.3l0,0h1.3v-0.8c0-0.4,0.3-0.6,0.6-0.6S30.5,24.5,30.5,24.8z"/>
	<path display="inline" fill="#4C4646" d="M56.5,25l-7.3-6.8c-0.3-0.2-0.5-0.6-0.6-0.9C45,6.3,34-1.4,21.5,0.3
		C10.3,1.8,1.4,10.9,0.2,22.1c-1.7,15,10.1,27.8,24.7,27.8c11,0,20.4-7.2,23.7-17.2c0.1-0.3,0.3-0.6,0.6-0.9L56.5,25z M47.9,31.6
		c-2.9,10-12.1,17.3-23,17.3C11.7,48.9,1,38.2,1,25C1,11.8,11.7,1.1,24.9,1.1c10.9,0,20.1,7.3,23,17.3L55,25"/>
</g>
<g id="SocialIcon">
	<path id="Social_x5F_icon" display="inline" fill="#4C4646" d="M18.7,24.7L18.7,24.7h0.2c0.8,0.7,1.6,1.1,2.5,1.1
		c0.8,0,1.7-0.4,2.5-1l0.1-0.1l0.2,0.1c0.1,0.1,0.4,0.3,0.5,0.4l0.2,0.1l0,0H25c0.1,0.1,0.3,0.2,0.5,0.3c0.2,0.1,0.3,0.1,0.5,0.2
		c0,0,0.8,0.3,1.7,0.7h0.2c0.8,0.3,1.2,0.8,1.2,0.8c1.3,1.9,1.5,6.3,1.5,6.8c0,0.7-0.2,0.8-0.2,0.9c-3,1.3-7.5,1.6-8.4,1.7l0,0l0,0
		h-0.1l0,0l0,0c-0.2,0-0.4,0-0.6,0h-0.1c-0.5,0-5.4-0.3-8.5-1.7c-0.1,0-0.2-0.2-0.3-0.8c0,0,0.2-4.7,1.5-6.8
		c0.1-0.1,0.4-0.5,1.2-0.8c0.7-0.2,2.4-0.7,3.2-1.4l0.1-0.1C18.4,25,18.5,24.9,18.7,24.7z M28,25.9L28,25.9
		c-0.3-0.1-0.5-0.2-0.7-0.3c0.3-0.1,0.6-0.3,0.7-0.4c0,0,0.1,0,0.1-0.1c0.1-0.1,0.2-0.2,0.3-0.3l0.1-0.1l0.1,0.1
		c0.6,0.5,1.2,0.8,1.8,0.8s1.2-0.3,1.8-0.8l0,0l0.1,0.1c0.1,0.1,0.3,0.2,0.4,0.3h0.2l0,0H33c0.1,0.1,0.2,0.1,0.4,0.2
		c0.1,0.1,0.3,0.1,0.4,0.1c0,0,0.6,0.2,1.3,0.5h0.1c0.6,0.2,0.9,0.5,0.9,0.6c1,1.4,1.1,4.6,1.1,5c0,0.5-0.1,0.6-0.2,0.6
		c-1.8,0.8-4.5,1.1-5.6,1.2c-0.1-1.4-0.5-4.9-1.6-6.7v-0.1C29.3,26.6,28.8,26.2,28,25.9z M27.3,20.6L27.3,20.6
		c0.1-0.1,0.2-0.2,0.1-0.3c-0.2-1.3-0.1-1.9,0-2.1c0.4-1.2,1.6-1.7,1.8-1.8c0,0,0.1,0,0.2-0.1l0,0h0.2l0,0h0.1h0.1h0.1
		c0,0,0.5,0.1,1.2,0.3l0.5,0.2c0.9,0.3,1.3,0.7,1.4,0.8c0.7,0.8,0.5,2.1,0.3,2.8c0,0.1,0,0.2,0,0.2v0.1c0,0.1,0.1,0.3-0.1,0.9
		c0,0.2-0.1,0.3-0.2,0.4l-0.1,0.1c-0.2,1.4-1.5,3.1-2.9,3.1c-1.1,0-2.5-1.4-2.7-3.1c0-0.1,0-0.1-0.1-0.2S27,21.7,27,21.4
		C27.3,21,27.3,20.7,27.3,20.6z M17.3,19.1L17.3,19.1c0.1-0.1,0.2-0.3,0.2-0.4c-0.3-1.8-0.1-2.6-0.1-2.8c0.5-1.6,2.2-2.4,2.6-2.6
		c0.1,0,0.2-0.1,0.3-0.1l0,0h0.3l0,0h0.1c0.1,0,0.1,0,0.2,0H21c0,0,0.7,0.1,1.6,0.4l0.7,0.2c1.2,0.4,1.7,1,1.8,1.1
		c1,1.1,0.7,2.8,0.5,3.7c0,0.1,0,0.2,0,0.3l0.1,0.1c0.1,0.1,0.1,0.5-0.1,1.2c0,0.2-0.1,0.4-0.3,0.6c0,0.1-0.1,0.1-0.1,0.2
		c-0.3,1.9-2.1,4.1-3.9,4.1c-1.5,0-3.4-1.9-3.7-4.1c0-0.1,0-0.1-0.1-0.2s-0.2-0.3-0.3-0.6C17.2,19.7,17.2,19.3,17.3,19.1z"/>
	<path display="inline" fill="#4C4646" d="M56.5,25l-7.3-6.8c-0.3-0.2-0.5-0.6-0.6-0.9C45,6.3,34-1.4,21.5,0.3
		C10.3,1.8,1.4,10.9,0.2,22.1c-1.7,15,10.1,27.8,24.7,27.8c11,0,20.4-7.2,23.7-17.2c0.1-0.3,0.3-0.6,0.6-0.9L56.5,25z M47.9,31.6
		c-2.9,10-12.1,17.3-23,17.3C11.7,48.9,1,38.2,1,25C1,11.8,11.7,1.1,24.9,1.1c10.9,0,20.1,7.3,23,17.3L55,25"/>
</g>
<g id="NewsIcon">
	<path display="inline" fill="#4C4646" d="M19.8,30.4c0.8,1.8,2,3.4,3.7,5c-3.2-0.5-6-2.4-7.5-5.1L19.8,30.4z M23.4,14.6
		c-3,0.5-5.7,2.3-7.3,4.8h3.7C20.6,17.8,21.8,16.2,23.4,14.6z M24.6,19.6v-5.1l0,0c-1.8,1.6-3.2,3.3-4.1,5L24.6,19.6z M16.1,21.2
		h-0.8h-0.7l-0.1,5.2l-2.9-5.3h-0.8H10l-0.1,7.4h0.7h0.7l0.1-5.4l3,5.4h0.8h0.7L16.1,21.2z M23,22.5v-0.7v-0.7L17.5,21l-0.1,7.4
		l5.6,0.1v-0.7v-0.7h-4.1v-1.9h3.6v-0.7V24h-3.6v-1.6L23,22.5z M30.5,26.7L30.5,26.7l-1-5.4h-0.8h-0.8l-1.1,5.4l-1.2-5.5h-0.8h-0.9
		l2,7.4h0.8h0.8l1.2-5.9l1.1,5.9h0.8h0.8l2.1-7.4h-0.8h-0.8L30.5,26.7z M25.5,14.5L25.5,14.5l-0.1,5.1h3.9
		C28.6,17.9,27.2,16.2,25.5,14.5z M34,19.7c-1.6-2.6-4.2-4.5-7.2-5c1.6,1.6,2.7,3.3,3.5,5H34z M26.3,35.5c3.2-0.5,6-2.3,7.7-4.8
		h-3.8C29.2,32.2,27.9,33.9,26.3,35.5z M29.1,30.5h-3.8v4.8C27,33.8,28.3,32.2,29.1,30.5z M39.5,25.2c-0.3-0.3-1.1-0.6-2.1-0.9
		c-0.8-0.2-1.2-0.3-1.5-0.5c-0.2-0.1-0.3-0.3-0.3-0.6s0.1-0.6,0.3-0.7c0.2-0.1,0.6-0.2,0.9-0.2c0.5,0,0.8,0.1,1.1,0.3
		c0.2,0.2,0.5,0.5,0.5,0.9h1.5c0-0.8-0.3-1.4-0.9-1.8c-0.6-0.5-1.2-0.7-2-0.7c-0.9,0-1.6,0.2-2.1,0.6c-0.6,0.5-0.8,1-0.8,1.7
		s0.2,1.1,0.6,1.5c0.5,0.3,1.2,0.6,2.4,0.9c0.7,0.1,1,0.3,1.2,0.5c0.2,0.1,0.3,0.3,0.3,0.7c0,0.3-0.1,0.5-0.5,0.7
		c-0.2,0.1-0.7,0.2-1.1,0.2c-0.5,0-0.9-0.1-1.1-0.3s-0.5-0.6-0.5-0.9h-1.5c0,0.8,0.3,1.5,0.8,1.9c0.6,0.5,1.2,0.7,2.3,0.7
		c0.9,0,1.7-0.2,2.3-0.6c0.6-0.5,0.8-0.9,0.8-1.7C39.9,26.1,39.8,25.6,39.5,25.2z M24.5,35.3v-4.8h-3.8
		C21.6,32.1,22.8,33.8,24.5,35.3z"/>
	<path display="inline" fill="#4C4646" d="M56.5,25l-7.3-6.8c-0.3-0.2-0.5-0.6-0.6-0.9C45,6.3,34-1.4,21.5,0.3
		C10.3,1.8,1.4,10.9,0.2,22.1c-1.7,15,10.1,27.8,24.7,27.8c11,0,20.4-7.2,23.7-17.2c0.1-0.3,0.3-0.6,0.6-0.9L56.5,25z M47.9,31.6
		c-2.9,10-12.1,17.3-23,17.3C11.7,48.9,1,38.2,1,25C1,11.8,11.7,1.1,24.9,1.1c10.9,0,20.1,7.3,23,17.3L55,25"/>
</g>
<g id="PersonalSettings">
	<path fill="#4C4646" d="M31.1,23.5v-0.3c0-0.6-0.4-1-0.9-1h-3.1c-0.5,0-0.9,0.5-0.9,1v0.3H13.1C13,23.9,13,24.4,13,24.8
		c0,0.5,0,0.9,0.1,1.3h13.1v0.3c0,0.6,0.4,1,0.9,1h3.1c0.5,0,0.9-0.5,0.9-1v-0.3h5.6c0.1-0.4,0.1-0.9,0.1-1.3c0-0.5,0-0.9-0.1-1.3
		H31.1z M29.9,26.3h-2.5v-2.8h2.5V26.3z"/>
	<path fill="#4C4646" d="M18.8,19.8c0,0.6,0.4,1,0.9,1h3.1c0.5,0,0.9-0.5,0.9-1v-0.3h11.7c-0.5-1-1.2-2-2-2.8h-9.7v-0.3
		c0-0.6-0.4-1-0.9-1h-3.1c-0.5,0-0.9,0.5-0.9,1v0.3h-2.3c-0.8,0.8-1.5,1.8-2,2.8h4.3V19.8z M19.9,16.7h2.5v2.8h-2.5V16.7z"/>
	<path fill="#4C4646" d="M23.7,30.2c0-0.6-0.4-1-0.9-1h-3.1c-0.5,0-0.9,0.5-0.9,1v0.3h-4.3c0.5,1,1.2,2,2,2.8h2.3v0.3
		c0,0.6,0.4,1,0.9,1h3.1c0.5,0,0.9-0.5,0.9-1v-0.3h9.8c0.8-0.8,1.5-1.8,2-2.8H23.7V30.2z M22.4,33.3h-2.5v-2.8h2.5V33.3z"/>
	<path fill="#4C4646" d="M56.5,25l-7.3-6.8c-0.3-0.2-0.5-0.6-0.6-0.9C45,6.3,34-1.4,21.5,0.3C10.3,1.8,1.5,10.9,0.2,22.1
		c-1.7,15,10.1,27.8,24.7,27.8c11,0,20.4-7.2,23.7-17.2c0.1-0.3,0.3-0.6,0.6-0.9L56.5,25z M47.9,31.6c-2.9,10-12.1,17.3-23,17.3
		C11.8,48.9,1,38.2,1,25C1,11.8,11.8,1.1,24.9,1.1c10.9,0,20.1,7.3,23,17.3L55,25"/>
</g>
</svg>
