<?xml version="1.0" encoding="utf-8"?>
<!-- Generator: Adobe Illustrator 18.0.0, SVG Export Plug-In . SVG Version: 6.00 Build 0)  -->
<!DOCTYPE svg PUBLIC "-//W3C//DTD SVG 1.1//EN" "http://www.w3.org/Graphics/SVG/1.1/DTD/svg11.dtd">
<svg version="1.1" id="Layer_1" xmlns="http://www.w3.org/2000/svg" xmlns:xlink="http://www.w3.org/1999/xlink" x="0px" y="0px"
	 viewBox="47 -3 56 56" enable-background="new 47 -3 56 56" xml:space="preserve">
<g id="Cms_icon">
	<path id="RoundArrow_10_" fill="#4C4646" d="M102.875,21.665l-5.987-4.403c-0.379-0.279-0.638-0.688-0.747-1.146
		C93.32,4.301,82.055-4.273,69.104-2.844C57.218-1.532,47.821,8.364,47.07,20.298C46.161,34.751,57.66,46.8,71.92,46.8
		c11.761,0,21.642-8.195,24.236-19.174c0.109-0.461,0.368-0.872,0.749-1.152l5.969-4.391
		C103.015,21.98,103.015,21.769,102.875,21.665z M71.92,45.8c-13.178,0-23.9-10.722-23.9-23.9C48.02,8.721,58.742-2,71.92-2
		c13.179,0,23.9,10.721,23.9,23.899C95.82,35.078,85.099,45.8,71.92,45.8z"/>
	<path fill="#4C4646" d="M71.92,10.382c-6.3,0-11.5,5.2-11.5,11.5s5.2,11.5,11.5,11.5c6.3,0,11.5-5.2,11.5-11.5
		S78.22,10.382,71.92,10.382z M77.72,23.082h-4.6v4.6h-2.3v-4.6h-4.6v-2.3h4.6v-4.6h2.3v4.6h4.6V23.082z"/>
</g>
<g id="Card_icon">
	<path id="RoundArrow_9_" fill="#4C4646" d="M102.875,21.665l-5.987-4.403c-0.379-0.279-0.638-0.688-0.747-1.146
		C93.32,4.301,82.055-4.273,69.104-2.844C57.218-1.532,47.821,8.364,47.07,20.298C46.161,34.751,57.66,46.8,71.92,46.8
		c11.761,0,21.642-8.195,24.236-19.174c0.109-0.461,0.368-0.872,0.749-1.152l5.969-4.391
		C103.015,21.98,103.015,21.769,102.875,21.665z M71.92,45.8c-13.178,0-23.9-10.722-23.9-23.9C48.02,8.721,58.742-2,71.92-2
		c13.179,0,23.9,10.721,23.9,23.899C95.82,35.078,85.099,45.8,71.92,45.8z"/>
	<path id="test_path" fill="#4C4646" d="M84.32,10.382c-0.1-0.4-0.5-0.7-0.9-0.5l-3,0.8c-0.3,0.1-0.5,0.3-0.6,0.6l-0.4,2.4
		l-18.6,2.2l0,0c0,0,0,0-0.1,0c0,0-0.1,0-0.1,0.1c0,0-0.1,0-0.1,0.1c-0.1,0-0.1,0.1-0.1,0.1s0,0-0.1,0.1l0,0c-0.1,0-0.1,0-0.1,0.1
		c0,0,0,0,0,0.1s0,0.2,0,0.3l2.2,9.1l0.8,3c0,0,0,0,0,0.1v0.1l0.1,0.1c0,0,0,0.1,0.1,0.1l0.1,0.1h0.1c0.1,0,0.2,0.1,0.3,0.1h15.9
		c0.4,0,0.8-0.3,0.8-0.8c0-0.4-0.3-0.8-0.8-0.8h-15.3l-0.4-1.5h14.1c0.1,0,0.2,0,0.3,0c0,0,0.1,0,0.1-0.1c0,0,0.1,0,0.1-0.1
		c0,0,0-0.1,0.1-0.1l0.1-0.1v-0.1v-0.1l0,0l0,0l2.3-13.9l2.5-0.6C84.12,11.182,84.42,10.782,84.32,10.382z M63.72,24.882l-1.9-7.7
		l2.4-0.2l1.1,7.9C65.32,24.882,63.72,24.882,63.72,24.882z M66.82,24.882l-1.2-8.1l2.4-0.3l0.4,8.4H66.82z M71.52,24.882h-1.6
		l-0.4-8.6l2.4-0.3L71.52,24.882z M74.62,24.882h-1.6l0.4-9l2.3-0.3L74.62,24.882z M77.62,24.882h-1.5l1.2-9.5l1.6-0.2L77.62,24.882
		z M66.92,30.982c-0.8,0-1.5,0.7-1.5,1.5c0,0.8,0.7,1.5,1.5,1.5c0.8,0,1.5-0.7,1.5-1.5C68.42,31.682,67.82,30.982,66.92,30.982z
		 M76.72,30.982c-0.8,0-1.5,0.7-1.5,1.5c0,0.8,0.7,1.5,1.5,1.5c0.8,0,1.5-0.7,1.5-1.5C78.32,31.582,77.62,30.982,76.72,30.982z"/>
</g>
<g id="Delivery_icon">
	<path id="RoundArrow_8_" fill="#4C4646" d="M102.875,21.665l-5.987-4.403c-0.379-0.279-0.638-0.688-0.747-1.146
		C93.32,4.301,82.055-4.273,69.104-2.844C57.218-1.532,47.821,8.364,47.07,20.298C46.161,34.751,57.66,46.8,71.92,46.8
		c11.761,0,21.642-8.195,24.236-19.174c0.109-0.461,0.368-0.872,0.749-1.152l5.969-4.391
		C103.015,21.98,103.015,21.769,102.875,21.665z M71.92,45.8c-13.178,0-23.9-10.722-23.9-23.9C48.02,8.721,58.742-2,71.92-2
		c13.179,0,23.9,10.721,23.9,23.899C95.82,35.078,85.099,45.8,71.92,45.8z"/>
	<path fill="#4C4646" d="M83.02,14.082l-2.8-3.5c-0.3-0.3-0.7-0.5-1.1-0.5h-14.4c-0.4,0-0.8,0.2-1.1,0.5l-2.8,3.5
		c-0.3,0.4-0.5,1-0.5,1.6v2.6c0.2-0.3,0.5-0.6,0.9-0.7c0-0.3,0.1-0.6,0.3-0.8c0.3-0.4,0.7-0.8,1.2-0.9c0.2,0,0.3-0.1,0.5-0.1
		c0.7,0,1.3,0.3,1.6,0.9c0.1,0,0.2,0,0.3,0c0.3,0,0.6,0.1,0.9,0.2l1.5-0.4c0.2-0.1,0.4-0.1,0.6-0.1c1.1,0,2,0.7,2.3,1.8l3,11.6
		c0.2,0.6,0.1,1.2-0.2,1.8c-0.3,0.5-0.8,0.9-1.4,1.1l-1.4,0.4h11.4c1,0,1.7-0.8,1.7-1.7v-15.6
		C83.62,15.182,83.32,14.482,83.02,14.082z M61.82,14.082l0.9-1.2h6.3l0.6-1h-6.1l0.7-0.9c0.1-0.2,0.3-0.3,0.5-0.3h14.4
		c0.2,0,0.4,0.1,0.5,0.3l0.7,0.9h-6.2l0.3,1h6.7l0.9,1.2H61.82z M62.02,18.382l-0.4,0.1c-0.4,0.1-0.7,0.5-0.6,0.9l0,0
		c0.1,0.4,0.5,0.7,0.9,0.6l3.3-0.9c0.4-0.1,0.7-0.5,0.6-0.9l0,0c-0.1-0.4-0.5-0.7-0.9-0.6l-0.4,0.1c-0.2,0.1-0.4-0.1-0.5-0.3l0,0
		c-0.1-0.5-0.6-0.8-1.1-0.6l0,0c-0.5,0.1-0.8,0.6-0.6,1.1l0,0C62.42,18.082,62.32,18.282,62.02,18.382z M63.12,17.282
		c0.2-0.1,0.4,0.1,0.5,0.3c0.1,0.2-0.1,0.4-0.3,0.5c-0.2,0.1-0.4-0.1-0.5-0.3C62.82,17.482,62.92,17.282,63.12,17.282z
		 M68.02,29.282c0,0.1,0,0.3-0.2,0.3l-4.8,1.3c-0.1,0-0.3,0-0.3-0.2l-0.1-0.3c0-0.1,0-0.3,0.2-0.3l4.8-1.3c0.1,0,0.3,0,0.3,0.2
		L68.02,29.282z M68.62,24.182l0.1,0.3c0,0.1,0,0.3-0.2,0.3l-6.6,1.7c-0.1,0-0.3,0-0.3-0.2l-0.1-0.3c0-0.1,0-0.3,0.2-0.3l6.6-1.7
		C68.42,23.982,68.52,24.082,68.62,24.182z M67.92,22.482l-6.6,1.7c-0.1,0-0.3,0-0.3-0.2l-0.1-0.3c0-0.1,0-0.3,0.2-0.3l6.6-1.7
		c0.1,0,0.3,0,0.3,0.2l0.1,0.3C68.12,22.282,68.02,22.482,67.92,22.482z M67.72,27.182l-5.3,1.4c-0.1,0-0.3,0-0.3-0.2l-0.1-0.3
		c0-0.1,0-0.3,0.2-0.3l5.3-1.4c0.1,0,0.3,0,0.3,0.2l0.1,0.3C67.92,26.982,67.92,27.082,67.72,27.182z M72.52,29.982l-3-11.6
		c-0.2-0.7-0.9-1.1-1.6-0.9l-1.6,0.3c0,0.1,0.1,0.2,0.1,0.2c0.2,0.7-0.2,1.4-0.9,1.6l-3.3,0.8c-0.7,0.2-1.4-0.2-1.6-0.8
		c0-0.1-0.1-0.2-0.1-0.4l-1.5,0.4c-0.7,0.2-1.1,0.9-0.9,1.6l3,11.6c0.2,0.7,0.9,1.1,1.6,0.9l8.9-2.3
		C72.32,31.382,72.72,30.682,72.52,29.982z M62.42,32.582l-2.6-10.1l8.9-2.3l2.6,10.1L62.42,32.582z"/>
</g>
<g id="Settings_icon">
	<path id="RoundArrow_7_" fill="#4C4646" d="M102.875,21.665l-5.987-4.403c-0.379-0.279-0.638-0.688-0.747-1.146
		C93.32,4.301,82.055-4.273,69.104-2.844C57.218-1.532,47.821,8.364,47.07,20.298C46.161,34.751,57.66,46.8,71.92,46.8
		c11.761,0,21.642-8.195,24.236-19.174c0.109-0.461,0.368-0.872,0.749-1.152l5.969-4.391
		C103.015,21.98,103.015,21.769,102.875,21.665z M71.92,45.8c-13.178,0-23.9-10.722-23.9-23.9C48.02,8.721,58.742-2,71.92-2
		c13.179,0,23.9,10.721,23.9,23.899C95.82,35.078,85.099,45.8,71.92,45.8z"/>
	<path fill="#4C4646" d="M69.52,30.082l-0.6-0.3c0-0.4,0-0.9-0.1-1.4l0.6-0.3c0.4-0.2,0.5-0.6,0.4-1l-0.3-0.8
		c-0.2-0.4-0.6-0.5-1-0.4l-0.6,0.5c-0.3-0.4-0.6-0.7-1-0.9l0.2-0.6c0.1-0.4-0.1-0.8-0.4-0.9l-0.8-0.4c-0.4-0.1-0.8,0.1-0.9,0.4
		l-0.3,0.7c-0.4,0-0.9,0-1.4,0.1l-0.3-0.6c-0.2-0.4-0.6-0.5-1-0.4l-0.8,0.3c-0.4,0.2-0.5,0.6-0.4,1l0.3,0.6c-0.4,0.3-0.7,0.6-0.9,1
		l-0.6-0.2c-0.4-0.1-0.8,0.1-0.9,0.4l-0.2,0.8c-0.1,0.2-0.1,0.4,0,0.6c0.1,0.2,0.2,0.3,0.4,0.4l0.6,0.2c0,0.4,0,0.9,0.1,1.4
		l-0.6,0.3c-0.4,0.2-0.5,0.6-0.4,1l0.3,0.8c0.2,0.4,0.6,0.5,1,0.4l0.6-0.3c0.3,0.4,0.6,0.7,1,0.9l-0.2,0.6c-0.1,0.2-0.1,0.4,0,0.6
		c0.1,0.2,0.2,0.3,0.4,0.4l0.8,0.3c0.2,0.1,0.4,0.1,0.6,0c0.2-0.1,0.3-0.2,0.4-0.4l0.2-0.6c0.4,0,0.9,0,1.4-0.1l0.3,0.6
		c0.2,0.4,0.6,0.5,1,0.4l0.8-0.3c0.4-0.2,0.5-0.6,0.4-1l-0.3-0.6c0.4-0.3,0.7-0.6,0.9-1l0.6,0.2c0.2,0.1,0.4,0.1,0.6,0
		c0.2-0.1,0.3-0.2,0.4-0.4l0.3-0.8C70.12,30.582,69.92,30.182,69.52,30.082z M65.42,31.982c-0.4,0.2-0.8,0.3-1.2,0.3
		c-1.1,0-2.2-0.7-2.7-1.7c-0.7-1.5,0-3.2,1.4-3.9c0.4-0.2,0.8-0.3,1.2-0.3c1.1,0,2.2,0.7,2.7,1.7
		C67.52,29.582,66.92,31.282,65.42,31.982z"/>
	<path fill="#4C4646" d="M76.82,32.182l-0.3-0.1c0-0.2,0-0.5,0-0.8l0.3-0.2c0.2-0.1,0.3-0.3,0.2-0.5l-0.2-0.4
		c-0.1-0.2-0.3-0.3-0.5-0.2l-0.4,0.1c-0.2-0.2-0.3-0.4-0.6-0.5l0.1-0.3c0.1-0.2,0-0.4-0.2-0.5l-0.4-0.2c-0.2-0.1-0.5,0-0.5,0.2
		l-0.1,0.3c-0.2,0-0.5,0-0.8,0l-0.2-0.3c-0.1-0.1-0.3-0.2-0.5-0.1l-0.4,0.2c-0.2,0.1-0.3,0.3-0.2,0.5l0.2,0.3
		c-0.2,0.2-0.4,0.3-0.5,0.6l-0.3-0.1c-0.2-0.1-0.5,0-0.5,0.2l-0.2,0.4c0,0.1,0,0.2,0,0.3s0.1,0.2,0.2,0.2l0.3,0.1c0,0.2,0,0.5,0,0.8
		l-0.3,0.2c-0.2,0.1-0.3,0.3-0.2,0.5l0.2,0.4c0.1,0.2,0.3,0.3,0.5,0.2l0.3-0.2c0.2,0.2,0.3,0.4,0.6,0.5l-0.1,0.3c0,0.1,0,0.2,0,0.3
		s0.1,0.2,0.2,0.2l0.4,0.2c0.1,0,0.2,0,0.3,0s0.2-0.1,0.2-0.2l0.1-0.3c0.2,0,0.5,0,0.8,0l0.2,0.3c0.1,0.2,0.3,0.3,0.5,0.2l0.4-0.2
		c0.2-0.1,0.3-0.3,0.2-0.5l-0.2-0.3c0.2-0.2,0.4-0.3,0.5-0.6l0.3,0.1c0.1,0,0.2,0,0.3,0s0.2-0.1,0.2-0.2l0.2-0.4
		C77.12,32.482,77.02,32.282,76.82,32.182z M74.52,33.282c-0.2,0.1-0.4,0.1-0.7,0.1c-0.6,0-1.2-0.4-1.5-0.9c-0.4-0.8,0-1.8,0.8-2.2
		c0.2-0.1,0.4-0.1,0.7-0.1c0.6,0,1.2,0.4,1.5,0.9C75.72,31.882,75.42,32.882,74.52,33.282z"/>
	<path fill="#4C4646" d="M84.52,19.182l-1-0.4c0.1-0.8,0.1-1.5-0.1-2.3l1-0.5c0.6-0.3,0.9-1,0.6-1.6l-0.6-1.3
		c-0.3-0.6-1-0.9-1.6-0.6l-1,0.5c-0.5-0.6-1.1-1.1-1.7-1.5l0.4-1c0.2-0.6-0.1-1.4-0.7-1.6l-1.3-0.5c-0.6-0.2-1.4,0.1-1.6,0.7l-0.4,1
		c-0.8-0.1-1.5-0.1-2.3,0.1l-0.5-1c-0.3-0.6-1-0.9-1.6-0.6l-1.3,0.6c-0.6,0.3-0.9,1-0.6,1.6l0.5,1c-0.6,0.5-1.1,1.1-1.5,1.7l-1-0.4
		c-0.6-0.2-1.4,0.1-1.6,0.7l-0.5,1.3c-0.1,0.3-0.1,0.6,0,0.9c0.1,0.3,0.4,0.5,0.7,0.6l1,0.4c-0.1,0.8-0.1,1.5,0.1,2.3l-1,0.5
		c-0.6,0.3-0.9,1-0.6,1.6l0.6,1.3c0.3,0.6,1,0.9,1.6,0.6l1-0.5c0.5,0.6,1.1,1.1,1.7,1.5l-0.4,1c-0.1,0.3-0.1,0.6,0,0.9
		s0.4,0.5,0.7,0.6l1.3,0.5c0.3,0.1,0.6,0.1,0.9,0c0.3-0.1,0.5-0.4,0.6-0.7l0.4-1c0.8,0.1,1.5,0.1,2.3-0.1l0.5,1
		c0.3,0.6,1,0.9,1.6,0.6l1.3-0.6c0.6-0.3,0.9-1,0.6-1.6l-0.5-1c0.6-0.5,1.1-1.1,1.5-1.7l1,0.4c0.3,0.1,0.6,0.1,1,0
		c0.3-0.1,0.5-0.4,0.6-0.7l0.5-1.3C85.52,20.082,85.22,19.382,84.52,19.182z M77.72,22.382c-0.7,0.3-1.3,0.5-2.1,0.5
		c-1.9,0-3.7-1.1-4.5-2.9c-1.1-2.5-0.1-5.4,2.4-6.5c0.7-0.3,1.3-0.5,2.1-0.5c1.9,0,3.7,1.1,4.5,2.9
		C81.22,18.382,80.22,21.282,77.72,22.382z"/>
</g>
<g id="List_icon">
	<path id="RoundArrow_5_" fill="#4C4646" d="M102.875,21.665l-5.987-4.403c-0.379-0.279-0.638-0.688-0.747-1.146
		C93.32,4.301,82.055-4.273,69.104-2.844C57.218-1.532,47.821,8.364,47.07,20.298C46.161,34.751,57.66,46.8,71.92,46.8
		c11.761,0,21.642-8.195,24.236-19.174c0.109-0.461,0.368-0.872,0.749-1.152l5.969-4.391
		C103.015,21.98,103.015,21.769,102.875,21.665z M71.92,45.8c-13.178,0-23.9-10.722-23.9-23.9C48.02,8.721,58.742-2,71.92-2
		c13.179,0,23.9,10.721,23.9,23.899C95.82,35.078,85.099,45.8,71.92,45.8z"/>
	<path fill="#4C4646" d="M72.92,9.382h-0.6c-0.3,0-0.6-0.3-0.6-0.6l0,0c0-0.8-0.6-1.4-1.4-1.4l0,0c-0.8,0-1.4,0.6-1.4,1.4l0,0
		c0,0.3-0.3,0.6-0.6,0.6h-0.6c-0.7,0-1.2,0.5-1.2,1.2l0,0c0,0.7,0.5,1.2,1.2,1.2h5.2c0.7,0,1.2-0.5,1.2-1.2l0,0
		C74.12,9.882,73.62,9.382,72.92,9.382z M70.32,9.382c-0.3,0-0.6-0.3-0.6-0.6s0.3-0.6,0.6-0.6s0.6,0.3,0.6,0.6
		S70.62,9.382,70.32,9.382z M73.02,32.582h-10.1c-0.9,0-1.6-0.7-1.6-1.6v-19.2c0-0.9,0.7-1.6,1.2-1.6h3.2c0,0.1,0,0.3,0,0.4
		c0,1.1,0.9,2,2,2h5.2c1.1,0,2-0.9,2-2c0-0.1,0-0.3,0-0.4h2.4c1.3,0,2,0.7,2,1.6v12c-0.1,0-0.3,0-0.4,0c-0.6,0-1.1,0.1-1.6,0.2v-9.4
		h-14v16h9.2C72.62,31.282,72.72,31.982,73.02,32.582z M78.92,24.982c-2.9,0-5.2,2.3-5.2,5.2c0,2.9,2.3,5.2,5.2,5.2s5.2-2.3,5.2-5.2
		S81.82,24.982,78.92,24.982z M82.32,29.082l-3.2,3.6c-0.2,0.2-0.4,0.3-0.6,0.3c-0.2,0-0.4-0.1-0.5-0.2l-2-1.6
		c-0.3-0.3-0.4-0.8-0.1-1.1c0.3-0.3,0.8-0.4,1.1-0.1l1.4,1.1l2.7-3c0.3-0.3,0.8-0.4,1.1-0.1C82.62,28.282,82.62,28.782,82.32,29.082
		z M75.32,21.382h-6.4c-0.2,0-0.4-0.2-0.4-0.4v-0.4c0-0.2,0.2-0.4,0.4-0.4h6.4c0.2,0,0.4,0.2,0.4,0.4v0.4
		C75.72,21.182,75.52,21.382,75.32,21.382z M75.32,17.782h-6.4c-0.2,0-0.4-0.2-0.4-0.4v-0.4c0-0.2,0.2-0.4,0.4-0.4h6.4
		c0.2,0,0.4,0.2,0.4,0.4v0.4C75.72,17.582,75.52,17.782,75.32,17.782z M73.32,24.582h-4.4c-0.2,0-0.4-0.2-0.4-0.4v-0.4
		c0-0.2,0.2-0.4,0.4-0.4h4.4c0.2,0,0.4,0.2,0.4,0.4v0.4C73.72,24.382,73.52,24.582,73.32,24.582z M72.52,28.182h-3.6
		c-0.2,0-0.4-0.2-0.4-0.4v-0.4c0-0.2,0.2-0.4,0.4-0.4h3.6c0.2,0,0.4,0.2,0.4,0.4v0.4C72.92,27.982,72.72,28.182,72.52,28.182z
		 M67.72,16.282l-1.5,1.7c-0.1,0.1-0.2,0.1-0.3,0.1s-0.2,0-0.2-0.1l-0.9-0.7c-0.2-0.1-0.2-0.4-0.1-0.5c0.1-0.2,0.4-0.2,0.5-0.1
		l0.6,0.5l1.2-1.4c0.1-0.2,0.4-0.2,0.5,0C67.82,15.882,67.92,16.182,67.72,16.282z M67.72,19.882l-1.5,1.7c-0.1,0.1-0.2,0.1-0.3,0.1
		s-0.2,0-0.2-0.1l-0.9-0.7c-0.2-0.1-0.2-0.4-0.1-0.5c0.1-0.2,0.4-0.2,0.5-0.1l0.6,0.5l1.2-1.4c0.1-0.2,0.4-0.2,0.5,0
		C67.82,19.482,67.92,19.682,67.72,19.882z M67.72,23.282l-1.5,1.7c-0.1,0.1-0.2,0.1-0.3,0.1s-0.2,0-0.2-0.1l-0.9-0.7
		c-0.2-0.1-0.2-0.4-0.1-0.5c0.1-0.2,0.4-0.2,0.5-0.1l0.6,0.5l1.2-1.4c0.1-0.2,0.4-0.2,0.5,0C67.82,22.882,67.92,23.082,67.72,23.282
		z M67.72,26.682l-1.5,1.7c-0.1,0.1-0.2,0.1-0.3,0.1s-0.2,0-0.2-0.1l-0.9-0.7c-0.2-0.1-0.2-0.4-0.1-0.5c0.1-0.2,0.4-0.2,0.5-0.1
		l0.6,0.5l1.2-1.4c0.1-0.2,0.4-0.2,0.5,0C67.82,26.282,67.92,26.582,67.72,26.682z"/>
</g>
<g id="Mail_icon">
	<path id="RoundArrow_6_" fill="#4C4646" d="M102.875,21.665l-5.987-4.403c-0.379-0.279-0.638-0.688-0.747-1.146
		C93.32,4.301,82.055-4.273,69.104-2.844C57.218-1.532,47.821,8.364,47.07,20.298C46.161,34.751,57.66,46.8,71.92,46.8
		c11.761,0,21.642-8.195,24.236-19.174c0.109-0.461,0.368-0.872,0.749-1.152l5.969-4.391
		C103.015,21.98,103.015,21.769,102.875,21.665z M71.92,45.8c-13.178,0-23.9-10.722-23.9-23.9C48.02,8.721,58.742-2,71.92-2
		c13.179,0,23.9,10.721,23.9,23.899C95.82,35.078,85.099,45.8,71.92,45.8z"/>
	<path fill="#4C4646" d="M83.92,27.582c0,0.5-0.2,1-0.4,1.4l-7.6-8.1l7.5-6.2c0.3,0.5,0.5,0.9,0.5,1.6V27.582z M71.92,22.382
		l10.5-8.7c-0.4-0.2-0.9-0.4-1.4-0.4h-18.1c-0.5,0-1,0.1-1.4,0.4L71.92,22.382z M74.82,21.882l-2.4,2c-0.1,0.1-0.3,0.2-0.5,0.2
		c-0.2,0-0.4-0.1-0.5-0.2l-2.4-2l-7.7,8.1c0.5,0.3,1,0.5,1.5,0.5h18c0.6,0,1.2-0.2,1.5-0.5L74.82,21.882z M60.42,14.682
		c-0.3,0.5-0.5,0.9-0.5,1.6v11.4c0,0.5,0.2,1,0.4,1.4l7.6-8L60.42,14.682z"/>
</g>
<g id="Market_icon">
	<path id="RoundArrow_11_" fill="#4C4646" d="M102.875,21.665l-5.987-4.403c-0.379-0.279-0.638-0.688-0.747-1.146
		C93.32,4.301,82.055-4.273,69.104-2.844C57.218-1.532,47.821,8.364,47.07,20.298C46.161,34.751,57.66,46.8,71.92,46.8
		c11.761,0,21.642-8.195,24.236-19.174c0.109-0.461,0.368-0.872,0.749-1.152l5.969-4.391
		C103.015,21.98,103.015,21.769,102.875,21.665z M71.92,45.8c-13.178,0-23.9-10.722-23.9-23.9C48.02,8.721,58.742-2,71.92-2
		c13.179,0,23.9,10.721,23.9,23.899C95.82,35.078,85.099,45.8,71.92,45.8z"/>
	<path fill="#4C4646" d="M60.12,12.082c-0.5-1.7,0.3-3.5,1.9-4.1c1.6-0.6,3.2,0.4,3.7,2l5.8,19.2c-0.5-0.2-1.1-0.2-1.7-0.1
		l-5.6-18.5c-0.2-0.8-1-1.2-1.7-0.9s-1.1,1.1-0.9,1.9c0.1,0.5-0.1,0.9-0.5,1.1C60.72,12.782,60.22,12.582,60.12,12.082z
		 M82.82,27.182l-9.5,3.4c0.3,0.4,0.6,0.9,0.8,1.5c0,0,0,0,0,0.1l9.2-3.3c0.4-0.1,0.6-0.6,0.5-1.1S83.22,26.982,82.82,27.182z
		 M73.42,32.282c0.5,1.8-0.3,3.7-2,4.3c-1.6,0.6-3.4-0.4-3.9-2.2s0.3-3.7,2-4.3C71.12,29.582,72.92,30.582,73.42,32.282z
		 M71.92,32.882c-0.3-0.9-1.1-1.4-2-1.1c-0.8,0.3-1.3,1.3-1,2.1c0.3,0.9,1.1,1.4,2,1.1C71.72,34.682,72.22,33.782,71.92,32.882z
		 M80.42,14.182l3.2,10.7c0.1,0.2,0,0.5-0.3,0.5l-10.1,3.7c-0.2,0.1-0.4,0-0.5-0.3l-3.2-10.7c-0.1-0.2,0-0.5,0.3-0.5l10.1-3.7
		C80.22,13.782,80.42,13.982,80.42,14.182z M79.12,20.382l-3.4-2.1l-1.6,3.9l1.1,0.5l0.7-1.7l1.3,4.2l1.2-0.4l-1.3-4.2l1.5,0.9
		L79.12,20.382z M76.12,13.982l-2.1-6.8c0-0.1-0.2-0.2-0.3-0.2l-1.8,0.6l0,0l0,0l-0.9,0.3l0.8,2.5l-1,0.4l-0.8-2.5l-0.9,0.3l0,0l0,0
		l-1.8,0.6c-0.1,0-0.2,0.2-0.2,0.3l2.1,6.8c0,0.1,0.2,0.2,0.3,0.2l6.5-2.3C76.12,14.282,76.12,14.182,76.12,13.982z"/>
</g>
<g id="Pad_icon">
	<path id="RoundArrow_4_" fill="#4C4646" d="M102.875,21.665l-5.987-4.403c-0.379-0.279-0.638-0.688-0.747-1.146
		C93.32,4.301,82.055-4.273,69.104-2.844C57.218-1.532,47.821,8.364,47.07,20.298C46.161,34.751,57.66,46.8,71.92,46.8
		c11.761,0,21.642-8.195,24.236-19.174c0.109-0.461,0.368-0.872,0.749-1.152l5.969-4.391
		C103.015,21.98,103.015,21.769,102.875,21.665z M71.92,45.8c-13.178,0-23.9-10.722-23.9-23.9C48.02,8.721,58.742-2,71.92-2
		c13.179,0,23.9,10.721,23.9,23.899C95.82,35.078,85.099,45.8,71.92,45.8z"/>
	<path fill="#4C4646" d="M67.22,16.982c-0.8,0-1.5,0.7-1.5,1.5s0.7,1.5,1.5,1.5c0.8,0,1.5-0.7,1.5-1.5
		C68.72,17.682,68.02,16.982,67.22,16.982z"/>
	<path fill="#4C4646" d="M71.32,13.882c-1.2-0.1-2.5-0.5-4.1-1.2h-0.1h-0.1c-4.7,0-8,8.2-8,13.8c0,1.3,0.2,2.4,0.6,3.2
		c0.5,0.9,1.2,1.4,2.1,1.4c2.1,0,3.3-1.2,4.6-2.4c1.4-1.3,2.9-2.7,5.7-2.7c2.4,0,4.2,1.4,5.9,2.8c1.5,1.2,2.8,2.2,4.4,2.2
		c0.8,0,1.5-0.4,1.9-1.2c0.3-0.7,0.5-1.6,0.5-2.7c0-4.9-3.6-14.4-7.9-14.4h-0.1h-0.1c-1.7,0.8-3,1.2-4.3,1.2 M67.22,20.882
		c-1.3,0-2.4-1.1-2.4-2.4s1.1-2.4,2.4-2.4c1.3,0,2.4,1.1,2.4,2.4C69.62,19.882,68.52,20.882,67.22,20.882z M76.72,15.082
		c0.5-0.3,1.2-0.2,1.6,0.3c0.2,0.3,0.2,0.6,0.2,0.8c-0.1,0.3-0.2,0.5-0.5,0.7c-0.2,0.1-0.4,0.2-0.6,0.2c-0.4,0-0.7-0.2-1-0.5
		C76.02,16.082,76.12,15.382,76.72,15.082z M74.32,18.582c-0.3-0.5-0.2-1.2,0.3-1.6c0.5-0.3,1.2-0.2,1.6,0.3
		c0.2,0.3,0.2,0.6,0.2,0.9c-0.1,0.3-0.2,0.5-0.5,0.7c-0.2,0.1-0.4,0.2-0.6,0.2C74.82,19.182,74.62,18.982,74.32,18.582z
		 M77.32,21.282c-0.2,0.1-0.4,0.2-0.6,0.2c-0.4,0-0.7-0.2-1-0.5c-0.2-0.3-0.2-0.6-0.2-0.9c0.1-0.3,0.2-0.5,0.5-0.7
		c0.5-0.3,1.2-0.2,1.6,0.3C78.12,20.282,77.82,20.982,77.32,21.282z M79.72,18.582c-0.1,0.3-0.2,0.5-0.5,0.7
		c-0.2,0.1-0.4,0.2-0.6,0.2c-0.4,0-0.7-0.2-1-0.5c-0.2-0.3-0.2-0.6-0.2-0.9c0.1-0.3,0.2-0.5,0.5-0.7c0.5-0.3,1.2-0.2,1.6,0.3
		C79.82,17.982,79.82,18.282,79.72,18.582z"/>
</g>
<g id="Paid_icon">
	<path id="RoundArrow_3_" fill="#4C4646" d="M102.875,21.665l-5.987-4.403c-0.379-0.279-0.638-0.688-0.747-1.146
		C93.32,4.301,82.055-4.273,69.104-2.844C57.218-1.532,47.821,8.364,47.07,20.298C46.161,34.751,57.66,46.8,71.92,46.8
		c11.761,0,21.642-8.195,24.236-19.174c0.109-0.461,0.368-0.872,0.749-1.152l5.969-4.391
		C103.015,21.98,103.015,21.769,102.875,21.665z M71.92,45.8c-13.178,0-23.9-10.722-23.9-23.9C48.02,8.721,58.742-2,71.92-2
		c13.179,0,23.9,10.721,23.9,23.899C95.82,35.078,85.099,45.8,71.92,45.8z"/>
	<path fill="#4C4646" d="M62.92,13.682h13.4c0.7,0,1.3-0.6,1.3-1.3v-0.7c0-0.7-0.6-1.3-1.3-1.3h-13.4c-0.7,0-1.3,0.6-1.3,1.3v0.7
		C61.62,13.182,62.22,13.682,62.92,13.682z"/>
	<path fill="#4C4646" d="M60.92,18.282h13.4c0.7,0,1.3-0.6,1.3-1.3v-0.7c0-0.7-0.6-1.3-1.3-1.3h-13.4c-0.7,0-1.3,0.6-1.3,1.3v0.7
		C59.62,17.782,60.22,18.282,60.92,18.282z"/>
	<path fill="#4C4646" d="M60.92,22.882h9.1c0.4-0.8,0.9-1.6,1.6-2.2c0.4-0.4,0.8-0.7,1.3-1h-12c-0.7,0-1.3,0.6-1.3,1.3v0.7
		C59.62,22.282,60.22,22.882,60.92,22.882z"/>
	<path fill="#4C4646" d="M62.92,24.082c-0.7,0-1.3,0.6-1.3,1.3v0.7c0,0.7,0.6,1.3,1.3,1.3h6.4c-0.1-0.4-0.1-0.8-0.1-1.2
		c0-0.7,0.1-1.4,0.3-2.1L62.92,24.082L62.92,24.082z"/>
	<path fill="#4C4646" d="M60.92,31.982h10.8c-0.1-0.1-0.1-0.1-0.2-0.2c-0.7-0.7-1.3-1.6-1.7-2.5c-0.1-0.2-0.2-0.4-0.2-0.6h-8.7
		c-0.7,0-1.3,0.6-1.3,1.3v0.7C59.62,31.382,60.22,31.982,60.92,31.982z"/>
	<polygon fill="#4C4646" points="75.72,24.082 75.72,25.582 76.52,25.582 76.52,24.082 76.52,23.882 75.72,23.882 	"/>
	<rect x="77.82" y="26.882" fill="#4C4646" width="0.7" height="1.7"/>
	<path fill="#4C4646" d="M74.52,19.582c-1.6,0.6-2.9,1.8-3.7,3.3c-0.2,0.4-0.4,0.8-0.5,1.2c-0.2,0.7-0.3,1.4-0.3,2.1
		c0,0.4,0,0.8,0.1,1.2c0.1,0.5,0.2,0.9,0.4,1.3c0.5,1.3,1.4,2.5,2.5,3.3c1.2,0.9,2.6,1.4,4.2,1.4c3.9,0,7.1-3.2,7.1-7.1
		s-3.2-7.1-7.1-7.1C76.22,19.082,75.32,19.282,74.52,19.582z M77.82,21.682v0.9h1.2c0.4,0,0.6,0.3,0.6,0.6s-0.3,0.7-0.7,0.7h-1.2
		v1.7h1.4c0.4,0,0.6,0.3,0.6,0.6v3c0,0.4-0.3,0.6-0.6,0.6h-1.4v0.9c0,0.4-0.3,0.6-0.6,0.6c-0.3,0-0.6-0.3-0.6-0.6v-0.8h-0.9h-0.4
		c-0.4,0-0.6-0.3-0.6-0.6c0-0.2,0.1-0.3,0.2-0.4c0.1-0.1,0.3-0.2,0.5-0.2h1.3v-1.2v-0.6h-1.4c-0.4,0-0.6-0.3-0.6-0.6v-2.1v-0.9
		c0-0.1,0-0.3,0.1-0.4c0.1-0.2,0.3-0.3,0.5-0.3l0,0h1.4v-0.9c0-0.4,0.3-0.6,0.6-0.6S77.82,21.382,77.82,21.682z"/>
</g>
<g id="Soc_icon">
	<path id="RoundArrow_2_" fill="#4C4646" d="M102.875,21.665l-5.987-4.403c-0.379-0.279-0.638-0.688-0.747-1.146
		C93.32,4.301,82.055-4.273,69.104-2.844C57.218-1.532,47.821,8.364,47.07,20.298C46.161,34.751,57.66,46.8,71.92,46.8
		c11.761,0,21.642-8.195,24.236-19.174c0.109-0.461,0.368-0.872,0.749-1.152l5.969-4.391
		C103.015,21.98,103.015,21.769,102.875,21.665z M71.92,45.8c-13.178,0-23.9-10.722-23.9-23.9C48.02,8.721,58.742-2,71.92-2
		c13.179,0,23.9,10.721,23.9,23.899C95.82,35.078,85.099,45.8,71.92,45.8z"/>
	<path fill="#4C4646" d="M65.72,20.582L65.72,20.582h0.2c0.8,0.7,1.6,1.1,2.5,1.1c0.8,0,1.7-0.4,2.5-1l0.1-0.1l0.2,0.1
		c0.1,0.1,0.4,0.3,0.5,0.4l0.2,0.1l0,0h0.1c0.1,0.1,0.3,0.2,0.5,0.3c0.2,0.1,0.3,0.1,0.5,0.2c0,0,0.8,0.3,1.7,0.7h0.2
		c0.8,0.3,1.2,0.8,1.2,0.8c1.3,1.9,1.5,6.3,1.5,6.8c0,0.7-0.2,0.8-0.2,0.9c-3,1.3-7.5,1.6-8.4,1.7l0,0l0,0h-0.1l0,0l0,0
		c-0.2,0-0.4,0-0.6,0h-0.1c-0.5,0-5.4-0.3-8.5-1.7c-0.1,0-0.2-0.2-0.3-0.8c0,0,0.2-4.7,1.5-6.8c0.1-0.1,0.4-0.5,1.2-0.8
		c0.7-0.2,2.4-0.7,3.2-1.4l0.1-0.1C65.42,20.882,65.52,20.782,65.72,20.582z M75.02,21.782h-0.1c-0.2-0.1-0.4-0.2-0.6-0.3
		c0.3-0.1,0.6-0.3,0.7-0.4c0,0,0.1,0,0.1-0.1c0.1-0.1,0.2-0.2,0.3-0.3l0.1-0.1l0.1,0.1c0.6,0.5,1.2,0.8,1.8,0.8s1.2-0.3,1.8-0.8l0,0
		l0.1,0.1c0.1,0.1,0.3,0.2,0.4,0.3h0.2l0,0h0.1c0.1,0.1,0.2,0.1,0.4,0.2c0.1,0.1,0.3,0.1,0.4,0.1c0,0,0.6,0.2,1.3,0.5h0.1
		c0.6,0.2,0.9,0.5,0.9,0.6c1,1.4,1.1,4.6,1.1,5c0,0.5-0.1,0.6-0.2,0.6c-1.8,0.8-4.5,1.1-5.6,1.2c-0.1-1.4-0.5-4.9-1.6-6.7v-0.1
		C76.32,22.482,75.82,22.082,75.02,21.782z M74.32,16.482L74.32,16.482c0.1-0.1,0.2-0.2,0.1-0.3c-0.2-1.3-0.1-1.9,0-2.1
		c0.4-1.2,1.6-1.7,1.8-1.8c0,0,0.1,0,0.2-0.1l0,0h0.2l0,0h0.1h0.1h0.1c0,0,0.5,0.1,1.2,0.3l0.5,0.2c0.9,0.3,1.3,0.7,1.4,0.8
		c0.7,0.8,0.5,2.1,0.3,2.8c0,0.1,0,0.2,0,0.2v0.1c0,0.1,0.1,0.3-0.1,0.9c0,0.2-0.1,0.3-0.2,0.4l-0.1,0.1c-0.2,1.4-1.5,3.1-2.9,3.1
		c-1.1,0-2.5-1.4-2.7-3.1c0-0.1,0-0.1-0.1-0.2c-0.1-0.1-0.2-0.2-0.2-0.5C74.32,16.882,74.32,16.582,74.32,16.482z M64.32,14.982
		L64.32,14.982c0.1-0.1,0.2-0.3,0.2-0.4c-0.3-1.8-0.1-2.6-0.1-2.8c0.5-1.6,2.2-2.4,2.6-2.6c0.1,0,0.2-0.1,0.3-0.1l0,0h0.3l0,0h0.1
		c0.1,0,0.1,0,0.2,0h0.1c0,0,0.7,0.1,1.6,0.4l0.7,0.2c1.2,0.4,1.7,1,1.8,1.1c1,1.1,0.7,2.8,0.5,3.7c0,0.1,0,0.2,0,0.3l0.1,0.1
		c0.1,0.1,0.1,0.5-0.1,1.2c0,0.2-0.1,0.4-0.3,0.6c0,0.1-0.1,0.1-0.1,0.2c-0.3,1.9-2.1,4.1-3.9,4.1c-1.5,0-3.4-1.9-3.7-4.1
		c0-0.1,0-0.1-0.1-0.2c-0.1-0.1-0.2-0.3-0.3-0.6C64.22,15.582,64.22,15.182,64.32,14.982z"/>
</g>
<g id="News_icon">
	<path id="RoundArrow_1_" fill="#4C4646" d="M102.875,21.665l-5.987-4.403c-0.379-0.279-0.638-0.688-0.747-1.146
		C93.32,4.301,82.055-4.273,69.104-2.844C57.218-1.532,47.821,8.364,47.07,20.298C46.161,34.751,57.66,46.8,71.92,46.8
		c11.761,0,21.642-8.195,24.236-19.174c0.109-0.461,0.368-0.872,0.749-1.152l5.969-4.391
		C103.015,21.98,103.015,21.769,102.875,21.665z M71.92,45.8c-13.178,0-23.9-10.722-23.9-23.9C48.02,8.721,58.742-2,71.92-2
		c13.179,0,23.9,10.721,23.9,23.899C95.82,35.078,85.099,45.8,71.92,45.8z"/>
	<path fill="#4C4646" d="M66.82,27.282c0.8,1.8,2,3.4,3.7,5c-3.2-0.5-6-2.4-7.5-5.1L66.82,27.282z M70.42,11.482
		c-3,0.5-5.7,2.3-7.3,4.8h3.7C67.62,14.682,68.82,13.082,70.42,11.482z M71.62,16.482v-5.1l0,0c-1.8,1.6-3.2,3.3-4.1,5L71.62,16.482
		z M63.12,18.082h-0.8h-0.7l-0.1,5.2l-2.9-5.3h-0.8h-0.8l-0.1,7.4h0.7h0.7l0.1-5.4l3,5.4h0.8h0.7L63.12,18.082z M70.02,19.382v-0.7
		v-0.7l-5.5-0.1l-0.1,7.4l5.6,0.1v-0.7v-0.7h-4.1v-1.9h3.6v-0.7v-0.5h-3.6v-1.6L70.02,19.382z M77.52,23.582L77.52,23.582l-1-5.4
		h-0.8h-0.8l-1.1,5.4l-1.2-5.5h-0.8h-0.9l2,7.4h0.8h0.8l1.2-5.9l1.1,5.9h0.8h0.8l2.1-7.4h-0.8h-0.8L77.52,23.582z M72.52,11.382
		L72.52,11.382l-0.1,5.1h3.9C75.62,14.782,74.22,13.082,72.52,11.382z M81.02,16.582c-1.6-2.6-4.2-4.5-7.2-5c1.6,1.6,2.7,3.3,3.5,5
		H81.02z M73.32,32.382c3.2-0.5,6-2.3,7.7-4.8h-3.8C76.22,29.082,74.92,30.782,73.32,32.382z M76.12,27.382h-3.8v4.8
		C74.02,30.682,75.32,29.082,76.12,27.382z M86.52,22.082c-0.3-0.3-1.1-0.6-2.1-0.9c-0.8-0.2-1.2-0.3-1.5-0.5
		c-0.2-0.1-0.3-0.3-0.3-0.6c0-0.3,0.1-0.6,0.3-0.7c0.2-0.1,0.6-0.2,0.9-0.2c0.5,0,0.8,0.1,1.1,0.3c0.2,0.2,0.5,0.5,0.5,0.9h1.5
		c0-0.8-0.3-1.4-0.9-1.8c-0.6-0.5-1.2-0.7-2-0.7c-0.9,0-1.6,0.2-2.1,0.6c-0.6,0.5-0.8,1-0.8,1.7s0.2,1.1,0.6,1.5
		c0.5,0.3,1.2,0.6,2.4,0.9c0.7,0.1,1,0.3,1.2,0.5c0.2,0.1,0.3,0.3,0.3,0.7c0,0.3-0.1,0.5-0.5,0.7c-0.2,0.1-0.7,0.2-1.1,0.2
		c-0.5,0-0.9-0.1-1.1-0.3c-0.2-0.2-0.5-0.6-0.5-0.9h-1.5c0,0.8,0.3,1.5,0.8,1.9c0.6,0.5,1.2,0.7,2.3,0.7c0.9,0,1.7-0.2,2.3-0.6
		c0.6-0.5,0.8-0.9,0.8-1.7C86.92,22.982,86.82,22.482,86.52,22.082z M71.52,32.182v-4.8h-3.8
		C68.62,28.982,69.82,30.682,71.52,32.182z"/>
</g>
<g id="Personal_icon">
	<path id="RoundArrow" fill="#4C4646" d="M102.875,21.665l-5.987-4.403c-0.379-0.279-0.638-0.688-0.747-1.146
		C93.32,4.301,82.055-4.273,69.104-2.844C57.218-1.532,47.821,8.364,47.07,20.298C46.161,34.751,57.66,46.8,71.92,46.8
		c11.761,0,21.642-8.195,24.236-19.174c0.109-0.461,0.368-0.872,0.749-1.152l5.969-4.391
		C103.015,21.98,103.015,21.769,102.875,21.665z M71.92,45.8c-13.178,0-23.9-10.722-23.9-23.9C48.02,8.721,58.742-2,71.92-2
		c13.179,0,23.9,10.721,23.9,23.899C95.82,35.078,85.099,45.8,71.92,45.8z"/>
	<path fill="#4C4646" d="M78.48,20.082c0-0.6-0.4-1-0.9-1h-3.1c-0.5,0-0.9,0.5-0.9,1v0.3h-13.1c-0.1,0.4-0.1,0.9-0.1,1.3
		c0,0.5,0,0.9,0.1,1.3h13.1v0.3c0,0.6,0.4,1,0.9,1h3.1c0.5,0,0.9-0.5,0.9-1v-0.3h5.6c0.1-0.4,0.1-0.9,0.1-1.3c0-0.5,0-0.9-0.1-1.3
		h-5.6C78.48,20.382,78.48,20.082,78.48,20.082z M77.28,23.182h-2.5v-2.8h2.5V23.182z"/>
	<path fill="#4C4646" d="M69.58,13.582v-0.3c0-0.6-0.4-1-0.9-1h-3.1c-0.5,0-0.9,0.5-0.9,1v0.3h-2.3c-0.8,0.8-1.5,1.8-2,2.8h4.3v0.3
		c0,0.6,0.4,1,0.9,1h3.1c0.5,0,0.9-0.5,0.9-1v-0.3h11.7c-0.5-1-1.2-2-2-2.8H69.58z M68.28,16.382h-2.5v-2.8h2.5V16.382z"/>
	<path fill="#4C4646" d="M69.58,27.382v-0.3c0-0.6-0.4-1-0.9-1h-3.1c-0.5,0-0.9,0.5-0.9,1v0.3h-4.3c0.5,1,1.2,2,2,2.8h2.3v0.3
		c0,0.6,0.4,1,0.9,1h3.1c0.5,0,0.9-0.5,0.9-1v-0.3h9.8c0.8-0.8,1.5-1.8,2-2.8H69.58z M68.28,30.182h-2.5v-2.8h2.5V30.182z"/>
</g>
</svg>
