<?xml version="1.0" encoding="utf-8"?>
<!-- Generator: Adobe Illustrator 18.0.0, SVG Export Plug-In . SVG Version: 6.00 Build 0)  -->
<!DOCTYPE svg PUBLIC "-//W3C//DTD SVG 1.1//EN" "http://www.w3.org/Graphics/SVG/1.1/DTD/svg11.dtd">
<svg version="1.1" id="Layer_1" xmlns="http://www.w3.org/2000/svg" xmlns:xlink="http://www.w3.org/1999/xlink" x="0px" y="0px"
	 viewBox="0 0 55.96 50" enable-background="new 0 0 55.96 50" xml:space="preserve">
<g id="Cms_icon">
	<path id="RoundArrow_10_" d="M55.855,24.783l-5.987-4.403c-0.379-0.279-0.638-0.688-0.747-1.146
		C46.3,7.419,35.035-1.155,22.084,0.274C10.198,1.586,0.801,11.482,0.05,23.416C-0.859,37.869,10.64,49.918,24.9,49.918
		c11.761,0,21.642-8.195,24.236-19.174c0.109-0.461,0.368-0.872,0.749-1.152l5.969-4.391C55.995,25.098,55.995,24.887,55.855,24.783
		z M24.9,48.918c-13.178,0-23.9-10.722-23.9-23.9C1,11.839,11.722,1.118,24.9,1.118c13.179,0,23.9,10.721,23.9,23.899
		C48.8,38.196,38.079,48.918,24.9,48.918z"/>
	<path d="M24.9,13.5c-6.3,0-11.5,5.2-11.5,11.5s5.2,11.5,11.5,11.5S36.4,31.3,36.4,25S31.2,13.5,24.9,13.5z M30.7,26.2h-4.6v4.6
		h-2.3v-4.6h-4.6v-2.3h4.6v-4.6h2.3v4.6h4.6V26.2z"/>
</g>
<g id="Card_icon">
	<path id="RoundArrow_9_" d="M55.855,24.783l-5.987-4.403c-0.379-0.279-0.638-0.688-0.747-1.146
		C46.3,7.419,35.035-1.155,22.084,0.274C10.198,1.586,0.801,11.482,0.05,23.416C-0.859,37.869,10.64,49.918,24.9,49.918
		c11.761,0,21.642-8.195,24.236-19.174c0.109-0.461,0.368-0.872,0.749-1.152l5.969-4.391C55.995,25.098,55.995,24.887,55.855,24.783
		z M24.9,48.918c-13.178,0-23.9-10.722-23.9-23.9C1,11.839,11.722,1.118,24.9,1.118c13.179,0,23.9,10.721,23.9,23.899
		C48.8,38.196,38.079,48.918,24.9,48.918z"/>
	<path id="test_path" d="M37.3,13.5c-0.1-0.4-0.5-0.7-0.9-0.5l-3,0.8c-0.3,0.1-0.5,0.3-0.6,0.6l-0.4,2.4L13.8,19l0,0c0,0,0,0-0.1,0
		c0,0-0.1,0-0.1,0.1c0,0-0.1,0-0.1,0.1c-0.1,0-0.1,0.1-0.1,0.1s0,0-0.1,0.1l0,0c-0.1,0-0.1,0-0.1,0.1c0,0,0,0,0,0.1s0,0.2,0,0.3
		l2.2,9.1l0.8,3c0,0,0,0,0,0.1v0.1l0.1,0.1c0,0,0,0.1,0.1,0.1l0.1,0.1h0.1c0.1,0,0.2,0.1,0.3,0.1h15.9c0.4,0,0.8-0.3,0.8-0.8
		c0-0.4-0.3-0.8-0.8-0.8H17.5l-0.4-1.5h14.1c0.1,0,0.2,0,0.3,0c0,0,0.1,0,0.1-0.1c0,0,0.1,0,0.1-0.1c0,0,0-0.1,0.1-0.1l0.1-0.1V29
		v-0.1l0,0l0,0L34.2,15l2.5-0.6C37.1,14.3,37.4,13.9,37.3,13.5z M16.7,28l-1.9-7.7l2.4-0.2l1.1,7.9C18.3,28,16.7,28,16.7,28z
		 M19.8,28l-1.2-8.1l2.4-0.3l0.4,8.4H19.8z M24.5,28h-1.6l-0.4-8.6l2.4-0.3L24.5,28z M27.6,28H26l0.4-9l2.3-0.3L27.6,28z M30.6,28
		h-1.5l1.2-9.5l1.6-0.2L30.6,28z M19.9,34.1c-0.8,0-1.5,0.7-1.5,1.5s0.7,1.5,1.5,1.5s1.5-0.7,1.5-1.5S20.8,34.1,19.9,34.1z
		 M29.7,34.1c-0.8,0-1.5,0.7-1.5,1.5s0.7,1.5,1.5,1.5s1.5-0.7,1.5-1.5C31.3,34.7,30.6,34.1,29.7,34.1z"/>
</g>
<g id="Delivery_icon">
	<path id="RoundArrow_8_" d="M55.855,24.783l-5.987-4.403c-0.379-0.279-0.638-0.688-0.747-1.146
		C46.3,7.419,35.035-1.155,22.084,0.274C10.198,1.586,0.801,11.482,0.05,23.416C-0.859,37.869,10.64,49.918,24.9,49.918
		c11.761,0,21.642-8.195,24.236-19.174c0.109-0.461,0.368-0.872,0.749-1.152l5.969-4.391C55.995,25.098,55.995,24.887,55.855,24.783
		z M24.9,48.918c-13.178,0-23.9-10.722-23.9-23.9C1,11.839,11.722,1.118,24.9,1.118c13.179,0,23.9,10.721,23.9,23.899
		C48.8,38.196,38.079,48.918,24.9,48.918z"/>
	<path d="M36,17.2l-2.8-3.5c-0.3-0.3-0.7-0.5-1.1-0.5H17.7c-0.4,0-0.8,0.2-1.1,0.5l-2.8,3.5c-0.3,0.4-0.5,1-0.5,1.6v2.6
		c0.2-0.3,0.5-0.6,0.9-0.7c0-0.3,0.1-0.6,0.3-0.8c0.3-0.4,0.7-0.8,1.2-0.9c0.2,0,0.3-0.1,0.5-0.1c0.7,0,1.3,0.3,1.6,0.9
		c0.1,0,0.2,0,0.3,0c0.3,0,0.6,0.1,0.9,0.2l1.5-0.4c0.2-0.1,0.4-0.1,0.6-0.1c1.1,0,2,0.7,2.3,1.8l3,11.6c0.2,0.6,0.1,1.2-0.2,1.8
		c-0.3,0.5-0.8,0.9-1.4,1.1l-1.4,0.4h11.4c1,0,1.7-0.8,1.7-1.7V18.9C36.6,18.3,36.3,17.6,36,17.2z M14.8,17.2l0.9-1.2H22l0.6-1h-6.1
		l0.7-0.9c0.1-0.2,0.3-0.3,0.5-0.3h14.4c0.2,0,0.4,0.1,0.5,0.3l0.7,0.9h-6.2l0.3,1h6.7l0.9,1.2H14.8z M15,21.5l-0.4,0.1
		c-0.4,0.1-0.7,0.5-0.6,0.9l0,0c0.1,0.4,0.5,0.7,0.9,0.6l3.3-0.9c0.4-0.1,0.7-0.5,0.6-0.9l0,0c-0.1-0.4-0.5-0.7-0.9-0.6l-0.4,0.1
		c-0.2,0.1-0.4-0.1-0.5-0.3l0,0c-0.1-0.5-0.6-0.8-1.1-0.6l0,0c-0.5,0.1-0.8,0.6-0.6,1.1l0,0C15.4,21.2,15.3,21.4,15,21.5z
		 M16.1,20.4c0.2-0.1,0.4,0.1,0.5,0.3c0.1,0.2-0.1,0.4-0.3,0.5c-0.2,0.1-0.4-0.1-0.5-0.3C15.8,20.6,15.9,20.4,16.1,20.4z M21,32.4
		c0,0.1,0,0.3-0.2,0.3L16,34c-0.1,0-0.3,0-0.3-0.2l-0.1-0.3c0-0.1,0-0.3,0.2-0.3l4.8-1.3c0.1,0,0.3,0,0.3,0.2L21,32.4z M21.6,27.3
		l0.1,0.3c0,0.1,0,0.3-0.2,0.3l-6.6,1.7c-0.1,0-0.3,0-0.3-0.2l-0.1-0.3c0-0.1,0-0.3,0.2-0.3l6.6-1.7C21.4,27.1,21.5,27.2,21.6,27.3z
		 M20.9,25.6l-6.6,1.7c-0.1,0-0.3,0-0.3-0.2l-0.1-0.3c0-0.1,0-0.3,0.2-0.3l6.6-1.7c0.1,0,0.3,0,0.3,0.2l0.1,0.3
		C21.1,25.4,21,25.6,20.9,25.6z M20.7,30.3l-5.3,1.4c-0.1,0-0.3,0-0.3-0.2L15,31.2c0-0.1,0-0.3,0.2-0.3l5.3-1.4c0.1,0,0.3,0,0.3,0.2
		l0.1,0.3C20.9,30.1,20.9,30.2,20.7,30.3z M25.5,33.1l-3-11.6c-0.2-0.7-0.9-1.1-1.6-0.9l-1.6,0.3c0,0.1,0.1,0.2,0.1,0.2
		c0.2,0.7-0.2,1.4-0.9,1.6l-3.3,0.8c-0.7,0.2-1.4-0.2-1.6-0.8c0-0.1-0.1-0.2-0.1-0.4L12,22.7c-0.7,0.2-1.1,0.9-0.9,1.6l3,11.6
		c0.2,0.7,0.9,1.1,1.6,0.9l8.9-2.3C25.3,34.5,25.7,33.8,25.5,33.1z M15.4,35.7l-2.6-10.1l8.9-2.3l2.6,10.1L15.4,35.7z"/>
</g>
<g id="Settings_icon">
	<path id="RoundArrow_7_" d="M55.855,24.783l-5.987-4.403c-0.379-0.279-0.638-0.688-0.747-1.146
		C46.3,7.419,35.035-1.155,22.084,0.274C10.198,1.586,0.801,11.482,0.05,23.416C-0.859,37.869,10.64,49.918,24.9,49.918
		c11.761,0,21.642-8.195,24.236-19.174c0.109-0.461,0.368-0.872,0.749-1.152l5.969-4.391C55.995,25.098,55.995,24.887,55.855,24.783
		z M24.9,48.918c-13.178,0-23.9-10.722-23.9-23.9C1,11.839,11.722,1.118,24.9,1.118c13.179,0,23.9,10.721,23.9,23.899
		C48.8,38.196,38.079,48.918,24.9,48.918z"/>
	<path d="M22.5,33.2l-0.6-0.3c0-0.4,0-0.9-0.1-1.4l0.6-0.3c0.4-0.2,0.5-0.6,0.4-1l-0.3-0.8c-0.2-0.4-0.6-0.5-1-0.4l-0.6,0.5
		c-0.3-0.4-0.6-0.7-1-0.9l0.2-0.6c0.1-0.4-0.1-0.8-0.4-0.9l-0.8-0.4c-0.4-0.1-0.8,0.1-0.9,0.4l-0.3,0.7c-0.4,0-0.9,0-1.4,0.1
		L16,27.3c-0.2-0.4-0.6-0.5-1-0.4l-0.8,0.3c-0.4,0.2-0.5,0.6-0.4,1l0.3,0.6c-0.4,0.3-0.7,0.6-0.9,1l-0.6-0.2
		c-0.4-0.1-0.8,0.1-0.9,0.4l-0.2,0.8c-0.1,0.2-0.1,0.4,0,0.6s0.2,0.3,0.4,0.4l0.6,0.2c0,0.4,0,0.9,0.1,1.4L12,33.7
		c-0.4,0.2-0.5,0.6-0.4,1l0.3,0.8c0.2,0.4,0.6,0.5,1,0.4l0.6-0.3c0.3,0.4,0.6,0.7,1,0.9l-0.2,0.6c-0.1,0.2-0.1,0.4,0,0.6
		c0.1,0.2,0.2,0.3,0.4,0.4l0.8,0.3c0.2,0.1,0.4,0.1,0.6,0s0.3-0.2,0.4-0.4l0.2-0.6c0.4,0,0.9,0,1.4-0.1l0.3,0.6
		c0.2,0.4,0.6,0.5,1,0.4l0.8-0.3c0.4-0.2,0.5-0.6,0.4-1l-0.3-0.6c0.4-0.3,0.7-0.6,0.9-1l0.6,0.2c0.2,0.1,0.4,0.1,0.6,0
		s0.3-0.2,0.4-0.4l0.3-0.8C23.1,33.7,22.9,33.3,22.5,33.2z M18.4,35.1c-0.4,0.2-0.8,0.3-1.2,0.3c-1.1,0-2.2-0.7-2.7-1.7
		c-0.7-1.5,0-3.2,1.4-3.9c0.4-0.2,0.8-0.3,1.2-0.3c1.1,0,2.2,0.7,2.7,1.7C20.5,32.7,19.9,34.4,18.4,35.1z"/>
	<path d="M29.8,35.3l-0.3-0.1c0-0.2,0-0.5,0-0.8l0.3-0.2c0.2-0.1,0.3-0.3,0.2-0.5l-0.2-0.4c-0.1-0.2-0.3-0.3-0.5-0.2l-0.4,0.1
		c-0.2-0.2-0.3-0.4-0.6-0.5l0.1-0.3c0.1-0.2,0-0.4-0.2-0.5l-0.4-0.2c-0.2-0.1-0.5,0-0.5,0.2l-0.1,0.3c-0.2,0-0.5,0-0.8,0l-0.2-0.3
		c-0.1-0.1-0.3-0.2-0.5-0.1L25.3,32c-0.2,0.1-0.3,0.3-0.2,0.5l0.2,0.3c-0.2,0.2-0.4,0.3-0.5,0.6l-0.3-0.1c-0.2-0.1-0.5,0-0.5,0.2
		l-0.2,0.4c0,0.1,0,0.2,0,0.3s0.1,0.2,0.2,0.2l0.3,0.1c0,0.2,0,0.5,0,0.8L24,35.5c-0.2,0.1-0.3,0.3-0.2,0.5l0.2,0.4
		c0.1,0.2,0.3,0.3,0.5,0.2l0.3-0.2c0.2,0.2,0.3,0.4,0.6,0.5l-0.1,0.3c0,0.1,0,0.2,0,0.3s0.1,0.2,0.2,0.2l0.4,0.2c0.1,0,0.2,0,0.3,0
		c0.1,0,0.2-0.1,0.2-0.2l0.1-0.3c0.2,0,0.5,0,0.8,0l0.2,0.3c0.1,0.2,0.3,0.3,0.5,0.2l0.4-0.2c0.2-0.1,0.3-0.3,0.2-0.5l-0.2-0.3
		c0.2-0.2,0.4-0.3,0.5-0.6l0.3,0.1c0.1,0,0.2,0,0.3,0s0.2-0.1,0.2-0.2l0.2-0.4C30.1,35.6,30,35.4,29.8,35.3z M27.5,36.4
		c-0.2,0.1-0.4,0.1-0.7,0.1c-0.6,0-1.2-0.4-1.5-0.9c-0.4-0.8,0-1.8,0.8-2.2c0.2-0.1,0.4-0.1,0.7-0.1c0.6,0,1.2,0.4,1.5,0.9
		C28.7,35,28.4,36,27.5,36.4z"/>
	<path d="M37.5,22.3l-1-0.4c0.1-0.8,0.1-1.5-0.1-2.3l1-0.5c0.6-0.3,0.9-1,0.6-1.6l-0.6-1.3c-0.3-0.6-1-0.9-1.6-0.6l-1,0.5
		c-0.5-0.6-1.1-1.1-1.7-1.5l0.4-1c0.2-0.6-0.1-1.4-0.7-1.6l-1.3-0.5c-0.6-0.2-1.4,0.1-1.6,0.7l-0.4,1c-0.8-0.1-1.5-0.1-2.3,0.1
		l-0.5-1c-0.3-0.6-1-0.9-1.6-0.6l-1.3,0.6c-0.6,0.3-0.9,1-0.6,1.6l0.5,1c-0.6,0.5-1.1,1.1-1.5,1.7l-1-0.4c-0.6-0.2-1.4,0.1-1.6,0.7
		l-0.5,1.3c-0.1,0.3-0.1,0.6,0,0.9s0.4,0.5,0.7,0.6l1,0.4c-0.1,0.8-0.1,1.5,0.1,2.3l-1,0.5c-0.6,0.3-0.9,1-0.6,1.6l0.6,1.3
		c0.3,0.6,1,0.9,1.6,0.6l1-0.5c0.5,0.6,1.1,1.1,1.7,1.5l-0.4,1c-0.1,0.3-0.1,0.6,0,0.9s0.4,0.5,0.7,0.6l1.3,0.5
		c0.3,0.1,0.6,0.1,0.9,0s0.5-0.4,0.6-0.7l0.4-1c0.8,0.1,1.5,0.1,2.3-0.1l0.5,1c0.3,0.6,1,0.9,1.6,0.6l1.3-0.6c0.6-0.3,0.9-1,0.6-1.6
		l-0.5-1c0.6-0.5,1.1-1.1,1.5-1.7l1,0.4c0.3,0.1,0.6,0.1,1,0c0.3-0.1,0.5-0.4,0.6-0.7l0.5-1.3C38.5,23.2,38.2,22.5,37.5,22.3z
		 M30.7,25.5C30,25.8,29.4,26,28.6,26c-1.9,0-3.7-1.1-4.5-2.9c-1.1-2.5-0.1-5.4,2.4-6.5c0.7-0.3,1.3-0.5,2.1-0.5
		c1.9,0,3.7,1.1,4.5,2.9C34.2,21.5,33.2,24.4,30.7,25.5z"/>
</g>
<g id="List_icon">
	<path id="RoundArrow_5_" d="M55.855,24.783l-5.987-4.403c-0.379-0.279-0.638-0.688-0.747-1.146
		C46.3,7.419,35.035-1.155,22.084,0.274C10.198,1.586,0.801,11.482,0.05,23.416C-0.859,37.869,10.64,49.918,24.9,49.918
		c11.761,0,21.642-8.195,24.236-19.174c0.109-0.461,0.368-0.872,0.749-1.152l5.969-4.391C55.995,25.098,55.995,24.887,55.855,24.783
		z M24.9,48.918c-13.178,0-23.9-10.722-23.9-23.9C1,11.839,11.722,1.118,24.9,1.118c13.179,0,23.9,10.721,23.9,23.899
		C48.8,38.196,38.079,48.918,24.9,48.918z"/>
	<path d="M25.9,12.5h-0.6c-0.3,0-0.6-0.3-0.6-0.6l0,0c0-0.8-0.6-1.4-1.4-1.4l0,0c-0.8,0-1.4,0.6-1.4,1.4l0,0c0,0.3-0.3,0.6-0.6,0.6
		h-0.6c-0.7,0-1.2,0.5-1.2,1.2l0,0c0,0.7,0.5,1.2,1.2,1.2h5.2c0.7,0,1.2-0.5,1.2-1.2l0,0C27.1,13,26.6,12.5,25.9,12.5z M23.3,12.5
		c-0.3,0-0.6-0.3-0.6-0.6s0.3-0.6,0.6-0.6c0.3,0,0.6,0.3,0.6,0.6S23.6,12.5,23.3,12.5z M26,35.7H15.9c-0.9,0-1.6-0.7-1.6-1.6V14.9
		c0-0.9,0.7-1.6,1.2-1.6h3.2c0,0.1,0,0.3,0,0.4c0,1.1,0.9,2,2,2h5.2c1.1,0,2-0.9,2-2c0-0.1,0-0.3,0-0.4h2.4c1.3,0,2,0.7,2,1.6v12
		c-0.1,0-0.3,0-0.4,0c-0.6,0-1.1,0.1-1.6,0.2v-9.4h-14v16h9.2C25.6,34.4,25.7,35.1,26,35.7z M31.9,28.1c-2.9,0-5.2,2.3-5.2,5.2
		s2.3,5.2,5.2,5.2s5.2-2.3,5.2-5.2S34.8,28.1,31.9,28.1z M35.3,32.2l-3.2,3.6c-0.2,0.2-0.4,0.3-0.6,0.3S31.1,36,31,35.9l-2-1.6
		c-0.3-0.3-0.4-0.8-0.1-1.1s0.8-0.4,1.1-0.1l1.4,1.1l2.7-3c0.3-0.3,0.8-0.4,1.1-0.1C35.6,31.4,35.6,31.9,35.3,32.2z M28.3,24.5h-6.4
		c-0.2,0-0.4-0.2-0.4-0.4v-0.4c0-0.2,0.2-0.4,0.4-0.4h6.4c0.2,0,0.4,0.2,0.4,0.4v0.4C28.7,24.3,28.5,24.5,28.3,24.5z M28.3,20.9
		h-6.4c-0.2,0-0.4-0.2-0.4-0.4v-0.4c0-0.2,0.2-0.4,0.4-0.4h6.4c0.2,0,0.4,0.2,0.4,0.4v0.4C28.7,20.7,28.5,20.9,28.3,20.9z
		 M26.3,27.7h-4.4c-0.2,0-0.4-0.2-0.4-0.4v-0.4c0-0.2,0.2-0.4,0.4-0.4h4.4c0.2,0,0.4,0.2,0.4,0.4v0.4C26.7,27.5,26.5,27.7,26.3,27.7
		z M25.5,31.3h-3.6c-0.2,0-0.4-0.2-0.4-0.4v-0.4c0-0.2,0.2-0.4,0.4-0.4h3.6c0.2,0,0.4,0.2,0.4,0.4v0.4
		C25.9,31.1,25.7,31.3,25.5,31.3z M20.7,19.4l-1.5,1.7c-0.1,0.1-0.2,0.1-0.3,0.1s-0.2,0-0.2-0.1l-0.9-0.7c-0.2-0.1-0.2-0.4-0.1-0.5
		c0.1-0.2,0.4-0.2,0.5-0.1l0.6,0.5l1.2-1.4c0.1-0.2,0.4-0.2,0.5,0C20.8,19,20.9,19.3,20.7,19.4z M20.7,23l-1.5,1.7
		c-0.1,0.1-0.2,0.1-0.3,0.1s-0.2,0-0.2-0.1L17.8,24c-0.2-0.1-0.2-0.4-0.1-0.5c0.1-0.2,0.4-0.2,0.5-0.1l0.6,0.5l1.2-1.4
		c0.1-0.2,0.4-0.2,0.5,0C20.8,22.6,20.9,22.8,20.7,23z M20.7,26.4l-1.5,1.7c-0.1,0.1-0.2,0.1-0.3,0.1s-0.2,0-0.2-0.1l-0.9-0.7
		c-0.2-0.1-0.2-0.4-0.1-0.5c0.1-0.2,0.4-0.2,0.5-0.1l0.6,0.5l1.2-1.4c0.1-0.2,0.4-0.2,0.5,0C20.8,26,20.9,26.2,20.7,26.4z
		 M20.7,29.8l-1.5,1.7c-0.1,0.1-0.2,0.1-0.3,0.1s-0.2,0-0.2-0.1l-0.9-0.7c-0.2-0.1-0.2-0.4-0.1-0.5c0.1-0.2,0.4-0.2,0.5-0.1l0.6,0.5
		l1.2-1.4c0.1-0.2,0.4-0.2,0.5,0C20.8,29.4,20.9,29.7,20.7,29.8z"/>
</g>
<g id="Mail_icon">
	<path d="M36.9,30.7c0,0.5-0.2,1-0.4,1.4L28.9,24l7.5-6.2c0.3,0.5,0.5,0.9,0.5,1.6V30.7z M24.9,25.5l10.5-8.7
		c-0.4-0.2-0.9-0.4-1.4-0.4H15.9c-0.5,0-1,0.1-1.4,0.4L24.9,25.5z M27.8,25l-2.4,2c-0.1,0.1-0.3,0.2-0.5,0.2s-0.4-0.1-0.5-0.2L22,25
		l-7.7,8.1c0.5,0.3,1,0.5,1.5,0.5h18c0.6,0,1.2-0.2,1.5-0.5L27.8,25z M13.4,17.8c-0.3,0.5-0.5,0.9-0.5,1.6v11.4c0,0.5,0.2,1,0.4,1.4
		l7.6-8L13.4,17.8z"/>
</g>
<g id="Market_icon">
	<path id="RoundArrow_6_" d="M55.855,24.783l-5.987-4.403c-0.379-0.279-0.638-0.688-0.747-1.146
		C46.3,7.419,35.035-1.155,22.084,0.274C10.198,1.586,0.801,11.482,0.05,23.416C-0.859,37.869,10.64,49.918,24.9,49.918
		c11.761,0,21.642-8.195,24.236-19.174c0.109-0.461,0.368-0.872,0.749-1.152l5.969-4.391C55.995,25.098,55.995,24.887,55.855,24.783
		z M24.9,48.918c-13.178,0-23.9-10.722-23.9-23.9C1,11.839,11.722,1.118,24.9,1.118c13.179,0,23.9,10.721,23.9,23.899
		C48.8,38.196,38.079,48.918,24.9,48.918z"/>
	<path d="M13.1,15.2c-0.5-1.7,0.3-3.5,1.9-4.1c1.6-0.6,3.2,0.4,3.7,2l5.8,19.2c-0.5-0.2-1.1-0.2-1.7-0.1l-5.6-18.5
		c-0.2-0.8-1-1.2-1.7-0.9s-1.1,1.1-0.9,1.9c0.1,0.5-0.1,0.9-0.5,1.1C13.7,15.9,13.2,15.7,13.1,15.2z M35.8,30.3l-9.5,3.4
		c0.3,0.4,0.6,0.9,0.8,1.5c0,0,0,0,0,0.1l9.2-3.3c0.4-0.1,0.6-0.6,0.5-1.1S36.2,30.1,35.8,30.3z M26.4,35.4c0.5,1.8-0.3,3.7-2,4.3
		c-1.6,0.6-3.4-0.4-3.9-2.2s0.3-3.7,2-4.3C24.1,32.7,25.9,33.7,26.4,35.4z M24.9,36c-0.3-0.9-1.1-1.4-2-1.1c-0.8,0.3-1.3,1.3-1,2.1
		c0.3,0.9,1.1,1.4,2,1.1C24.7,37.8,25.2,36.9,24.9,36z M33.4,17.3L36.6,28c0.1,0.2,0,0.5-0.3,0.5l-10.1,3.7c-0.2,0.1-0.4,0-0.5-0.3
		l-3.2-10.7c-0.1-0.2,0-0.5,0.3-0.5L32.9,17C33.2,16.9,33.4,17.1,33.4,17.3z M32.1,23.5l-3.4-2.1l-1.6,3.9l1.1,0.5l0.7-1.7l1.3,4.2
		l1.2-0.4l-1.3-4.2l1.5,0.9L32.1,23.5z M29.1,17.1L27,10.3c0-0.1-0.2-0.2-0.3-0.2l-1.8,0.6l0,0l0,0L24,11l0.8,2.5l-1,0.4L23,11.4
		l-0.9,0.3l0,0l0,0l-1.8,0.6c-0.1,0-0.2,0.2-0.2,0.3l2.1,6.8c0,0.1,0.2,0.2,0.3,0.2l6.5-2.3C29.1,17.4,29.1,17.3,29.1,17.1z"/>
</g>
<g id="Pad_icon">
	<path id="RoundArrow_4_" d="M55.855,24.783l-5.987-4.403c-0.379-0.279-0.638-0.688-0.747-1.146
		C46.3,7.419,35.035-1.155,22.084,0.274C10.198,1.586,0.801,11.482,0.05,23.416C-0.859,37.869,10.64,49.918,24.9,49.918
		c11.761,0,21.642-8.195,24.236-19.174c0.109-0.461,0.368-0.872,0.749-1.152l5.969-4.391C55.995,25.098,55.995,24.887,55.855,24.783
		z M24.9,48.918c-13.178,0-23.9-10.722-23.9-23.9C1,11.839,11.722,1.118,24.9,1.118c13.179,0,23.9,10.721,23.9,23.899
		C48.8,38.196,38.079,48.918,24.9,48.918z"/>
	<path d="M20.2,20.1c-0.8,0-1.5,0.7-1.5,1.5s0.7,1.5,1.5,1.5s1.5-0.7,1.5-1.5C21.7,20.8,21,20.1,20.2,20.1z"/>
	<path d="M24.3,17c-1.2-0.1-2.5-0.5-4.1-1.2h-0.1H20c-4.7,0-8,8.2-8,13.8c0,1.3,0.2,2.4,0.6,3.2c0.5,0.9,1.2,1.4,2.1,1.4
		c2.1,0,3.3-1.2,4.6-2.4c1.4-1.3,2.9-2.7,5.7-2.7c2.4,0,4.2,1.4,5.9,2.8c1.5,1.2,2.8,2.2,4.4,2.2c0.8,0,1.5-0.4,1.9-1.2
		c0.3-0.7,0.5-1.6,0.5-2.7c0-4.9-3.6-14.4-7.9-14.4h-0.1h-0.1c-1.7,0.8-3,1.2-4.3,1.2 M20.2,24c-1.3,0-2.4-1.1-2.4-2.4
		s1.1-2.4,2.4-2.4s2.4,1.1,2.4,2.4C22.6,23,21.5,24,20.2,24z M29.7,18.2c0.5-0.3,1.2-0.2,1.6,0.3c0.2,0.3,0.2,0.6,0.2,0.8
		c-0.1,0.3-0.2,0.5-0.5,0.7c-0.2,0.1-0.4,0.2-0.6,0.2c-0.4,0-0.7-0.2-1-0.5C29,19.2,29.1,18.5,29.7,18.2z M27.3,21.7
		c-0.3-0.5-0.2-1.2,0.3-1.6c0.5-0.3,1.2-0.2,1.6,0.3c0.2,0.3,0.2,0.6,0.2,0.9c-0.1,0.3-0.2,0.5-0.5,0.7c-0.2,0.1-0.4,0.2-0.6,0.2
		C27.8,22.3,27.6,22.1,27.3,21.7z M30.3,24.4c-0.2,0.1-0.4,0.2-0.6,0.2c-0.4,0-0.7-0.2-1-0.5c-0.2-0.3-0.2-0.6-0.2-0.9
		c0.1-0.3,0.2-0.5,0.5-0.7c0.5-0.3,1.2-0.2,1.6,0.3C31.1,23.4,30.8,24.1,30.3,24.4z M32.7,21.7c-0.1,0.3-0.2,0.5-0.5,0.7
		c-0.2,0.1-0.4,0.2-0.6,0.2c-0.4,0-0.7-0.2-1-0.5c-0.2-0.3-0.2-0.6-0.2-0.9c0.1-0.3,0.2-0.5,0.5-0.7c0.5-0.3,1.2-0.2,1.6,0.3
		C32.8,21.1,32.8,21.4,32.7,21.7z"/>
</g>
<g id="Paid_icon">
	<path id="RoundArrow_3_" d="M55.855,24.783l-5.987-4.403c-0.379-0.279-0.638-0.688-0.747-1.146
		C46.3,7.419,35.035-1.155,22.084,0.274C10.198,1.586,0.801,11.482,0.05,23.416C-0.859,37.869,10.64,49.918,24.9,49.918
		c11.761,0,21.642-8.195,24.236-19.174c0.109-0.461,0.368-0.872,0.749-1.152l5.969-4.391C55.995,25.098,55.995,24.887,55.855,24.783
		z M24.9,48.918c-13.178,0-23.9-10.722-23.9-23.9C1,11.839,11.722,1.118,24.9,1.118c13.179,0,23.9,10.721,23.9,23.899
		C48.8,38.196,38.079,48.918,24.9,48.918z"/>
	<path d="M15.9,16.8h13.4c0.7,0,1.3-0.6,1.3-1.3v-0.7c0-0.7-0.6-1.3-1.3-1.3H15.9c-0.7,0-1.3,0.6-1.3,1.3v0.7
		C14.6,16.3,15.2,16.8,15.9,16.8z"/>
	<path d="M13.9,21.4h13.4c0.7,0,1.3-0.6,1.3-1.3v-0.7c0-0.7-0.6-1.3-1.3-1.3H13.9c-0.7,0-1.3,0.6-1.3,1.3v0.7
		C12.6,20.9,13.2,21.4,13.9,21.4z"/>
	<path d="M13.9,26H23c0.4-0.8,0.9-1.6,1.6-2.2c0.4-0.4,0.8-0.7,1.3-1h-12c-0.7,0-1.3,0.6-1.3,1.3v0.7C12.6,25.4,13.2,26,13.9,26z"/>
	<path d="M15.9,27.2c-0.7,0-1.3,0.6-1.3,1.3v0.7c0,0.7,0.6,1.3,1.3,1.3h6.4c-0.1-0.4-0.1-0.8-0.1-1.2c0-0.7,0.1-1.4,0.3-2.1
		L15.9,27.2L15.9,27.2z"/>
	<path d="M13.9,35.1h10.8c-0.1-0.1-0.1-0.1-0.2-0.2c-0.7-0.7-1.3-1.6-1.7-2.5c-0.1-0.2-0.2-0.4-0.2-0.6h-8.7c-0.7,0-1.3,0.6-1.3,1.3
		v0.7C12.6,34.5,13.2,35.1,13.9,35.1z"/>
	<polygon points="28.7,27.2 28.7,28.7 29.5,28.7 29.5,27.2 29.5,27 28.7,27 	"/>
	<rect x="30.8" y="30" width="0.7" height="1.7"/>
	<path d="M27.5,22.7c-1.6,0.6-2.9,1.8-3.7,3.3c-0.2,0.4-0.4,0.8-0.5,1.2c-0.2,0.7-0.3,1.4-0.3,2.1c0,0.4,0,0.8,0.1,1.2
		c0.1,0.5,0.2,0.9,0.4,1.3c0.5,1.3,1.4,2.5,2.5,3.3c1.2,0.9,2.6,1.4,4.2,1.4c3.9,0,7.1-3.2,7.1-7.1s-3.2-7.1-7.1-7.1
		C29.2,22.2,28.3,22.4,27.5,22.7z M30.8,24.8v0.9H32c0.4,0,0.6,0.3,0.6,0.6S32.3,27,31.9,27h-1.2v1.7h1.4c0.4,0,0.6,0.3,0.6,0.6v3
		c0,0.4-0.3,0.6-0.6,0.6h-1.4v0.9c0,0.4-0.3,0.6-0.6,0.6c-0.3,0-0.6-0.3-0.6-0.6V33h-0.9h-0.4c-0.4,0-0.6-0.3-0.6-0.6
		c0-0.2,0.1-0.3,0.2-0.4c0.1-0.1,0.3-0.2,0.5-0.2h1.3v-1.2V30h-1.4c-0.4,0-0.6-0.3-0.6-0.6v-2.1v-0.9c0-0.1,0-0.3,0.1-0.4
		c0.1-0.2,0.3-0.3,0.5-0.3l0,0h1.4v-0.9c0-0.4,0.3-0.6,0.6-0.6S30.8,24.5,30.8,24.8z"/>
</g>
<g id="Soc_icon">
	<path id="RoundArrow_2_" d="M55.855,24.783l-5.987-4.403c-0.379-0.279-0.638-0.688-0.747-1.146
		C46.3,7.419,35.035-1.155,22.084,0.274C10.198,1.586,0.801,11.482,0.05,23.416C-0.859,37.869,10.64,49.918,24.9,49.918
		c11.761,0,21.642-8.195,24.236-19.174c0.109-0.461,0.368-0.872,0.749-1.152l5.969-4.391C55.995,25.098,55.995,24.887,55.855,24.783
		z M24.9,48.918c-13.178,0-23.9-10.722-23.9-23.9C1,11.839,11.722,1.118,24.9,1.118c13.179,0,23.9,10.721,23.9,23.899
		C48.8,38.196,38.079,48.918,24.9,48.918z"/>
	<path d="M18.7,23.7L18.7,23.7h0.2c0.8,0.7,1.6,1.1,2.5,1.1c0.8,0,1.7-0.4,2.5-1l0.1-0.1l0.2,0.1c0.1,0.1,0.4,0.3,0.5,0.4l0.2,0.1
		l0,0H25c0.1,0.1,0.3,0.2,0.5,0.3c0.2,0.1,0.3,0.1,0.5,0.2c0,0,0.8,0.3,1.7,0.7h0.2c0.8,0.3,1.2,0.8,1.2,0.8
		c1.3,1.9,1.5,6.3,1.5,6.8c0,0.7-0.2,0.8-0.2,0.9c-3,1.3-7.5,1.6-8.4,1.7l0,0l0,0h-0.1l0,0l0,0c-0.2,0-0.4,0-0.6,0h-0.1
		c-0.5,0-5.4-0.3-8.5-1.7c-0.1,0-0.2-0.2-0.3-0.8c0,0,0.2-4.7,1.5-6.8c0.1-0.1,0.4-0.5,1.2-0.8c0.7-0.2,2.4-0.7,3.2-1.4l0.1-0.1
		C18.4,24,18.5,23.9,18.7,23.7z M28,24.9h-0.1c-0.2-0.1-0.4-0.2-0.6-0.3c0.3-0.1,0.6-0.3,0.7-0.4c0,0,0.1,0,0.1-0.1
		c0.1-0.1,0.2-0.2,0.3-0.3l0.1-0.1l0.1,0.1c0.6,0.5,1.2,0.8,1.8,0.8s1.2-0.3,1.8-0.8l0,0l0.1,0.1c0.1,0.1,0.3,0.2,0.4,0.3h0.2l0,0
		H33c0.1,0.1,0.2,0.1,0.4,0.2c0.1,0.1,0.3,0.1,0.4,0.1c0,0,0.6,0.2,1.3,0.5h0.1c0.6,0.2,0.9,0.5,0.9,0.6c1,1.4,1.1,4.6,1.1,5
		c0,0.5-0.1,0.6-0.2,0.6c-1.8,0.8-4.5,1.1-5.6,1.2c-0.1-1.4-0.5-4.9-1.6-6.7v-0.1C29.3,25.6,28.8,25.2,28,24.9z M27.3,19.6
		L27.3,19.6c0.1-0.1,0.2-0.2,0.1-0.3c-0.2-1.3-0.1-1.9,0-2.1c0.4-1.2,1.6-1.7,1.8-1.8c0,0,0.1,0,0.2-0.1l0,0h0.2l0,0h0.1h0.1h0.1
		c0,0,0.5,0.1,1.2,0.3l0.5,0.2c0.9,0.3,1.3,0.7,1.4,0.8c0.7,0.8,0.5,2.1,0.3,2.8c0,0.1,0,0.2,0,0.2v0.1c0,0.1,0.1,0.3-0.1,0.9
		c0,0.2-0.1,0.3-0.2,0.4l-0.1,0.1c-0.2,1.4-1.5,3.1-2.9,3.1c-1.1,0-2.5-1.4-2.7-3.1c0-0.1,0-0.1-0.1-0.2S27,20.7,27,20.4
		C27.3,20,27.3,19.7,27.3,19.6z M17.3,18.1L17.3,18.1c0.1-0.1,0.2-0.3,0.2-0.4c-0.3-1.8-0.1-2.6-0.1-2.8c0.5-1.6,2.2-2.4,2.6-2.6
		c0.1,0,0.2-0.1,0.3-0.1l0,0h0.3l0,0h0.1c0.1,0,0.1,0,0.2,0H21c0,0,0.7,0.1,1.6,0.4l0.7,0.2c1.2,0.4,1.7,1,1.8,1.1
		c1,1.1,0.7,2.8,0.5,3.7c0,0.1,0,0.2,0,0.3l0.1,0.1c0.1,0.1,0.1,0.5-0.1,1.2c0,0.2-0.1,0.4-0.3,0.6c0,0.1-0.1,0.1-0.1,0.2
		c-0.3,1.9-2.1,4.1-3.9,4.1c-1.5,0-3.4-1.9-3.7-4.1c0-0.1,0-0.1-0.1-0.2s-0.2-0.3-0.3-0.6C17.2,18.7,17.2,18.3,17.3,18.1z"/>
</g>
<g id="News_icon">
	<path id="RoundArrow_1_" d="M55.855,24.783l-5.987-4.403c-0.379-0.279-0.638-0.688-0.747-1.146
		C46.3,7.419,35.035-1.155,22.084,0.274C10.198,1.586,0.801,11.482,0.05,23.416C-0.859,37.869,10.64,49.918,24.9,49.918
		c11.761,0,21.642-8.195,24.236-19.174c0.109-0.461,0.368-0.872,0.749-1.152l5.969-4.391C55.995,25.098,55.995,24.887,55.855,24.783
		z M24.9,48.918c-13.178,0-23.9-10.722-23.9-23.9C1,11.839,11.722,1.118,24.9,1.118c13.179,0,23.9,10.721,23.9,23.899
		C48.8,38.196,38.079,48.918,24.9,48.918z"/>
	<path d="M19.8,30.4c0.8,1.8,2,3.4,3.7,5c-3.2-0.5-6-2.4-7.5-5.1L19.8,30.4z M23.4,14.6c-3,0.5-5.7,2.3-7.3,4.8h3.7
		C20.6,17.8,21.8,16.2,23.4,14.6z M24.6,19.6v-5.1l0,0c-1.8,1.6-3.2,3.3-4.1,5L24.6,19.6z M16.1,21.2h-0.8h-0.7l-0.1,5.2l-2.9-5.3
		h-0.8H10l-0.1,7.4h0.7h0.7l0.1-5.4l3,5.4h0.8h0.7L16.1,21.2z M23,22.5v-0.7v-0.7L17.5,21l-0.1,7.4l5.6,0.1v-0.7v-0.7h-4.1v-1.9h3.6
		v-0.7V24h-3.6v-1.6L23,22.5z M30.5,26.7L30.5,26.7l-1-5.4h-0.8h-0.8l-1.1,5.4l-1.2-5.5h-0.8h-0.9l2,7.4h0.8h0.8l1.2-5.9l1.1,5.9
		h0.8h0.8l2.1-7.4h-0.8h-0.8L30.5,26.7z M25.5,14.5L25.5,14.5l-0.1,5.1h3.9C28.6,17.9,27.2,16.2,25.5,14.5z M34,19.7
		c-1.6-2.6-4.2-4.5-7.2-5c1.6,1.6,2.7,3.3,3.5,5H34z M26.3,35.5c3.2-0.5,6-2.3,7.7-4.8h-3.8C29.2,32.2,27.9,33.9,26.3,35.5z
		 M29.1,30.5h-3.8v4.8C27,33.8,28.3,32.2,29.1,30.5z M39.5,25.2c-0.3-0.3-1.1-0.6-2.1-0.9c-0.8-0.2-1.2-0.3-1.5-0.5
		c-0.2-0.1-0.3-0.3-0.3-0.6c0-0.3,0.1-0.6,0.3-0.7c0.2-0.1,0.6-0.2,0.9-0.2c0.5,0,0.8,0.1,1.1,0.3c0.2,0.2,0.5,0.5,0.5,0.9h1.5
		c0-0.8-0.3-1.4-0.9-1.8c-0.6-0.5-1.2-0.7-2-0.7c-0.9,0-1.6,0.2-2.1,0.6c-0.6,0.5-0.8,1-0.8,1.7s0.2,1.1,0.6,1.5
		c0.5,0.3,1.2,0.6,2.4,0.9c0.7,0.1,1,0.3,1.2,0.5c0.2,0.1,0.3,0.3,0.3,0.7c0,0.3-0.1,0.5-0.5,0.7c-0.2,0.1-0.7,0.2-1.1,0.2
		c-0.5,0-0.9-0.1-1.1-0.3c-0.2-0.2-0.5-0.6-0.5-0.9h-1.5c0,0.8,0.3,1.5,0.8,1.9c0.6,0.5,1.2,0.7,2.3,0.7c0.9,0,1.7-0.2,2.3-0.6
		c0.6-0.5,0.8-0.9,0.8-1.7C39.9,26.1,39.8,25.6,39.5,25.2z M24.5,35.3v-4.8h-3.8C21.6,32.1,22.8,33.8,24.5,35.3z"/>
</g>
<g id="Personal_icon">
	<path id="RoundArrow" d="M55.855,24.783l-5.987-4.403c-0.379-0.279-0.638-0.688-0.747-1.146C46.3,7.419,35.035-1.155,22.084,0.274
		C10.198,1.586,0.801,11.482,0.05,23.416C-0.859,37.869,10.64,49.918,24.9,49.918c11.761,0,21.642-8.195,24.236-19.174
		c0.109-0.461,0.368-0.872,0.749-1.152l5.969-4.391C55.995,25.098,55.995,24.887,55.855,24.783z M24.9,48.918
		c-13.178,0-23.9-10.722-23.9-23.9C1,11.839,11.722,1.118,24.9,1.118c13.179,0,23.9,10.721,23.9,23.899
		C48.8,38.196,38.079,48.918,24.9,48.918z"/>
	<path d="M31.46,23.2c0-0.6-0.4-1-0.9-1h-3.1c-0.5,0-0.9,0.5-0.9,1v0.3h-13.1c-0.1,0.4-0.1,0.9-0.1,1.3c0,0.5,0,0.9,0.1,1.3h13.1
		v0.3c0,0.6,0.4,1,0.9,1h3.1c0.5,0,0.9-0.5,0.9-1v-0.3h5.6c0.1-0.4,0.1-0.9,0.1-1.3c0-0.5,0-0.9-0.1-1.3h-5.6
		C31.46,23.5,31.46,23.2,31.46,23.2z M30.26,26.3h-2.5v-2.8h2.5V26.3z"/>
	<path d="M22.56,16.7v-0.3c0-0.6-0.4-1-0.9-1h-3.1c-0.5,0-0.9,0.5-0.9,1v0.3h-2.3c-0.8,0.8-1.5,1.8-2,2.8h4.3v0.3c0,0.6,0.4,1,0.9,1
		h3.1c0.5,0,0.9-0.5,0.9-1v-0.3h11.7c-0.5-1-1.2-2-2-2.8H22.56z M21.26,19.5h-2.5v-2.8h2.5V19.5z"/>
	<path d="M22.56,30.5v-0.3c0-0.6-0.4-1-0.9-1h-3.1c-0.5,0-0.9,0.5-0.9,1v0.3h-4.3c0.5,1,1.2,2,2,2.8h2.3v0.3c0,0.6,0.4,1,0.9,1h3.1
		c0.5,0,0.9-0.5,0.9-1v-0.3h9.8c0.8-0.8,1.5-1.8,2-2.8H22.56z M21.26,33.3h-2.5v-2.8h2.5V33.3z"/>
</g>
</svg>
