<?xml version="1.0" encoding="utf-8"?>
<!-- Generator: Adobe Illustrator 18.0.0, SVG Export Plug-In . SVG Version: 6.00 Build 0)  -->
<!DOCTYPE svg PUBLIC "-//W3C//DTD SVG 1.1//EN" "http://www.w3.org/Graphics/SVG/1.1/DTD/svg11.dtd">
<svg version="1.1" id="Layer_1" xmlns="http://www.w3.org/2000/svg" xmlns:xlink="http://www.w3.org/1999/xlink" x="0px" y="0px"
	 viewBox="0 0 55.96 50" enable-background="new 0 0 55.96 50" xml:space="preserve">
<g id="Cms_icon">
	<path class="RoundArrow" d="M55.855,24.783l-5.987-4.403c-0.379-0.279-0.638-0.688-0.747-1.146
		C46.3,7.419,35.035-1.155,22.084,0.274C10.198,1.586,0.801,11.482,0.05,23.416C-0.859,37.869,10.64,49.918,24.9,49.918
		c11.761,0,21.642-8.195,24.236-19.174c0.109-0.461,0.368-0.872,0.749-1.152l5.969-4.391C55.995,25.098,55.995,24.887,55.855,24.783
		z M24.9,48.918c-13.178,0-23.9-10.722-23.9-23.9C1,11.839,11.722,1.118,24.9,1.118c13.179,0,23.9,10.721,23.9,23.899
		C48.8,38.196,38.079,48.918,24.9,48.918z"/>
	<path d="M24.9,13.5c-6.3,0-11.5,5.2-11.5,11.5s5.2,11.5,11.5,11.5S36.4,31.3,36.4,25S31.2,13.5,24.9,13.5z M30.7,26.2h-4.6v4.6
		h-2.3v-4.6h-4.6v-2.3h4.6v-4.6h2.3v4.6h4.6V26.2z"/>
</g>
</svg>
