<?xml version="1.0" encoding="utf-8"?>
<!-- Generator: Adobe Illustrator 18.0.0, SVG Export Plug-In . SVG Version: 6.00 Build 0)  -->
<!DOCTYPE svg PUBLIC "-//W3C//DTD SVG 1.1//EN" "http://www.w3.org/Graphics/SVG/1.1/DTD/svg11.dtd">
<svg version="1.1" id="Слой_1" xmlns="http://www.w3.org/2000/svg" xmlns:xlink="http://www.w3.org/1999/xlink" x="0px" y="0px"
	 viewBox="0 0 100 100" enable-background="new 0 0 100 100" xml:space="preserve">
<g id="Cms_icon">
	<path fill="#4B4545" d="M99.8,44l-10.7-7.9c-0.7-0.5-1.1-1.2-1.3-2C82.7,13,62.6-2.3,39.5,0.3c-21.2,2.3-38,20-39.3,41.3
		C-1.5,67.4,19,88.9,44.5,88.9c21,0,38.6-14.6,43.3-34.2c0.2-0.8,0.7-1.6,1.3-2.1l10.7-7.8C100,44.6,100,44.2,99.8,44z M44.5,87.1
		C21,87.1,1.8,68,1.8,44.5C1.8,20.9,21,1.8,44.5,1.8c23.5,0,42.7,19.1,42.7,42.7C87.2,68,68,87.1,44.5,87.1z"/>
	<path fill="#4B4545" d="M44.5,23.9C33.2,23.9,24,33.2,24,44.4S33.2,65,44.5,65S65,55.7,65,44.4S55.8,23.9,44.5,23.9z M54.9,46.6
		h-8.2v8.2h-4.1v-8.2h-8.2v-4.1h8.2v-8.2h4.1v8.2h8.2V46.6z"/>
</g>
<g id="Mail_icon">
	<path fill="#4B4545" d="M99.8,44l-10.7-7.9c-0.7-0.5-1.1-1.2-1.3-2C82.7,13,62.6-2.3,39.5,0.3c-21.2,2.3-38,20-39.3,41.3
		C-1.5,67.4,19,88.9,44.5,88.9c21,0,38.6-14.6,43.3-34.2c0.2-0.8,0.7-1.6,1.3-2.1l10.7-7.8C100,44.6,100,44.2,99.8,44z M44.5,87.1
		C21,87.1,1.8,68,1.8,44.5C1.8,20.9,21,1.8,44.5,1.8c23.5,0,42.7,19.1,42.7,42.7C87.2,68,68,87.1,44.5,87.1z"/>
	<path fill="#4B4545" d="M65.9,54.6c0,0.9-0.4,1.8-0.7,2.5L51.6,42.6L65,31.6c0.5,0.9,0.9,1.6,0.9,2.9V54.6z M44.5,45.3l18.7-15.5
		c-0.7-0.4-1.6-0.7-2.5-0.7H28.4c-0.9,0-1.8,0.2-2.5,0.7L44.5,45.3z M49.7,44.4L45.4,48c-0.2,0.2-0.5,0.4-0.9,0.4s-0.7-0.2-0.9-0.4
		l-4.3-3.6L25.6,58.9c0.9,0.5,1.8,0.9,2.7,0.9h32.1c1.1,0,2.1-0.4,2.7-0.9L49.7,44.4z M24,31.6c-0.5,0.9-0.9,1.6-0.9,2.9v20.4
		c0,0.9,0.4,1.8,0.7,2.5L37.4,43L24,31.6z"/>
</g>
<g id="News_icon">
	<path fill="#4B4545" d="M99.8,44l-10.7-7.9c-0.7-0.5-1.1-1.2-1.3-2C82.7,13,62.6-2.3,39.5,0.3c-21.2,2.3-38,20-39.3,41.3
		C-1.5,67.4,19,88.9,44.5,88.9c21,0,38.6-14.6,43.3-34.2c0.2-0.8,0.7-1.6,1.3-2.1l10.7-7.8C100,44.6,100,44.2,99.8,44z M44.5,87.1
		C21,87.1,1.8,68,1.8,44.5C1.8,20.9,21,1.8,44.5,1.8c23.5,0,42.7,19.1,42.7,42.7C87.2,68,68,87.1,44.5,87.1z"/>
	<path fill="#4B4545" d="M35.4,54.1c1.4,3.2,3.6,6.1,6.6,8.9c-5.7-0.9-10.7-4.3-13.4-9.1L35.4,54.1z M41.8,25.9
		c-5.4,0.9-10.2,4.1-13,8.6h6.6C36.8,31.6,39,28.7,41.8,25.9z M44,34.8v-9.1l0,0c-3.2,2.9-5.7,5.9-7.3,8.9L44,34.8z M28.8,37.6h-1.4
		h-1.3l-0.2,9.3l-5.2-9.5h-1.4h-1.4l-0.2,13.2H19h1.3l0.2-9.6l5.4,9.6h1.4h1.3L28.8,37.6z M41.1,40v-1.3v-1.3l-9.8-0.2l-0.2,13.2
		l10,0.2v-1.3v-1.3h-7.3v-3.4h6.4v-1.3v-0.9h-6.4v-2.9L41.1,40z M54.5,47.5L54.5,47.5l-1.8-9.6h-1.4h-1.4l-2,9.6l-2.1-9.8h-1.4h-1.6
		l3.6,13.2h1.4h1.4l2.1-10.5l2,10.5h1.4h1.4l3.8-13.2h-1.4H57L54.5,47.5z M45.6,25.7L45.6,25.7l-0.2,9.1h7
		C51.1,31.8,48.6,28.7,45.6,25.7z M60.8,35c-2.9-4.6-7.5-8-12.9-8.9c2.9,2.9,4.8,5.9,6.3,8.9H60.8z M47,63.2
		c5.7-0.9,10.7-4.1,13.8-8.6H54C52.2,57.3,49.9,60.3,47,63.2z M52,54.3h-6.8v8.6C48.3,60.1,50.6,57.3,52,54.3z M70.6,44.8
		c-0.5-0.5-2-1.1-3.7-1.6c-1.4-0.4-2.1-0.5-2.7-0.9c-0.4-0.2-0.5-0.5-0.5-1.1c0-0.5,0.2-1.1,0.5-1.3c0.4-0.2,1.1-0.4,1.6-0.4
		c0.9,0,1.4,0.2,2,0.5c0.4,0.4,0.9,0.9,0.9,1.6h2.7c0-1.4-0.5-2.5-1.6-3.2c-1.1-0.9-2.1-1.3-3.6-1.3c-1.6,0-2.9,0.4-3.7,1.1
		c-1.1,0.9-1.4,1.8-1.4,3s0.4,2,1.1,2.7c0.9,0.5,2.1,1.1,4.3,1.6c1.3,0.2,1.8,0.5,2.1,0.9c0.4,0.2,0.5,0.5,0.5,1.3
		c0,0.5-0.2,0.9-0.9,1.3c-0.4,0.2-1.3,0.4-2,0.4c-0.9,0-1.6-0.2-2-0.5c-0.4-0.4-0.9-1.1-0.9-1.6h-2.7c0,1.4,0.5,2.7,1.4,3.4
		c1.1,0.9,2.1,1.3,4.1,1.3c1.6,0,3-0.4,4.1-1.1c1.1-0.9,1.4-1.6,1.4-3C71.3,46.4,71.1,45.5,70.6,44.8z M43.8,62.8v-8.6H37
		C38.6,57.1,40.8,60.1,43.8,62.8z"/>
</g>
<g id="Personal_icon">
	<path fill="#4B4545" d="M99.8,44l-10.7-7.9c-0.7-0.5-1.1-1.2-1.3-2C82.7,13,62.6-2.3,39.5,0.3c-21.2,2.3-38,20-39.3,41.3
		C-1.5,67.4,19,88.9,44.5,88.9c21,0,38.6-14.6,43.3-34.2c0.2-0.8,0.7-1.6,1.3-2.1l10.7-7.8C100,44.6,100,44.2,99.8,44z M44.5,87.1
		C21,87.1,1.8,68,1.8,44.5C1.8,20.9,21,1.8,44.5,1.8c23.5,0,42.7,19.1,42.7,42.7C87.2,68,68,87.1,44.5,87.1z"/>
	<path fill="#4B4545" d="M56.2,41.2c0-1.1-0.7-1.8-1.6-1.8h-5.5c-0.9,0-1.6,0.9-1.6,1.8v0.5H24.1c-0.2,0.7-0.2,1.6-0.2,2.3
		c0,0.9,0,1.6,0.2,2.3h23.4v0.5c0,1.1,0.7,1.8,1.6,1.8h5.5c0.9,0,1.6-0.9,1.6-1.8v-0.5h10c0.2-0.7,0.2-1.6,0.2-2.3
		c0-0.9,0-1.6-0.2-2.3h-10C56.2,41.8,56.2,41.2,56.2,41.2z M54.1,46.8h-4.5v-5h4.5V46.8z"/>
	<path fill="#4B4545" d="M40.3,29.6v-0.5c0-1.1-0.7-1.8-1.6-1.8h-5.5c-0.9,0-1.6,0.9-1.6,1.8v0.5h-4.1c-1.4,1.4-2.7,3.2-3.6,5h7.7
		v0.5c0,1.1,0.7,1.8,1.6,1.8h5.5c0.9,0,1.6-0.9,1.6-1.8v-0.5h20.9c-0.9-1.8-2.1-3.6-3.6-5H40.3z M38,34.6h-4.5v-5H38V34.6z"/>
	<path fill="#4B4545" d="M40.3,54.3v-0.5c0-1.1-0.7-1.8-1.6-1.8h-5.5c-0.9,0-1.6,0.9-1.6,1.8v0.5h-7.7c0.9,1.8,2.1,3.6,3.6,5h4.1
		v0.5c0,1.1,0.7,1.8,1.6,1.8h5.5c0.9,0,1.6-0.9,1.6-1.8v-0.5h17.5c1.4-1.4,2.7-3.2,3.6-5H40.3z M38,59.3h-4.5v-5H38V59.3z"/>
</g>
</svg>
