<?xml version="1.0" encoding="utf-8"?>
<!-- Generator: Adobe Illustrator 18.0.0, SVG Export Plug-In . SVG Version: 6.00 Build 0)  -->
<!DOCTYPE svg PUBLIC "-//W3C//DTD SVG 1.1//EN" "http://www.w3.org/Graphics/SVG/1.1/DTD/svg11.dtd">
<svg version="1.1" id="Слой_1" xmlns="http://www.w3.org/2000/svg" xmlns:xlink="http://www.w3.org/1999/xlink" x="0px" y="0px"
	 viewBox="0 0 56 56" enable-background="new 0 0 56 56" xml:space="preserve">
<g id="Cms_icon">
	<path class="RoundArrow" fill="#4B4545" d="M55.875,24.665l-5.987-4.403c-0.379-0.279-0.638-0.688-0.747-1.146
		C46.32,7.301,35.055-1.273,22.104,0.156C10.218,1.468,0.821,11.364,0.07,23.298C-0.839,37.751,10.66,49.8,24.92,49.8
		c11.761,0,21.642-8.195,24.236-19.174c0.109-0.461,0.368-0.872,0.749-1.152l5.969-4.391C56.015,24.98,56.015,24.769,55.875,24.665z
		 M24.92,48.8c-13.178,0-23.9-10.722-23.9-23.9C1.02,11.721,11.742,1,24.92,1c13.179,0,23.9,10.721,23.9,23.899
		C48.82,38.078,38.099,48.8,24.92,48.8z"/>
	<path fill="#4B4545" d="M24.92,13.382c-6.3,0-11.5,5.2-11.5,11.5s5.2,11.5,11.5,11.5s11.5-5.2,11.5-11.5S31.22,13.382,24.92,13.382
		z M30.72,26.082h-4.6v4.6h-2.3v-4.6h-4.6v-2.3h4.6v-4.6h2.3v4.6h4.6V26.082z"/>
</g>
<g id="Card_icon">
	<path class="RoundArrow" fill="#4B4545" d="M55.875,24.665l-5.987-4.403c-0.379-0.279-0.638-0.688-0.747-1.146
		C46.32,7.301,35.055-1.273,22.104,0.156C10.218,1.468,0.821,11.364,0.07,23.298C-0.839,37.751,10.66,49.8,24.92,49.8
		c11.761,0,21.642-8.195,24.236-19.174c0.109-0.461,0.368-0.872,0.749-1.152l5.969-4.391C56.015,24.98,56.015,24.769,55.875,24.665z
		 M24.92,48.8c-13.178,0-23.9-10.722-23.9-23.9C1.02,11.721,11.742,1,24.92,1c13.179,0,23.9,10.721,23.9,23.899
		C48.82,38.078,38.099,48.8,24.92,48.8z"/>
	<path id="test_path" fill="#4B4545" d="M37.32,13.382c-0.1-0.4-0.5-0.7-0.9-0.5l-3,0.8c-0.3,0.1-0.5,0.3-0.6,0.6l-0.4,2.4
		l-18.6,2.2l0,0c0,0,0,0-0.1,0c0,0-0.1,0-0.1,0.1c0,0-0.1,0-0.1,0.1c-0.1,0-0.1,0.1-0.1,0.1s0,0-0.1,0.1l0,0c-0.1,0-0.1,0-0.1,0.1
		c0,0,0,0,0,0.1s0,0.2,0,0.3l2.2,9.1l0.8,3c0,0,0,0,0,0.1v0.1l0.1,0.1c0,0,0,0.1,0.1,0.1l0.1,0.1h0.1c0.1,0,0.2,0.1,0.3,0.1h15.9
		c0.4,0,0.8-0.3,0.8-0.8c0-0.4-0.3-0.8-0.8-0.8h-15.3l-0.4-1.5h14.1c0.1,0,0.2,0,0.3,0c0,0,0.1,0,0.1-0.1c0,0,0.1,0,0.1-0.1
		c0,0,0-0.1,0.1-0.1l0.1-0.1v-0.1v-0.1l0,0l0,0l2.3-13.9l2.5-0.6C37.12,14.182,37.42,13.782,37.32,13.382z M16.72,27.882l-1.9-7.7
		l2.4-0.2l1.1,7.9C18.32,27.882,16.72,27.882,16.72,27.882z M19.82,27.882l-1.2-8.1l2.4-0.3l0.4,8.4H19.82z M24.52,27.882h-1.6
		l-0.4-8.6l2.4-0.3L24.52,27.882z M27.62,27.882h-1.6l0.4-9l2.3-0.3L27.62,27.882z M30.62,27.882h-1.5l1.2-9.5l1.6-0.2L30.62,27.882
		z M19.92,33.982c-0.8,0-1.5,0.7-1.5,1.5s0.7,1.5,1.5,1.5s1.5-0.7,1.5-1.5S20.82,33.982,19.92,33.982z M29.72,33.982
		c-0.8,0-1.5,0.7-1.5,1.5s0.7,1.5,1.5,1.5s1.5-0.7,1.5-1.5C31.32,34.582,30.62,33.982,29.72,33.982z"/>
</g>
<g id="Delivery_icon">
	<path class="RoundArrow" fill="#4B4545" d="M55.875,24.665l-5.987-4.403c-0.379-0.279-0.638-0.688-0.747-1.146
		C46.32,7.301,35.055-1.273,22.104,0.156C10.218,1.468,0.821,11.364,0.07,23.298C-0.839,37.751,10.66,49.8,24.92,49.8
		c11.761,0,21.642-8.195,24.236-19.174c0.109-0.461,0.368-0.872,0.749-1.152l5.969-4.391C56.015,24.98,56.015,24.769,55.875,24.665z
		 M24.92,48.8c-13.178,0-23.9-10.722-23.9-23.9C1.02,11.721,11.742,1,24.92,1c13.179,0,23.9,10.721,23.9,23.899
		C48.82,38.078,38.099,48.8,24.92,48.8z"/>
	<path fill="#4B4545" d="M36.02,17.082l-2.8-3.5c-0.3-0.3-0.7-0.5-1.1-0.5h-14.4c-0.4,0-0.8,0.2-1.1,0.5l-2.8,3.5
		c-0.3,0.4-0.5,1-0.5,1.6v2.6c0.2-0.3,0.5-0.6,0.9-0.7c0-0.3,0.1-0.6,0.3-0.8c0.3-0.4,0.7-0.8,1.2-0.9c0.2,0,0.3-0.1,0.5-0.1
		c0.7,0,1.3,0.3,1.6,0.9c0.1,0,0.2,0,0.3,0c0.3,0,0.6,0.1,0.9,0.2l1.5-0.4c0.2-0.1,0.4-0.1,0.6-0.1c1.1,0,2,0.7,2.3,1.8l3,11.6
		c0.2,0.6,0.1,1.2-0.2,1.8c-0.3,0.5-0.8,0.9-1.4,1.1l-1.4,0.4h11.4c1,0,1.7-0.8,1.7-1.7v-15.6
		C36.62,18.182,36.32,17.482,36.02,17.082z M14.82,17.082l0.9-1.2h6.3l0.6-1h-6.1l0.7-0.9c0.1-0.2,0.3-0.3,0.5-0.3h14.4
		c0.2,0,0.4,0.1,0.5,0.3l0.7,0.9h-6.2l0.3,1h6.7l0.9,1.2H14.82z M15.02,21.382l-0.4,0.1c-0.4,0.1-0.7,0.5-0.6,0.9l0,0
		c0.1,0.4,0.5,0.7,0.9,0.6l3.3-0.9c0.4-0.1,0.7-0.5,0.6-0.9l0,0c-0.1-0.4-0.5-0.7-0.9-0.6l-0.4,0.1c-0.2,0.1-0.4-0.1-0.5-0.3l0,0
		c-0.1-0.5-0.6-0.8-1.1-0.6l0,0c-0.5,0.1-0.8,0.6-0.6,1.1l0,0C15.42,21.082,15.32,21.282,15.02,21.382z M16.12,20.282
		c0.2-0.1,0.4,0.1,0.5,0.3c0.1,0.2-0.1,0.4-0.3,0.5c-0.2,0.1-0.4-0.1-0.5-0.3C15.82,20.482,15.92,20.282,16.12,20.282z
		 M21.02,32.282c0,0.1,0,0.3-0.2,0.3l-4.8,1.3c-0.1,0-0.3,0-0.3-0.2l-0.1-0.3c0-0.1,0-0.3,0.2-0.3l4.8-1.3c0.1,0,0.3,0,0.3,0.2
		L21.02,32.282z M21.62,27.182l0.1,0.3c0,0.1,0,0.3-0.2,0.3l-6.6,1.7c-0.1,0-0.3,0-0.3-0.2l-0.1-0.3c0-0.1,0-0.3,0.2-0.3l6.6-1.7
		C21.42,26.982,21.52,27.082,21.62,27.182z M20.92,25.482l-6.6,1.7c-0.1,0-0.3,0-0.3-0.2l-0.1-0.3c0-0.1,0-0.3,0.2-0.3l6.6-1.7
		c0.1,0,0.3,0,0.3,0.2l0.1,0.3C21.12,25.282,21.02,25.482,20.92,25.482z M20.72,30.182l-5.3,1.4c-0.1,0-0.3,0-0.3-0.2l-0.1-0.3
		c0-0.1,0-0.3,0.2-0.3l5.3-1.4c0.1,0,0.3,0,0.3,0.2l0.1,0.3C20.92,29.982,20.92,30.082,20.72,30.182z M25.52,32.982l-3-11.6
		c-0.2-0.7-0.9-1.1-1.6-0.9l-1.6,0.3c0,0.1,0.1,0.2,0.1,0.2c0.2,0.7-0.2,1.4-0.9,1.6l-3.3,0.8c-0.7,0.2-1.4-0.2-1.6-0.8
		c0-0.1-0.1-0.2-0.1-0.4l-1.5,0.4c-0.7,0.2-1.1,0.9-0.9,1.6l3,11.6c0.2,0.7,0.9,1.1,1.6,0.9l8.9-2.3
		C25.32,34.382,25.72,33.682,25.52,32.982z M15.42,35.582l-2.6-10.1l8.9-2.3l2.6,10.1L15.42,35.582z"/>
</g>
<g id="Settings_icon">
	<path class="RoundArrow" fill="#4B4545" d="M55.875,24.665l-5.987-4.403c-0.379-0.279-0.638-0.688-0.747-1.146
		C46.32,7.301,35.055-1.273,22.104,0.156C10.218,1.468,0.821,11.364,0.07,23.298C-0.839,37.751,10.66,49.8,24.92,49.8
		c11.761,0,21.642-8.195,24.236-19.174c0.109-0.461,0.368-0.872,0.749-1.152l5.969-4.391C56.015,24.98,56.015,24.769,55.875,24.665z
		 M24.92,48.8c-13.178,0-23.9-10.722-23.9-23.9C1.02,11.721,11.742,1,24.92,1c13.179,0,23.9,10.721,23.9,23.899
		C48.82,38.078,38.099,48.8,24.92,48.8z"/>
	<path fill="#4B4545" d="M22.52,33.082l-0.6-0.3c0-0.4,0-0.9-0.1-1.4l0.6-0.3c0.4-0.2,0.5-0.6,0.4-1l-0.3-0.8
		c-0.2-0.4-0.6-0.5-1-0.4l-0.6,0.5c-0.3-0.4-0.6-0.7-1-0.9l0.2-0.6c0.1-0.4-0.1-0.8-0.4-0.9l-0.8-0.4c-0.4-0.1-0.8,0.1-0.9,0.4
		l-0.3,0.7c-0.4,0-0.9,0-1.4,0.1l-0.3-0.6c-0.2-0.4-0.6-0.5-1-0.4l-0.8,0.3c-0.4,0.2-0.5,0.6-0.4,1l0.3,0.6c-0.4,0.3-0.7,0.6-0.9,1
		l-0.6-0.2c-0.4-0.1-0.8,0.1-0.9,0.4l-0.2,0.8c-0.1,0.2-0.1,0.4,0,0.6s0.2,0.3,0.4,0.4l0.6,0.2c0,0.4,0,0.9,0.1,1.4l-0.6,0.3
		c-0.4,0.2-0.5,0.6-0.4,1l0.3,0.8c0.2,0.4,0.6,0.5,1,0.4l0.6-0.3c0.3,0.4,0.6,0.7,1,0.9l-0.2,0.6c-0.1,0.2-0.1,0.4,0,0.6
		c0.1,0.2,0.2,0.3,0.4,0.4l0.8,0.3c0.2,0.1,0.4,0.1,0.6,0c0.2-0.1,0.3-0.2,0.4-0.4l0.2-0.6c0.4,0,0.9,0,1.4-0.1l0.3,0.6
		c0.2,0.4,0.6,0.5,1,0.4l0.8-0.3c0.4-0.2,0.5-0.6,0.4-1l-0.3-0.6c0.4-0.3,0.7-0.6,0.9-1l0.6,0.2c0.2,0.1,0.4,0.1,0.6,0
		s0.3-0.2,0.4-0.4l0.3-0.8C23.12,33.582,22.92,33.182,22.52,33.082z M18.42,34.982c-0.4,0.2-0.8,0.3-1.2,0.3c-1.1,0-2.2-0.7-2.7-1.7
		c-0.7-1.5,0-3.2,1.4-3.9c0.4-0.2,0.8-0.3,1.2-0.3c1.1,0,2.2,0.7,2.7,1.7C20.52,32.582,19.92,34.282,18.42,34.982z"/>
	<path fill="#4B4545" d="M29.82,35.182l-0.3-0.1c0-0.2,0-0.5,0-0.8l0.3-0.2c0.2-0.1,0.3-0.3,0.2-0.5l-0.2-0.4
		c-0.1-0.2-0.3-0.3-0.5-0.2l-0.4,0.1c-0.2-0.2-0.3-0.4-0.6-0.5l0.1-0.3c0.1-0.2,0-0.4-0.2-0.5l-0.4-0.2c-0.2-0.1-0.5,0-0.5,0.2
		l-0.1,0.3c-0.2,0-0.5,0-0.8,0l-0.2-0.3c-0.1-0.1-0.3-0.2-0.5-0.1l-0.4,0.2c-0.2,0.1-0.3,0.3-0.2,0.5l0.2,0.3
		c-0.2,0.2-0.4,0.3-0.5,0.6l-0.3-0.1c-0.2-0.1-0.5,0-0.5,0.2l-0.2,0.4c0,0.1,0,0.2,0,0.3s0.1,0.2,0.2,0.2l0.3,0.1c0,0.2,0,0.5,0,0.8
		l-0.3,0.2c-0.2,0.1-0.3,0.3-0.2,0.5l0.2,0.4c0.1,0.2,0.3,0.3,0.5,0.2l0.3-0.2c0.2,0.2,0.3,0.4,0.6,0.5l-0.1,0.3c0,0.1,0,0.2,0,0.3
		s0.1,0.2,0.2,0.2l0.4,0.2c0.1,0,0.2,0,0.3,0c0.1,0,0.2-0.1,0.2-0.2l0.1-0.3c0.2,0,0.5,0,0.8,0l0.2,0.3c0.1,0.2,0.3,0.3,0.5,0.2
		l0.4-0.2c0.2-0.1,0.3-0.3,0.2-0.5l-0.2-0.3c0.2-0.2,0.4-0.3,0.5-0.6l0.3,0.1c0.1,0,0.2,0,0.3,0s0.2-0.1,0.2-0.2l0.2-0.4
		C30.12,35.482,30.02,35.282,29.82,35.182z M27.52,36.282c-0.2,0.1-0.4,0.1-0.7,0.1c-0.6,0-1.2-0.4-1.5-0.9c-0.4-0.8,0-1.8,0.8-2.2
		c0.2-0.1,0.4-0.1,0.7-0.1c0.6,0,1.2,0.4,1.5,0.9C28.72,34.882,28.42,35.882,27.52,36.282z"/>
	<path fill="#4B4545" d="M37.52,22.182l-1-0.4c0.1-0.8,0.1-1.5-0.1-2.3l1-0.5c0.6-0.3,0.9-1,0.6-1.6l-0.6-1.3
		c-0.3-0.6-1-0.9-1.6-0.6l-1,0.5c-0.5-0.6-1.1-1.1-1.7-1.5l0.4-1c0.2-0.6-0.1-1.4-0.7-1.6l-1.3-0.5c-0.6-0.2-1.4,0.1-1.6,0.7l-0.4,1
		c-0.8-0.1-1.5-0.1-2.3,0.1l-0.5-1c-0.3-0.6-1-0.9-1.6-0.6l-1.3,0.6c-0.6,0.3-0.9,1-0.6,1.6l0.5,1c-0.6,0.5-1.1,1.1-1.5,1.7l-1-0.4
		c-0.6-0.2-1.4,0.1-1.6,0.7l-0.5,1.3c-0.1,0.3-0.1,0.6,0,0.9s0.4,0.5,0.7,0.6l1,0.4c-0.1,0.8-0.1,1.5,0.1,2.3l-1,0.5
		c-0.6,0.3-0.9,1-0.6,1.6l0.6,1.3c0.3,0.6,1,0.9,1.6,0.6l1-0.5c0.5,0.6,1.1,1.1,1.7,1.5l-0.4,1c-0.1,0.3-0.1,0.6,0,0.9
		s0.4,0.5,0.7,0.6l1.3,0.5c0.3,0.1,0.6,0.1,0.9,0s0.5-0.4,0.6-0.7l0.4-1c0.8,0.1,1.5,0.1,2.3-0.1l0.5,1c0.3,0.6,1,0.9,1.6,0.6
		l1.3-0.6c0.6-0.3,0.9-1,0.6-1.6l-0.5-1c0.6-0.5,1.1-1.1,1.5-1.7l1,0.4c0.3,0.1,0.6,0.1,1,0c0.3-0.1,0.5-0.4,0.6-0.7l0.5-1.3
		C38.52,23.082,38.22,22.382,37.52,22.182z M30.72,25.382c-0.7,0.3-1.3,0.5-2.1,0.5c-1.9,0-3.7-1.1-4.5-2.9
		c-1.1-2.5-0.1-5.4,2.4-6.5c0.7-0.3,1.3-0.5,2.1-0.5c1.9,0,3.7,1.1,4.5,2.9C34.22,21.382,33.22,24.282,30.72,25.382z"/>
</g>
<g id="List_icon">
	<path class="RoundArrow" fill="#4B4545" d="M55.875,24.665l-5.987-4.403c-0.379-0.279-0.638-0.688-0.747-1.146
		C46.32,7.301,35.055-1.273,22.104,0.156C10.218,1.468,0.821,11.364,0.07,23.298C-0.839,37.751,10.66,49.8,24.92,49.8
		c11.761,0,21.642-8.195,24.236-19.174c0.109-0.461,0.368-0.872,0.749-1.152l5.969-4.391C56.015,24.98,56.015,24.769,55.875,24.665z
		 M24.92,48.8c-13.178,0-23.9-10.722-23.9-23.9C1.02,11.721,11.742,1,24.92,1c13.179,0,23.9,10.721,23.9,23.899
		C48.82,38.078,38.099,48.8,24.92,48.8z"/>
	<path fill="#4B4545" d="M25.92,12.382h-0.6c-0.3,0-0.6-0.3-0.6-0.6l0,0c0-0.8-0.6-1.4-1.4-1.4l0,0c-0.8,0-1.4,0.6-1.4,1.4l0,0
		c0,0.3-0.3,0.6-0.6,0.6h-0.6c-0.7,0-1.2,0.5-1.2,1.2l0,0c0,0.7,0.5,1.2,1.2,1.2h5.2c0.7,0,1.2-0.5,1.2-1.2l0,0
		C27.12,12.882,26.62,12.382,25.92,12.382z M23.32,12.382c-0.3,0-0.6-0.3-0.6-0.6s0.3-0.6,0.6-0.6c0.3,0,0.6,0.3,0.6,0.6
		S23.62,12.382,23.32,12.382z M26.02,35.582h-10.1c-0.9,0-1.6-0.7-1.6-1.6v-19.2c0-0.9,0.7-1.6,1.2-1.6h3.2c0,0.1,0,0.3,0,0.4
		c0,1.1,0.9,2,2,2h5.2c1.1,0,2-0.9,2-2c0-0.1,0-0.3,0-0.4h2.4c1.3,0,2,0.7,2,1.6v12c-0.1,0-0.3,0-0.4,0c-0.6,0-1.1,0.1-1.6,0.2v-9.4
		h-14v16h9.2C25.62,34.282,25.72,34.982,26.02,35.582z M31.92,27.982c-2.9,0-5.2,2.3-5.2,5.2s2.3,5.2,5.2,5.2s5.2-2.3,5.2-5.2
		S34.82,27.982,31.92,27.982z M35.32,32.082l-3.2,3.6c-0.2,0.2-0.4,0.3-0.6,0.3s-0.4-0.1-0.5-0.2l-2-1.6c-0.3-0.3-0.4-0.8-0.1-1.1
		s0.8-0.4,1.1-0.1l1.4,1.1l2.7-3c0.3-0.3,0.8-0.4,1.1-0.1C35.62,31.282,35.62,31.782,35.32,32.082z M28.32,24.382h-6.4
		c-0.2,0-0.4-0.2-0.4-0.4v-0.4c0-0.2,0.2-0.4,0.4-0.4h6.4c0.2,0,0.4,0.2,0.4,0.4v0.4C28.72,24.182,28.52,24.382,28.32,24.382z
		 M28.32,20.782h-6.4c-0.2,0-0.4-0.2-0.4-0.4v-0.4c0-0.2,0.2-0.4,0.4-0.4h6.4c0.2,0,0.4,0.2,0.4,0.4v0.4
		C28.72,20.582,28.52,20.782,28.32,20.782z M26.32,27.582h-4.4c-0.2,0-0.4-0.2-0.4-0.4v-0.4c0-0.2,0.2-0.4,0.4-0.4h4.4
		c0.2,0,0.4,0.2,0.4,0.4v0.4C26.72,27.382,26.52,27.582,26.32,27.582z M25.52,31.182h-3.6c-0.2,0-0.4-0.2-0.4-0.4v-0.4
		c0-0.2,0.2-0.4,0.4-0.4h3.6c0.2,0,0.4,0.2,0.4,0.4v0.4C25.92,30.982,25.72,31.182,25.52,31.182z M20.72,19.282l-1.5,1.7
		c-0.1,0.1-0.2,0.1-0.3,0.1s-0.2,0-0.2-0.1l-0.9-0.7c-0.2-0.1-0.2-0.4-0.1-0.5c0.1-0.2,0.4-0.2,0.5-0.1l0.6,0.5l1.2-1.4
		c0.1-0.2,0.4-0.2,0.5,0C20.82,18.882,20.92,19.182,20.72,19.282z M20.72,22.882l-1.5,1.7c-0.1,0.1-0.2,0.1-0.3,0.1s-0.2,0-0.2-0.1
		l-0.9-0.7c-0.2-0.1-0.2-0.4-0.1-0.5c0.1-0.2,0.4-0.2,0.5-0.1l0.6,0.5l1.2-1.4c0.1-0.2,0.4-0.2,0.5,0
		C20.82,22.482,20.92,22.682,20.72,22.882z M20.72,26.282l-1.5,1.7c-0.1,0.1-0.2,0.1-0.3,0.1s-0.2,0-0.2-0.1l-0.9-0.7
		c-0.2-0.1-0.2-0.4-0.1-0.5c0.1-0.2,0.4-0.2,0.5-0.1l0.6,0.5l1.2-1.4c0.1-0.2,0.4-0.2,0.5,0C20.82,25.882,20.92,26.082,20.72,26.282
		z M20.72,29.682l-1.5,1.7c-0.1,0.1-0.2,0.1-0.3,0.1s-0.2,0-0.2-0.1l-0.9-0.7c-0.2-0.1-0.2-0.4-0.1-0.5c0.1-0.2,0.4-0.2,0.5-0.1
		l0.6,0.5l1.2-1.4c0.1-0.2,0.4-0.2,0.5,0C20.82,29.282,20.92,29.582,20.72,29.682z"/>
</g>
<g id="Mail_icon">
	<path class="RoundArrow" fill="#4B4545" d="M55.875,24.665l-5.987-4.403c-0.379-0.279-0.638-0.688-0.747-1.146
		C46.32,7.301,35.055-1.273,22.104,0.156C10.218,1.468,0.821,11.364,0.07,23.298C-0.839,37.751,10.66,49.8,24.92,49.8
		c11.761,0,21.642-8.195,24.236-19.174c0.109-0.461,0.368-0.872,0.749-1.152l5.969-4.391C56.015,24.98,56.015,24.769,55.875,24.665z
		 M24.92,48.8c-13.178,0-23.9-10.722-23.9-23.9C1.02,11.721,11.742,1,24.92,1c13.179,0,23.9,10.721,23.9,23.899
		C48.82,38.078,38.099,48.8,24.92,48.8z"/>
	<path fill="#4B4545" d="M36.92,30.582c0,0.5-0.2,1-0.4,1.4l-7.6-8.1l7.5-6.2c0.3,0.5,0.5,0.9,0.5,1.6V30.582z M24.92,25.382
		l10.5-8.7c-0.4-0.2-0.9-0.4-1.4-0.4h-18.1c-0.5,0-1,0.1-1.4,0.4L24.92,25.382z M27.82,24.882l-2.4,2c-0.1,0.1-0.3,0.2-0.5,0.2
		s-0.4-0.1-0.5-0.2l-2.4-2l-7.7,8.1c0.5,0.3,1,0.5,1.5,0.5h18c0.6,0,1.2-0.2,1.5-0.5L27.82,24.882z M13.42,17.682
		c-0.3,0.5-0.5,0.9-0.5,1.6v11.4c0,0.5,0.2,1,0.4,1.4l7.6-8L13.42,17.682z"/>
</g>
<g id="Market_icon">
	<path class="RoundArrow" fill="#4B4545" d="M55.875,24.665l-5.987-4.403c-0.379-0.279-0.638-0.688-0.747-1.146
		C46.32,7.301,35.055-1.273,22.104,0.156C10.218,1.468,0.821,11.364,0.07,23.298C-0.839,37.751,10.66,49.8,24.92,49.8
		c11.761,0,21.642-8.195,24.236-19.174c0.109-0.461,0.368-0.872,0.749-1.152l5.969-4.391C56.015,24.98,56.015,24.769,55.875,24.665z
		 M24.92,48.8c-13.178,0-23.9-10.722-23.9-23.9C1.02,11.721,11.742,1,24.92,1c13.179,0,23.9,10.721,23.9,23.899
		C48.82,38.078,38.099,48.8,24.92,48.8z"/>
	<path fill="#4B4545" d="M13.12,15.082c-0.5-1.7,0.3-3.5,1.9-4.1c1.6-0.6,3.2,0.4,3.7,2l5.8,19.2c-0.5-0.2-1.1-0.2-1.7-0.1
		l-5.6-18.5c-0.2-0.8-1-1.2-1.7-0.9s-1.1,1.1-0.9,1.9c0.1,0.5-0.1,0.9-0.5,1.1C13.72,15.782,13.22,15.582,13.12,15.082z
		 M35.82,30.182l-9.5,3.4c0.3,0.4,0.6,0.9,0.8,1.5c0,0,0,0,0,0.1l9.2-3.3c0.4-0.1,0.6-0.6,0.5-1.1S36.22,29.982,35.82,30.182z
		 M26.42,35.282c0.5,1.8-0.3,3.7-2,4.3c-1.6,0.6-3.4-0.4-3.9-2.2s0.3-3.7,2-4.3C24.12,32.582,25.92,33.582,26.42,35.282z
		 M24.92,35.882c-0.3-0.9-1.1-1.4-2-1.1c-0.8,0.3-1.3,1.3-1,2.1c0.3,0.9,1.1,1.4,2,1.1C24.72,37.682,25.22,36.782,24.92,35.882z
		 M33.42,17.182l3.2,10.7c0.1,0.2,0,0.5-0.3,0.5l-10.1,3.7c-0.2,0.1-0.4,0-0.5-0.3l-3.2-10.7c-0.1-0.2,0-0.5,0.3-0.5l10.1-3.7
		C33.22,16.782,33.42,16.982,33.42,17.182z M32.12,23.382l-3.4-2.1l-1.6,3.9l1.1,0.5l0.7-1.7l1.3,4.2l1.2-0.4l-1.3-4.2l1.5,0.9
		L32.12,23.382z M29.12,16.982l-2.1-6.8c0-0.1-0.2-0.2-0.3-0.2l-1.8,0.6l0,0l0,0l-0.9,0.3l0.8,2.5l-1,0.4l-0.8-2.5l-0.9,0.3l0,0l0,0
		l-1.8,0.6c-0.1,0-0.2,0.2-0.2,0.3l2.1,6.8c0,0.1,0.2,0.2,0.3,0.2l6.5-2.3C29.12,17.282,29.12,17.182,29.12,16.982z"/>
</g>
<g id="Pad_icon">
	<path class="RoundArrow" fill="#4B4545" d="M55.875,24.665l-5.987-4.403c-0.379-0.279-0.638-0.688-0.747-1.146
		C46.32,7.301,35.055-1.273,22.104,0.156C10.218,1.468,0.821,11.364,0.07,23.298C-0.839,37.751,10.66,49.8,24.92,49.8
		c11.761,0,21.642-8.195,24.236-19.174c0.109-0.461,0.368-0.872,0.749-1.152l5.969-4.391C56.015,24.98,56.015,24.769,55.875,24.665z
		 M24.92,48.8c-13.178,0-23.9-10.722-23.9-23.9C1.02,11.721,11.742,1,24.92,1c13.179,0,23.9,10.721,23.9,23.899
		C48.82,38.078,38.099,48.8,24.92,48.8z"/>
	<path class="padJoy" fill="#4B4545" d="M24.32,16.882c-1.2-0.1-2.5-0.5-4.1-1.2h-0.1h-0.1c-4.7,0-8,8.2-8,13.8c0,1.3,0.2,2.4,0.6,3.2
		c0.5,0.9,1.2,1.4,2.1,1.4c2.1,0,3.3-1.2,4.6-2.4c1.4-1.3,2.9-2.7,5.7-2.7c2.4,0,4.2,1.4,5.9,2.8c1.5,1.2,2.8,2.2,4.4,2.2
		c0.8,0,1.5-0.4,1.9-1.2c0.3-0.7,0.5-1.6,0.5-2.7c0-4.9-3.6-14.4-7.9-14.4h-0.1h-0.1c-1.7,0.8-3,1.2-4.3,1.2 M20.22,23.882
		c-1.3,0-2.4-1.1-2.4-2.4s1.1-2.4,2.4-2.4s2.4,1.1,2.4,2.4C22.62,22.882,21.52,23.882,20.22,23.882z M29.72,18.082
		c0.5-0.3,1.2-0.2,1.6,0.3c0.2,0.3,0.2,0.6,0.2,0.8c-0.1,0.3-0.2,0.5-0.5,0.7c-0.2,0.1-0.4,0.2-0.6,0.2c-0.4,0-0.7-0.2-1-0.5
		C29.02,19.082,29.12,18.382,29.72,18.082z M27.32,21.582c-0.3-0.5-0.2-1.2,0.3-1.6c0.5-0.3,1.2-0.2,1.6,0.3
		c0.2,0.3,0.2,0.6,0.2,0.9c-0.1,0.3-0.2,0.5-0.5,0.7c-0.2,0.1-0.4,0.2-0.6,0.2C27.82,22.182,27.62,21.982,27.32,21.582z
		 M30.32,24.282c-0.2,0.1-0.4,0.2-0.6,0.2c-0.4,0-0.7-0.2-1-0.5c-0.2-0.3-0.2-0.6-0.2-0.9c0.1-0.3,0.2-0.5,0.5-0.7
		c0.5-0.3,1.2-0.2,1.6,0.3C31.12,23.282,30.82,23.982,30.32,24.282z M32.72,21.582c-0.1,0.3-0.2,0.5-0.5,0.7
		c-0.2,0.1-0.4,0.2-0.6,0.2c-0.4,0-0.7-0.2-1-0.5c-0.2-0.3-0.2-0.6-0.2-0.9c0.1-0.3,0.2-0.5,0.5-0.7c0.5-0.3,1.2-0.2,1.6,0.3
		C32.82,20.982,32.82,21.282,32.72,21.582z"/>
</g>
<g id="Paid_icon">
	<path class="RoundArrow" fill="#4B4545" d="M55.875,24.665l-5.987-4.403c-0.379-0.279-0.638-0.688-0.747-1.146
		C46.32,7.301,35.055-1.273,22.104,0.156C10.218,1.468,0.821,11.364,0.07,23.298C-0.839,37.751,10.66,49.8,24.92,49.8
		c11.761,0,21.642-8.195,24.236-19.174c0.109-0.461,0.368-0.872,0.749-1.152l5.969-4.391C56.015,24.98,56.015,24.769,55.875,24.665z
		 M24.92,48.8c-13.178,0-23.9-10.722-23.9-23.9C1.02,11.721,11.742,1,24.92,1c13.179,0,23.9,10.721,23.9,23.899
		C48.82,38.078,38.099,48.8,24.92,48.8z"/>
	<path fill="#4B4545" d="M15.92,16.682h13.4c0.7,0,1.3-0.6,1.3-1.3v-0.7c0-0.7-0.6-1.3-1.3-1.3h-13.4c-0.7,0-1.3,0.6-1.3,1.3v0.7
		C14.62,16.182,15.22,16.682,15.92,16.682z"/>
	<path fill="#4B4545" d="M13.92,21.282h13.4c0.7,0,1.3-0.6,1.3-1.3v-0.7c0-0.7-0.6-1.3-1.3-1.3h-13.4c-0.7,0-1.3,0.6-1.3,1.3v0.7
		C12.62,20.782,13.22,21.282,13.92,21.282z"/>
	<path fill="#4B4545" d="M13.92,25.882h9.1c0.4-0.8,0.9-1.6,1.6-2.2c0.4-0.4,0.8-0.7,1.3-1h-12c-0.7,0-1.3,0.6-1.3,1.3v0.7
		C12.62,25.282,13.22,25.882,13.92,25.882z"/>
	<path fill="#4B4545" d="M15.92,27.082c-0.7,0-1.3,0.6-1.3,1.3v0.7c0,0.7,0.6,1.3,1.3,1.3h6.4c-0.1-0.4-0.1-0.8-0.1-1.2
		c0-0.7,0.1-1.4,0.3-2.1L15.92,27.082L15.92,27.082z"/>
	<path fill="#4B4545" d="M13.92,34.982h10.8c-0.1-0.1-0.1-0.1-0.2-0.2c-0.7-0.7-1.3-1.6-1.7-2.5c-0.1-0.2-0.2-0.4-0.2-0.6h-8.7
		c-0.7,0-1.3,0.6-1.3,1.3v0.7C12.62,34.382,13.22,34.982,13.92,34.982z"/>
	<polygon fill="#4B4545" points="28.72,27.082 28.72,28.582 29.52,28.582 29.52,27.082 29.52,26.882 28.72,26.882 	"/>
	<rect x="30.82" y="29.882" fill="#4B4545" width="0.7" height="1.7"/>
	<path fill="#4B4545" d="M27.52,22.582c-1.6,0.6-2.9,1.8-3.7,3.3c-0.2,0.4-0.4,0.8-0.5,1.2c-0.2,0.7-0.3,1.4-0.3,2.1
		c0,0.4,0,0.8,0.1,1.2c0.1,0.5,0.2,0.9,0.4,1.3c0.5,1.3,1.4,2.5,2.5,3.3c1.2,0.9,2.6,1.4,4.2,1.4c3.9,0,7.1-3.2,7.1-7.1
		s-3.2-7.1-7.1-7.1C29.22,22.082,28.32,22.282,27.52,22.582z M30.82,24.682v0.9h1.2c0.4,0,0.6,0.3,0.6,0.6s-0.3,0.7-0.7,0.7h-1.2
		v1.7h1.4c0.4,0,0.6,0.3,0.6,0.6v3c0,0.4-0.3,0.6-0.6,0.6h-1.4v0.9c0,0.4-0.3,0.6-0.6,0.6c-0.3,0-0.6-0.3-0.6-0.6v-0.8h-0.9h-0.4
		c-0.4,0-0.6-0.3-0.6-0.6c0-0.2,0.1-0.3,0.2-0.4c0.1-0.1,0.3-0.2,0.5-0.2h1.3v-1.2v-0.6h-1.4c-0.4,0-0.6-0.3-0.6-0.6v-2.1v-0.9
		c0-0.1,0-0.3,0.1-0.4c0.1-0.2,0.3-0.3,0.5-0.3l0,0h1.4v-0.9c0-0.4,0.3-0.6,0.6-0.6S30.82,24.382,30.82,24.682z"/>
</g>
<g id="Soc_icon">
	<path class="RoundArrow" fill="#4B4545" d="M55.875,24.665l-5.987-4.403c-0.379-0.279-0.638-0.688-0.747-1.146
		C46.32,7.301,35.055-1.273,22.104,0.156C10.218,1.468,0.821,11.364,0.07,23.298C-0.839,37.751,10.66,49.8,24.92,49.8
		c11.761,0,21.642-8.195,24.236-19.174c0.109-0.461,0.368-0.872,0.749-1.152l5.969-4.391C56.015,24.98,56.015,24.769,55.875,24.665z
		 M24.92,48.8c-13.178,0-23.9-10.722-23.9-23.9C1.02,11.721,11.742,1,24.92,1c13.179,0,23.9,10.721,23.9,23.899
		C48.82,38.078,38.099,48.8,24.92,48.8z"/>
	<path fill="#4B4545" d="M18.72,23.582L18.72,23.582h0.2c0.8,0.7,1.6,1.1,2.5,1.1c0.8,0,1.7-0.4,2.5-1l0.1-0.1l0.2,0.1
		c0.1,0.1,0.4,0.3,0.5,0.4l0.2,0.1l0,0h0.1c0.1,0.1,0.3,0.2,0.5,0.3c0.2,0.1,0.3,0.1,0.5,0.2c0,0,0.8,0.3,1.7,0.7h0.2
		c0.8,0.3,1.2,0.8,1.2,0.8c1.3,1.9,1.5,6.3,1.5,6.8c0,0.7-0.2,0.8-0.2,0.9c-3,1.3-7.5,1.6-8.4,1.7l0,0l0,0h-0.1l0,0l0,0
		c-0.2,0-0.4,0-0.6,0h-0.1c-0.5,0-5.4-0.3-8.5-1.7c-0.1,0-0.2-0.2-0.3-0.8c0,0,0.2-4.7,1.5-6.8c0.1-0.1,0.4-0.5,1.2-0.8
		c0.7-0.2,2.4-0.7,3.2-1.4l0.1-0.1C18.42,23.882,18.52,23.782,18.72,23.582z M28.02,24.782h-0.1c-0.2-0.1-0.4-0.2-0.6-0.3
		c0.3-0.1,0.6-0.3,0.7-0.4c0,0,0.1,0,0.1-0.1c0.1-0.1,0.2-0.2,0.3-0.3l0.1-0.1l0.1,0.1c0.6,0.5,1.2,0.8,1.8,0.8s1.2-0.3,1.8-0.8l0,0
		l0.1,0.1c0.1,0.1,0.3,0.2,0.4,0.3h0.2l0,0h0.1c0.1,0.1,0.2,0.1,0.4,0.2c0.1,0.1,0.3,0.1,0.4,0.1c0,0,0.6,0.2,1.3,0.5h0.1
		c0.6,0.2,0.9,0.5,0.9,0.6c1,1.4,1.1,4.6,1.1,5c0,0.5-0.1,0.6-0.2,0.6c-1.8,0.8-4.5,1.1-5.6,1.2c-0.1-1.4-0.5-4.9-1.6-6.7v-0.1
		C29.32,25.482,28.82,25.082,28.02,24.782z M27.32,19.482L27.32,19.482c0.1-0.1,0.2-0.2,0.1-0.3c-0.2-1.3-0.1-1.9,0-2.1
		c0.4-1.2,1.6-1.7,1.8-1.8c0,0,0.1,0,0.2-0.1l0,0h0.2l0,0h0.1h0.1h0.1c0,0,0.5,0.1,1.2,0.3l0.5,0.2c0.9,0.3,1.3,0.7,1.4,0.8
		c0.7,0.8,0.5,2.1,0.3,2.8c0,0.1,0,0.2,0,0.2v0.1c0,0.1,0.1,0.3-0.1,0.9c0,0.2-0.1,0.3-0.2,0.4l-0.1,0.1c-0.2,1.4-1.5,3.1-2.9,3.1
		c-1.1,0-2.5-1.4-2.7-3.1c0-0.1,0-0.1-0.1-0.2s-0.2-0.2-0.2-0.5C27.32,19.882,27.32,19.582,27.32,19.482z M17.32,17.982
		L17.32,17.982c0.1-0.1,0.2-0.3,0.2-0.4c-0.3-1.8-0.1-2.6-0.1-2.8c0.5-1.6,2.2-2.4,2.6-2.6c0.1,0,0.2-0.1,0.3-0.1l0,0h0.3l0,0h0.1
		c0.1,0,0.1,0,0.2,0h0.1c0,0,0.7,0.1,1.6,0.4l0.7,0.2c1.2,0.4,1.7,1,1.8,1.1c1,1.1,0.7,2.8,0.5,3.7c0,0.1,0,0.2,0,0.3l0.1,0.1
		c0.1,0.1,0.1,0.5-0.1,1.2c0,0.2-0.1,0.4-0.3,0.6c0,0.1-0.1,0.1-0.1,0.2c-0.3,1.9-2.1,4.1-3.9,4.1c-1.5,0-3.4-1.9-3.7-4.1
		c0-0.1,0-0.1-0.1-0.2s-0.2-0.3-0.3-0.6C17.22,18.582,17.22,18.182,17.32,17.982z"/>
</g>
<g id="News_icon">
	<path class="RoundArrow" fill="#4B4545" d="M55.875,24.665l-5.987-4.403c-0.379-0.279-0.638-0.688-0.747-1.146
		C46.32,7.301,35.055-1.273,22.104,0.156C10.218,1.468,0.821,11.364,0.07,23.298C-0.839,37.751,10.66,49.8,24.92,49.8
		c11.761,0,21.642-8.195,24.236-19.174c0.109-0.461,0.368-0.872,0.749-1.152l5.969-4.391C56.015,24.98,56.015,24.769,55.875,24.665z
		 M24.92,48.8c-13.178,0-23.9-10.722-23.9-23.9C1.02,11.721,11.742,1,24.92,1c13.179,0,23.9,10.721,23.9,23.899
		C48.82,38.078,38.099,48.8,24.92,48.8z"/>
	<path fill="#4B4545" d="M19.82,30.282c0.8,1.8,2,3.4,3.7,5c-3.2-0.5-6-2.4-7.5-5.1L19.82,30.282z M23.42,14.482
		c-3,0.5-5.7,2.3-7.3,4.8h3.7C20.62,17.682,21.82,16.082,23.42,14.482z M24.62,19.482v-5.1l0,0c-1.8,1.6-3.2,3.3-4.1,5L24.62,19.482
		z M16.12,21.082h-0.8h-0.7l-0.1,5.2l-2.9-5.3h-0.8h-0.8l-0.1,7.4h0.7h0.7l0.1-5.4l3,5.4h0.8h0.7L16.12,21.082z M23.02,22.382v-0.7
		v-0.7l-5.5-0.1l-0.1,7.4l5.6,0.1v-0.7v-0.7h-4.1v-1.9h3.6v-0.7v-0.5h-3.6v-1.6L23.02,22.382z M30.52,26.582L30.52,26.582l-1-5.4
		h-0.8h-0.8l-1.1,5.4l-1.2-5.5h-0.8h-0.9l2,7.4h0.8h0.8l1.2-5.9l1.1,5.9h0.8h0.8l2.1-7.4h-0.8h-0.8L30.52,26.582z M25.52,14.382
		L25.52,14.382l-0.1,5.1h3.9C28.62,17.782,27.22,16.082,25.52,14.382z M34.02,19.582c-1.6-2.6-4.2-4.5-7.2-5c1.6,1.6,2.7,3.3,3.5,5
		H34.02z M26.32,35.382c3.2-0.5,6-2.3,7.7-4.8h-3.8C29.22,32.082,27.92,33.782,26.32,35.382z M29.12,30.382h-3.8v4.8
		C27.02,33.682,28.32,32.082,29.12,30.382z M39.52,25.082c-0.3-0.3-1.1-0.6-2.1-0.9c-0.8-0.2-1.2-0.3-1.5-0.5
		c-0.2-0.1-0.3-0.3-0.3-0.6c0-0.3,0.1-0.6,0.3-0.7s0.6-0.2,0.9-0.2c0.5,0,0.8,0.1,1.1,0.3c0.2,0.2,0.5,0.5,0.5,0.9h1.5
		c0-0.8-0.3-1.4-0.9-1.8c-0.6-0.5-1.2-0.7-2-0.7c-0.9,0-1.6,0.2-2.1,0.6c-0.6,0.5-0.8,1-0.8,1.7s0.2,1.1,0.6,1.5
		c0.5,0.3,1.2,0.6,2.4,0.9c0.7,0.1,1,0.3,1.2,0.5c0.2,0.1,0.3,0.3,0.3,0.7c0,0.3-0.1,0.5-0.5,0.7c-0.2,0.1-0.7,0.2-1.1,0.2
		c-0.5,0-0.9-0.1-1.1-0.3c-0.2-0.2-0.5-0.6-0.5-0.9h-1.5c0,0.8,0.3,1.5,0.8,1.9c0.6,0.5,1.2,0.7,2.3,0.7c0.9,0,1.7-0.2,2.3-0.6
		c0.6-0.5,0.8-0.9,0.8-1.7C39.92,25.982,39.82,25.482,39.52,25.082z M24.52,35.182v-4.8h-3.8
		C21.62,31.982,22.82,33.682,24.52,35.182z"/>
</g>
<g id="Personal_icon">
	<path class="RoundArrow" fill="#4B4545" d="M55.875,24.665l-5.987-4.403c-0.379-0.279-0.638-0.688-0.747-1.146
		C46.32,7.301,35.055-1.273,22.104,0.156C10.218,1.468,0.821,11.364,0.07,23.298C-0.839,37.751,10.66,49.8,24.92,49.8
		c11.761,0,21.642-8.195,24.236-19.174c0.109-0.461,0.368-0.872,0.749-1.152l5.969-4.391C56.015,24.98,56.015,24.769,55.875,24.665z
		 M24.92,48.8c-13.178,0-23.9-10.722-23.9-23.9C1.02,11.721,11.742,1,24.92,1c13.179,0,23.9,10.721,23.9,23.899
		C48.82,38.078,38.099,48.8,24.92,48.8z"/>
	<path fill="#4B4545" d="M31.48,23.082c0-0.6-0.4-1-0.9-1h-3.1c-0.5,0-0.9,0.5-0.9,1v0.3h-13.1c-0.1,0.4-0.1,0.9-0.1,1.3
		c0,0.5,0,0.9,0.1,1.3h13.1v0.3c0,0.6,0.4,1,0.9,1h3.1c0.5,0,0.9-0.5,0.9-1v-0.3h5.6c0.1-0.4,0.1-0.9,0.1-1.3c0-0.5,0-0.9-0.1-1.3
		h-5.6C31.48,23.382,31.48,23.082,31.48,23.082z M30.28,26.182h-2.5v-2.8h2.5V26.182z"/>
	<path fill="#4B4545" d="M22.58,16.582v-0.3c0-0.6-0.4-1-0.9-1h-3.1c-0.5,0-0.9,0.5-0.9,1v0.3h-2.3c-0.8,0.8-1.5,1.8-2,2.8h4.3v0.3
		c0,0.6,0.4,1,0.9,1h3.1c0.5,0,0.9-0.5,0.9-1v-0.3h11.7c-0.5-1-1.2-2-2-2.8H22.58z M21.28,19.382h-2.5v-2.8h2.5V19.382z"/>
	<path fill="#4B4545" d="M22.58,30.382v-0.3c0-0.6-0.4-1-0.9-1h-3.1c-0.5,0-0.9,0.5-0.9,1v0.3h-4.3c0.5,1,1.2,2,2,2.8h2.3v0.3
		c0,0.6,0.4,1,0.9,1h3.1c0.5,0,0.9-0.5,0.9-1v-0.3h9.8c0.8-0.8,1.5-1.8,2-2.8H22.58z M21.28,33.182h-2.5v-2.8h2.5V33.182z"/>
</g>
</svg>
