<?xml version="1.0" encoding="utf-8"?>
<!-- Generator: Adobe Illustrator 18.0.0, SVG Export Plug-In . SVG Version: 6.00 Build 0)  -->
<!DOCTYPE svg PUBLIC "-//W3C//DTD SVG 1.1//EN" "http://www.w3.org/Graphics/SVG/1.1/DTD/svg11.dtd">
<svg version="1.1" id="Слой_1" xmlns="http://www.w3.org/2000/svg" xmlns:xlink="http://www.w3.org/1999/xlink" x="0px" y="0px"
	 viewBox="0 0 100 100" enable-background="new 0 0 100 100" xml:space="preserve">
<g id="Card_icon">
	<path class="RoundArrow" fill="#4B4545" d="M99.8,44l-10.7-7.9c-0.7-0.5-1.1-1.2-1.3-2C82.7,13,62.6-2.3,39.5,0.3c-21.2,2.3-38,20-39.3,41.3
		C-1.5,67.4,19,88.9,44.5,88.9c21,0,38.6-14.6,43.3-34.2c0.2-0.8,0.7-1.6,1.3-2.1l10.7-7.8C100,44.6,100,44.2,99.8,44z M44.5,87.1
		C21,87.1,1.8,68,1.8,44.5C1.8,20.9,21,1.8,44.5,1.8c23.5,0,42.7,19.1,42.7,42.7C87.2,68,68,87.1,44.5,87.1z"/>
	<path id="test_path" fill="#4B4545" d="M66.6,23.9c-0.2-0.7-0.9-1.3-1.6-0.9l-5.4,1.4c-0.5,0.2-0.9,0.5-1.1,1.1l-0.7,4.3l-33.2,3.9
		l0,0c0,0,0,0-0.2,0c0,0-0.2,0-0.2,0.2c0,0-0.2,0-0.2,0.2c-0.2,0-0.2,0.2-0.2,0.2s0,0-0.2,0.2l0,0c-0.2,0-0.2,0-0.2,0.2
		c0,0,0,0,0,0.2c0,0.2,0,0.4,0,0.5l3.9,16.3l1.4,5.4c0,0,0,0,0,0.2v0.2l0.2,0.2c0,0,0,0.2,0.2,0.2l0.2,0.2h0.2
		c0.2,0,0.4,0.2,0.5,0.2h28.4c0.7,0,1.4-0.5,1.4-1.4c0-0.7-0.5-1.4-1.4-1.4H31.3l-0.7-2.7h25.2c0.2,0,0.4,0,0.5,0c0,0,0.2,0,0.2-0.2
		c0,0,0.2,0,0.2-0.2c0,0,0-0.2,0.2-0.2l0.2-0.2v-0.2v-0.2l0,0l0,0l4.1-24.8l4.5-1.1C66.3,25.3,66.8,24.6,66.6,23.9z M29.9,49.8
		L26.5,36l4.3-0.4l2,14.1C32.7,49.8,29.9,49.8,29.9,49.8z M35.4,49.8l-2.1-14.5l4.3-0.5l0.7,15H35.4z M43.8,49.8h-2.9l-0.7-15.4
		l4.3-0.5L43.8,49.8z M49.3,49.8h-2.9l0.7-16.1l4.1-0.5L49.3,49.8z M54.7,49.8H52l2.1-17l2.9-0.4L54.7,49.8z M35.6,60.7
		c-1.4,0-2.7,1.3-2.7,2.7c0,1.4,1.3,2.7,2.7,2.7c1.4,0,2.7-1.3,2.7-2.7C38.3,61.9,37.2,60.7,35.6,60.7z M53.1,60.7
		c-1.4,0-2.7,1.3-2.7,2.7c0,1.4,1.3,2.7,2.7,2.7s2.7-1.3,2.7-2.7C55.9,61.8,54.7,60.7,53.1,60.7z"/>
</g>
<g id="Delivery_icon">
	<path class="RoundArrow" fill="#4B4545" d="M99.8,44l-10.7-7.9c-0.7-0.5-1.1-1.2-1.3-2C82.7,13,62.6-2.3,39.5,0.3c-21.2,2.3-38,20-39.3,41.3
		C-1.5,67.4,19,88.9,44.5,88.9c21,0,38.6-14.6,43.3-34.2c0.2-0.8,0.7-1.6,1.3-2.1l10.7-7.8C100,44.6,100,44.2,99.8,44z M44.5,87.1
		C21,87.1,1.8,68,1.8,44.5C1.8,20.9,21,1.8,44.5,1.8c23.5,0,42.7,19.1,42.7,42.7C87.2,68,68,87.1,44.5,87.1z"/>
	<path fill="#4B4545" d="M64.3,30.5l-5-6.3c-0.5-0.5-1.3-0.9-2-0.9H31.6c-0.7,0-1.4,0.4-2,0.9l-5,6.3c-0.5,0.7-0.9,1.8-0.9,2.9V38
		c0.4-0.5,0.9-1.1,1.6-1.3c0-0.5,0.2-1.1,0.5-1.4c0.5-0.7,1.3-1.4,2.1-1.6c0.4,0,0.5-0.2,0.9-0.2c1.3,0,2.3,0.5,2.9,1.6
		c0.2,0,0.4,0,0.5,0c0.5,0,1.1,0.2,1.6,0.4l2.7-0.7c0.4-0.2,0.7-0.2,1.1-0.2c2,0,3.6,1.3,4.1,3.2l5.4,20.7c0.4,1.1,0.2,2.1-0.4,3.2
		c-0.5,0.9-1.4,1.6-2.5,2l-2.5,0.7h20.4c1.8,0,3-1.4,3-3V33.5C65.4,32.5,64.9,31.2,64.3,30.5z M26.5,30.5l1.6-2.1h11.3l1.1-1.8H29.5
		l1.3-1.6c0.2-0.4,0.5-0.5,0.9-0.5h25.7c0.4,0,0.7,0.2,0.9,0.5l1.3,1.6H48.4l0.5,1.8h12l1.6,2.1H26.5z M26.8,38.2l-0.7,0.2
		c-0.7,0.2-1.2,0.9-1.1,1.6l0,0c0.2,0.7,0.9,1.3,1.6,1.1l5.9-1.6c0.7-0.2,1.3-0.9,1.1-1.6l0,0c-0.2-0.7-0.9-1.3-1.6-1.1l-0.7,0.2
		c-0.4,0.2-0.7-0.2-0.9-0.5l0,0c-0.2-0.9-1.1-1.4-2-1.1l0,0c-0.9,0.2-1.4,1.1-1.1,2l0,0C27.5,37.6,27.4,38,26.8,38.2z M28.8,36.2
		c0.4-0.2,0.7,0.2,0.9,0.5c0.2,0.4-0.2,0.7-0.5,0.9c-0.4,0.2-0.7-0.2-0.9-0.5C28.3,36.6,28.4,36.2,28.8,36.2z M37.5,57.6
		c0,0.2,0,0.5-0.4,0.5l-8.6,2.3c-0.2,0-0.5,0-0.5-0.4l-0.2-0.5c0-0.2,0-0.5,0.4-0.5l8.6-2.3c0.2,0,0.5,0,0.5,0.4L37.5,57.6z
		 M38.6,48.5l0.2,0.5c0,0.2,0,0.5-0.4,0.5l-11.8,3c-0.2,0-0.5,0-0.5-0.4l-0.2-0.5c0-0.2,0-0.5,0.4-0.5l11.8-3
		C38.3,48.2,38.4,48.4,38.6,48.5z M37.4,45.5l-11.8,3c-0.2,0-0.5,0-0.5-0.4l-0.2-0.5c0-0.2,0-0.5,0.4-0.5l11.8-3
		c0.2,0,0.5,0,0.5,0.4l0.2,0.5C37.7,45.1,37.5,45.5,37.4,45.5z M37,53.9l-9.5,2.5c-0.2,0-0.5,0-0.5-0.4l-0.2-0.5
		c0-0.2,0-0.5,0.4-0.5l9.5-2.5c0.2,0,0.5,0,0.5,0.4l0.2,0.5C37.4,53.5,37.4,53.7,37,53.9z M45.6,58.9l-5.4-20.7
		c-0.4-1.3-1.6-2-2.9-1.6l-2.9,0.5c0,0.2,0.2,0.4,0.2,0.4c0.4,1.3-0.4,2.5-1.6,2.9l-5.9,1.4c-1.3,0.4-2.5-0.4-2.9-1.4
		c0-0.2-0.2-0.4-0.2-0.7l-2.7,0.7c-1.3,0.4-2,1.6-1.6,2.9l5.4,20.7c0.4,1.3,1.6,2,2.9,1.6L44,61.4C45.2,61.4,45.9,60.1,45.6,58.9z
		 M27.5,63.5l-4.6-18l15.9-4.1l4.6,18L27.5,63.5z"/>
</g>
<g id="Settings_icon">
	<path class="RoundArrow" fill="#4B4545" d="M99.8,44l-10.7-7.9c-0.7-0.5-1.1-1.2-1.3-2C82.7,13,62.6-2.3,39.5,0.3c-21.2,2.3-38,20-39.3,41.3
		C-1.5,67.4,19,88.9,44.5,88.9c21,0,38.6-14.6,43.3-34.2c0.2-0.8,0.7-1.6,1.3-2.1l10.7-7.8C100,44.6,100,44.2,99.8,44z M44.5,87.1
		C21,87.1,1.8,68,1.8,44.5C1.8,20.9,21,1.8,44.5,1.8c23.5,0,42.7,19.1,42.7,42.7C87.2,68,68,87.1,44.5,87.1z"/>
	<path fill="#4B4545" d="M40.2,59.1l-1.1-0.5c0-0.7,0-1.6-0.2-2.5l1.1-0.5c0.7-0.4,0.9-1.1,0.7-1.8l-0.5-1.4
		c-0.4-0.7-1.1-0.9-1.8-0.7l-1.1,0.9c-0.5-0.7-1.1-1.3-1.8-1.6l0.4-1.1c0.2-0.7-0.2-1.4-0.7-1.6l-1.4-0.7c-0.7-0.2-1.4,0.2-1.6,0.7
		l-0.5,1.3c-0.7,0-1.6,0-2.5,0.2l-0.5-1.1c-0.4-0.7-1.1-0.9-1.8-0.7l-1.4,0.5c-0.7,0.4-0.9,1.1-0.7,1.8l0.5,1.1
		c-0.7,0.5-1.3,1.1-1.6,1.8l-1.1-0.4c-0.7-0.2-1.4,0.2-1.6,0.7l-0.4,1.4c-0.2,0.4-0.2,0.7,0,1.1c0.2,0.4,0.4,0.5,0.7,0.7l1.1,0.4
		c0,0.7,0,1.6,0.2,2.5L21.5,60c-0.7,0.4-0.9,1.1-0.7,1.8l0.5,1.4c0.4,0.7,1.1,0.9,1.8,0.7l1.1-0.5c0.5,0.7,1.1,1.3,1.8,1.6L25.6,66
		c-0.2,0.4-0.2,0.7,0,1.1s0.4,0.5,0.7,0.7l1.4,0.5c0.4,0.2,0.7,0.2,1.1,0c0.4-0.2,0.5-0.4,0.7-0.7l0.4-1.1c0.7,0,1.6,0,2.5-0.2
		l0.5,1.1c0.4,0.7,1.1,0.9,1.8,0.7l1.4-0.5c0.7-0.4,0.9-1.1,0.7-1.8l-0.5-1.1c0.7-0.5,1.3-1.1,1.6-1.8l1.1,0.4
		c0.4,0.2,0.7,0.2,1.1,0c0.4-0.2,0.5-0.4,0.7-0.7l0.5-1.4C41.3,60,40.9,59.3,40.2,59.1z M32.9,62.5c-0.7,0.4-1.4,0.5-2.1,0.5
		c-2,0-3.9-1.3-4.8-3c-1.3-2.7,0-5.7,2.5-7c0.7-0.4,1.4-0.5,2.1-0.5c2,0,3.9,1.3,4.8,3C36.6,58.2,35.6,61.2,32.9,62.5z"/>
	<path fill="#4B4545" d="M53.3,62.8l-0.5-0.2c0-0.4,0-0.9,0-1.4l0.5-0.4c0.4-0.2,0.5-0.5,0.4-0.9l-0.4-0.7c-0.2-0.4-0.5-0.5-0.9-0.4
		l-0.7,0.2c-0.4-0.4-0.5-0.7-1.1-0.9l0.2-0.5c0.2-0.4,0-0.7-0.4-0.9l-0.7-0.4c-0.4-0.2-0.9,0-0.9,0.4l-0.2,0.5c-0.4,0-0.9,0-1.4,0
		l-0.4-0.5c-0.2-0.2-0.5-0.4-0.9-0.2l-0.7,0.4c-0.4,0.2-0.5,0.5-0.4,0.9l0.4,0.5c-0.4,0.4-0.7,0.5-0.9,1.1l-0.5-0.2
		c-0.4-0.2-0.9,0-0.9,0.4l-0.4,0.7c0,0.2,0,0.4,0,0.5c0,0.2,0.2,0.4,0.4,0.4l0.5,0.2c0,0.4,0,0.9,0,1.4l-0.5,0.4
		c-0.4,0.2-0.5,0.5-0.4,0.9l0.4,0.7c0.2,0.4,0.5,0.5,0.9,0.4l0.5-0.4c0.4,0.4,0.5,0.7,1.1,0.9l-0.2,0.5c0,0.2,0,0.4,0,0.5
		s0.2,0.4,0.4,0.4l0.7,0.4c0.2,0,0.4,0,0.5,0c0.2,0,0.4-0.2,0.4-0.4l0.2-0.5c0.4,0,0.9,0,1.4,0l0.4,0.5c0.2,0.4,0.5,0.5,0.9,0.4
		l0.7-0.4c0.4-0.2,0.5-0.5,0.4-0.9l-0.4-0.5c0.4-0.4,0.7-0.5,0.9-1.1l0.5,0.2c0.2,0,0.4,0,0.5,0s0.4-0.2,0.4-0.4l0.4-0.7
		C53.8,63.4,53.6,63,53.3,62.8z M49.1,64.8C48.8,65,48.4,65,47.9,65c-1.1,0-2.1-0.7-2.7-1.6c-0.7-1.4,0-3.2,1.4-3.9
		c0.4-0.2,0.7-0.2,1.3-0.2c1.1,0,2.1,0.7,2.7,1.6C51.3,62.3,50.8,64.1,49.1,64.8z"/>
	<path fill="#4B4545" d="M67,39.6l-1.8-0.7c0.2-1.4,0.2-2.7-0.2-4.1l1.8-0.9c1.1-0.5,1.6-1.8,1.1-2.9l-1.1-2.3
		c-0.5-1.1-1.8-1.6-2.9-1.1l-1.8,0.9c-0.9-1.1-2-2-3-2.7l0.7-1.8c0.4-1.1-0.2-2.5-1.3-2.9l-2.3-0.9c-1.1-0.4-2.5,0.2-2.9,1.3
		l-0.7,1.8c-1.4-0.2-2.7-0.2-4.1,0.2l-0.9-1.8c-0.5-1.1-1.8-1.6-2.9-1.1l-2.3,1.1c-1.1,0.5-1.6,1.8-1.1,2.9l0.9,1.8
		c-1.1,0.9-2,2-2.7,3l-1.8-0.7c-1.1-0.4-2.5,0.2-2.9,1.3l-0.9,2.3c-0.2,0.5-0.2,1.1,0,1.6c0.2,0.5,0.7,0.9,1.3,1.1l1.8,0.7
		c-0.2,1.4-0.2,2.7,0.2,4.1l-1.8,0.9c-1.1,0.5-1.6,1.8-1.1,2.9l1.1,2.3c0.5,1.1,1.8,1.6,2.9,1.1l1.8-0.9c0.9,1.1,2,2,3,2.7l-0.7,1.8
		c-0.2,0.5-0.2,1.1,0,1.6c0.2,0.5,0.7,0.9,1.3,1.1l2.3,0.9c0.5,0.2,1.1,0.2,1.6,0c0.5-0.2,0.9-0.7,1.1-1.3l0.7-1.8
		c1.4,0.2,2.7,0.2,4.1-0.2l0.9,1.8c0.5,1.1,1.8,1.6,2.9,1.1l2.3-1.1c1.1-0.5,1.6-1.8,1.1-2.9L59.9,48c1.1-0.9,2-2,2.7-3l1.8,0.7
		c0.5,0.2,1.1,0.2,1.8,0c0.5-0.2,0.9-0.7,1.1-1.3l0.9-2.3C68.8,41.2,68.3,40,67,39.6z M54.9,45.3c-1.3,0.5-2.3,0.9-3.8,0.9
		c-3.4,0-6.6-2-8-5.2c-2-4.5-0.2-9.6,4.3-11.6c1.3-0.5,2.3-0.9,3.8-0.9c3.4,0,6.6,2,8,5.2C61.1,38.2,59.3,43.4,54.9,45.3z"/>
</g>
<g id="List_icon">
	<path class="RoundArrow" fill="#4B4545" d="M99.8,44l-10.7-7.9c-0.7-0.5-1.1-1.2-1.3-2C82.7,13,62.6-2.3,39.5,0.3c-21.2,2.3-38,20-39.3,41.3
		C-1.5,67.4,19,88.9,44.5,88.9c21,0,38.6-14.6,43.3-34.2c0.2-0.8,0.7-1.6,1.3-2.1l10.7-7.8C100,44.6,100,44.2,99.8,44z M44.5,87.1
		C21,87.1,1.8,68,1.8,44.5C1.8,20.9,21,1.8,44.5,1.8c23.5,0,42.7,19.1,42.7,42.7C87.2,68,68,87.1,44.5,87.1z"/>
	<path fill="#4B4545" d="M46.3,22.1h-1.1c-0.5,0-1.1-0.5-1.1-1.1l0,0c0-1.4-1.1-2.5-2.5-2.5l0,0c-1.4,0-2.5,1.1-2.5,2.5l0,0
		c0,0.5-0.5,1.1-1.1,1.1H37c-1.3,0-2.1,0.9-2.1,2.1l0,0c0,1.3,0.9,2.1,2.1,2.1h9.3c1.3,0,2.1-0.9,2.1-2.1l0,0
		C48.4,23,47.5,22.1,46.3,22.1z M41.6,22.1c-0.5,0-1.1-0.5-1.1-1.1c0-0.5,0.5-1.1,1.1-1.1c0.5,0,1.1,0.5,1.1,1.1
		C42.7,21.6,42.2,22.1,41.6,22.1z M46.5,63.5h-18c-1.6,0-2.9-1.3-2.9-2.9V26.4c0-1.6,1.3-2.9,2.1-2.9h5.7c0,0.2,0,0.5,0,0.7
		c0,2,1.6,3.6,3.6,3.6h9.3c2,0,3.6-1.6,3.6-3.6c0-0.2,0-0.5,0-0.7h4.3c2.3,0,3.6,1.3,3.6,2.9v21.4c-0.2,0-0.5,0-0.7,0
		c-1.1,0-2,0.2-2.9,0.4V31.4h-25V60h16.4C45.8,61.2,45.9,62.5,46.5,63.5z M57,50c-5.2,0-9.3,4.1-9.3,9.3s4.1,9.3,9.3,9.3
		s9.3-4.1,9.3-9.3S62.2,50,57,50z M63.1,57.3l-5.7,6.4c-0.4,0.4-0.7,0.5-1.1,0.5c-0.4,0-0.7-0.2-0.9-0.4L51.8,61
		c-0.5-0.5-0.7-1.4-0.2-2s1.4-0.7,2-0.2l2.5,2l4.8-5.4c0.5-0.5,1.4-0.7,2-0.2C63.6,55.9,63.6,56.8,63.1,57.3z M50.6,43.5H39.1
		c-0.4,0-0.7-0.4-0.7-0.7v-0.7c0-0.4,0.4-0.7,0.7-0.7h11.4c0.4,0,0.7,0.4,0.7,0.7v0.7C51.3,43.2,50.9,43.5,50.6,43.5z M50.6,37.1
		H39.1c-0.4,0-0.7-0.4-0.7-0.7v-0.7c0-0.4,0.4-0.7,0.7-0.7h11.4c0.4,0,0.7,0.4,0.7,0.7v0.7C51.3,36.8,50.9,37.1,50.6,37.1z M47,49.3
		h-7.9c-0.4,0-0.7-0.4-0.7-0.7v-0.7c0-0.4,0.4-0.7,0.7-0.7H47c0.4,0,0.7,0.4,0.7,0.7v0.7C47.7,48.9,47.4,49.3,47,49.3z M45.6,55.7
		h-6.4c-0.4,0-0.7-0.4-0.7-0.7v-0.7c0-0.4,0.4-0.7,0.7-0.7h6.4c0.4,0,0.7,0.4,0.7,0.7V55C46.3,55.3,45.9,55.7,45.6,55.7z M37,34.4
		l-2.7,3c-0.2,0.2-0.4,0.2-0.5,0.2c-0.2,0-0.4,0-0.4-0.2l-1.6-1.3c-0.4-0.2-0.4-0.7-0.2-0.9c0.2-0.4,0.7-0.4,0.9-0.2l1.1,0.9
		l2.1-2.5c0.2-0.4,0.7-0.4,0.9,0C37.2,33.7,37.4,34.3,37,34.4z M37,40.9l-2.7,3c-0.2,0.2-0.4,0.2-0.5,0.2c-0.2,0-0.4,0-0.4-0.2
		l-1.6-1.3c-0.4-0.2-0.4-0.7-0.2-0.9c0.2-0.4,0.7-0.4,0.9-0.2l1.1,0.9l2.1-2.5c0.2-0.4,0.7-0.4,0.9,0C37.2,40.1,37.4,40.5,37,40.9z
		 M37,46.9l-2.7,3c-0.2,0.2-0.4,0.2-0.5,0.2c-0.2,0-0.4,0-0.4-0.2l-1.6-1.3c-0.4-0.2-0.4-0.7-0.2-0.9c0.2-0.4,0.7-0.4,0.9-0.2
		l1.1,0.9l2.1-2.5c0.2-0.4,0.7-0.4,0.9,0C37.2,46.2,37.4,46.6,37,46.9z M37,53l-2.7,3c-0.2,0.2-0.4,0.2-0.5,0.2
		c-0.2,0-0.4,0-0.4-0.2l-1.6-1.3c-0.4-0.2-0.4-0.7-0.2-0.9c0.2-0.4,0.7-0.4,0.9-0.2l1.1,0.9l2.1-2.5c0.2-0.4,0.7-0.4,0.9,0
		C37.2,52.3,37.4,52.8,37,53z"/>
</g>
<g id="Market_icon">
	<path class="RoundArrow" fill="#4B4545" d="M99.8,44l-10.7-7.9c-0.7-0.5-1.1-1.2-1.3-2C82.7,13,62.6-2.3,39.5,0.3c-21.2,2.3-38,20-39.3,41.3
		C-1.5,67.4,19,88.9,44.5,88.9c21,0,38.6-14.6,43.3-34.2c0.2-0.8,0.7-1.6,1.3-2.1l10.7-7.8C100,44.6,100,44.2,99.8,44z M44.5,87.1
		C21,87.1,1.8,68,1.8,44.5C1.8,20.9,21,1.8,44.5,1.8c23.5,0,42.7,19.1,42.7,42.7C87.2,68,68,87.1,44.5,87.1z"/>
	<path fill="#4B4545" d="M23.4,26.9c-0.9-3,0.5-6.3,3.4-7.3s5.7,0.7,6.6,3.6l10.4,34.3c-0.9-0.4-2-0.4-3-0.2l-10-33
		c-0.4-1.4-1.8-2.1-3-1.6c-1.3,0.5-2,2-1.6,3.4c0.2,0.9-0.2,1.6-0.9,2C24.5,28.2,23.6,27.8,23.4,26.9z M64,53.9L47,60
		c0.5,0.7,1.1,1.6,1.4,2.7c0,0,0,0,0,0.2l16.4-5.9c0.7-0.2,1.1-1.1,0.9-2C65.6,54.1,64.7,53.5,64,53.9z M47.2,63
		c0.9,3.2-0.5,6.6-3.6,7.7c-2.9,1.1-6.1-0.7-7-3.9c-0.9-3.2,0.5-6.6,3.6-7.7C43.1,58.2,46.3,60,47.2,63z M44.5,64.1
		c-0.5-1.6-2-2.5-3.6-2c-1.4,0.5-2.3,2.3-1.8,3.7c0.5,1.6,2,2.5,3.6,2C44.1,67.3,45,65.7,44.5,64.1z M59.7,30.7l5.7,19.1
		c0.2,0.4,0,0.9-0.5,0.9l-18,6.6c-0.4,0.2-0.7,0-0.9-0.5l-5.7-19.1c-0.2-0.4,0-0.9,0.5-0.9l18-6.6C59.3,30,59.7,30.3,59.7,30.7z
		 M57.4,41.8L51.3,38l-2.9,7l2,0.9l1.3-3l2.3,7.5l2.1-0.7l-2.3-7.5l2.7,1.6L57.4,41.8z M52,30.3l-3.8-12.1c0-0.2-0.4-0.4-0.5-0.4
		l-3.2,1.1l0,0l0,0l-1.6,0.5l1.4,4.5l-1.8,0.7l-1.4-4.5l-1.6,0.5l0,0l0,0l-3.2,1.1c-0.2,0-0.4,0.4-0.4,0.5l3.8,12.1
		c0,0.2,0.4,0.4,0.5,0.4l11.6-4.1C52,30.9,52,30.7,52,30.3z"/>
</g>
<g id="Pad_icon">
	<path class="RoundArrow" fill="#4B4545" d="M99.8,44l-10.7-7.9c-0.7-0.5-1.1-1.2-1.3-2C82.7,13,62.6-2.3,39.5,0.3c-21.2,2.3-38,20-39.3,41.3
		C-1.5,67.4,19,88.9,44.5,88.9c21,0,38.6-14.6,43.3-34.2c0.2-0.8,0.7-1.6,1.3-2.1l10.7-7.8C100,44.6,100,44.2,99.8,44z M44.5,87.1
		C21,87.1,1.8,68,1.8,44.5C1.8,20.9,21,1.8,44.5,1.8c23.5,0,42.7,19.1,42.7,42.7C87.2,68,68,87.1,44.5,87.1z"/>
	<path fill="#4B4545" d="M43.4,30.1C41.3,30,39,29.3,36.1,28h-0.2h-0.2c-8.4,0-14.3,14.6-14.3,24.6c0,2.3,0.4,4.3,1.1,5.7
		c0.9,1.6,2.1,2.5,3.8,2.5c3.8,0,5.9-2.1,8.2-4.3c2.5-2.3,5.2-4.8,10.2-4.8c4.3,0,7.5,2.5,10.5,5c2.7,2.1,5,3.9,7.9,3.9
		c1.4,0,2.7-0.7,3.4-2.1c0.5-1.3,0.9-2.9,0.9-4.8C67.4,45,60.9,28,53.3,28h-0.2h-0.2c-3,1.4-5.4,2.1-7.7,2.1 M36.1,42.6
		c-2.3,0-4.3-2-4.3-4.3s2-4.3,4.3-4.3c2.3,0,4.3,2,4.3,4.3C40.4,40.9,38.4,42.6,36.1,42.6z M53.1,32.3c0.9-0.5,2.1-0.4,2.9,0.5
		c0.4,0.5,0.4,1.1,0.4,1.4c-0.2,0.5-0.4,0.9-0.9,1.3c-0.4,0.2-0.7,0.4-1.1,0.4c-0.7,0-1.3-0.4-1.8-0.9C51.8,34.1,52,32.8,53.1,32.3z
		 M48.8,38.5c-0.5-0.9-0.4-2.1,0.5-2.9c0.9-0.5,2.1-0.4,2.9,0.5c0.4,0.5,0.4,1.1,0.4,1.6c-0.2,0.5-0.4,0.9-0.9,1.3
		c-0.4,0.2-0.7,0.4-1.1,0.4C49.7,39.6,49.3,39.3,48.8,38.5z M54.1,43.4c-0.4,0.2-0.7,0.4-1.1,0.4c-0.7,0-1.3-0.4-1.8-0.9
		c-0.4-0.5-0.4-1.1-0.4-1.6c0.2-0.5,0.4-0.9,0.9-1.3c0.9-0.5,2.1-0.4,2.9,0.5C55.6,41.6,55,42.8,54.1,43.4z M58.4,38.5
		c-0.2,0.5-0.4,0.9-0.9,1.3c-0.4,0.2-0.7,0.4-1.1,0.4c-0.7,0-1.3-0.4-1.8-0.9c-0.4-0.5-0.4-1.1-0.4-1.6c0.2-0.5,0.4-0.9,0.9-1.3
		c0.9-0.5,2.1-0.4,2.9,0.5C58.6,37.5,58.6,38,58.4,38.5z"/>
</g>
<g id="Paid_icon">
	<path class="RoundArrow" fill="#4B4545" d="M99.8,44l-10.7-7.9c-0.7-0.5-1.1-1.2-1.3-2C82.7,13,62.6-2.3,39.5,0.3c-21.2,2.3-38,20-39.3,41.3
		C-1.5,67.4,19,88.9,44.5,88.9c21,0,38.6-14.6,43.3-34.2c0.2-0.8,0.7-1.6,1.3-2.1l10.7-7.8C100,44.6,100,44.2,99.8,44z M44.5,87.1
		C21,87.1,1.8,68,1.8,44.5C1.8,20.9,21,1.8,44.5,1.8c23.5,0,42.7,19.1,42.7,42.7C87.2,68,68,87.1,44.5,87.1z"/>
	<path fill="#4B4545" d="M28.4,29.8h23.9c1.3,0,2.3-1.1,2.3-2.3v-1.3c0-1.3-1.1-2.3-2.3-2.3H28.4c-1.3,0-2.3,1.1-2.3,2.3v1.3
		C26.1,28.9,27.2,29.8,28.4,29.8z"/>
	<path fill="#4B4545" d="M24.9,38h23.9c1.3,0,2.3-1.1,2.3-2.3v-1.3c0-1.3-1.1-2.3-2.3-2.3H24.9c-1.3,0-2.3,1.1-2.3,2.3v1.3
		C22.5,37.1,23.6,38,24.9,38z"/>
	<path fill="#4B4545" d="M24.9,46.2h16.3c0.7-1.4,1.6-2.9,2.9-3.9c0.7-0.7,1.4-1.3,2.3-1.8H24.9c-1.3,0-2.3,1.1-2.3,2.3v1.3
		C22.5,45.1,23.6,46.2,24.9,46.2z"/>
	<path fill="#4B4545" d="M28.4,48.4c-1.3,0-2.3,1.1-2.3,2.3v1.3c0,1.3,1.1,2.3,2.3,2.3h11.4c-0.2-0.7-0.2-1.4-0.2-2.1
		c0-1.3,0.2-2.5,0.5-3.8L28.4,48.4L28.4,48.4z"/>
	<path fill="#4B4545" d="M24.9,62.5h19.3c-0.2-0.2-0.2-0.2-0.4-0.4c-1.3-1.3-2.3-2.9-3-4.5c-0.2-0.4-0.4-0.7-0.4-1.1H24.9
		c-1.3,0-2.3,1.1-2.3,2.3v1.3C22.5,61.4,23.6,62.5,24.9,62.5z"/>
	<polygon fill="#4B4545" points="51.3,48.4 51.3,51 52.7,51 52.7,48.4 52.7,48 51.3,48 	"/>
	<rect x="55" y="53.4" fill="#4B4545" width="1.3" height="3"/>
	<path fill="#4B4545" d="M49.1,40.3c-2.9,1.1-5.2,3.2-6.6,5.9c-0.4,0.7-0.7,1.4-0.9,2.1c-0.4,1.3-0.5,2.5-0.5,3.8
		c0,0.7,0,1.4,0.2,2.1c0.2,0.9,0.4,1.6,0.7,2.3c0.9,2.3,2.5,4.5,4.5,5.9c2.1,1.6,4.6,2.5,7.5,2.5c7,0,12.7-5.7,12.7-12.7
		S60.9,39.6,54,39.6C52.2,39.4,50.6,39.8,49.1,40.3z M55,44.1v1.6h2.1c0.7,0,1.1,0.5,1.1,1.1S57.7,48,57,48h-2.1v3h2.5
		c0.7,0,1.1,0.5,1.1,1.1v5.4c0,0.7-0.5,1.1-1.1,1.1h-2.5v1.6c0,0.7-0.5,1.1-1.1,1.1s-1.1-0.5-1.1-1.1v-1.4h-1.6h-0.7
		c-0.7,0-1.1-0.5-1.1-1.1c0-0.4,0.2-0.5,0.4-0.7c0.2-0.2,0.5-0.4,0.9-0.4h2.3v-2.1v-1.1h-2.5c-0.7,0-1.1-0.5-1.1-1.1v-3.8v-1.6
		c0-0.2,0-0.5,0.2-0.7c0.2-0.4,0.5-0.5,0.9-0.5l0,0h2.5v-1.6c0-0.7,0.5-1.1,1.1-1.1S55,43.5,55,44.1z"/>
</g>
<g id="Soc_icon">
	<path class="RoundArrow" fill="#4B4545" d="M99.8,44l-10.7-7.9c-0.7-0.5-1.1-1.2-1.3-2C82.7,13,62.6-2.3,39.5,0.3c-21.2,2.3-38,20-39.3,41.3
		C-1.5,67.4,19,88.9,44.5,88.9c21,0,38.6-14.6,43.3-34.2c0.2-0.8,0.7-1.6,1.3-2.1l10.7-7.8C100,44.6,100,44.2,99.8,44z M44.5,87.1
		C21,87.1,1.8,68,1.8,44.5C1.8,20.9,21,1.8,44.5,1.8c23.5,0,42.7,19.1,42.7,42.7C87.2,68,68,87.1,44.5,87.1z"/>
	<path fill="#4B4545" d="M33.4,42.1L33.4,42.1h0.4c1.4,1.3,2.9,2,4.5,2c1.4,0,3-0.7,4.5-1.8l0.2-0.2l0.4,0.2
		c0.2,0.2,0.7,0.5,0.9,0.7l0.4,0.2l0,0h0.2c0.2,0.2,0.5,0.4,0.9,0.5c0.4,0.2,0.5,0.2,0.9,0.4c0,0,1.4,0.5,3,1.3h0.4
		c1.4,0.5,2.1,1.4,2.1,1.4c2.3,3.4,2.7,11.3,2.7,12.1c0,1.3-0.4,1.4-0.4,1.6c-5.4,2.3-13.4,2.9-15,3l0,0l0,0h-0.2l0,0l0,0
		c-0.4,0-0.7,0-1.1,0h-0.2c-0.9,0-9.6-0.5-15.2-3c-0.2,0-0.4-0.4-0.5-1.4c0,0,0.4-8.4,2.7-12.1c0.2-0.2,0.7-0.9,2.1-1.4
		c1.3-0.4,4.3-1.3,5.7-2.5l0.2-0.2C32.9,42.6,33.1,42.5,33.4,42.1z M50,44.3h-0.2c-0.4-0.2-0.7-0.4-1.1-0.5c0.5-0.2,1.1-0.5,1.3-0.7
		c0,0,0.2,0,0.2-0.2c0.2-0.2,0.4-0.4,0.5-0.5l0.2-0.2l0.2,0.2c1.1,0.9,2.1,1.4,3.2,1.4c1.1,0,2.1-0.5,3.2-1.4l0,0l0.2,0.2
		c0.2,0.2,0.5,0.4,0.7,0.5h0.4l0,0H59c0.2,0.2,0.4,0.2,0.7,0.4c0.2,0.2,0.5,0.2,0.7,0.2c0,0,1.1,0.4,2.3,0.9h0.2
		c1.1,0.4,1.6,0.9,1.6,1.1c1.8,2.5,2,8.2,2,8.9c0,0.9-0.2,1.1-0.4,1.1c-3.2,1.4-8,2-10,2.1c-0.2-2.5-0.9-8.8-2.9-12v-0.2
		C52.4,45.5,51.5,44.8,50,44.3z M48.8,34.8L48.8,34.8c0.2-0.2,0.4-0.4,0.2-0.5c-0.4-2.3-0.2-3.4,0-3.8c0.7-2.1,2.9-3,3.2-3.2
		c0,0,0.2,0,0.4-0.2l0,0h0.4l0,0h0.2h0.2h0.2c0,0,0.9,0.2,2.1,0.5l0.9,0.4c1.6,0.5,2.3,1.3,2.5,1.4c1.3,1.4,0.9,3.8,0.5,5
		c0,0.2,0,0.4,0,0.4V35c0,0.2,0.2,0.5-0.2,1.6c0,0.4-0.2,0.5-0.4,0.7l-0.2,0.2C58.4,40,56.1,43,53.6,43c-2,0-4.5-2.5-4.8-5.5
		c0-0.2,0-0.2-0.2-0.4c-0.2-0.2-0.4-0.4-0.4-0.9C48.8,35.5,48.8,35,48.8,34.8z M30.9,32.1L30.9,32.1c0.2-0.2,0.4-0.5,0.4-0.7
		c-0.5-3.2-0.2-4.6-0.2-5c0.9-2.9,3.9-4.3,4.6-4.6c0.2,0,0.4-0.2,0.5-0.2l0,0h0.5l0,0H37c0.2,0,0.2,0,0.4,0h0.2c0,0,1.3,0.2,2.9,0.7
		l1.3,0.4c2.1,0.7,3,1.8,3.2,2c1.8,2,1.3,5,0.9,6.6c0,0.2,0,0.4,0,0.5l0.2,0.2c0.2,0.2,0.2,0.9-0.2,2.1c0,0.4-0.2,0.7-0.5,1.1
		c0,0.2-0.2,0.2-0.2,0.4c-0.5,3.4-3.8,7.3-7,7.3c-2.7,0-6.1-3.4-6.6-7.3c0-0.2,0-0.2-0.2-0.4c-0.2-0.2-0.4-0.5-0.5-1.1
		C30.7,33.2,30.7,32.5,30.9,32.1z"/>
</g>

<g id="Cms_icon">
	<path class="RoundArrow" fill="#4B4545" d="M99.8,44l-10.7-7.9c-0.7-0.5-1.1-1.2-1.3-2C82.7,13,62.6-2.3,39.5,0.3c-21.2,2.3-38,20-39.3,41.3
		C-1.5,67.4,19,88.9,44.5,88.9c21,0,38.6-14.6,43.3-34.2c0.2-0.8,0.7-1.6,1.3-2.1l10.7-7.8C100,44.6,100,44.2,99.8,44z M44.5,87.1
		C21,87.1,1.8,68,1.8,44.5C1.8,20.9,21,1.8,44.5,1.8c23.5,0,42.7,19.1,42.7,42.7C87.2,68,68,87.1,44.5,87.1z"/>
	<path fill="#4B4545" d="M44.5,23.9C33.2,23.9,24,33.2,24,44.4S33.2,65,44.5,65S65,55.7,65,44.4S55.8,23.9,44.5,23.9z M54.9,46.6
		h-8.2v8.2h-4.1v-8.2h-8.2v-4.1h8.2v-8.2h4.1v8.2h8.2V46.6z"/>
</g>
<g id="Mail_icon">
	<path class="RoundArrow" fill="#4B4545" d="M99.8,44l-10.7-7.9c-0.7-0.5-1.1-1.2-1.3-2C82.7,13,62.6-2.3,39.5,0.3c-21.2,2.3-38,20-39.3,41.3
		C-1.5,67.4,19,88.9,44.5,88.9c21,0,38.6-14.6,43.3-34.2c0.2-0.8,0.7-1.6,1.3-2.1l10.7-7.8C100,44.6,100,44.2,99.8,44z M44.5,87.1
		C21,87.1,1.8,68,1.8,44.5C1.8,20.9,21,1.8,44.5,1.8c23.5,0,42.7,19.1,42.7,42.7C87.2,68,68,87.1,44.5,87.1z"/>
	<path fill="#4B4545" d="M65.9,54.6c0,0.9-0.4,1.8-0.7,2.5L51.6,42.6L65,31.6c0.5,0.9,0.9,1.6,0.9,2.9V54.6z M44.5,45.3l18.7-15.5
		c-0.7-0.4-1.6-0.7-2.5-0.7H28.4c-0.9,0-1.8,0.2-2.5,0.7L44.5,45.3z M49.7,44.4L45.4,48c-0.2,0.2-0.5,0.4-0.9,0.4s-0.7-0.2-0.9-0.4
		l-4.3-3.6L25.6,58.9c0.9,0.5,1.8,0.9,2.7,0.9h32.1c1.1,0,2.1-0.4,2.7-0.9L49.7,44.4z M24,31.6c-0.5,0.9-0.9,1.6-0.9,2.9v20.4
		c0,0.9,0.4,1.8,0.7,2.5L37.4,43L24,31.6z"/>
</g>
<g id="News_icon">
	<path class="RoundArrow" fill="#4B4545" d="M99.8,44l-10.7-7.9c-0.7-0.5-1.1-1.2-1.3-2C82.7,13,62.6-2.3,39.5,0.3c-21.2,2.3-38,20-39.3,41.3
		C-1.5,67.4,19,88.9,44.5,88.9c21,0,38.6-14.6,43.3-34.2c0.2-0.8,0.7-1.6,1.3-2.1l10.7-7.8C100,44.6,100,44.2,99.8,44z M44.5,87.1
		C21,87.1,1.8,68,1.8,44.5C1.8,20.9,21,1.8,44.5,1.8c23.5,0,42.7,19.1,42.7,42.7C87.2,68,68,87.1,44.5,87.1z"/>
	<path fill="#4B4545" d="M35.4,54.1c1.4,3.2,3.6,6.1,6.6,8.9c-5.7-0.9-10.7-4.3-13.4-9.1L35.4,54.1z M41.8,25.9
		c-5.4,0.9-10.2,4.1-13,8.6h6.6C36.8,31.6,39,28.7,41.8,25.9z M44,34.8v-9.1l0,0c-3.2,2.9-5.7,5.9-7.3,8.9L44,34.8z M28.8,37.6h-1.4
		h-1.3l-0.2,9.3l-5.2-9.5h-1.4h-1.4l-0.2,13.2H19h1.3l0.2-9.6l5.4,9.6h1.4h1.3L28.8,37.6z M41.1,40v-1.3v-1.3l-9.8-0.2l-0.2,13.2
		l10,0.2v-1.3v-1.3h-7.3v-3.4h6.4v-1.3v-0.9h-6.4v-2.9L41.1,40z M54.5,47.5L54.5,47.5l-1.8-9.6h-1.4h-1.4l-2,9.6l-2.1-9.8h-1.4h-1.6
		l3.6,13.2h1.4h1.4l2.1-10.5l2,10.5h1.4h1.4l3.8-13.2h-1.4H57L54.5,47.5z M45.6,25.7L45.6,25.7l-0.2,9.1h7
		C51.1,31.8,48.6,28.7,45.6,25.7z M60.8,35c-2.9-4.6-7.5-8-12.9-8.9c2.9,2.9,4.8,5.9,6.3,8.9H60.8z M47,63.2
		c5.7-0.9,10.7-4.1,13.8-8.6H54C52.2,57.3,49.9,60.3,47,63.2z M52,54.3h-6.8v8.6C48.3,60.1,50.6,57.3,52,54.3z M70.6,44.8
		c-0.5-0.5-2-1.1-3.7-1.6c-1.4-0.4-2.1-0.5-2.7-0.9c-0.4-0.2-0.5-0.5-0.5-1.1c0-0.5,0.2-1.1,0.5-1.3c0.4-0.2,1.1-0.4,1.6-0.4
		c0.9,0,1.4,0.2,2,0.5c0.4,0.4,0.9,0.9,0.9,1.6h2.7c0-1.4-0.5-2.5-1.6-3.2c-1.1-0.9-2.1-1.3-3.6-1.3c-1.6,0-2.9,0.4-3.7,1.1
		c-1.1,0.9-1.4,1.8-1.4,3s0.4,2,1.1,2.7c0.9,0.5,2.1,1.1,4.3,1.6c1.3,0.2,1.8,0.5,2.1,0.9c0.4,0.2,0.5,0.5,0.5,1.3
		c0,0.5-0.2,0.9-0.9,1.3c-0.4,0.2-1.3,0.4-2,0.4c-0.9,0-1.6-0.2-2-0.5c-0.4-0.4-0.9-1.1-0.9-1.6h-2.7c0,1.4,0.5,2.7,1.4,3.4
		c1.1,0.9,2.1,1.3,4.1,1.3c1.6,0,3-0.4,4.1-1.1c1.1-0.9,1.4-1.6,1.4-3C71.3,46.4,71.1,45.5,70.6,44.8z M43.8,62.8v-8.6H37
		C38.6,57.1,40.8,60.1,43.8,62.8z"/>
</g>
<g id="Personal_icon">
	<path class="RoundArrow" fill="#4B4545" d="M99.8,44l-10.7-7.9c-0.7-0.5-1.1-1.2-1.3-2C82.7,13,62.6-2.3,39.5,0.3c-21.2,2.3-38,20-39.3,41.3
		C-1.5,67.4,19,88.9,44.5,88.9c21,0,38.6-14.6,43.3-34.2c0.2-0.8,0.7-1.6,1.3-2.1l10.7-7.8C100,44.6,100,44.2,99.8,44z M44.5,87.1
		C21,87.1,1.8,68,1.8,44.5C1.8,20.9,21,1.8,44.5,1.8c23.5,0,42.7,19.1,42.7,42.7C87.2,68,68,87.1,44.5,87.1z"/>
	<path fill="#4B4545" d="M56.2,41.2c0-1.1-0.7-1.8-1.6-1.8h-5.5c-0.9,0-1.6,0.9-1.6,1.8v0.5H24.1c-0.2,0.7-0.2,1.6-0.2,2.3
		c0,0.9,0,1.6,0.2,2.3h23.4v0.5c0,1.1,0.7,1.8,1.6,1.8h5.5c0.9,0,1.6-0.9,1.6-1.8v-0.5h10c0.2-0.7,0.2-1.6,0.2-2.3
		c0-0.9,0-1.6-0.2-2.3h-10C56.2,41.8,56.2,41.2,56.2,41.2z M54.1,46.8h-4.5v-5h4.5V46.8z"/>
	<path fill="#4B4545" d="M40.3,29.6v-0.5c0-1.1-0.7-1.8-1.6-1.8h-5.5c-0.9,0-1.6,0.9-1.6,1.8v0.5h-4.1c-1.4,1.4-2.7,3.2-3.6,5h7.7
		v0.5c0,1.1,0.7,1.8,1.6,1.8h5.5c0.9,0,1.6-0.9,1.6-1.8v-0.5h20.9c-0.9-1.8-2.1-3.6-3.6-5H40.3z M38,34.6h-4.5v-5H38V34.6z"/>
	<path fill="#4B4545" d="M40.3,54.3v-0.5c0-1.1-0.7-1.8-1.6-1.8h-5.5c-0.9,0-1.6,0.9-1.6,1.8v0.5h-7.7c0.9,1.8,2.1,3.6,3.6,5h4.1
		v0.5c0,1.1,0.7,1.8,1.6,1.8h5.5c0.9,0,1.6-0.9,1.6-1.8v-0.5h17.5c1.4-1.4,2.7-3.2,3.6-5H40.3z M38,59.3h-4.5v-5H38V59.3z"/>
</g>
</svg>
