<?xml version="1.0" encoding="utf-8"?>
<!-- Generator: Adobe Illustrator 18.0.0, SVG Export Plug-In . SVG Version: 6.00 Build 0)  -->
<!DOCTYPE svg PUBLIC "-//W3C//DTD SVG 1.1//EN" "http://www.w3.org/Graphics/SVG/1.1/DTD/svg11.dtd">
<svg version="1.1" id="Layer_1" xmlns="http://www.w3.org/2000/svg" xmlns:xlink="http://www.w3.org/1999/xlink" x="0px" y="0px"
	 viewBox="50 0 50 50" style="enable-background:new 50 0 50 50;" xml:space="preserve">
<ellipse class="svg_light_broun_stroke" cx="75" cy="25" rx="24.4" ry="24.4"/>
	<path class="svg_light_broun" d="M81.2,23.2c0-0.6-0.4-1-0.9-1h-3.1c-0.5,0-0.9,0.5-0.9,1v0.3H63.2c-0.1,0.4-0.1,0.9-0.1,1.3
		c0,0.5,0,0.9,0.1,1.3h13.1v0.3c0,0.6,0.4,1,0.9,1h3.1c0.5,0,0.9-0.5,0.9-1v-0.3h5.6c0.1-0.4,0.1-0.9,0.1-1.3c0-0.5,0-0.9-0.1-1.3
		h-5.6V23.2z M80,26.3h-2.5v-2.8H80V26.3z"/>
	<path class="svg_light_broun" d="M73.8,16.7v-0.3c0-0.6-0.4-1-0.9-1h-3.1c-0.5,0-0.9,0.5-0.9,1v0.3h-2.3c-0.8,0.8-1.5,1.8-2,2.8h4.3v0.3
		c0,0.6,0.4,1,0.9,1h3.1c0.5,0,0.9-0.5,0.9-1v-0.3h11.7c-0.5-1-1.2-2-2-2.8H73.8z M72.5,19.5H70v-2.8h2.5V19.5z"/>
	<path class="svg_light_broun" d="M73.8,30.5v-0.3c0-0.6-0.4-1-0.9-1h-3.1c-0.5,0-0.9,0.5-0.9,1v0.3h-4.3c0.5,1,1.2,2,2,2.8h2.3v0.3
		c0,0.6,0.4,1,0.9,1h3.1c0.5,0,0.9-0.5,0.9-1v-0.3h9.8c0.8-0.8,1.5-1.8,2-2.8H73.8z M72.5,33.3H70v-2.8h2.5V33.3z"/>
	</svg>