<?xml version="1.0" encoding="utf-8"?>
<!-- Generator: Adobe Illustrator 18.0.0, SVG Export Plug-In . SVG Version: 6.00 Build 0)  -->
<!DOCTYPE svg PUBLIC "-//W3C//DTD SVG 1.1//EN" "http://www.w3.org/Graphics/SVG/1.1/DTD/svg11.dtd">
<svg version="1.1" id="Layer_1" xmlns="http://www.w3.org/2000/svg" xmlns:xlink="http://www.w3.org/1999/xlink" x="0px" y="0px"
	 viewBox="50 0 50 50" style="enable-background:new 50 0 50 50;" xml:space="preserve">
<?xml-stylesheet type="text/css" href="../css/style.css"?>
<style>
.svg_light_broun_stroke {
	fill:none;
	stroke:#4C4646;
	stroke-miterlimit:10;
}
.svg_light_broun{fill:#4C4646;}
</style>
<defs>

	<symbol id="Cms_icon" viewBox="50 0 50 50" style="fill:#4C4646;">
	<ellipse class="svg_light_broun_stroke" style="fill:none;stroke:#4C4646;stroke-miterlimit:10" cx="75" cy="25" rx="24.4" ry="24.4"/>
	<path class="svg_light_broun" d="M75,13.5c-6.3,0-11.5,5.2-11.5,11.5S68.7,36.5,75,36.5S86.5,31.3,86.5,25S81.3,13.5,75,13.5z M80.8,26.2h-4.6
		v4.6h-2.3v-4.6h-4.6v-2.3h4.6v-4.6h2.3v4.6h4.6V26.2z"/>
</symbol>

<symbol id="Card_icon" viewBox="50 0 50 50"  style="fill:#4C4646;">
	<ellipse class="svg_light_broun_stroke" style="fill:none;stroke:#4C4646;stroke-miterlimit:10" cx="75" cy="25" rx="24.4" ry="24.4"/>
<path id="test_path" class="svg_light_broun" d="M87.4,13.5c-0.1-0.4-0.5-0.7-0.9-0.5l-3,0.8c-0.3,0.1-0.5,0.3-0.6,0.6l-0.4,2.4L63.9,19l0,0c0,0,0,0-0.1,0
	c0,0-0.1,0-0.1,0.1c0,0-0.1,0-0.1,0.1c-0.1,0-0.1,0.1-0.1,0.1s0,0-0.1,0.1l0,0c-0.1,0-0.1,0-0.1,0.1c0,0,0,0,0,0.1s0,0.2,0,0.3
	l2.2,9.1l0.8,3c0,0,0,0,0,0.1v0.1l0.1,0.1c0,0,0,0.1,0.1,0.1l0.1,0.1h0.1c0.1,0,0.2,0.1,0.3,0.1h15.9c0.4,0,0.8-0.3,0.8-0.8
	c0-0.4-0.3-0.8-0.8-0.8H67.6l-0.4-1.5h14.1c0.1,0,0.2,0,0.3,0c0,0,0.1,0,0.1-0.1c0,0,0.1,0,0.1-0.1c0,0,0-0.1,0.1-0.1l0.1-0.1V29
	v-0.1l0,0l0,0L84.3,15l2.5-0.6C87.2,14.3,87.5,13.9,87.4,13.5z M66.8,28l-1.9-7.7l2.4-0.2l1.1,7.9H66.8z M69.9,28l-1.2-8.1l2.4-0.3
	l0.4,8.4H69.9z M74.6,28H73l-0.4-8.6l2.4-0.3L74.6,28z M77.7,28h-1.6l0.4-9l2.3-0.3L77.7,28z M80.7,28h-1.5l1.2-9.5l1.6-0.2L80.7,28
	z M70,34.1c-0.8,0-1.5,0.7-1.5,1.5s0.7,1.5,1.5,1.5c0.8,0,1.5-0.7,1.5-1.5S70.9,34.1,70,34.1z M79.8,34.1c-0.8,0-1.5,0.7-1.5,1.5
	s0.7,1.5,1.5,1.5c0.8,0,1.5-0.7,1.5-1.5C81.4,34.7,80.7,34.1,79.8,34.1z"/>
	</symbol>

	<symbol id="Delivery_icon" viewBox="50 0 50 50"  style="fill:#4C4646;">
<ellipse   class="svg_light_broun_stroke" style="fill:none;stroke:#4C4646;stroke-miterlimit:10" cx="75" cy="25" rx="24.4" ry="24.4"/>
<path class="svg_light_broun" d="M86.1,17.2l-2.8-3.5c-0.3-0.3-0.7-0.5-1.1-0.5H67.8c-0.4,0-0.8,0.2-1.1,0.5l-2.8,3.5c-0.3,0.4-0.5,1-0.5,1.6
	v2.6c0.2-0.3,0.5-0.6,0.9-0.7c0-0.3,0.1-0.6,0.3-0.8c0.3-0.4,0.7-0.8,1.2-0.9c0.2,0,0.3-0.1,0.5-0.1c0.7,0,1.3,0.3,1.6,0.9
	c0.1,0,0.2,0,0.3,0c0.3,0,0.6,0.1,0.9,0.2l1.5-0.4c0.2-0.1,0.4-0.1,0.6-0.1c1.1,0,2,0.7,2.3,1.8l3,11.6c0.2,0.6,0.1,1.2-0.2,1.8
	c-0.3,0.5-0.8,0.9-1.4,1.1l-1.4,0.4h11.4c1,0,1.7-0.8,1.7-1.7V18.9C86.7,18.3,86.4,17.6,86.1,17.2z M64.9,17.2l0.9-1.2h6.3l0.6-1
	h-6.1l0.7-0.9c0.1-0.2,0.3-0.3,0.5-0.3h14.4c0.2,0,0.4,0.1,0.5,0.3l0.7,0.9h-6.2l0.3,1h6.7l0.9,1.2H64.9z M65.1,21.5l-0.4,0.1
	c-0.4,0.1-0.7,0.5-0.6,0.9l0,0c0.1,0.4,0.5,0.7,0.9,0.6l3.3-0.9c0.4-0.1,0.7-0.5,0.6-0.9l0,0c-0.1-0.4-0.5-0.7-0.9-0.6l-0.4,0.1
	c-0.2,0.1-0.4-0.1-0.5-0.3l0,0C67,20,66.5,19.7,66,19.9l0,0c-0.5,0.1-0.8,0.6-0.6,1.1l0,0C65.5,21.2,65.4,21.4,65.1,21.5z
	 M66.2,20.4c0.2-0.1,0.4,0.1,0.5,0.3c0.1,0.2-0.1,0.4-0.3,0.5c-0.2,0.1-0.4-0.1-0.5-0.3C65.9,20.6,66,20.4,66.2,20.4z M71.1,32.4
	c0,0.1,0,0.3-0.2,0.3L66.1,34c-0.1,0-0.3,0-0.3-0.2l-0.1-0.3c0-0.1,0-0.3,0.2-0.3l4.8-1.3c0.1,0,0.3,0,0.3,0.2L71.1,32.4z
	 M71.7,27.3l0.1,0.3c0,0.1,0,0.3-0.2,0.3L65,29.6c-0.1,0-0.3,0-0.3-0.2l-0.1-0.3c0-0.1,0-0.3,0.2-0.3l6.6-1.7
	C71.5,27.1,71.6,27.2,71.7,27.3z M71,25.6l-6.6,1.7c-0.1,0-0.3,0-0.3-0.2L64,26.8c0-0.1,0-0.3,0.2-0.3l6.6-1.7c0.1,0,0.3,0,0.3,0.2
	l0.1,0.3C71.2,25.4,71.1,25.6,71,25.6z M70.8,30.3l-5.3,1.4c-0.1,0-0.3,0-0.3-0.2l-0.1-0.3c0-0.1,0-0.3,0.2-0.3l5.3-1.4
	c0.1,0,0.3,0,0.3,0.2L71,30C71,30.1,71,30.2,70.8,30.3z M75.6,33.1l-3-11.6c-0.2-0.7-0.9-1.1-1.6-0.9l-1.6,0.3
	c0,0.1,0.1,0.2,0.1,0.2c0.2,0.7-0.2,1.4-0.9,1.6l-3.3,0.8c-0.7,0.2-1.4-0.2-1.6-0.8c0-0.1-0.1-0.2-0.1-0.4l-1.5,0.4
	c-0.7,0.2-1.1,0.9-0.9,1.6l3,11.6c0.2,0.7,0.9,1.1,1.6,0.9l8.9-2.3C75.4,34.5,75.8,33.8,75.6,33.1z M65.5,35.7l-2.6-10.1l8.9-2.3
	l2.6,10.1L65.5,35.7z"/>
	</symbol>

	<symbol id="Settings_icon" viewBox="50 0 50 50"  style="fill:#4C4646;">
	<ellipse class="svg_light_broun_stroke" style="fill:none;stroke:#4C4646;stroke-miterlimit:10" cx="75" cy="25" rx="24.4" ry="24.4"/>
	<path class="svg_light_broun" d="M72.6,33.2L72,32.9c0-0.4,0-0.9-0.1-1.4l0.6-0.3c0.4-0.2,0.5-0.6,0.4-1l-0.3-0.8c-0.2-0.4-0.6-0.5-1-0.4
		L71,29.5c-0.3-0.4-0.6-0.7-1-0.9l0.2-0.6c0.1-0.4-0.1-0.8-0.4-0.9L69,26.7c-0.4-0.1-0.8,0.1-0.9,0.4l-0.3,0.7c-0.4,0-0.9,0-1.4,0.1
		l-0.3-0.6c-0.2-0.4-0.6-0.5-1-0.4l-0.8,0.3c-0.4,0.2-0.5,0.6-0.4,1l0.3,0.6c-0.4,0.3-0.7,0.6-0.9,1l-0.6-0.2
		c-0.4-0.1-0.8,0.1-0.9,0.4l-0.2,0.8c-0.1,0.2-0.1,0.4,0,0.6c0.1,0.2,0.2,0.3,0.4,0.4l0.6,0.2c0,0.4,0,0.9,0.1,1.4l-0.6,0.3
		c-0.4,0.2-0.5,0.6-0.4,1l0.3,0.8c0.2,0.4,0.6,0.5,1,0.4l0.6-0.3c0.3,0.4,0.6,0.7,1,0.9l-0.2,0.6c-0.1,0.2-0.1,0.4,0,0.6
		c0.1,0.2,0.2,0.3,0.4,0.4l0.8,0.3c0.2,0.1,0.4,0.1,0.6,0c0.2-0.1,0.3-0.2,0.4-0.4l0.2-0.6c0.4,0,0.9,0,1.4-0.1l0.3,0.6
		c0.2,0.4,0.6,0.5,1,0.4l0.8-0.3c0.4-0.2,0.5-0.6,0.4-1l-0.3-0.6c0.4-0.3,0.7-0.6,0.9-1l0.6,0.2c0.2,0.1,0.4,0.1,0.6,0
		c0.2-0.1,0.3-0.2,0.4-0.4l0.3-0.8C73.2,33.7,73,33.3,72.6,33.2z M68.5,35.1c-0.4,0.2-0.8,0.3-1.2,0.3c-1.1,0-2.2-0.7-2.7-1.7
		c-0.7-1.5,0-3.2,1.4-3.9c0.4-0.2,0.8-0.3,1.2-0.3c1.1,0,2.2,0.7,2.7,1.7C70.6,32.7,70,34.4,68.5,35.1z"/>
	<path class="svg_light_broun" d="M79.9,35.3l-0.3-0.1c0-0.2,0-0.5,0-0.8l0.3-0.2c0.2-0.1,0.3-0.3,0.2-0.5l-0.2-0.4c-0.1-0.2-0.3-0.3-0.5-0.2
		L79,33.2c-0.2-0.2-0.3-0.4-0.6-0.5l0.1-0.3c0.1-0.2,0-0.4-0.2-0.5l-0.4-0.2c-0.2-0.1-0.5,0-0.5,0.2l-0.1,0.3c-0.2,0-0.5,0-0.8,0
		l-0.2-0.3c-0.1-0.1-0.3-0.2-0.5-0.1L75.4,32c-0.2,0.1-0.3,0.3-0.2,0.5l0.2,0.3c-0.2,0.2-0.4,0.3-0.5,0.6l-0.3-0.1
		c-0.2-0.1-0.5,0-0.5,0.2l-0.2,0.4c0,0.1,0,0.2,0,0.3s0.1,0.2,0.2,0.2l0.3,0.1c0,0.2,0,0.5,0,0.8l-0.3,0.2c-0.2,0.1-0.3,0.3-0.2,0.5
		l0.2,0.4c0.1,0.2,0.3,0.3,0.5,0.2l0.3-0.2c0.2,0.2,0.3,0.4,0.6,0.5l-0.1,0.3c0,0.1,0,0.2,0,0.3s0.1,0.2,0.2,0.2l0.4,0.2
		c0.1,0,0.2,0,0.3,0c0.1,0,0.2-0.1,0.2-0.2l0.1-0.3c0.2,0,0.5,0,0.8,0l0.2,0.3c0.1,0.2,0.3,0.3,0.5,0.2l0.4-0.2
		c0.2-0.1,0.3-0.3,0.2-0.5l-0.2-0.3c0.2-0.2,0.4-0.3,0.5-0.6l0.3,0.1c0.1,0,0.2,0,0.3,0s0.2-0.1,0.2-0.2l0.2-0.4
		C80.2,35.6,80.1,35.4,79.9,35.3z M77.6,36.4c-0.2,0.1-0.4,0.1-0.7,0.1c-0.6,0-1.2-0.4-1.5-0.9c-0.4-0.8,0-1.8,0.8-2.2
		c0.2-0.1,0.4-0.1,0.7-0.1c0.6,0,1.2,0.4,1.5,0.9C78.8,35,78.5,36,77.6,36.4z"/>
	<path class="svg_light_broun" d="M87.6,22.3l-1-0.4c0.1-0.8,0.1-1.5-0.1-2.3l1-0.5c0.6-0.3,0.9-1,0.6-1.6l-0.6-1.3c-0.3-0.6-1-0.9-1.6-0.6
		l-1,0.5c-0.5-0.6-1.1-1.1-1.7-1.5l0.4-1c0.2-0.6-0.1-1.4-0.7-1.6l-1.3-0.5c-0.6-0.2-1.4,0.1-1.6,0.7l-0.4,1
		c-0.8-0.1-1.5-0.1-2.3,0.1l-0.5-1c-0.3-0.6-1-0.9-1.6-0.6l-1.3,0.6c-0.6,0.3-0.9,1-0.6,1.6l0.5,1c-0.6,0.5-1.1,1.1-1.5,1.7l-1-0.4
		c-0.6-0.2-1.4,0.1-1.6,0.7l-0.5,1.3c-0.1,0.3-0.1,0.6,0,0.9c0.1,0.3,0.4,0.5,0.7,0.6l1,0.4c-0.1,0.8-0.1,1.5,0.1,2.3l-1,0.5
		c-0.6,0.3-0.9,1-0.6,1.6l0.6,1.3c0.3,0.6,1,0.9,1.6,0.6l1-0.5c0.5,0.6,1.1,1.1,1.7,1.5l-0.4,1c-0.1,0.3-0.1,0.6,0,0.9
		c0.1,0.3,0.4,0.5,0.7,0.6l1.3,0.5c0.3,0.1,0.6,0.1,0.9,0c0.3-0.1,0.5-0.4,0.6-0.7l0.4-1c0.8,0.1,1.5,0.1,2.3-0.1l0.5,1
		c0.3,0.6,1,0.9,1.6,0.6l1.3-0.6c0.6-0.3,0.9-1,0.6-1.6l-0.5-1c0.6-0.5,1.1-1.1,1.5-1.7l1,0.4c0.3,0.1,0.6,0.1,1,0
		c0.3-0.1,0.5-0.4,0.6-0.7l0.5-1.3C88.6,23.2,88.3,22.5,87.6,22.3z M80.8,25.5c-0.7,0.3-1.3,0.5-2.1,0.5c-1.9,0-3.7-1.1-4.5-2.9
		c-1.1-2.5-0.1-5.4,2.4-6.5c0.7-0.3,1.3-0.5,2.1-0.5c1.9,0,3.7,1.1,4.5,2.9C84.3,21.5,83.3,24.4,80.8,25.5z"/>
	</symbol>

	<symbol id="List_icon" viewBox="50 0 50 50"  style="fill:#4C4646;">
	<ellipse class="svg_light_broun_stroke" style="fill:none;stroke:#4C4646;stroke-miterlimit:10" cx="75" cy="25" rx="24.4" ry="24.4"/>
<path class="svg_light_broun" d="M76,12.5h-0.6c-0.3,0-0.6-0.3-0.6-0.6l0,0c0-0.8-0.6-1.4-1.4-1.4l0,0c-0.8,0-1.4,0.6-1.4,1.4l0,0
	c0,0.3-0.3,0.6-0.6,0.6h-0.6c-0.7,0-1.2,0.5-1.2,1.2l0,0c0,0.7,0.5,1.2,1.2,1.2H76c0.7,0,1.2-0.5,1.2-1.2l0,0
	C77.2,13,76.7,12.5,76,12.5z M73.4,12.5c-0.3,0-0.6-0.3-0.6-0.6s0.3-0.6,0.6-0.6c0.3,0,0.6,0.3,0.6,0.6S73.7,12.5,73.4,12.5z
	 M76.1,35.7H66c-0.9,0-1.6-0.7-1.6-1.6V14.9c0-0.9,0.7-1.6,1.2-1.6h3.2c0,0.1,0,0.3,0,0.4c0,1.1,0.9,2,2,2H76c1.1,0,2-0.9,2-2
	c0-0.1,0-0.3,0-0.4h2.4c1.3,0,2,0.7,2,1.6v12c-0.1,0-0.3,0-0.4,0c-0.6,0-1.1,0.1-1.6,0.2v-9.4h-14v16h9.2
	C75.7,34.4,75.8,35.1,76.1,35.7z M82,28.1c-2.9,0-5.2,2.3-5.2,5.2s2.3,5.2,5.2,5.2s5.2-2.3,5.2-5.2S84.9,28.1,82,28.1z M85.4,32.2
	l-3.2,3.6c-0.2,0.2-0.4,0.3-0.6,0.3c-0.2,0-0.4-0.1-0.5-0.2l-2-1.6c-0.3-0.3-0.4-0.8-0.1-1.1c0.3-0.3,0.8-0.4,1.1-0.1l1.4,1.1l2.7-3
	c0.3-0.3,0.8-0.4,1.1-0.1C85.7,31.4,85.7,31.9,85.4,32.2z M78.4,24.5H72c-0.2,0-0.4-0.2-0.4-0.4v-0.4c0-0.2,0.2-0.4,0.4-0.4h6.4
	c0.2,0,0.4,0.2,0.4,0.4v0.4C78.8,24.3,78.6,24.5,78.4,24.5z M78.4,20.9H72c-0.2,0-0.4-0.2-0.4-0.4v-0.4c0-0.2,0.2-0.4,0.4-0.4h6.4
	c0.2,0,0.4,0.2,0.4,0.4v0.4C78.8,20.7,78.6,20.9,78.4,20.9z M76.4,27.7H72c-0.2,0-0.4-0.2-0.4-0.4v-0.4c0-0.2,0.2-0.4,0.4-0.4h4.4
	c0.2,0,0.4,0.2,0.4,0.4v0.4C76.8,27.5,76.6,27.7,76.4,27.7z M75.6,31.3H72c-0.2,0-0.4-0.2-0.4-0.4v-0.4c0-0.2,0.2-0.4,0.4-0.4h3.6
	c0.2,0,0.4,0.2,0.4,0.4v0.4C76,31.1,75.8,31.3,75.6,31.3z M70.8,19.4l-1.5,1.7c-0.1,0.1-0.2,0.1-0.3,0.1s-0.2,0-0.2-0.1l-0.9-0.7
	c-0.2-0.1-0.2-0.4-0.1-0.5c0.1-0.2,0.4-0.2,0.5-0.1l0.6,0.5l1.2-1.4c0.1-0.2,0.4-0.2,0.5,0C70.9,19,71,19.3,70.8,19.4z M70.8,23
	l-1.5,1.7c-0.1,0.1-0.2,0.1-0.3,0.1s-0.2,0-0.2-0.1L67.9,24c-0.2-0.1-0.2-0.4-0.1-0.5c0.1-0.2,0.4-0.2,0.5-0.1l0.6,0.5l1.2-1.4
	c0.1-0.2,0.4-0.2,0.5,0C70.9,22.6,71,22.8,70.8,23z M70.8,26.4l-1.5,1.7c-0.1,0.1-0.2,0.1-0.3,0.1s-0.2,0-0.2-0.1l-0.9-0.7
	c-0.2-0.1-0.2-0.4-0.1-0.5c0.1-0.2,0.4-0.2,0.5-0.1l0.6,0.5l1.2-1.4c0.1-0.2,0.4-0.2,0.5,0C70.9,26,71,26.2,70.8,26.4z M70.8,29.8
	l-1.5,1.7c-0.1,0.1-0.2,0.1-0.3,0.1s-0.2,0-0.2-0.1l-0.9-0.7c-0.2-0.1-0.2-0.4-0.1-0.5c0.1-0.2,0.4-0.2,0.5-0.1l0.6,0.5l1.2-1.4
	c0.1-0.2,0.4-0.2,0.5,0C70.9,29.4,71,29.7,70.8,29.8z"/>
	</symbol>
	<symbol id="Mail_icon" viewBox="50 0 50 50"  style="fill:#4C4646;">
		<ellipse class="svg_light_broun_stroke" style="fill:none;stroke:#4C4646;stroke-miterlimit:10" cx="75" cy="25" rx="24.4" ry="24.4"/>
<path class="svg_light_broun" d="M87,30.7c0,0.5-0.2,1-0.4,1.4L79,24l7.5-6.2c0.3,0.5,0.5,0.9,0.5,1.6V30.7z M75,25.5l10.5-8.7
	c-0.4-0.2-0.9-0.4-1.4-0.4H66c-0.5,0-1,0.1-1.4,0.4L75,25.5z M77.9,25l-2.4,2c-0.1,0.1-0.3,0.2-0.5,0.2s-0.4-0.1-0.5-0.2l-2.4-2
	l-7.7,8.1c0.5,0.3,1,0.5,1.5,0.5h18c0.6,0,1.2-0.2,1.5-0.5L77.9,25z M63.5,17.8c-0.3,0.5-0.5,0.9-0.5,1.6v11.4c0,0.5,0.2,1,0.4,1.4
	l7.6-8L63.5,17.8z"/>
</symbol>
<symbol id="Market_icon" viewBox="50 0 50 50"  style="fill:#4C4646;">
	<ellipse class="svg_light_broun_stroke" style="fill:none;stroke:#4C4646;stroke-miterlimit:10" cx="75" cy="25" rx="24.4" ry="24.4"/>

	<path class="svg_light_broun" d="M63.2,15.2c-0.5-1.7,0.3-3.5,1.9-4.1c1.6-0.6,3.2,0.4,3.7,2l5.8,19.2c-0.5-0.2-1.1-0.2-1.7-0.1l-5.6-18.5
		c-0.2-0.8-1-1.2-1.7-0.9c-0.7,0.3-1.1,1.1-0.9,1.9c0.1,0.5-0.1,0.9-0.5,1.1C63.8,15.9,63.3,15.7,63.2,15.2z M85.9,30.3l-9.5,3.4
		c0.3,0.4,0.6,0.9,0.8,1.5c0,0,0,0,0,0.1l9.2-3.3c0.4-0.1,0.6-0.6,0.5-1.1C86.8,30.4,86.3,30.1,85.9,30.3z M76.5,35.4
		c0.5,1.8-0.3,3.7-2,4.3c-1.6,0.6-3.4-0.4-3.9-2.2s0.3-3.7,2-4.3C74.2,32.7,76,33.7,76.5,35.4z M75,36c-0.3-0.9-1.1-1.4-2-1.1
		c-0.8,0.3-1.3,1.3-1,2.1c0.3,0.9,1.1,1.4,2,1.1C74.8,37.8,75.3,36.9,75,36z M83.5,17.3L86.7,28c0.1,0.2,0,0.5-0.3,0.5l-10.1,3.7
		c-0.2,0.1-0.4,0-0.5-0.3l-3.2-10.7c-0.1-0.2,0-0.5,0.3-0.5L83,17C83.3,16.9,83.5,17.1,83.5,17.3z M82.2,23.5l-3.4-2.1l-1.6,3.9
		l1.1,0.5l0.7-1.7l1.3,4.2l1.2-0.4l-1.3-4.2l1.5,0.9L82.2,23.5z M79.2,17.1l-2.1-6.8c0-0.1-0.2-0.2-0.3-0.2L75,10.7l0,0l0,0L74.1,11
		l0.8,2.5l-1,0.4l-0.8-2.5l-0.9,0.3l0,0l0,0l-1.8,0.6c-0.1,0-0.2,0.2-0.2,0.3l2.1,6.8c0,0.1,0.2,0.2,0.3,0.2l6.5-2.3
		C79.2,17.4,79.2,17.3,79.2,17.1z"/>
	</symbol>

<symbol id="Pad_icon" viewBox="50 0 50 50" style="fill:#4C4646;">
	<ellipse class="svg_light_broun_stroke" style="fill:none;stroke:#4C4646;stroke-miterlimit:10" cx="75" cy="25" rx="24.4" ry="24.4"/>
		<path class="svg_light_broun" d="M70.3,20.1c-0.8,0-1.5,0.7-1.5,1.5s0.7,1.5,1.5,1.5c0.8,0,1.5-0.7,1.5-1.5C71.8,20.8,71.1,20.1,70.3,20.1z"/>
		<path class="svg_light_broun" d="M74.4,17c-1.2-0.1-2.5-0.5-4.1-1.2h-0.1h-0.1c-4.7,0-8,8.2-8,13.8c0,1.3,0.2,2.4,0.6,3.2
			c0.5,0.9,1.2,1.4,2.1,1.4c2.1,0,3.3-1.2,4.6-2.4c1.4-1.3,2.9-2.7,5.7-2.7c2.4,0,4.2,1.4,5.9,2.8c1.5,1.2,2.8,2.2,4.4,2.2
			c0.8,0,1.5-0.4,1.9-1.2c0.3-0.7,0.5-1.6,0.5-2.7c0-4.9-3.6-14.4-7.9-14.4h-0.1h-0.1c-1.7,0.8-3,1.2-4.3,1.2 M70.3,24
			c-1.3,0-2.4-1.1-2.4-2.4s1.1-2.4,2.4-2.4c1.3,0,2.4,1.1,2.4,2.4C72.7,23,71.6,24,70.3,24z M79.8,18.2c0.5-0.3,1.2-0.2,1.6,0.3
			c0.2,0.3,0.2,0.6,0.2,0.8c-0.1,0.3-0.2,0.5-0.5,0.7c-0.2,0.1-0.4,0.2-0.6,0.2c-0.4,0-0.7-0.2-1-0.5C79.1,19.2,79.2,18.5,79.8,18.2
			z M77.4,21.7c-0.3-0.5-0.2-1.2,0.3-1.6c0.5-0.3,1.2-0.2,1.6,0.3c0.2,0.3,0.2,0.6,0.2,0.9c-0.1,0.3-0.2,0.5-0.5,0.7
			c-0.2,0.1-0.4,0.2-0.6,0.2C77.9,22.3,77.7,22.1,77.4,21.7z M80.4,24.4c-0.2,0.1-0.4,0.2-0.6,0.2c-0.4,0-0.7-0.2-1-0.5
			c-0.2-0.3-0.2-0.6-0.2-0.9c0.1-0.3,0.2-0.5,0.5-0.7c0.5-0.3,1.2-0.2,1.6,0.3C81.2,23.4,80.9,24.1,80.4,24.4z M82.8,21.7
			c-0.1,0.3-0.2,0.5-0.5,0.7c-0.2,0.1-0.4,0.2-0.6,0.2c-0.4,0-0.7-0.2-1-0.5c-0.2-0.3-0.2-0.6-0.2-0.9c0.1-0.3,0.2-0.5,0.5-0.7
			c0.5-0.3,1.2-0.2,1.6,0.3C82.9,21.1,82.9,21.4,82.8,21.7z"/>
		</symbol>
		<symbol id="Paid_icon" viewBox="50 0 50 50" style="fill:#4C4646;">
			<ellipse class="svg_light_broun_stroke" style="fill:none;stroke:#4C4646;stroke-miterlimit:10" cx="75" cy="25" rx="24.4" ry="24.4"/>
	<path class="svg_light_broun" d="M66,16.8h13.4c0.7,0,1.3-0.6,1.3-1.3v-0.7c0-0.7-0.6-1.3-1.3-1.3H66c-0.7,0-1.3,0.6-1.3,1.3v0.7
		C64.7,16.3,65.3,16.8,66,16.8z"/>
	<path class="svg_light_broun" d="M64,21.4h13.4c0.7,0,1.3-0.6,1.3-1.3v-0.7c0-0.7-0.6-1.3-1.3-1.3H64c-0.7,0-1.3,0.6-1.3,1.3v0.7
		C62.7,20.9,63.3,21.4,64,21.4z"/>
	<path class="svg_light_broun" d="M64,26h9.1c0.4-0.8,0.9-1.6,1.6-2.2c0.4-0.4,0.8-0.7,1.3-1H64c-0.7,0-1.3,0.6-1.3,1.3v0.7
		C62.7,25.4,63.3,26,64,26z"/>
	<path class="svg_light_broun" d="M66,27.2c-0.7,0-1.3,0.6-1.3,1.3v0.7c0,0.7,0.6,1.3,1.3,1.3h6.4c-0.1-0.4-0.1-0.8-0.1-1.2
		c0-0.7,0.1-1.4,0.3-2.1L66,27.2L66,27.2z"/>
	<path class="svg_light_broun" d="M64,35.1h10.8c-0.1-0.1-0.1-0.1-0.2-0.2c-0.7-0.7-1.3-1.6-1.7-2.5c-0.1-0.2-0.2-0.4-0.2-0.6H64
		c-0.7,0-1.3,0.6-1.3,1.3v0.7C62.7,34.5,63.3,35.1,64,35.1z"/>
	<polygon class="svg_light_broun" points="78.8,27.2 78.8,28.7 79.6,28.7 79.6,27.2 79.6,27 78.8,27 	"/>
	<rect x="80.9" y="30" class="st1" width="0.7" height="1.7"/>
	<path class="svg_light_broun" d="M77.6,22.7c-1.6,0.6-2.9,1.8-3.7,3.3c-0.2,0.4-0.4,0.8-0.5,1.2c-0.2,0.7-0.3,1.4-0.3,2.1c0,0.4,0,0.8,0.1,1.2
		c0.1,0.5,0.2,0.9,0.4,1.3c0.5,1.3,1.4,2.5,2.5,3.3c1.2,0.9,2.6,1.4,4.2,1.4c3.9,0,7.1-3.2,7.1-7.1s-3.2-7.1-7.1-7.1
		C79.3,22.2,78.4,22.4,77.6,22.7z M80.9,24.8v0.9h1.2c0.4,0,0.6,0.3,0.6,0.6S82.4,27,82,27h-1.2v1.7h1.4c0.4,0,0.6,0.3,0.6,0.6v3
		c0,0.4-0.3,0.6-0.6,0.6h-1.4v0.9c0,0.4-0.3,0.6-0.6,0.6c-0.3,0-0.6-0.3-0.6-0.6V33h-0.9h-0.4c-0.4,0-0.6-0.3-0.6-0.6
		c0-0.2,0.1-0.3,0.2-0.4c0.1-0.1,0.3-0.2,0.5-0.2h1.3v-1.2V30h-1.4c-0.4,0-0.6-0.3-0.6-0.6v-2.1v-0.9c0-0.1,0-0.3,0.1-0.4
		c0.1-0.2,0.3-0.3,0.5-0.3l0,0h1.4v-0.9c0-0.4,0.3-0.6,0.6-0.6C80.6,24.2,80.9,24.5,80.9,24.8z"/>
		</symbol>
		<symbol id="Soc_icon" viewBox="50 0 50 50" style="fill:#4C4646;">
			<ellipse class="svg_light_broun_stroke" style="fill:none;stroke:#4C4646;stroke-miterlimit:10" cx="75" cy="25" rx="24.4" ry="24.4"/>
	<path class="svg_light_broun" d="M68.8,23.7L68.8,23.7h0.2c0.8,0.7,1.6,1.1,2.5,1.1c0.8,0,1.7-0.4,2.5-1l0.1-0.1l0.2,0.1
		c0.1,0.1,0.4,0.3,0.5,0.4l0.2,0.1l0,0h0.1c0.1,0.1,0.3,0.2,0.5,0.3c0.2,0.1,0.3,0.1,0.5,0.2c0,0,0.8,0.3,1.7,0.7h0.2
		c0.8,0.3,1.2,0.8,1.2,0.8c1.3,1.9,1.5,6.3,1.5,6.8c0,0.7-0.2,0.8-0.2,0.9c-3,1.3-7.5,1.6-8.4,1.7l0,0l0,0h-0.1l0,0l0,0
		c-0.2,0-0.4,0-0.6,0h-0.1c-0.5,0-5.4-0.3-8.5-1.7c-0.1,0-0.2-0.2-0.3-0.8c0,0,0.2-4.7,1.5-6.8c0.1-0.1,0.4-0.5,1.2-0.8
		c0.7-0.2,2.4-0.7,3.2-1.4l0.1-0.1C68.5,24,68.6,23.9,68.8,23.7z M78.1,24.9H78c-0.2-0.1-0.4-0.2-0.6-0.3c0.3-0.1,0.6-0.3,0.7-0.4
		c0,0,0.1,0,0.1-0.1c0.1-0.1,0.2-0.2,0.3-0.3l0.1-0.1l0.1,0.1c0.6,0.5,1.2,0.8,1.8,0.8s1.2-0.3,1.8-0.8l0,0l0.1,0.1
		c0.1,0.1,0.3,0.2,0.4,0.3H83l0,0h0.1c0.1,0.1,0.2,0.1,0.4,0.2c0.1,0.1,0.3,0.1,0.4,0.1c0,0,0.6,0.2,1.3,0.5h0.1
		c0.6,0.2,0.9,0.5,0.9,0.6c1,1.4,1.1,4.6,1.1,5c0,0.5-0.1,0.6-0.2,0.6c-1.8,0.8-4.5,1.1-5.6,1.2c-0.1-1.4-0.5-4.9-1.6-6.7v-0.1
		C79.4,25.6,78.9,25.2,78.1,24.9z M77.4,19.6L77.4,19.6c0.1-0.1,0.2-0.2,0.1-0.3c-0.2-1.3-0.1-1.9,0-2.1c0.4-1.2,1.6-1.7,1.8-1.8
		c0,0,0.1,0,0.2-0.1l0,0h0.2l0,0h0.1h0.1H80c0,0,0.5,0.1,1.2,0.3l0.5,0.2c0.9,0.3,1.3,0.7,1.4,0.8c0.7,0.8,0.5,2.1,0.3,2.8
		c0,0.1,0,0.2,0,0.2v0.1c0,0.1,0.1,0.3-0.1,0.9c0,0.2-0.1,0.3-0.2,0.4l-0.1,0.1c-0.2,1.4-1.5,3.1-2.9,3.1c-1.1,0-2.5-1.4-2.7-3.1
		c0-0.1,0-0.1-0.1-0.2s-0.2-0.2-0.2-0.5C77.4,20,77.4,19.7,77.4,19.6z M67.4,18.1L67.4,18.1c0.1-0.1,0.2-0.3,0.2-0.4
		c-0.3-1.8-0.1-2.6-0.1-2.8c0.5-1.6,2.2-2.4,2.6-2.6c0.1,0,0.2-0.1,0.3-0.1l0,0h0.3l0,0h0.1c0.1,0,0.1,0,0.2,0h0.1
		c0,0,0.7,0.1,1.6,0.4l0.7,0.2c1.2,0.4,1.7,1,1.8,1.1c1,1.1,0.7,2.8,0.5,3.7c0,0.1,0,0.2,0,0.3l0.1,0.1c0.1,0.1,0.1,0.5-0.1,1.2
		c0,0.2-0.1,0.4-0.3,0.6c0,0.1-0.1,0.1-0.1,0.2c-0.3,1.9-2.1,4.1-3.9,4.1c-1.5,0-3.4-1.9-3.7-4.1c0-0.1,0-0.1-0.1-0.2
		c-0.1-0.1-0.2-0.3-0.3-0.6C67.3,18.7,67.3,18.3,67.4,18.1z"/>
		</symbol>
		<symbol id="News_icon" viewBox="50 0 50 50" style="fill:#4C4646;">
			<ellipse class="svg_light_broun_stroke" style="fill:none;stroke:#4C4646;stroke-miterlimit:10" cx="75" cy="25" rx="24.4" ry="24.4"/>
	<path class="svg_light_broun" d="M69.9,30.4c0.8,1.8,2,3.4,3.7,5c-3.2-0.5-6-2.4-7.5-5.1L69.9,30.4z M73.5,14.6c-3,0.5-5.7,2.3-7.3,4.8h3.7
	C70.7,17.8,71.9,16.2,73.5,14.6z M74.7,19.6v-5.1l0,0c-1.8,1.6-3.2,3.3-4.1,5L74.7,19.6z M66.2,21.2h-0.8h-0.7l-0.1,5.2l-2.9-5.3
	h-0.8h-0.8L60,28.5h0.7h0.7l0.1-5.4l3,5.4h0.8H66L66.2,21.2z M73.1,22.5v-0.7v-0.7l-5.5-0.1l-0.1,7.4l5.6,0.1v-0.7v-0.7h-4.1v-1.9
	h3.6v-0.7V24h-3.6v-1.6L73.1,22.5z M80.6,26.7L80.6,26.7l-1-5.4h-0.8H78l-1.1,5.4l-1.2-5.5h-0.8H74l2,7.4h0.8h0.8l1.2-5.9l1.1,5.9
	h0.8h0.8l2.1-7.4h-0.8h-0.8L80.6,26.7z M75.6,14.5L75.6,14.5l-0.1,5.1h3.9C78.7,17.9,77.3,16.2,75.6,14.5z M84.1,19.7
	c-1.6-2.6-4.2-4.5-7.2-5c1.6,1.6,2.7,3.3,3.5,5H84.1z M76.4,35.5c3.2-0.5,6-2.3,7.7-4.8h-3.8C79.3,32.2,78,33.9,76.4,35.5z
	 M79.2,30.5h-3.8v4.8C77.1,33.8,78.4,32.2,79.2,30.5z M89.6,25.2c-0.3-0.3-1.1-0.6-2.1-0.9c-0.8-0.2-1.2-0.3-1.5-0.5
	c-0.2-0.1-0.3-0.3-0.3-0.6c0-0.3,0.1-0.6,0.3-0.7c0.2-0.1,0.6-0.2,0.9-0.2c0.5,0,0.8,0.1,1.1,0.3c0.2,0.2,0.5,0.5,0.5,0.9h1.5
	c0-0.8-0.3-1.4-0.9-1.8c-0.6-0.5-1.2-0.7-2-0.7c-0.9,0-1.6,0.2-2.1,0.6c-0.6,0.5-0.8,1-0.8,1.7c0,0.7,0.2,1.1,0.6,1.5
	c0.5,0.3,1.2,0.6,2.4,0.9c0.7,0.1,1,0.3,1.2,0.5c0.2,0.1,0.3,0.3,0.3,0.7c0,0.3-0.1,0.5-0.5,0.7c-0.2,0.1-0.7,0.2-1.1,0.2
	c-0.5,0-0.9-0.1-1.1-0.3c-0.2-0.2-0.5-0.6-0.5-0.9H84c0,0.8,0.3,1.5,0.8,1.9c0.6,0.5,1.2,0.7,2.3,0.7c0.9,0,1.7-0.2,2.3-0.6
	c0.6-0.5,0.8-0.9,0.8-1.7C90,26.1,89.9,25.6,89.6,25.2z M74.6,35.3v-4.8h-3.8C71.7,32.1,72.9,33.8,74.6,35.3z"/>
		</symbol>
		<symbol id="Personal_icon" viewBox="50 0 50 50" style="fill:#4C4646;">
		<ellipse class="svg_light_broun_stroke" style="fill:none;stroke:#4C4646;stroke-miterlimit:10" cx="75" cy="25" rx="24.4" ry="24.4"/>
	<path class="svg_light_broun" d="M81.2,23.2c0-0.6-0.4-1-0.9-1h-3.1c-0.5,0-0.9,0.5-0.9,1v0.3H63.2c-0.1,0.4-0.1,0.9-0.1,1.3
		c0,0.5,0,0.9,0.1,1.3h13.1v0.3c0,0.6,0.4,1,0.9,1h3.1c0.5,0,0.9-0.5,0.9-1v-0.3h5.6c0.1-0.4,0.1-0.9,0.1-1.3c0-0.5,0-0.9-0.1-1.3
		h-5.6V23.2z M80,26.3h-2.5v-2.8H80V26.3z"/>
	<path class="svg_light_broun" d="M73.8,16.7v-0.3c0-0.6-0.4-1-0.9-1h-3.1c-0.5,0-0.9,0.5-0.9,1v0.3h-2.3c-0.8,0.8-1.5,1.8-2,2.8h4.3v0.3
		c0,0.6,0.4,1,0.9,1h3.1c0.5,0,0.9-0.5,0.9-1v-0.3h11.7c-0.5-1-1.2-2-2-2.8H73.8z M72.5,19.5H70v-2.8h2.5V19.5z"/>
	<path class="svg_light_broun" d="M73.8,30.5v-0.3c0-0.6-0.4-1-0.9-1h-3.1c-0.5,0-0.9,0.5-0.9,1v0.3h-4.3c0.5,1,1.2,2,2,2.8h2.3v0.3
		c0,0.6,0.4,1,0.9,1h3.1c0.5,0,0.9-0.5,0.9-1v-0.3h9.8c0.8-0.8,1.5-1.8,2-2.8H73.8z M72.5,33.3H70v-2.8h2.5V33.3z"/>
		</symbol>
</defs>
</svg>
