<?xml version="1.0" encoding="utf-8"?>
<!-- Generator: Adobe Illustrator 18.0.0, SVG Export Plug-In . SVG Version: 6.00 Build 0)  -->
<!DOCTYPE svg PUBLIC "-//W3C//DTD SVG 1.1//EN" "http://www.w3.org/Graphics/SVG/1.1/DTD/svg11.dtd">
<svg version="1.1" id="Card_x5F_icon" xmlns="http://www.w3.org/2000/svg" xmlns:xlink="http://www.w3.org/1999/xlink" x="0px"
	 y="0px" viewBox="0 0 299.8 50" enable-background="new 0 0 299.8 50" xml:space="preserve">
<g>
	<ellipse fill="none" stroke="#000000" stroke-miterlimit="10" cx="24.9" cy="25" rx="24.4" ry="24.4"/>
	<path id="test_path" d="M37.3,13.5c-0.1-0.4-0.5-0.7-0.9-0.5l-3,0.8c-0.3,0.1-0.5,0.3-0.6,0.6l-0.4,2.4L13.8,19l0,0c0,0,0,0-0.1,0
		c0,0-0.1,0-0.1,0.1c0,0-0.1,0-0.1,0.1c-0.1,0-0.1,0.1-0.1,0.1s0,0-0.1,0.1l0,0c-0.1,0-0.1,0-0.1,0.1c0,0,0,0,0,0.1s0,0.2,0,0.3
		l2.2,9.1l0.8,3c0,0,0,0,0,0.1v0.1l0.1,0.1c0,0,0,0.1,0.1,0.1l0.1,0.1h0.1c0.1,0,0.2,0.1,0.3,0.1h15.9c0.4,0,0.8-0.3,0.8-0.8
		c0-0.4-0.3-0.8-0.8-0.8H17.5l-0.4-1.5h14.1c0.1,0,0.2,0,0.3,0c0,0,0.1,0,0.1-0.1c0,0,0.1,0,0.1-0.1c0,0,0-0.1,0.1-0.1l0.1-0.1V29
		v-0.1l0,0l0,0L34.2,15l2.5-0.6C37.1,14.3,37.4,13.9,37.3,13.5z M16.7,28l-1.9-7.7l2.4-0.2l1.1,7.9C18.3,28,16.7,28,16.7,28z
		 M19.8,28l-1.2-8.1l2.4-0.3l0.4,8.4H19.8z M24.5,28h-1.6l-0.4-8.6l2.4-0.3L24.5,28z M27.6,28H26l0.4-9l2.3-0.3L27.6,28z M30.6,28
		h-1.5l1.2-9.5l1.6-0.2L30.6,28z M19.9,34.1c-0.8,0-1.5,0.7-1.5,1.5s0.7,1.5,1.5,1.5s1.5-0.7,1.5-1.5S20.8,34.1,19.9,34.1z
		 M29.7,34.1c-0.8,0-1.5,0.7-1.5,1.5s0.7,1.5,1.5,1.5s1.5-0.7,1.5-1.5C31.3,34.7,30.6,34.1,29.7,34.1z"/>
</g>
<g>
	<ellipse fill="none" stroke="#000000" stroke-miterlimit="10" cx="74.3" cy="25" rx="24.4" ry="24.4"/>
	<path id="test_path_1_" d="M86.7,13.5c-0.1-0.4-0.5-0.7-0.9-0.5l-3,0.8c-0.3,0.1-0.5,0.3-0.6,0.6l-0.4,2.4L63.2,19l0,0
		c0,0,0,0-0.1,0c0,0-0.1,0-0.1,0.1c0,0-0.1,0-0.1,0.1c-0.1,0-0.1,0.1-0.1,0.1s0,0-0.1,0.1l0,0c-0.1,0-0.1,0-0.1,0.1c0,0,0,0,0,0.1
		c0,0.1,0,0.2,0,0.3l2.2,9.1l0.8,3c0,0,0,0,0,0.1v0.1l0.1,0.1c0,0,0,0.1,0.1,0.1l0.1,0.1H66c0.1,0,0.2,0.1,0.3,0.1h15.9
		c0.4,0,0.8-0.3,0.8-0.8c0-0.4-0.3-0.8-0.8-0.8H66.9l-0.4-1.5h14.1c0.1,0,0.2,0,0.3,0c0,0,0.1,0,0.1-0.1c0,0,0.1,0,0.1-0.1
		c0,0,0-0.1,0.1-0.1l0.1-0.1V29v-0.1l0,0l0,0L83.6,15l2.5-0.6C86.5,14.3,86.8,13.9,86.7,13.5z M66.1,28l-1.9-7.7l2.4-0.2l1.1,7.9
		C67.7,28,66.1,28,66.1,28z M69.2,28L68,19.9l2.4-0.3l0.4,8.4H69.2z M73.9,28h-1.6l-0.4-8.6l2.4-0.3L73.9,28z M77,28h-1.6l0.4-9
		l2.3-0.3L77,28z M80,28h-1.5l1.2-9.5l1.6-0.2L80,28z M69.3,34.1c-0.8,0-1.5,0.7-1.5,1.5s0.7,1.5,1.5,1.5s1.5-0.7,1.5-1.5
		S70.2,34.1,69.3,34.1z M79.1,34.1c-0.8,0-1.5,0.7-1.5,1.5s0.7,1.5,1.5,1.5s1.5-0.7,1.5-1.5C80.7,34.7,80,34.1,79.1,34.1z"/>
</g>
</svg>
