<?xml version="1.0" encoding="utf-8"?>
<!-- Generator: Adobe Illustrator 15.0.0, SVG Export Plug-In  -->
<!DOCTYPE svg PUBLIC "-//W3C//DTD SVG 1.1//EN" "http://www.w3.org/Graphics/SVG/1.1/DTD/svg11.dtd" [
	<!ENTITY ns_flows "http://ns.adobe.com/Flows/1.0/">
]>
<svg version="1.1"
	 xmlns="http://www.w3.org/2000/svg" xmlns:xlink="http://www.w3.org/1999/xlink" xmlns:a="http://ns.adobe.com/AdobeSVGViewerExtensions/3.0/"
	 x="0px" y="0px" width="64px" height="47px" viewBox="0 0 64 47" enable-background="new 0 0 64 47" xml:space="preserve">
<defs>
</defs>
<path fill="#D7844C" d="M61.91,10.584l-0.309-0.733c0,0,0.717-1.617,0.654-1.68l-0.949-0.927c-0.067-0.064-1.685,0.675-1.685,0.675
	l-0.748-0.302c0,0-0.659-1.64-0.749-1.64h-1.34c-0.093,0-0.704,1.644-0.704,1.644l-0.745,0.302c0,0-1.653-0.702-1.716-0.64
	l-0.947,0.929c-0.066,0.063,0.688,1.649,0.688,1.649l-0.309,0.731c0,0-1.675,0.645-1.675,0.732v1.313c0,0.091,1.679,0.69,1.679,0.69
	l0.308,0.73c0,0-0.717,1.616-0.654,1.679l0.949,0.929c0.064,0.063,1.684-0.676,1.684-0.676l0.748,0.303c0,0,0.659,1.639,0.75,1.639
	h1.34c0.092,0,0.703-1.644,0.703-1.644l0.747-0.302c0,0,1.649,0.703,1.714,0.641l0.949-0.929c0.066-0.064-0.69-1.648-0.69-1.648
	l0.308-0.731c0,0,1.675-0.646,1.675-0.735v-1.313C63.588,11.181,61.91,10.584,61.91,10.584z M59.441,11.954
	c0,1.056-0.878,1.916-1.958,1.916c-1.079,0-1.957-0.86-1.957-1.916s0.878-1.914,1.957-1.914
	C58.563,10.041,59.441,10.898,59.441,11.954z"/>
<path fill="#D7844C" d="M29.345,34.705l-0.51-1.213c0,0,1.187-2.677,1.082-2.781l-1.18-1.153h-1.499
	c-0.779,0.325-1.68,0.736-1.68,0.736l-1.237-0.499c0,0-0.037-0.091-0.096-0.237h-4.436c-0.057,0.15-0.091,0.243-0.091,0.243
	l-1.233,0.5c0,0-1.011-0.429-1.828-0.743h-1.335l-1.246,1.222c-0.109,0.104,1.14,2.729,1.14,2.729l-0.511,1.211
	c0,0-2.772,1.067-2.772,1.212v2.173c0,0.152,2.778,1.142,2.778,1.142l0.511,1.208c0,0-1.187,2.676-1.083,2.779l1.571,1.538
	c0.106,0.104,2.787-1.118,2.787-1.118l1.237,0.5c0,0,1.091,2.713,1.242,2.713h2.218c0.153,0,1.164-2.721,1.164-2.721l1.237-0.5
	c0,0,2.73,1.163,2.836,1.061l1.571-1.537c0.109-0.106-1.143-2.729-1.143-2.729l0.51-1.21c0,0,2.773-1.07,2.773-1.216v-2.172
	C32.123,35.692,29.345,34.705,29.345,34.705z M22.018,40.143c-1.785,0-3.239-1.423-3.239-3.17c0-1.748,1.454-3.168,3.239-3.168
	c1.787,0,3.24,1.421,3.24,3.168C25.258,38.72,23.804,40.143,22.018,40.143z"/>
<path fill="#D7844C" d="M51.785,20.497l-0.734-1.745c0,0,1.708-3.852,1.556-4.001l-2.259-2.208c-0.093-0.089-1.45,0.477-2.561,0.96
	v16.053H31.092c-0.49,1.134-1.321,3.105-1.214,3.211l2.26,2.213c0.153,0.149,4.009-1.608,4.009-1.608l1.78,0.72
	c0,0,1.57,3.903,1.787,3.903h3.191c0.221,0,1.674-3.914,1.674-3.914l1.78-0.72c0,0,3.928,1.672,4.081,1.526l2.26-2.211
	c0.157-0.153-1.644-3.927-1.644-3.927l0.734-1.741c0,0,3.99-1.54,3.99-1.75v-3.125C55.782,21.917,51.785,20.497,51.785,20.497z"/>
<path fill="#D7844C" d="M53.892,6.605V5.293c0-0.09-1.678-0.687-1.678-0.687l-0.309-0.733c0,0,0.717-1.617,0.654-1.68L51.61,1.267
	c-0.067-0.064-1.685,0.675-1.685,0.675L49.178,1.64c0,0-0.659-1.64-0.749-1.64h-0.643v4.063h0c1.08,0,1.958,0.858,1.958,1.914
	s-0.878,1.916-1.958,1.916h0v4.063h0.699c0.092,0,0.703-1.644,0.703-1.644l0.747-0.302c0,0,1.649,0.703,1.714,0.641l0.949-0.929
	c0.066-0.064-0.69-1.648-0.69-1.648l0.308-0.731C52.216,7.34,53.892,6.694,53.892,6.605z"/>
<path fill="#D7844C" d="M13.126,29.557H8.679c-0.495,0.429-1.138,0.699-1.849,0.699s-1.354-0.27-1.848-0.699h-4.45l0.409,0.968
	c0,0-1.025,2.312-0.935,2.4l1.357,1.329c0.092,0.089,2.408-0.966,2.408-0.966l1.069,0.433c0,0,0.943,2.344,1.073,2.344h1.916
	c0.132,0,1.005-2.351,1.005-2.351l1.069-0.432c0,0,2.358,1.004,2.45,0.916l1.357-1.328c0.095-0.091-0.987-2.357-0.987-2.357
	L13.126,29.557z"/>
</svg>
