<?xml version="1.0" encoding="utf-8"?>
<!-- Generator: Adobe Illustrator 15.0.0, SVG Export Plug-In  -->
<!DOCTYPE svg PUBLIC "-//W3C//DTD SVG 1.1//EN" "http://www.w3.org/Graphics/SVG/1.1/DTD/svg11.dtd" [
	<!ENTITY ns_flows "http://ns.adobe.com/Flows/1.0/">
]>
<svg version="1.1"
	 xmlns="http://www.w3.org/2000/svg" xmlns:xlink="http://www.w3.org/1999/xlink" xmlns:a="http://ns.adobe.com/AdobeSVGViewerExtensions/3.0/"
	 x="0px" y="0px" width="200px" height="200px" viewBox="-0.9619141 -0.9785156 200 200"
	 enable-background="new -0.9619141 -0.9785156 200 200" xml:space="preserve">
<defs>
</defs>
<path fill="none" stroke="#000000" stroke-miterlimit="10" d="M4.5029297,22.965332
	C10.9443359,9.6630859,24.4863281,0.5,40.1513672,0.5"/>
<path fill="none" stroke="#000000" stroke-miterlimit="10" d="M0.5,40.5c0-0.0605469,0-0.1210938,0-0.1826172"/>
<path fill="none" stroke="#000000" stroke-miterlimit="10" d="M79.8007813,40.5c0,22.0917969-17.7529297,40-39.6494141,40
	C18.2524414,80.5,0.5,62.5917969,0.5,40.5"/>
<path fill="none" stroke="#000000" stroke-miterlimit="10" d="M40.1513672,0.5c21.8964844,0,39.6494141,17.9086914,39.6494141,40"/>
<path fill="none" stroke="#000000" stroke-miterlimit="10" d="M26.4423828,71.9921875
	C14.4428711,66.6992188,6.0634766,54.6660156,6.0634766,40.671875c0-0.1181641,0.0004883-0.2363281,0.0019531-0.3544922"/>
<path fill="none" stroke="#000000" stroke-miterlimit="10" d="M55.4160156,71.2539063
	c-4.5917969,2.3242188-9.7783203,3.6318359-15.265625,3.6318359c-3.4335938,0-6.7480469-0.5117188-9.8730469-1.4638672"/>
<path fill="none" stroke="#000000" stroke-miterlimit="10" d="M30.0390625,7.652832
	c3.1943359-1,6.5908203-1.5385742,10.1113281-1.5385742c18.8242188,0,34.0849609,15.3950195,34.0849609,34.3867188
	c0,0.0351563,0,0.0703125,0,0.1064453"/>
<path fill="#FFFFFF" stroke="#000000" stroke-miterlimit="10" d="M9.4208984,25.6040039
	c3.5087891-7.3525391,9.5336914-13.2529297,16.9482422-16.5634766"/>
<path fill="none" stroke="#000000" stroke-miterlimit="10" d="M14.4384766,28.0336914
	c4.6044922-9.6479492,14.3876953-16.3061523,25.7119141-16.3061523c7.875,0,15.0048828,3.2197266,20.1650391,8.425293"/>
<path fill="none" stroke="#000000" stroke-miterlimit="10" d="M52.7539063,66.2998047
	c-3.8085938,1.9023438-8.0966797,2.9716797-12.6318359,2.9716797c-7.9707031,0-15.1806641-3.3037109-20.3647461-8.6328125"/>
<path fill="#FFFFFF" stroke="#000000" stroke-miterlimit="10" d="M22.9667969,53.7705078
	c-2.8061523-3.6582031-4.5366211-8.1191406-4.7353516-12.9863281c-0.0043945-0.0947266-0.0073242-0.1904297-0.0102539-0.2851563"/>
<path fill="#FFFFFF" stroke="#000000" stroke-miterlimit="10" d="M60.3154297,20.152832
	c0.0703125,0.0712891,0.140625,0.1425781,0.2099609,0.2148438"/>
<line fill="none" stroke="#000000" stroke-miterlimit="10" x1="0.1206055" y1="40.5" x2="6.0649414" y2="40.5"/>
<line fill="none" stroke="#000000" stroke-miterlimit="10" x1="80.1201172" y1="40.5" x2="73.9228516" y2="40.5"/>
<rect x="30.8945313" y="32.4521484" fill="none" width="18.8740234" height="21.203125"/>
<text transform="matrix(0.9912574 0 0 1 34.8984375 48.2363281)" font-family="'MyriadPro-Regular'" font-size="22.2316704">S</text>
<line fill="none" stroke="#000000" stroke-miterlimit="10" x1="51.8232422" y1="28.7246094" x2="60.2929688" y2="20.1796875"/>
<line fill="none" stroke="#000000" stroke-miterlimit="10" x1="52.3828125" y1="66.2158203" x2="57.8027344" y2="76.3271484"/>
<line fill="none" stroke="#000000" stroke-miterlimit="10" x1="4.2006836" y1="22.8950195" x2="14.7929688" y2="27.8505859"/>
<path fill="none" stroke="#000000" stroke-miterlimit="10" d="M29.6044922,10.4516602
	c-1.2900391,0.4589844-2.7041016-0.2241211-3.1582031-1.5249023s0.2236328-2.7265625,1.5126953-3.1850586"/>
<path fill="none" stroke="#000000" stroke-miterlimit="10" d="M28.9335938,70.4511719
	c1.2724609,0.5078125,1.8955078,1.9580078,1.3935547,3.2402344c-0.5029297,1.2822266-1.9414063,1.9121094-3.2119141,1.4033203"/>
<ellipse stroke="#000000" stroke-miterlimit="10" cx="28.8193359" cy="8.0439453" rx="1.1416016" ry="1.1518555"/>
<ellipse stroke="#000000" stroke-miterlimit="10" cx="27.9272461" cy="72.6992188" rx="1.1411133" ry="1.1513673"/>
<ellipse stroke="#000000" stroke-miterlimit="10" cx="24.7558594" cy="56.0439453" rx="1.2783203" ry="1.2880859"/>
<line fill="none" stroke="#000000" stroke-miterlimit="10" x1="27.9267578" y1="72.5742188" x2="26.2958984" y2="71.9267578"/>
<rect x="46.8164063" y="46.1884766" fill="none" width="27.4189453" height="11.1445313"/>
<text transform="matrix(0.9912574 0 0 1 50.4716797 54.0810547)" font-family="'MyriadPro-Regular'" font-size="11.1158352">core</text>
<line fill="none" stroke="#000000" stroke-miterlimit="10" x1="5.6679688" y1="40.5" x2="18.5234375" y2="40.5"/>
<path fill="none" stroke="#000000" stroke-miterlimit="10" d="M23.6054688,58.6259766
	c-1.0112305-0.4472656-1.7167969-1.4648438-1.7167969-2.6503906c0-1.5976563,1.2832031-2.8916016,2.8671875-2.8916016
	c1.1435547,0,2.1318359,0.6767578,2.5917969,1.6542969"/>
<path fill="none" stroke="#000000" stroke-miterlimit="10" d="M22.8022461,53.7744141
	c-2.8735352-3.7060547-4.5810547-8.3388672-4.5810547-13.3662109c0-0.0292969,0-0.0605469,0-0.0908203"/>
<path fill="none" stroke="#000000" stroke-miterlimit="10" d="M45.4794922,61.7685547
	c-1.7060547,0.4316406-3.4902344,0.6611328-5.3291016,0.6611328c-5.5429688,0-10.6035156-2.0849609-14.453125-5.5175781"/>
<line fill="none" stroke="#000000" stroke-miterlimit="10" x1="44.0996094" y1="56.4306641" x2="45.2753906" y2="62.1240234"/>
<path fill="none" stroke="#000000" stroke-miterlimit="10" d="M44.4287109,56.4306641
	c-1.3642578,0.3701172-2.7978516,0.5673828-4.2783203,0.5673828c-9.0820313,0-16.4443359-7.4277344-16.4443359-16.5888672
	c0-9.1621094,7.3623047-16.5893555,16.4443359-16.5893555c9.0810547,0,16.4443359,7.4272461,16.4443359,16.5893555"/>
</svg>
