
<svg version="1.1"
	 xmlns="http://www.w3.org/2000/svg" xmlns:xlink="http://www.w3.org/1999/xlink" xmlns:a="http://ns.adobe.com/AdobeSVGViewerExtensions/3.0/"
	 x="0px" y="0px" width="80px" height="80px" viewBox="0 0 80 80" style="enable-background:new 0 0 80 80;" xml:space="preserve">
<?xml-stylesheet type="text/css" href="css/style.css"?>
<defs>
	<symbol id="info">
	<path class="st0" d="M40.084,0C18.021,0,0,18.021,0,40.084C0,62.146,18.021,80,40.084,80C62.146,80,80,62.146,80,40.084
	C80,18.021,62.146,0,40.084,0z M40.084,72.758c-18.021,0-32.673-14.652-32.673-32.674c0-18.021,14.652-32.673,32.673-32.673
	c18.021,0,32.674,14.652,32.674,32.673C72.758,58.105,58.105,72.758,40.084,72.758z"/>
<path class="st0" d="M45.475,54.4l-3.369,1.516l4.379-22.4c0.506-2.358-2.021-4.884-4.715-3.368l-8.253,4.547
	c-1.516,0.842-2.021,2.863-1.179,4.379c0.842,1.516,2.863,2.021,4.379,1.179l2.021-1.01l-4.21,21.39
	c-0.337,1.854,1.179,3.873,3.2,3.873c0.505,0,1.01-0.168,1.347-0.337L48,60.295c1.686-0.674,2.357-2.525,1.686-4.211
	C49.012,54.4,47.158,53.727,45.475,54.4z"/>
<path class="st0" d="M43.284,24.084c2.526,0,4.548-2.021,4.548-4.547c0-2.526-2.021-4.547-4.548-4.547
	c-2.527,0-4.547,2.021-4.547,4.547C38.737,22.063,40.758,24.084,43.284,24.084z"/>
</symbol>
</defs>

</svg>
