<?xml version="1.0" encoding="utf-8"?>
<!-- Generator: Adobe Illustrator 15.0.0, SVG Export Plug-In  -->
<!DOCTYPE svg PUBLIC "-//W3C//DTD SVG 1.1//EN" "http://www.w3.org/Graphics/SVG/1.1/DTD/svg11.dtd" [
	<!ENTITY ns_flows "http://ns.adobe.com/Flows/1.0/">
]>
<svg version="1.1"
	 xmlns="http://www.w3.org/2000/svg" xmlns:xlink="http://www.w3.org/1999/xlink" xmlns:a="http://ns.adobe.com/AdobeSVGViewerExtensions/3.0/"
	 x="0px" y="0px" width="40px" height="25px" viewBox="0 0 40 25" enable-background="new 0 0 40 25" xml:space="preserve">
<defs>
</defs>
<path fill="#4C4646" d="M40,25.001H0V0h40V25.001z M0.991,24h38.018V1H0.991V24z"/>
<path fill="#4C4646" d="M28.427,13.631l-4.553,2.735c-2.512,1.513-5.775,0.7-7.285-1.814c-0.237-0.395-0.398-0.812-0.524-1.235
	l2.115-1.269c0.102-0.063,0.212-0.083,0.319-0.114c0.018,0.428,0.127,0.858,0.363,1.251c0.754,1.257,2.389,1.661,3.645,0.907
	l4.551-2.736c1.255-0.755,1.663-2.389,0.907-3.644c-0.755-1.255-2.389-1.662-3.644-0.907l-1.618,0.973
	c-0.949-0.671-2.054-1.063-3.198-1.175l3.449-2.073c2.515-1.512,5.775-0.7,7.287,1.814C31.751,8.856,30.938,12.12,28.427,13.631z
	 M17.3,17.222l-1.619,0.976c-1.255,0.753-2.89,0.347-3.644-0.909c-0.754-1.255-0.348-2.889,0.907-3.644l4.551-2.735
	c1.255-0.754,2.889-0.348,3.644,0.907c0.235,0.393,0.346,0.823,0.365,1.25c0.108-0.031,0.22-0.052,0.318-0.112l2.114-1.271
	c-0.123-0.422-0.285-0.839-0.524-1.234c-1.509-2.513-4.774-3.326-7.288-1.814l-4.55,2.736c-2.515,1.512-3.327,4.772-1.815,7.287
	c1.511,2.512,4.774,3.324,7.288,1.814l3.449-2.073C19.354,18.285,18.249,17.893,17.3,17.222z"/>
</svg>
