<?xml version="1.0" encoding="utf-8"?>
<!-- Generator: Adobe Illustrator 15.0.0, SVG Export Plug-In  -->
<!DOCTYPE svg PUBLIC "-//W3C//DTD SVG 1.1//EN" "http://www.w3.org/Graphics/SVG/1.1/DTD/svg11.dtd" [
	<!ENTITY ns_flows "http://ns.adobe.com/Flows/1.0/">
]>
<svg version="1.1"
	 xmlns="http://www.w3.org/2000/svg" xmlns:xlink="http://www.w3.org/1999/xlink" xmlns:a="http://ns.adobe.com/AdobeSVGViewerExtensions/3.0/"
	 x="0px" y="0px" width="300px" height="75px" viewBox="-53.255 -9.783 300 75" enable-background="new -53.255 -9.783 300 75"
	 xml:space="preserve">
<defs>
</defs>
<rect x="72.995" y="6.592" display="none" fill="none" width="89.25" height="135.75"/>
<text transform="matrix(1 0 0 1 72.9951 51.0059)" display="none" font-family="'NirmalaUI'" font-size="60">C</text>
<text transform="matrix(1 0 0 1 122.0439 40.7363)" font-family="'NirmalaUI'" font-size="36"> </text>
<text transform="matrix(0.75 0 0 1 131.9053 40.7363)" fill="#D1D3D4" font-family="'OratorStd-Slanted'" font-size="36" letter-spacing="2.667">re</text>
<rect y="21.595" fill="none" width="91.833" height="50.833"/>
<text transform="matrix(0.75 0 0 1 9.4673 40.3516)" fill="#D1D3D4" font-family="'OratorStd-Slanted'" font-size="36" letter-spacing="2.667">Site</text>
<path fill="none" stroke="#D1D3D4" stroke-width="2" stroke-miterlimit="10" d="M125.062,47.623
	c-3.402,2.23-7.502,3.531-11.916,3.531c-11.77,0-21.312-9.258-21.312-20.676c0-11.42,9.542-20.677,21.312-20.677
	c4.359,0,8.412,1.27,11.789,3.449"/>
<ellipse fill="none" stroke="#D1D3D4" stroke-width="2" stroke-miterlimit="10" cx="113.409" cy="30.479" rx="10.27" ry="9.963"/>
</svg>
