<?xml version="1.0" encoding="utf-8"?>
<!-- Generator: Adobe Illustrator 15.0.0, SVG Export Plug-In  -->
<!DOCTYPE svg PUBLIC "-//W3C//DTD SVG 1.1//EN" "http://www.w3.org/Graphics/SVG/1.1/DTD/svg11.dtd" [
	<!ENTITY ns_flows "http://ns.adobe.com/Flows/1.0/">
]>
<svg version="1.1"
	 xmlns="http://www.w3.org/2000/svg" xmlns:xlink="http://www.w3.org/1999/xlink" xmlns:a="http://ns.adobe.com/AdobeSVGViewerExtensions/3.0/"
	 x="0px" y="0px" width="102px" height="48px" viewBox="0 0 102 48" style="enable-background:new 0 0 102 48;"
	 xml:space="preserve">
<defs>

	<symbol id="Market_site">
<path class="style0" d="M20.337,47.549C10.933,38.178,5.75,25.728,5.75,12.492c0-1.998,0.124-4.023,0.368-6.022l0.07-0.497H0v0.905
	h5.17c-0.208,1.866-0.318,3.752-0.318,5.614c0,13.31,5.16,25.87,14.53,35.375l0.066,0.066h1.272L20.337,47.549z"/>
<path class="style0" d="M81.055,47.549c9.404-9.369,14.584-21.816,14.584-35.057c0-1.998-0.123-4.023-0.367-6.022l-0.068-0.497H102
	v0.905h-5.775c0.207,1.87,0.319,3.75,0.319,5.614c0,13.309-5.162,25.874-14.535,35.375l-0.063,0.065H80.67L81.055,47.549z"/>
<path class="st0" d="M42.37,7.844c0.598-0.067,1.063-0.4,0.997-0.865c-0.066-0.465-0.531-0.465-1.329-0.199
	c-0.797,0.266-1.271,0.53-1.063,0.797C41.44,8.176,41.772,7.91,42.37,7.844z M42.303,11.965c0.399,0.398,1.396-0.133,2.062-0.266
	c0.665-0.134,0.931-0.399,0.598-0.931c-0.333-0.532-1.263-0.267-1.861,0.066S42.049,11.711,42.303,11.965z M63.706,13.76
	c0.333-2.061-1.994-3.258-1.994-3.258l0.997-3.788c0,0,0.333,0,0.932-0.466c0.598-0.465,1.527-1.528,0.93-2.991
	c-0.598-1.462-3.189-0.598-3.189-0.598c-1.063-1.063-2.393-0.2-2.658,1.329c-0.267,1.53,1.195,2.592,1.195,2.592l-1.063,3.191
	c-0.399,0.066-1.861,0.598-1.861,0.598s-0.465-0.598-0.93-0.864c-0.467-0.266-0.201-0.864-0.135-1.396
	c0.067-0.532,0.268-2.061,0.467-2.792s-1.529-0.531-1.861-0.531s0.066-1.596,0.333-2.394c0.266-0.797-0.599-1.13-1.13-1.13
	c-0.532,0-2.259,0-2.591,0.134c-0.332,0.133,0,3.788,0,3.788s-0.399-0.531-0.466-0.997c-0.065-0.465-1.13-0.133-1.928,0.066
	c-0.797,0.199-0.199,0.931-0.065,2.193C48.82,7.71,49.02,9.172,49.02,9.172s-0.532,0.199-0.932,0.665
	c-0.398,0.465-0.199,1.329-0.199,1.329s-2.063-6.38-2.527-8.573C44.896,0.398,43.833,0,42.635,0c-1.196,0-3.323,0.931-4.72,1.729
	C36.52,2.527,37.583,5.318,38.38,8.11s2.127,6.847,2.127,6.847l-0.397-0.134c0,0-0.864-0.664-1.929-0.332
	c-1.063,0.332-0.465,1.463-0.133,2.792c0.332,1.329,0.864,2.525,1.528,3.124c0.665,0.598,0.398,1.396,0.333,1.795
	c0,0-0.797,1.46-1.13,2.923s-0.599,2.326-0.465,2.992c0.133,0.664,1.993,2.324,2.725,3.256s-0.465,2.857-1.196,5.186
	c-0.73,2.326-0.997,3.322-0.531,3.922c0.465,0.599,2.792-0.135,4.652-0.198c1.861-0.066,2.925,0.198,5.85,0.465
	c2.924,0.267,5.917,0.198,7.776,0.198c1.861,0,5.251-0.397,6.049-0.729c0.799-0.332,0.199-5.053,0-6.914
	c-0.199-1.858-0.398-4.053-1.131-4.719c-0.73-0.664,0-0.933,0.6-1.662c0.598-0.729,0.797-0.862,0.729-2.127
	c-0.065-1.262,0.134-7.376,0.465-8.838C64.637,14.49,63.706,13.76,63.706,13.76z M60.715,7.112c0.2-0.731,0.665-1.063,0.133-1.396
	c-0.531-0.333-1.527-1.197-0.863-1.795c0.666-0.599,0.863-0.266,1.264,0.199c0.398,0.465,0.73-0.199,1.195-0.398
	c0.466-0.199,2.127,0.066,1.463,0.931c-0.665,0.864-1.994,0.73-2.194,1.263c-0.198,0.531-0.797,2.791-0.93,3.522
	c-0.134,0.731-0.2,0.798-0.466,0.798c-0.267,0-0.531-0.199-0.531-0.199S60.516,7.844,60.715,7.112z M57.591,11.965
	c1.597-0.931,2.991-0.399,3.522-0.266c0.531,0.133,0.996,0.598,0.996,1.263c0,0.664,0,1.661-0.465,1.396
	c-0.465-0.266-0.664-0.731-1.596-0.066c-0.93,0.665-1.994,2.061-2.459,1.729c-0.465-0.333-1.462-1.396-1.662-1.596
	C55.55,14.045,55.996,12.896,57.591,11.965z M49.548,5.518c0.333-0.134,0.532-0.267,0.731,0.531c0.2,0.798,0,1.196,0.73,1.196
	c0.731,0,1.196,0.267,1.196-0.931c0-1.196-0.465-3.722,0-3.722S54,2.193,53.667,3.123c-0.333,0.93-0.729,2.991-0.267,3.058
	c0.465,0.067,1.994-0.531,1.861,0.066c-0.134,0.599-0.267,2.792-0.666,2.792c-0.397,0-4.785-0.066-4.785-0.066
	S49.216,5.65,49.548,5.518z M48.351,12.098c0.333-0.731,0.6-1.529,1.396-1.529c0.798,0,3.921,0.133,4.853,0.267
	c0.93,0.133,1.463,0.066,1.131,0.398s-1.33,0.798-1.131,2.061c0.198,1.263,0.664,1.063-0.134,1.795
	c-0.797,0.731-1.329,2.061-2.192,1.528c-0.863-0.531-2.99-2.326-3.587-2.127C48.684,14.49,48.02,12.829,48.351,12.098z M38.98,4.188
	c0.066-0.998,0.266-1.529,1.263-1.928c0.997-0.398,2.525-0.931,3.058-0.465c0.532,0.465,1.529,3.855,2.261,5.982
	c0.73,2.127,2.26,6.912,2.127,7.179c-0.134,0.266-0.997,1.063-1.264,0.798c-0.266-0.267-1.33-1.861-2.192-1.396
	c-0.864,0.465-2.127,1.662-2.593,1.463c0,0-0.266-1.662-0.73-3.59C40.446,10.303,38.914,5.185,38.98,4.188z M62.443,25.189
	c-0.199,0.467-1.264,1.131-1.795,1.795c-0.532,0.664-0.6,0.664-0.731,1.131c-0.133,0.465-0.133,0.465-0.133,0.465
	s-1.263-0.066-1.196,0.199c0.066,0.265,0.531,0.531,1.462,0.863c0.933,0.332,1.662,0.731,1.796,1.33
	c0.133,0.6,0.398,3.922,0.531,4.452c0.133,0.531,0.665,3.191,0.266,3.324c-0.396,0.133-2.524,0.664-4.119,0.729
	c-1.597,0.064-4.854,0-6.447-0.135c-1.594-0.133-4.786-0.133-6.315-0.396c-1.527-0.269-1.595-0.332-2.857-0.199
	c-1.264,0.133-2.394,0.664-2.261,0.133c0.134-0.53,1.463-4.721,1.861-5.782c0.399-1.063,0-0.996,1.263-1.662
	c1.264-0.664,2.659-1.195,2.858-1.527c0.2-0.332-0.066-0.531-0.797-0.199s-1.795,0.996-2.327,1.195
	c-0.532,0.199-0.997,0.199-1.396-0.266c-0.398-0.468-1.596-1.861-1.794-2.127c-0.199-0.267-1.131-0.933-0.731-1.861
	c0.4-0.93,1.396-4.52,1.729-4.918c0.333-0.397,0.199-1.063,1.264-0.664c1.063,0.398,2.659,0.931,3.124,0.931
	c0.465,0,0.73-0.332,0.133-0.729c-0.598-0.399-1.662-0.666-2.925-0.998c-1.264-0.332-2.127-0.466-2.459-0.864
	c-0.332-0.398-1.063-2.127-1.063-2.127c-0.266-0.532-0.931-1.596-0.266-1.196c0.665,0.398,1.86,2.127,2.592,1.861
	c0.731-0.267,1.196-1.063,1.994-1.596c0.798-0.531,0.798-0.531,1.462,0.398c0.665,0.931,1.064,1.729,1.595,1.131
	c0.532-0.599,1.729-2.194,2.327-1.463c0.598,0.731,2.858,2.593,3.457,2.127c0.599-0.465,2.593-3.058,3.19-2.326
	c0.598,0.732,1.396,2.393,2.191,1.861c0.797-0.532,2.659-2.858,3.124-2.394c0.466,0.466,1.462,1.396,1.462,1.994
	C62.509,18.279,62.643,24.725,62.443,25.189z M52.273,13.493c0.996,0.066,0.664-0.465,0.664-0.798c0-0.332-0.996-0.332-1.728-0.332
	c-0.73,0-0.864,0.133-0.864,0.665C50.345,13.427,51.277,13.427,52.273,13.493z M58.404,14.54c0.3-0.199,0.101-0.598-0.448-0.848
	c-0.548-0.249-0.785,0.096-0.698,0.399C57.458,14.789,58.105,14.739,58.404,14.54z M58.805,13.493
	c0.448-0.05,0.398-0.349,0.198-0.747c-0.198-0.399-0.499-0.399-0.896-0.25c0,0-0.199,0.549-0.149,0.698S58.355,13.543,58.805,13.493
	z M60.549,13.493c0.449,0.05,0.648-0.398,0.648-0.647c0-0.25-0.625-0.572-0.85-0.35C60.05,12.796,60.1,13.443,60.549,13.493z
	 M56.262,19.476c-0.799,0-2.494-0.1-3.738-0.199c-1.248-0.1-0.698,1.396-0.748,2.841c0,0-0.25,4.038-0.102,5.333
	c0.149,1.297,0.649,0.547,2.395,0.697c1.746,0.147,2.793,0.397,3.488,0.35c0.698-0.051,0.648-1.695,0.601-3.041
	c-0.05-1.348,0-3.489,0.1-4.735C58.355,19.476,57.059,19.476,56.262,19.476z M57.159,21.42c-0.03,0.511-0.097,1.237-0.146,1.996
	c-0.057-0.182-0.438-0.315-1.002-0.353c-0.798-0.049-1.744-0.049-2.144-0.1c-0.399-0.049-0.798,0.051-0.798,0.349
	c0,0.547,1.098,0.299,2.095,0.35c0.997,0.049,1.396,0.299,1.745,0c0.05-0.043,0.078-0.084,0.098-0.125
	C56.98,24,56.96,24.471,56.96,24.908c0,1.195,0.351,2.393-0.147,2.393s-1.496-0.199-2.244-0.199s-1.993,0.25-1.993-0.35
	c0-0.598,0.1-5.73,0.1-5.73c0-0.199-0.05-0.599,0.449-0.599s2.792,0.199,3.29,0.199S57.209,20.572,57.159,21.42z M54.518,21.719
	c0.051,0.198,0.549,0.448,1.297,0.548c0.748,0.102,0.748-0.497,0.748-0.497s-0.799-0.599-1.396-0.599S54.479,21.566,54.518,21.719z
	 M54.915,25.158c0.548,0.049,1.097-0.051,1.646-0.201c0.549-0.148-0.199-0.398-0.697-0.398c-0.5,0-1.196-0.147-1.745-0.147
	c-0.55,0-0.698,0.1-0.698,0.35C53.42,25.057,54.367,25.107,54.915,25.158z M54.666,26.9c1.445,0,1.745-0.101,1.844-0.447
	c0.102-0.35-1.693-0.6-2.393-0.6s-1.08,0.282-1.047,0.551C53.121,26.803,53.221,26.9,54.666,26.9z"/>
</symbol>

</defs>

</svg>
