<?xml version="1.0" encoding="utf-8"?>
<!-- Generator: Adobe Illustrator 15.0.0, SVG Export Plug-In  -->
<!DOCTYPE svg PUBLIC "-//W3C//DTD SVG 1.1//EN" "http://www.w3.org/Graphics/SVG/1.1/DTD/svg11.dtd" [
	<!ENTITY ns_flows "http://ns.adobe.com/Flows/1.0/">
]>
<svg version="1.1"
	 xmlns="http://www.w3.org/2000/svg" xmlns:xlink="http://www.w3.org/1999/xlink" xmlns:a="http://ns.adobe.com/AdobeSVGViewerExtensions/3.0/"
	 x="0px" y="0px" width="224px" height="106px" viewBox="0 0 224 106" enable-background="new 0 0 224 106" xml:space="preserve">
<defs>
</defs>
<path fill="#373637" d="M44.928,97.661C24.152,76.964,12.711,49.46,12.711,20.217c0-4.413,0.273-8.889,0.812-13.304l0.154-1.098H0v2
	h11.422c-0.459,4.123-0.703,8.288-0.703,12.402c0,29.401,11.403,57.155,32.108,78.151l0.147,0.147h2.811L44.928,97.661z"/>
<path fill="#373637" d="M178.799,97.661c20.775-20.697,32.217-48.201,32.217-77.444c0-4.413-0.272-8.889-0.812-13.304l-0.154-1.098
	h15.017v2h-12.762c0.459,4.123,0.702,8.288,0.702,12.402c0,29.401-11.403,57.155-32.108,78.151l-0.146,0.147h-2.812L178.799,97.661z
	"/>
<rect x="75.368" y="9.221" fill="none" width="72.989" height="72.991"/>
<path fill="#D7844D" d="M133.207,40.922h5.641c-0.229-2.749-1.134-3.913-1.562-4.323C135.593,34.979,133.744,37.666,133.207,40.922z
	"/>
<path fill="#D7844D" d="M102.184,49.054c0,1.688,0.56,2.729,1.465,2.729c1.451,0,1.919-1.648,2.051-2.355
	c0.076-0.353,0.117-0.729,0.117-1.066v-3.208C102.184,45.625,102.184,48.166,102.184,49.054z"/>
<path fill="#D7844D" d="M155.445,46.64l-5.188-8.187l3.071-9.187c0.421-1.254-0.1-2.628-1.24-3.289l-8.398-4.836l-1.543-9.566
	c-0.211-1.302-1.313-2.275-2.633-2.328l-9.68-0.381l-5.816-7.751c-0.791-1.064-2.219-1.415-3.408-0.841l-8.747,4.163l-8.751-4.163
	c-1.188-0.567-2.616-0.214-3.409,0.841l-5.817,7.751l-9.679,0.381c-1.318,0.053-2.422,1.026-2.627,2.328l-1.546,9.566l-8.395,4.836
	c-1.145,0.661-1.668,2.035-1.248,3.289l3.074,9.187l-5.184,8.187c-0.707,1.113-0.53,2.573,0.422,3.483l6.994,6.706l-0.786,9.651
	c-0.106,1.32,0.727,2.528,1.998,2.899l9.309,2.677l3.79,8.92c0.512,1.213,1.816,1.916,3.109,1.639l9.491-1.948l7.496,6.138
	c0.509,0.414,1.134,0.629,1.76,0.629c0.626,0,1.248-0.215,1.761-0.629l7.495-6.138l9.489,1.948c1.291,0.271,2.599-0.42,3.108-1.639
	l3.792-8.92l9.311-2.677c1.269-0.366,2.101-1.579,1.994-2.899l-0.783-9.651l6.994-6.706
	C155.977,49.213,156.152,47.753,155.445,46.64z M85.846,57.046c-1.995,0-4.051-0.624-5.238-1.595
	c-0.411-0.336-0.571-0.889-0.407-1.389l0.889-2.702c0.122-0.379,0.415-0.681,0.789-0.811c0.372-0.137,0.789-0.083,1.123,0.135
	c0.714,0.463,1.863,0.956,2.935,0.956c1.305,0,2.025-0.701,2.025-1.98c0-1.055-0.167-1.915-2.324-3.368
	c-2.165-1.369-5.082-3.656-5.082-7.445c0-4.29,3.21-7.525,7.474-7.525c1.639,0,3.17,0.439,4.676,1.354
	c0.512,0.307,0.744,0.938,0.545,1.508l-0.929,2.7c-0.129,0.376-0.427,0.675-0.806,0.794c-0.382,0.128-0.795,0.073-1.124-0.152
	c-0.835-0.573-1.506-0.804-2.312-0.804c-1.492,0-1.609,1.231-1.609,1.61c0,0.838,0.1,1.348,2.242,2.813
	c2.216,1.427,5.211,3.822,5.211,7.908C93.928,53.838,90.679,57.046,85.846,57.046z M110.859,56.766c-0.013,0-0.024,0-0.036,0h-3.213
	c-0.539,0-1.01-0.332-1.195-0.815c-1.066,0.776-2.332,1.196-3.7,1.196c-3.82,0-6.594-3.25-6.594-7.72
	c0-5.324,3.722-8.919,9.591-9.422c-0.103-3.016-1.146-3.28-2.299-3.28c-1.092,0-2.1,0.318-3,0.941
	c-0.335,0.228-0.765,0.288-1.144,0.16c-0.385-0.132-0.688-0.439-0.806-0.831l-0.789-2.519c-0.168-0.526,0.026-1.099,0.477-1.422
	c1.206-0.865,3.53-1.732,6.009-1.732c3.518,0,7.715,1.608,7.715,9.253v9.787c0,1.924,0.062,3.468,0.182,4.59
	c0.072,0.157,0.115,0.347,0.115,0.532C112.17,56.205,111.511,56.813,110.859,56.766z M122.87,55.484c0,0.707-0.574,1.279-1.28,1.279
	h-3.589c-0.708,0-1.282-0.572-1.282-1.279V26.872c0-0.706,0.574-1.28,1.282-1.28h3.589c0.706,0,1.28,0.574,1.28,1.28V55.484z
	 M143.471,44.638c-0.054,0.659-0.607,1.18-1.277,1.18h-9.129c0.334,5.83,2.965,5.83,3.996,5.83c1.5,0,2.53-0.375,3.131-0.693
	c0.353-0.187,0.771-0.2,1.127-0.032c0.365,0.163,0.632,0.489,0.719,0.877l0.607,2.609c0.133,0.571-0.136,1.159-0.656,1.427
	c-1.444,0.757-3.58,1.219-5.574,1.219c-5.938,0-9.484-4.718-9.484-12.605c0-7.849,3.586-13.122,8.926-13.122
	c4.682,0,7.713,4.383,7.713,11.164C143.564,43.417,143.518,44.051,143.471,44.638z"/>
</svg>
