<?xml version="1.0" encoding="utf-8"?>
<!-- Generator: Adobe Illustrator 15.0.0, SVG Export Plug-In  -->
<!DOCTYPE svg PUBLIC "-//W3C//DTD SVG 1.1//EN" "http://www.w3.org/Graphics/SVG/1.1/DTD/svg11.dtd" [
	<!ENTITY ns_flows "http://ns.adobe.com/Flows/1.0/">
]>
<svg version="1.1"
	 xmlns="http://www.w3.org/2000/svg" xmlns:xlink="http://www.w3.org/1999/xlink" xmlns:a="http://ns.adobe.com/AdobeSVGViewerExtensions/3.0/"
	 x="0px" y="0px" width="102px" height="57px" viewBox="0 0 102 57" enable-background="new 0 0 102 57" xml:space="preserve">
<defs>
</defs>
<path fill="#373637" d="M20.337,56.227C10.933,46.857,5.753,34.407,5.753,21.169c0-1.998,0.124-4.023,0.368-6.022l0.07-0.497H0
	v0.905h5.17c-0.208,1.866-0.318,3.752-0.318,5.614c0,13.31,5.162,25.873,14.534,35.376l0.066,0.066h1.272L20.337,56.227z"/>
<path fill="#373637" d="M80.994,56.227c9.404-9.369,14.584-21.816,14.584-35.057c0-1.998-0.123-4.023-0.367-6.022l-0.07-0.497h6.799
	v0.905h-5.775c0.208,1.866,0.316,3.752,0.316,5.614c0,13.309-5.162,25.873-14.535,35.376l-0.063,0.065h-1.271L80.994,56.227z"/>
<rect x="32.38" y="9.581" fill="none" width="37.24" height="37.241"/>
<path fill="#373637" d="M61.891,20.881h2.877c-0.115-1.403-0.578-1.996-0.795-2.206C63.105,17.849,62.164,19.219,61.891,20.881z"/>
<path fill="#373637" d="M46.063,25.029c0,0.86,0.286,1.394,0.748,1.394c0.74,0,0.979-0.843,1.046-1.202
	c0.04-0.182,0.061-0.372,0.061-0.542v-1.638C46.063,23.28,46.063,24.577,46.063,25.029z"/>
<path fill="#373637" d="M73.236,23.798l-2.646-4.177l1.566-4.688c0.214-0.639-0.051-1.34-0.633-1.677l-4.285-2.467l-0.787-4.881
	c-0.109-0.665-0.67-1.161-1.344-1.188l-4.938-0.196l-2.97-3.956c-0.401-0.542-1.131-0.722-1.737-0.428L51,2.265l-4.464-2.124
	c-0.606-0.289-1.335-0.109-1.74,0.428l-2.967,3.956L36.89,4.719c-0.672,0.027-1.236,0.522-1.34,1.188l-0.789,4.881l-4.284,2.466
	c-0.585,0.338-0.851,1.038-0.636,1.678l1.568,4.688l-2.645,4.177c-0.361,0.568-0.27,1.313,0.216,1.776l3.569,3.424l-0.4,4.924
	c-0.055,0.674,0.37,1.288,1.019,1.479l4.749,1.367l1.934,4.551c0.26,0.617,0.927,0.977,1.587,0.836l4.842-0.994l3.825,3.13
	c0.26,0.211,0.579,0.323,0.897,0.323s0.637-0.112,0.896-0.323l3.824-3.13l4.844,0.994c0.656,0.136,1.326-0.215,1.582-0.836
	l1.938-4.551l4.75-1.367c0.648-0.188,1.073-0.808,1.021-1.479l-0.403-4.924l3.569-3.424C73.507,25.11,73.598,24.366,73.236,23.798z
	 M37.727,29.105c-1.018,0-2.067-0.315-2.674-0.813c-0.209-0.171-0.291-0.453-0.207-0.71l0.454-1.377
	c0.063-0.195,0.211-0.349,0.402-0.416c0.19-0.07,0.402-0.041,0.573,0.071c0.364,0.236,0.951,0.486,1.497,0.486
	c0.667,0,1.033-0.355,1.033-1.009c0-0.538-0.083-0.976-1.185-1.717c-1.104-0.7-2.594-1.865-2.594-3.799
	c0-2.188,1.639-3.84,3.814-3.84c0.836,0,1.617,0.224,2.385,0.692c0.262,0.156,0.38,0.478,0.278,0.769l-0.474,1.378
	c-0.065,0.191-0.217,0.345-0.411,0.404c-0.195,0.066-0.406,0.038-0.574-0.077c-0.425-0.292-0.768-0.41-1.179-0.41
	c-0.762,0-0.821,0.628-0.821,0.821c0,0.427,0.051,0.688,1.145,1.435c1.13,0.728,2.658,1.95,2.658,4.035
	C41.849,27.469,40.191,29.105,37.727,29.105z M50.487,28.964c-0.006,0-0.011,0-0.018,0h-1.638c-0.276,0-0.516-0.167-0.61-0.417
	c-0.544,0.396-1.19,0.612-1.888,0.612c-1.949,0-3.364-1.66-3.364-3.94c0-2.716,1.898-4.55,4.894-4.806
	c-0.052-1.54-0.585-1.673-1.174-1.673c-0.557,0-1.072,0.162-1.531,0.479c-0.17,0.117-0.39,0.146-0.584,0.081
	c-0.196-0.067-0.351-0.224-0.409-0.424l-0.404-1.285c-0.085-0.269,0.014-0.561,0.243-0.726c0.616-0.443,1.801-0.884,3.065-0.884
	c1.796,0,3.938,0.821,3.938,4.721v4.994c0,0.98,0.032,1.767,0.093,2.341c0.037,0.082,0.059,0.178,0.059,0.271
	C51.158,28.68,50.821,28.991,50.487,28.964z M56.616,28.311c0,0.361-0.294,0.651-0.654,0.651h-1.83c-0.36,0-0.653-0.29-0.653-0.651
	v-14.6c0-0.359,0.293-0.653,0.653-0.653h1.83c0.36,0,0.654,0.293,0.654,0.653V28.311z M67.126,22.777
	c-0.026,0.335-0.312,0.602-0.651,0.602h-4.658c0.172,2.975,1.516,2.975,2.041,2.975c0.766,0,1.291-0.191,1.598-0.354
	c0.182-0.096,0.395-0.102,0.574-0.017c0.188,0.083,0.322,0.249,0.365,0.446l0.312,1.334c0.067,0.291-0.069,0.588-0.335,0.728
	c-0.735,0.386-1.827,0.62-2.844,0.62c-3.026,0-4.84-2.408-4.84-6.43c0-4.005,1.83-6.696,4.558-6.696
	c2.387,0,3.933,2.237,3.933,5.697C67.174,22.154,67.148,22.478,67.126,22.777z"/>
</svg>
