<?xml version="1.0" encoding="utf-8"?>
<!-- Generator: Adobe Illustrator 15.0.0, SVG Export Plug-In . SVG Version: 6.00 Build 0)  -->
<!DOCTYPE svg PUBLIC "-//W3C//DTD SVG 1.1//EN" "http://www.w3.org/Graphics/SVG/1.1/DTD/svg11.dtd">
<svg version="1.1" xmlns="http://www.w3.org/2000/svg" xmlns:xlink="http://www.w3.org/1999/xlink" x="0px" y="0px" width="100px"
	 height="82.667px" viewBox="0 0 100 82.667" style="enable-background:new 0 0 100 82.667;" xml:space="preserve">
	 <?xml-stylesheet type="text/css" href="/css/style.css"?>

<defs>
	<symbol id="windowInfinit">
	<g id="infinityLayer">
	<path class="st7" d="M57.382,37.708c-3.858,0-6.412,3.154-8.665,5.938c-1.925,2.378-3.742,4.625-5.956,4.625c-2.301,0-3.714-2.365-3.714-4.062
		c0-1.571,1.55-3.855,3.979-3.855c2.357,0,3.585,1.886,3.646,1.982c0.383,0.618,1.193,0.813,1.813,0.434
		c0.624-0.38,0.822-1.194,0.442-1.818c-0.081-0.132-2.022-3.244-5.902-3.244c-3.904,0-6.625,3.427-6.625,6.503
		c0,3.172,2.612,6.706,6.36,6.706c3.476,0,5.782-2.85,8.013-5.605c2.063-2.549,4.013-4.957,6.608-4.957
		c1.544,0,2.559,0.523,3.102,1.601c0.471,0.935,0.47,1.991,0.469,2.357c0,0.21-0.11,1.264-0.625,2.212
		c-0.585,1.08-1.417,1.583-2.619,1.583c-2.421,0-3.728-1.573-4.221-2.165c-0.128-0.154-0.22-0.266-0.343-0.371
		c-0.555-0.475-1.39-0.411-1.866,0.145c-0.458,0.535-0.414,1.33,0.087,1.813c0.024,0.027,0.052,0.063,0.087,0.104
		c0.642,0.772,2.593,3.121,6.256,3.121c4.451,0,5.892-4.34,5.892-6.459c0-1.351-0.253-2.537-0.753-3.53
		C62.146,39.37,60.627,37.708,57.382,37.708z"/>
</g>
<g id="arowTopLayer">
	<path class="st7" d="M51.035,24.798l0.001-10.392l4.617,4.618c0.404,0.405,1.061,0.405,1.465,0c0.404-0.405,0.404-1.061,0-1.465l-6.386-6.386
		c-0.404-0.404-1.06-0.404-1.464,0l-6.386,6.386c-0.203,0.202-0.304,0.467-0.304,0.732c0,0.265,0.101,0.53,0.304,0.732
		c0.403,0.404,1.06,0.404,1.464,0l4.618-4.618l0,10.391c0,0.572,0.464,1.036,1.036,1.036C50.572,25.833,51.035,25.37,51.035,24.798z
		"/>
</g>
<g id="arowDownLayer">
	<path class="st7" d="M48.965,61.781l-0.001,10.392l-4.617-4.618c-0.404-0.404-1.061-0.404-1.465,0s-0.404,1.061,0,1.465l6.386,6.386
		c0.404,0.404,1.06,0.404,1.463,0l6.386-6.386c0.203-0.202,0.304-0.467,0.304-0.732c0-0.265-0.101-0.53-0.304-0.732
		c-0.403-0.404-1.06-0.404-1.464,0l-4.618,4.618l0.001-10.391c0-0.572-0.464-1.036-1.036-1.036
		C49.428,60.746,48.965,61.21,48.965,61.781z"/>
</g>
<g id="WindowLayer">
	<path class="st7" d="M0,0v82.667h100V0H0z M93.188,1.75c0.483,0,0.875,0.392,0.875,0.875S93.671,3.5,93.188,3.5
		s-0.875-0.392-0.875-0.875S92.704,1.75,93.188,1.75z M90.125,1.75C90.608,1.75,91,2.142,91,2.625S90.608,3.5,90.125,3.5
		S89.25,3.108,89.25,2.625S89.642,1.75,90.125,1.75z M87.25,1.75c0.483,0,0.875,0.392,0.875,0.875S87.733,3.5,87.25,3.5
		s-0.875-0.392-0.875-0.875S86.767,1.75,87.25,1.75z M1.375,81.292L1.333,6.459h97.334l0.042,74.833H1.375z"/>
</g>
</symbol>
</defs>
</svg>
