<?xml version="1.0" encoding="utf-8"?>
<!-- Generator: Adobe Illustrator 18.0.0, SVG Export Plug-In . SVG Version: 6.00 Build 0)  -->
<!DOCTYPE svg PUBLIC "-//W3C//DTD SVG 1.1//EN" "http://www.w3.org/Graphics/SVG/1.1/DTD/svg11.dtd">
<svg version="1.1" id="Слой_1" xmlns="http://www.w3.org/2000/svg" xmlns:xlink="http://www.w3.org/1999/xlink" x="0px" y="0px"
	 viewBox="0 0 208 180" style="enable-background:new 0 0 208 180;" xml:space="preserve">
<?xml-stylesheet type="text/css" href="/css/style.css"?>
<defs>
	<symbol id="Cam-Net" viewBox="0 0 208 180"> 
<path class="svg_orange_color" d="M166.7,81.5c-0.4-0.4-0.9-0.6-1.5-0.6c-0.9,0-1.7,0.5-1.8,0.6c-0.2,0.2-0.4,0.5-0.3,0.7
	c0.6,4.3-0.6,5.2-1.6,5.8c-0.6,0.4-1.3,0.8-1.4,1.8c-0.1,0.6,0,1,0.3,1.4c0.2,0.2,0.6,0.5,1.2,0.5c0.8,0,1.7-0.4,2.1-0.6
	c0.7-0.1,3.1-1,3.6-5.9C167.5,83.3,167.3,82.2,166.7,81.5z"/>
<path class="svg_orange_color" d="M162.3,82.5c-0.2-0.1-0.6-0.1-0.8,0c0,0-1.1,0.6-3,0.6c-0.4,0-0.7,0-1.1-0.1c-0.4,0-0.7,0.2-0.8,0.6
	c-0.5,1.8-1.6,4.3-2.6,4.3c-0.4,0-0.9-0.5-1.5-1.3c-0.2-0.3-0.5-0.4-0.9-0.3s-0.6,0.4-0.6,0.7c0,2,0.7,5.3,3.5,5.3
	c1.3,0,2.9-0.8,4.8-2.5c1.3-1.2,3.3-4.2,3.3-6.7C162.7,82.9,162.6,82.6,162.3,82.5z"/>
<path class="svg_orange_color" d="M112,59.3c0.3,0.2,33.2,17.6,40.7,21.6c2.4,1.2,4.5,1.9,6.3,1.9c3.3,0,4.6-2.1,4.6-2.2c0.1-0.2,0.1-0.4,0.1-0.6
	c0-0.2-0.2-0.4-0.4-0.5l-49.1-26.3c-0.2-0.1-0.5-0.1-0.7,0l-2.6,1.5c-1.1,0.6-1.3,1.4-1.3,1.9C109.6,58,111.6,59.1,112,59.3z"/>
<path class="svg_orange_color" d="M153,82.9c0.2-0.2,0.3-0.4,0.2-0.7c0-0.2-0.2-0.5-0.4-0.6l-40.4-21.8c-0.4-0.2-0.8-0.1-1,0.3l-1.4,2.5
	c-0.2,0.3-0.1,0.8,0.2,1c4.8,3.6,4.7,8.2,4.7,8.3c0,0.3,0.1,0.6,0.4,0.7l33.8,17.9c0.1,0.1,0.2,0.1,0.4,0.1c0.2,0,0.4-0.1,0.5-0.2
	c0.2-0.2,0.3-0.5,0.2-0.8C149.3,86.5,153,82.9,153,82.9z"/>
<path class="svg_orange_color" d="M134.8,84.3c0-0.3-0.1-0.6-0.4-0.7l-11.4-6.2c-0.3-0.2-0.7-0.1-1,0.2c-0.1,0.1-2.6,3.3-2.1,6.8
	c0.2,1.9,1.3,3.5,3.1,4.9c1.3,1,2.7,1.5,4,1.5C131.5,90.7,134.7,85.6,134.8,84.3z M126.8,87.4c-1.5,0-2.7-1.2-2.7-2.7
	c0-1.5,1.2-2.7,2.7-2.7c1.5,0,2.7,1.2,2.7,2.7C129.4,86.2,128.2,87.4,126.8,87.4z"/>
<circle class="svg_orange_color" cx="126.8" cy="84.7" r="1.1"/>
<path class="svg_orange_color" d="M129.4,91.7c0-0.4-0.3-0.8-0.8-0.8h-3.8c-0.3,0-0.6,0.2-0.7,0.5c-0.1,0.2-1.6,3.8-6.8,3.8h-11.9v-2.7
	c0-0.4-0.3-0.8-0.8-0.8l-3.6-0.1c-0.2,0-0.4,0.1-0.6,0.2c-0.1,0.1-0.2,0.3-0.2,0.6v3.4c-0.1-0.2-0.2-0.3-0.4-0.5V90
	c0-0.4-0.3-0.8-0.8-0.8h-4.3c-0.4,0-0.8,0.3-0.8,0.8v1.1c-1.5-0.5-3.1-0.9-4.7-0.9c-3.8,0-7.5,1.6-10.1,4.5l2.9,2.6
	c1.8-2,4.5-3.2,7.2-3.2c5.4,0,9.8,4.4,9.8,9.8c0,1.3-0.2,2.5-0.7,3.7l3.6,1.5c0.7-1.6,1-3.4,1-5.2c0-0.4,0-0.9-0.1-1.3h1.9
	c0.2,0,0.4-0.1,0.6-0.2c0.1-0.1,0.2-0.3,0.2-0.6l0-1.8l12.3,0C123.2,100,129.4,97.8,129.4,91.7z"/>
<path class="svg_orange_color" d="M156.2,94.4c-0.5,0.3-1.1,0.5-1.7,0.5c-0.3,0.1-0.5,0.1-0.8,0c0,0,0,0,0,0c-0.1,0-0.3,0-0.4-0.1l-11-5.8
	c0.3,0.3,0.7,0.6,1,0.9c0.6,0.5,1.2,1,1.8,1.5c0.3,0.2,0.5,0.5,0.8,0.7c0,0,0,0,0.1,0c0,0,0.1,0,0.1,0c0.3,0.2,0.5,0.4,0.7,0.6
	c0.2,0.1,0.4,0.3,0.5,0.5c0,0,0,0,0.1,0.1c3.2,2.9,5.2,7.1,5.2,11.7c-0.1,8.4-7,15.2-15.4,15.2h-0.3l-70.8,0.3
	c-10.5-0.2-18.9-8.9-18.8-19.4c0.2-10.4,8.7-18.8,19.1-18.8l0.3,0c2.5,0,4.9,0.6,7.2,1.5l3.2,1.3l1.2-3.2
	c3.8-10.4,13.8-17.5,24.9-17.5l0.4,0c2.4,0,4.7,0.4,6.8,1c0.1,0,0.1,0,0.2,0c0,0,0,0,0,0c0,0,0-0.1,0-0.1c-0.5-0.5-1-0.9-1.5-1.3
	c-0.1-0.1-0.2-0.3-0.3-0.4c-0.1-0.1-0.2-0.2-0.3-0.3c0,0-0.1-0.1-0.1-0.2c0,0-0.1-0.1-0.1-0.1c0,0,0,0-0.1-0.1l0,0c0,0,0,0-0.1-0.1
	c-0.2-0.2-0.2-0.6,0-0.8l1.4-2.6c0,0,0.1-0.1,0.1-0.1c0,0,0,0,0,0c0,0,0,0,0,0c0,0,0,0,0,0c0,0,0,0,0,0c0.1-0.2,0.2-0.3,0.3-0.5
	v-0.1c0,0,0,0,0,0c-2-0.4-4.1-0.7-6.2-0.7l-0.5,0c-12.7,0-24.3,7.4-29.8,18.8c-2.1-0.6-4.3-0.9-6.5-1l-0.4,0
	c-13.9,0-25.4,11.3-25.6,25.2c-0.2,14.1,11.1,25.8,25.2,26h0l70.8-0.3h0.4c11.9,0,21.7-9.7,21.9-21.6c0-3.3-0.7-6.5-2-9.4
	C156.7,95.3,156.4,94.9,156.2,94.4z"/>
	</symbol>

	<symbol id="Xbox-world" viewBox="0 0 208 180">
	<path class="svg_orange_color" d="M83.7,59.6C83.7,59.7,83.7,59.7,83.7,59.6c0.1-0.1,0.4-0.4,0.6-0.5c5.7-3.7,12.3-5.7,19.7-5.7
		c6.9,0,13.3,1.9,18.8,5.2c0.4,0.2,1.5,1,2,1.7v0C119.5,54.4,104,67,104,67c-5.4-4.2-10.3-7-14-8C86.9,58.1,84.7,58.8,83.7,59.6z
		 M130.8,65.1c-0.2-0.2-0.3-0.3-0.5-0.5c-1.3-1.5-3-1.8-4.5-1.7c-1.4,0.4-7.6,2.7-15.3,9.9c0,0,8.7,8.4,14,17
		c5.3,8.6,8.5,15.4,6.5,24.8c5.9-6.5,9.5-15.1,9.5-24.6C140.6,80.4,136.9,71.7,130.8,65.1z M117.6,93.5c-2.3-2.6-5.8-6.4-10.5-11
		c-1-1-2.1-2.1-3.2-3.1c0,0-1.7,1.7-3.9,3.9v0c-2.8,2.8-6.5,6.5-8.5,8.7c-3.6,3.8-13.9,15.9-14.5,22.7c0,0-2.3-5.4,2.7-17.7
		c3.3-8.1,13.2-20.2,17.4-24.2c0,0-3.8-4.2-8.6-7.1l0,0c0,0-0.1,0-0.1-0.1c-2.3-1.4-4.8-2.4-7.2-2.6c-2.5,0.2-4,2-4,2
		c-6.1,6.5-9.9,15.3-9.9,25c0,20.2,16.4,36.6,36.6,36.6c10.7,0,20.4-4.6,27.1-12c0,0-0.8-4.8-5.7-11.8
		C124.2,101.2,120,96.2,117.6,93.5z"/>
	</symbol>
	<symbol id="Xbox-world-social" viewBox="0 0 50 43.3">
	<path class="svg_orange_color" d="M29.5,21c0.3-0.3,0.7-0.5,0.8-0.6l0.2-0.1l0.5,0l0.1,0c0,0,0.4,0.1,0.8,0.2l0.3,0.1c0.4,0.1,0.8,0.3,1,0.6
		c0.6,0.7,0.5,1.5,0.4,2c0,0,0,0.1,0,0.1c0.1-0.5,0.1-1,0.1-1.6c0-2.3-0.9-4.4-2.3-6c0,0-0.1-0.1-0.1-0.1c-0.3-0.4-0.7-0.4-1.1-0.4
		c-0.3,0.1-1.8,0.6-3.7,2.4C26.6,17.5,28.3,19.1,29.5,21z"/>
	<path class="svg_orange_color" d="M32.9,25.5C32.9,25.5,32.9,25.5,32.9,25.5C32.9,25.5,32.9,25.5,32.9,25.5C32.9,25.5,32.9,25.5,32.9,25.5z"/>
	<path class="svg_orange_color" d="M21.7,14.2c0.9,0.2,2.1,0.9,3.4,1.9c0,0,3.7-3,5-1.6c-0.1-0.2-0.4-0.4-0.5-0.4c-1.3-0.8-2.9-1.3-4.5-1.3
		c-1.8,0-3.4,0.5-4.7,1.4c0,0-0.1,0.1-0.1,0.1C20.4,14.1,20.9,14,21.7,14.2z"/>
	<path class="svg_orange_color" d="M26.9,30L26.9,30l0-0.1c0-0.2,0.1-2.2,0.8-3.2l0.1-0.1c0.1-0.1,0.3-0.3,0.7-0.5c0.5-0.2,0.9-0.3,1.1-0.5
		c0-0.1,0.1-0.1,0.1-0.2c-0.2-0.3-0.4-0.7-0.5-1.1C29.1,24.3,29,24.1,29,24c-0.1-0.4-0.1-0.6,0-0.8c-0.2-0.3-0.5-0.5-0.7-0.8
		c-0.6-0.6-1.4-1.5-2.5-2.6c-0.2-0.2-0.5-0.5-0.8-0.7c0,0-0.4,0.4-0.9,0.9c-0.7,0.7-1.6,1.6-2,2.1c-0.9,0.9-3.3,3.8-3.5,5.5
		c0,0-0.6-1.3,0.6-4.3c0.8-1.9,3.2-4.9,4.2-5.8c0,0-0.9-1-2.1-1.7c0,0,0,0,0,0c-0.6-0.3-1.2-0.6-1.7-0.6c-0.6,0-1,0.5-1,0.5
		c-1.5,1.6-2.4,3.7-2.4,6c0,4.9,3.9,8.8,8.8,8.8c0.7,0,1.3-0.1,1.9-0.2C26.9,30.1,26.9,30.1,26.9,30z"/>
			<path class="svg_orange_color" d="M30.1,25.8L30.1,25.8L30.1,25.8c0.4,0.3,0.8,0.5,1.2,0.5s0.8-0.2,1.1-0.4l0,0l0.1,0c0,0,0.2,0.1,0.2,0.2
				l0.1,0l0,0h0c0,0,0.1,0.1,0.2,0.1c0.1,0,0.1,0,0.2,0.1c0,0,0.4,0.1,0.8,0.3h0.1c0.4,0.1,0.5,0.4,0.5,0.4c0.6,0.9,0.7,2.7,0.7,3
				c0,0.3-0.1,0.4-0.1,0.4C33.9,30.9,32,31,31.6,31l0,0l0,0h0l0,0l0,0c-0.1,0-0.2,0-0.3,0h0c-0.2,0-2.4-0.1-3.7-0.8
				c0,0-0.1-0.1-0.1-0.4c0,0,0.1-2.1,0.7-3c0,0,0.2-0.2,0.5-0.4c0.3-0.1,1-0.3,1.4-0.6l0,0C29.9,25.9,30,25.8,30.1,25.8z M29.5,23.3
				L29.5,23.3c0,0,0.1-0.1,0.1-0.2c-0.1-0.8,0-1.1,0-1.2c0.2-0.7,0.9-1,1.1-1.1c0,0,0.1,0,0.1,0l0,0h0.1l0,0h0c0,0,0,0,0.1,0h0
				c0,0,0.3,0,0.7,0.2l0.3,0.1c0.5,0.2,0.8,0.4,0.8,0.5c0.4,0.5,0.3,1.2,0.2,1.6c0,0,0,0.1,0,0.1l0,0c0,0,0,0.2,0,0.5
				c0,0.1,0,0.2-0.1,0.3c0,0,0,0,0,0.1C32.8,25,32,26,31.2,26c-0.7,0-1.5-0.9-1.6-1.8c0,0,0,0,0-0.1c0,0-0.1-0.1-0.1-0.3
				C29.4,23.6,29.4,23.4,29.5,23.3z"/>
	</symbol>
</defs>

</svg>
