<?xml version="1.0" encoding="utf-8"?>
<!-- Generator: Adobe Illustrator 18.0.0, SVG Export Plug-In . SVG Version: 6.00 Build 0)  -->
<!DOCTYPE svg PUBLIC "-//W3C//DTD SVG 1.1//EN" "http://www.w3.org/Graphics/SVG/1.1/DTD/svg11.dtd">
<svg version="1.1" id="Visit" xmlns="http://www.w3.org/2000/svg" xmlns:xlink="http://www.w3.org/1999/xlink" x="0px" y="0px"
	 viewBox="200 220.5 100 50" style="enable-background:new 200 220.5 100 50;" xml:space="preserve">
	 <?xml-stylesheet type="text/css" href="/css/style.css"?>
<defs>
	<symbol id="Visit-site" viewBox="200 220.5 100 50">
		<path d="M242.9,243.7c2.6,1.1,6.7,1.3,6.7,1.3c0.1,0,0.2,0,0.3,0v0c0,0,0,0,0,0s0,0,0,0v0c0.1,0,0.2,0,0.3,0c0,0,4.1-0.2,6.7-1.3
		c0,0,0.4-0.1,0.4-0.9c0,0-0.1-3.6-1.3-5.2c0,0-0.3-0.4-1.1-0.7c0,0-2.6-0.8-2.8-1.4c0,0-0.9,2.2-2.2,2.1c-1.3,0-2.2-2.1-2.2-2.1
		c-0.2,0.7-2.8,1.4-2.8,1.4c-0.8,0.3-1.1,0.7-1.1,0.7c-1.1,1.6-1.3,5.2-1.3,5.2C242.5,243.6,242.9,243.7,242.9,243.7z"/>
	<path d="M247,232.9c0.2,1.6,1.6,3.2,2.9,3.2c1.5,0,2.8-1.7,3.1-3.2c0.1-0.1,0.2-0.2,0.3-0.5c0,0,0.3-1.1-0.1-0.9
		c0.1-0.4,0.6-2-0.3-3c0,0-0.4-0.6-1.5-0.9c0,0-0.1-0.1-0.1-0.1c0,0,0,0,0.1,0.1c-0.1,0-0.1,0-0.2,0c-0.1-0.1-0.1-0.1-0.2-0.2
		c0,0,0.1,0.1,0.1,0.2c0,0-0.1,0-0.1,0c0-0.1-0.1-0.1-0.2-0.2c0,0,0,0.1,0.1,0.1c-0.2-0.1-0.6-0.4-0.6-0.8c0,0-0.2,0.1-0.4,0.3
		c-0.1-0.1,0-0.2,0-0.2c-0.1,0.1-0.4,0.3-0.5,0.6l-0.1-0.1c-0.2-0.2-0.5,0-0.5,0s-1.5,0.6-2,2c0,0-0.3,0.6,0.1,2.3
		c-0.5-0.2-0.2,0.9-0.2,0.9C246.8,232.7,246.9,232.8,247,232.9z"/>
	<rect x="239.6" y="248.8" width="20.8" height="1.7"/>
	<rect x="239.6" y="252.3" width="20.8" height="1.7"/>
	<path d="M264.6,258.1h-29.2v-36.6h29.2V258.1z M236.3,257.3h27.4v-35h-27.4V257.3z"/>

<path class="svg_light_grey" d="M279.1,262.1c9.4-9.4,14.6-21.8,14.6-35.1c0-2-0.1-4-0.4-6l-0.1-0.5h6.8v0.9h-5.8c0.2,1.9,0.3,3.8,0.3,5.6
	c0,13.3-5.2,25.9-14.5,35.4l-0.1,0.1h-1.3L279.1,262.1z"/>
<path class="svg_light_grey" d="M221.3,262.4h-1.3l-0.1-0.1c-9.4-9.5-14.5-22.1-14.5-35.4c0-1.9,0.1-3.7,0.3-5.6H200v-0.9h6.8l-0.1,0.5c-0.2,2-0.4,4-0.4,6
	c0,13.2,5.2,25.7,14.6,35.1L221.3,262.4z"/>
	</symbol>

	<symbol  id="Corp-site" viewBox="200 220.5 100 50">
<path class="svg_light_grey" d="M279.1,262.1c9.4-9.4,14.6-21.8,14.6-35.1c0-2-0.1-4-0.4-6l-0.1-0.5h6.8v0.9h-5.8
	c0.2,1.9,0.3,3.8,0.3,5.6c0,13.3-5.2,25.9-14.5,35.4l-0.1,0.1h-1.3L279.1,262.1z"/>
<path class="svg_light_grey" d="M221.3,262.4h-1.3l-0.1-0.1c-9.4-9.5-14.5-22.1-14.5-35.4c0-1.9,0.1-3.7,0.3-5.6H200v-0.9h6.8l-0.1,0.5
	c-0.2,2-0.4,4-0.4,6c0,13.2,5.2,25.7,14.6,35.1L221.3,262.4z"/>
	<path d="M251.7,228.9c1,0,1.7-0.7,1.8-1.7l0.5-4.1c0-0.9-0.8-1.7-1.8-1.7h-4.4c-1,0-1.8,0.8-1.8,1.7l0.5,4.1
		c0.1,1.1,0.8,1.7,1.8,1.7c0.8,0,0.9-0.2,1.8-0.2C251,228.6,251.2,228.9,251.7,228.9"/>
	<polygon points="253.9,240 245.3,244.5 245.1,246 254.1,241.2 	"/>
	<polygon points="253.1,234.9 246.4,238.4 245.5,243.8 253.8,239.4 	"/>
	<polygon points="246.5,237.7 252.9,234.2 252.8,233.2 246.7,236.4 	"/>
	<path d="M244.5,251.9l1,1.2l9.7-5.1l-0.9-5.4l-9.5,5l-0.3,1.9C244.5,249.8,243.9,251.2,244.5,251.9"/>
	<path d="M247.4,255.4l1.9,2.2c0.6,0.7,0.8,0.7,1.4,0l4.8-5.7c0.2-0.3,0.3-0.6,0.3-0.9L247.4,255.4z"/>
	<path d="M252.5,231.8l-0.3-2c-0.6-0.7-3.8-0.7-4.4,0l-0.8,5L252.5,231.8z"/>
	<path d="M255.5,249.4l0-0.1l-9.1,4.8l0.7,0.8l8.7-4.6C255.6,249.9,255.5,249.6,255.5,249.4"/>
	<path d="M236.6,232.1c0.7,0,1.2-0.5,1.3-1.2l0.4-2.9c0-0.7-0.6-1.2-1.3-1.2h-3.1c-0.7,0-1.3,0.5-1.3,1.2l0.4,2.9
		c0.1,0.8,0.6,1.2,1.3,1.2c0.5,0,0.7-0.2,1.3-0.2C236.1,231.9,236.2,232.1,236.6,232.1"/>
	<polygon points="238.2,239.9 232.1,243.1 232,244.1 238.3,240.8 	"/>
	<polygon points="237.6,236.3 232.9,238.8 232.2,242.6 238.1,239.5 	"/>
	<polygon points="233,238.3 237.5,235.9 237.4,235.1 233.1,237.4 	"/>
	<path d="M231.6,248.3l0.7,0.8l6.8-3.6l-0.6-3.8l-6.7,3.5l-0.2,1.3C231.5,246.8,231.1,247.8,231.6,248.3"/>
	<path d="M233.6,250.7l1.3,1.5c0.5,0.5,0.5,0.5,1,0l3.3-4c0.2-0.2,0.2-0.4,0.2-0.7L233.6,250.7z"/>
	<path d="M237.2,234.2l-0.2-1.4c-0.5-0.5-2.7-0.5-3.1,0l-0.6,3.5L237.2,234.2z"/>
	<path d="M239.3,246.5l0-0.1l-6.4,3.4l0.5,0.6l6.1-3.2C239.4,246.9,239.3,246.7,239.3,246.5"/>
	<path d="M265.8,232.3c0.7,0,1.2-0.5,1.3-1.2l0.4-2.9c0-0.7-0.6-1.2-1.3-1.2H263c-0.7,0-1.3,0.5-1.3,1.2l0.4,2.9
		c0.1,0.8,0.6,1.2,1.3,1.2c0.5,0,0.7-0.2,1.3-0.2C265.3,232.1,265.4,232.3,265.8,232.3"/>
	<polygon points="267.3,240.1 261.3,243.3 261.1,244.3 267.5,241 	"/>
	<polygon points="266.7,236.5 262,239 261.4,242.7 267.2,239.7 	"/>
	<polygon points="262.1,238.5 266.6,236.1 266.5,235.3 262.3,237.5 	"/>
	<path d="M260.7,248.5l0.7,0.8l6.8-3.6l-0.6-3.8l-6.7,3.5l-0.2,1.3C260.7,247,260.3,248,260.7,248.5"/>
	<path d="M262.8,250.9l1.3,1.5c0.5,0.5,0.5,0.5,1,0l3.3-4c0.2-0.2,0.2-0.4,0.2-0.7L262.8,250.9z"/>
	<path d="M266.4,234.4l-0.2-1.4c-0.5-0.5-2.7-0.5-3.1,0l-0.6,3.5L266.4,234.4z"/>
	<path d="M268.4,246.7l0-0.1L262,250l0.5,0.6l6.1-3.2C268.5,247.1,268.4,246.8,268.4,246.7"/>
	</symbol>

	<symbol id="Market-site" viewBox="200 220.5 100 50">
		<path class="svg_light_grey" d="M279.1,262.1c9.4-9.4,14.6-21.8,14.6-35.1c0-2-0.1-4-0.4-6l-0.1-0.5h6.8v0.9h-5.8
	c0.2,1.9,0.3,3.8,0.3,5.6c0,13.3-5.2,25.9-14.5,35.4l-0.1,0.1h-1.3L279.1,262.1z"/>
<path class="svg_light_grey" d="M221.3,262.4h-1.3l-0.1-0.1c-9.4-9.5-14.5-22.1-14.5-35.4c0-1.9,0.1-3.7,0.3-5.6H200v-0.9h6.8l-0.1,0.5
	c-0.2,2-0.4,4-0.4,6c0,13.2,5.2,25.7,14.6,35.1L221.3,262.4z"/>
	<path d="M260.2,256.2h-20.3c-1.4,0-2.6-0.9-2.8-2.2l-3.1-12.9h-0.8c-1,0-1.7-0.7-1.7-1.7v-3.2c0-0.9,0.8-1.7,1.7-1.7h3.6l11.7-11.2
		c0.9-0.8,2.4-0.8,3.3,0l11.7,11.2h3.6c1,0,1.7,0.7,1.7,1.7v3.2c0,0.9-0.8,1.7-1.7,1.7h-0.8L263,254
		C262.7,255.3,261.5,256.2,260.2,256.2z M233.1,235.7c-0.3,0-0.5,0.2-0.5,0.5v3.2c0,0.3,0.2,0.5,0.5,0.5h1.3c0.3,0,0.5,0.2,0.6,0.5
		l3.2,13.4c0.2,0.8,0.8,1.3,1.6,1.3h20.3c0.8,0,1.5-0.5,1.6-1.3l3.2-13.4c0.1-0.3,0.3-0.5,0.6-0.5h1.3c0.3,0,0.5-0.2,0.5-0.5v-3.2
		c0-0.3-0.2-0.5-0.5-0.5h-3.8c-0.2,0-0.3-0.1-0.5-0.2l0-0.1l-11.8-11.3c-0.4-0.4-1.1-0.4-1.5,0l-11.8,11.3c-0.1,0.1-0.3,0.2-0.5,0.2
		H233.1z M256.7,250.6h-13.6c-0.3,0-0.6-0.3-0.6-0.6s0.3-0.6,0.6-0.6h13.6c0.3,0,0.6,0.3,0.6,0.6S257.1,250.6,256.7,250.6z
		 M258.6,246.5h-17.3c-0.3,0-0.6-0.3-0.6-0.6s0.3-0.6,0.6-0.6h17.3c0.3,0,0.6,0.3,0.6,0.6S258.9,246.5,258.6,246.5z M259.2,242.3
		h-19.7c-0.3,0-0.6-0.3-0.6-0.6c0-0.3,0.3-0.6,0.6-0.6h19.7c0.3,0,0.6,0.3,0.6,0.6C259.8,242.1,259.5,242.3,259.2,242.3z
		 M258.3,235.7h-16.6c-0.2,0-0.5-0.1-0.6-0.4c-0.1-0.2,0-0.5,0.1-0.6l8.3-8c0.2-0.2,0.6-0.2,0.9,0l8.3,8c0.2,0.2,0.2,0.4,0.1,0.6
		C258.8,235.6,258.6,235.7,258.3,235.7z M243.2,234.5h13.7L250,228L243.2,234.5z"/>
	</symbol>
</defs>

</svg>
