<?xml version="1.0" encoding="utf-8"?>
<!-- Generator: Adobe Illustrator 15.0.0, SVG Export Plug-In  -->
<!DOCTYPE svg PUBLIC "-//W3C//DTD SVG 1.1//EN" "http://www.w3.org/Graphics/SVG/1.1/DTD/svg11.dtd" [
	<!ENTITY ns_flows "http://ns.adobe.com/Flows/1.0/">
]>
<svg version="1.1"
	 xmlns="http://www.w3.org/2000/svg" xmlns:xlink="http://www.w3.org/1999/xlink" xmlns:a="http://ns.adobe.com/AdobeSVGViewerExtensions/3.0/"
	 x="0px" y="0px" width="100px" height="100px" viewBox="-9.816 0 100 100" style="enable-background:new -9.816 0 100 100;"
	 xml:space="preserve">

	 <?xml-stylesheet type="text/css" href="/css/style.css"?>
<defs>
	<symbol id="roll">
	<path class="st1" d="M15.434,65.125L40.3,50.262l-0.038-29.26c-5.742-0.038-11.508,1.612-16.516,5.113
	C10.757,35.192,6.384,51.697,15.434,65.125z"/>
<path class="st1" d="M64.672,64.502L40.047,49.79l0.045-28.973c5.687-0.039,11.396,1.593,16.356,5.059
	C69.31,34.861,73.637,51.203,64.672,64.502z"/>
<path class="st1" d="M15.434,65.125l24.668-14.874l25.271,14.173c-2.74,4.982-6.834,9.425-12.396,11.811
	C38.59,82.406,23.902,78.125,15.434,65.125z"/>
<path class="st2" d="M40.184,20.482c-16.276,0-29.518,13.242-29.518,29.518c0,16.276,13.242,29.518,29.518,29.518
	C56.459,79.518,69.7,66.276,69.7,50C69.7,33.724,56.459,20.482,40.184,20.482z M68.7,50c0,5.083-1.343,9.855-3.684,13.993
	l-24.333-14.25V21.495C56.177,21.764,68.7,34.443,68.7,50z M39.684,21.495v28.248L15.584,64.4c-2.485-4.23-3.918-9.149-3.918-14.4
	C11.666,34.443,24.189,21.764,39.684,21.495z M40.184,78.518c-10.118,0-19.016-5.301-24.079-13.268l24.079-14.635l24.332,14.24
	C59.498,73.043,50.469,78.518,40.184,78.518z"/>
<path class="roll_anim" d="M40.184,90.185c-10.525,0-20.479-4.049-28.027-11.4l-0.424-0.413l2.184-1.595c0.854-0.624,1.413-1.542,1.576-2.585
	c0.163-1.044-0.091-2.089-0.714-2.941l-3.137-4.297C10.9,65.937,9.705,65.33,8.444,65.33c-0.841,0-1.646,0.263-2.329,0.761
	l-2.063,1.508L3.794,67.05C1.277,61.685,0,55.948,0,50c0-19.442,13.87-36.066,32.979-39.527l0.589-0.106v2.61
	c0,2.181,1.774,3.955,3.955,3.955h5.321c2.181,0,3.955-1.774,3.955-3.955v-2.61l0.589,0.106C66.497,13.935,80.367,30.558,80.367,50
	c0,5.891-1.254,11.577-3.729,16.903l-0.258,0.555l-1.839-1.357c-0.686-0.506-1.496-0.773-2.346-0.773
	c-1.252,0-2.443,0.601-3.186,1.605l-3.161,4.279c-1.295,1.754-0.922,4.235,0.832,5.53l2.061,1.522l-0.418,0.41
	C60.763,86.097,50.77,90.185,40.184,90.185z M13.282,78.478c7.307,6.909,16.836,10.707,26.902,10.707
	c10.125,0,19.697-3.836,27.017-10.815l-1.113-0.822c-2.197-1.623-2.665-4.731-1.043-6.929l3.161-4.279
	c0.931-1.26,2.422-2.012,3.99-2.012c1.065,0,2.081,0.335,2.939,0.969l0.851,0.628c2.243-5.031,3.381-10.386,3.381-15.924
	c0-18.758-13.239-34.825-31.568-38.432v1.408c0,2.732-2.223,4.955-4.955,4.955h-5.321c-2.732,0-4.955-2.223-4.955-4.955v-1.408
	C14.239,15.175,1,31.242,1,50c0,5.597,1.159,11.001,3.446,16.072l1.08-0.788C6.38,64.66,7.39,64.33,8.444,64.33
	c1.578,0,3.076,0.76,4.005,2.033l3.137,4.297c0.781,1.068,1.098,2.377,0.894,3.685c-0.204,1.309-0.905,2.458-1.974,3.239
	L13.282,78.478z"/>
<path class="button_anim" d="M46.314,0v11.511c0,2.616-1.63,4.745-3.634,4.745h-4.994c-2.004,0-3.634-2.128-3.634-4.745V0 M35.053,0v11.511
	c0,2.065,1.182,3.745,2.634,3.745h4.994c1.452,0,2.634-1.68,2.634-3.745V0"/>
</symbol>
</defs>

</svg>
