<?xml version="1.0" encoding="utf-8"?>
<!-- Generator: Adobe Illustrator 15.0.0, SVG Export Plug-In  -->
<!DOCTYPE svg PUBLIC "-//W3C//DTD SVG 1.1//EN" "http://www.w3.org/Graphics/SVG/1.1/DTD/svg11.dtd" [
	<!ENTITY ns_flows "http://ns.adobe.com/Flows/1.0/">
]>
<svg version="1.1"
	 xmlns="http://www.w3.org/2000/svg" xmlns:xlink="http://www.w3.org/1999/xlink" xmlns:a="http://ns.adobe.com/AdobeSVGViewerExtensions/3.0/"
	 x="0px" y="0px" width="676px" height="106px" viewBox="-226.6 -0.001 676 106" enable-background="new -226.6 -0.001 676 106"
	 xml:space="preserve">
<defs>
</defs>
<path fill="#363436" d="M341.535,20.003c2.715,0,4.518-1.896,4.918-4.549l1.363-10.905c0-2.513-2.2-4.549-4.915-4.549H331.11
	c-2.715,0-4.917,2.037-4.917,4.549l1.366,10.905c0.341,2.97,2.201,4.549,4.916,4.549c2.085,0,2.541-0.632,4.816-0.632
	C339.739,19.371,340.145,20.003,341.535,20.003"/>
<polygon fill="#363436" points="347.512,49.977 324.478,62.162 323.834,66.024 348.053,53.213 "/>
<polygon fill="#363436" points="345.221,36.224 327.212,45.75 324.828,60.063 347.221,48.217 "/>
<polygon fill="#363436" points="327.563,43.65 344.926,34.465 344.439,31.537 328.145,40.158 "/>
<path fill="#363436" d="M322.304,81.996l2.623,3.117l26.138-13.826l-2.427-14.558l-25.504,13.494l-0.83,4.977
	C322.099,76.213,320.575,80.118,322.304,81.996"/>
<path fill="#363436" d="M330.125,91.293l4.984,5.926c1.73,1.874,2.074,1.874,3.806,0l12.803-15.223
	c0.634-0.688,0.824-1.604,0.806-2.554L330.125,91.293z"/>
<path fill="#363436" d="M343.854,28.02l-0.903-5.416c-1.729-1.877-10.148-1.877-11.88,0l-2.226,13.354L343.854,28.02z"/>
<path fill="#363436" d="M351.717,75.199l-0.065-0.396l-24.495,12.959l1.854,2.204l23.281-12.317
	C352.078,76.64,351.783,75.737,351.717,75.199"/>
<path fill="#363436" d="M297.315,24.101c1.924,0,3.201-1.343,3.484-3.224l0.967-7.729c0-1.781-1.559-3.224-3.482-3.224h-8.355
	c-1.925,0-3.485,1.443-3.485,3.224l0.969,7.729c0.241,2.105,1.56,3.224,3.483,3.224c1.479,0,1.801-0.448,3.413-0.448
	C296.043,23.653,296.331,24.101,297.315,24.101"/>
<polygon fill="#363436" points="301.551,45.344 285.228,53.979 284.771,56.716 301.935,47.637 "/>
<polygon fill="#363436" points="299.927,35.597 287.167,42.348 285.476,52.491 301.344,44.096 "/>
<polygon fill="#363436" points="287.415,40.859 299.719,34.35 299.375,32.275 287.826,38.385 "/>
<path fill="#363436" d="M283.687,68.034l1.859,2.211l18.523-9.801l-1.72-10.315l-18.074,9.563l-0.589,3.525
	C283.542,63.937,282.462,66.704,283.687,68.034"/>
<path fill="#363436" d="M289.229,74.623l3.532,4.2c1.227,1.326,1.47,1.326,2.696,0l9.073-10.789c0.448-0.486,0.583-1.137,0.57-1.809
	L289.229,74.623z"/>
<path fill="#363436" d="M298.959,29.783l-0.641-3.838c-1.226-1.331-7.191-1.331-8.418,0l-1.578,9.464L298.959,29.783z"/>
<path fill="#363436" d="M304.531,63.218l-0.047-0.279l-17.358,9.184l1.313,1.563l16.499-8.729
	C304.788,64.239,304.579,63.601,304.531,63.218"/>
<path fill="#363436" d="M384.963,24.572c1.924,0,3.201-1.343,3.484-3.224l0.967-7.729c0-1.781-1.56-3.224-3.482-3.224h-8.355
	c-1.924,0-3.484,1.443-3.484,3.224l0.97,7.729c0.241,2.105,1.56,3.224,3.483,3.224c1.478,0,1.801-0.448,3.412-0.448
	C383.691,24.124,383.979,24.572,384.963,24.572"/>
<polygon fill="#363436" points="389.2,45.814 372.877,54.451 372.42,57.187 389.582,48.107 "/>
<polygon fill="#363436" points="387.576,36.068 374.814,42.819 373.123,52.963 388.992,44.568 "/>
<polygon fill="#363436" points="375.063,41.331 387.367,34.821 387.021,32.746 375.475,38.855 "/>
<path fill="#363436" d="M371.336,68.506l1.857,2.211l18.523-9.8l-1.719-10.316l-18.074,9.563l-0.59,3.526
	C371.189,64.408,370.11,67.176,371.336,68.506"/>
<path fill="#363436" d="M376.877,75.095l3.533,4.2c1.227,1.327,1.471,1.327,2.696,0l9.073-10.789
	c0.447-0.485,0.582-1.136,0.57-1.809L376.877,75.095z"/>
<path fill="#363436" d="M386.607,30.254l-0.641-3.837c-1.228-1.331-7.191-1.331-8.418,0l-1.578,9.464L386.607,30.254z"/>
<path fill="#363436" d="M392.18,63.688l-0.047-0.279l-17.359,9.185l1.314,1.563l16.498-8.729
	C392.436,64.711,392.227,64.071,392.18,63.688"/>
<path fill="#373637" d="M269.995,104.782c-20.776-20.697-32.217-48.201-32.217-77.444c0-4.413,0.273-8.889,0.812-13.304l0.154-1.098
	h-13.677v2h11.422c-0.459,4.123-0.703,8.288-0.703,12.402c0,29.401,11.403,57.155,32.108,78.151l0.147,0.148h2.811L269.995,104.782z
	"/>
<path fill="#373637" d="M404.865,104.782c20.775-20.697,32.217-48.201,32.217-77.444c0-4.413-0.272-8.889-0.812-13.304l-0.154-1.098
	h15.017v2h-12.762c0.459,4.123,0.702,8.288,0.702,12.402c0,29.401-11.403,57.155-32.108,78.151l-0.146,0.148h-2.812L404.865,104.782
	z"/>
<path fill="#373637" d="M496.061,104.782c-20.775-20.697-32.217-48.201-32.217-77.444c0-4.413,0.273-8.889,0.813-13.304l0.153-1.098
	h-13.677v2h11.422c-0.459,4.123-0.703,8.288-0.703,12.402c0,29.401,11.403,57.155,32.108,78.151l0.147,0.147h2.811L496.061,104.782z
	"/>
<path fill="#373637" d="M629.932,104.807c20.775-20.697,32.217-48.201,32.217-77.444c0-4.413-0.272-8.889-0.812-13.304l-0.154-1.098
	h15.017v2h-12.762c0.459,4.123,0.702,8.288,0.702,12.402c0,29.401-11.403,57.155-32.108,78.151l-0.146,0.147h-2.812L629.932,104.807
	z"/>
<rect x="526.501" y="16.367" fill="none" width="72.989" height="72.991"/>
<path fill="#373637" d="M584.34,48.067h5.641c-0.229-2.749-1.134-3.913-1.562-4.322C586.726,42.124,584.877,44.812,584.34,48.067z"
	/>
<path fill="#373637" d="M553.316,56.2c0,1.688,0.561,2.729,1.465,2.729c1.451,0,1.92-1.648,2.052-2.355
	c0.075-0.353,0.116-0.729,0.116-1.066V52.3C553.316,52.771,553.316,55.312,553.316,56.2z"/>
<path fill="#373637" d="M606.578,53.786l-5.188-8.188l3.071-9.188c0.421-1.254-0.1-2.627-1.24-3.289l-8.398-4.836l-1.543-9.565
	c-0.211-1.302-1.313-2.275-2.633-2.328l-9.68-0.381l-5.816-7.751c-0.791-1.064-2.219-1.415-3.408-0.841l-8.746,4.163l-8.752-4.163
	c-1.188-0.567-2.615-0.214-3.408,0.841l-5.817,7.751l-9.679,0.381c-1.318,0.053-2.422,1.026-2.627,2.328l-1.546,9.565l-8.396,4.836
	c-1.145,0.662-1.668,2.035-1.248,3.289l3.074,9.188l-5.184,8.188c-0.707,1.112-0.53,2.572,0.422,3.482l6.994,6.706l-0.786,9.651
	c-0.106,1.32,0.728,2.528,1.998,2.899l9.309,2.677l3.79,8.92c0.512,1.213,1.816,1.916,3.109,1.639l9.49-1.948l7.496,6.138
	c0.51,0.414,1.135,0.629,1.76,0.629c0.627,0,1.248-0.215,1.762-0.629l7.495-6.138l9.489,1.948c1.291,0.271,2.599-0.42,3.108-1.639
	l3.792-8.92l9.311-2.677c1.269-0.366,2.101-1.579,1.994-2.899l-0.783-9.651l6.994-6.706
	C607.109,56.358,607.285,54.898,606.578,53.786z M536.979,64.191c-1.994,0-4.051-0.624-5.238-1.595
	c-0.41-0.336-0.57-0.889-0.406-1.389l0.889-2.701c0.122-0.379,0.415-0.682,0.789-0.812c0.372-0.137,0.789-0.083,1.123,0.136
	c0.714,0.463,1.863,0.955,2.936,0.955c1.305,0,2.024-0.701,2.024-1.979c0-1.056-0.167-1.915-2.323-3.368
	c-2.166-1.369-5.082-3.656-5.082-7.445c0-4.289,3.209-7.524,7.473-7.524c1.64,0,3.171,0.438,4.677,1.354
	c0.512,0.308,0.744,0.938,0.545,1.509l-0.929,2.699c-0.129,0.376-0.428,0.676-0.807,0.795c-0.382,0.127-0.795,0.072-1.123-0.152
	c-0.836-0.573-1.506-0.805-2.313-0.805c-1.492,0-1.609,1.231-1.609,1.61c0,0.838,0.1,1.349,2.242,2.813
	c2.217,1.427,5.211,3.821,5.211,7.908C545.061,60.983,541.813,64.191,536.979,64.191z M561.992,63.911c-0.014,0-0.024,0-0.036,0
	h-3.214c-0.539,0-1.01-0.332-1.194-0.815c-1.065,0.776-2.332,1.196-3.7,1.196c-3.82,0-6.594-3.25-6.594-7.72
	c0-5.323,3.722-8.919,9.591-9.422c-0.103-3.016-1.146-3.28-2.299-3.28c-1.093,0-2.101,0.318-3,0.941
	c-0.335,0.229-0.765,0.288-1.144,0.16c-0.386-0.133-0.688-0.439-0.807-0.831l-0.789-2.519c-0.168-0.526,0.026-1.1,0.477-1.422
	c1.207-0.865,3.531-1.732,6.01-1.732c3.518,0,7.715,1.607,7.715,9.253v9.786c0,1.925,0.063,3.469,0.182,4.591
	c0.072,0.157,0.115,0.347,0.115,0.532C563.303,63.351,562.645,63.958,561.992,63.911z M574.003,62.63
	c0,0.707-0.574,1.279-1.28,1.279h-3.589c-0.708,0-1.282-0.572-1.282-1.279V34.018c0-0.706,0.574-1.28,1.282-1.28h3.589
	c0.706,0,1.28,0.574,1.28,1.28V62.63z M594.604,51.784c-0.054,0.658-0.607,1.18-1.277,1.18h-9.129c0.334,5.83,2.965,5.83,3.996,5.83
	c1.5,0,2.53-0.375,3.131-0.693c0.353-0.188,0.771-0.2,1.127-0.032c0.365,0.163,0.632,0.489,0.719,0.877l0.607,2.609
	c0.133,0.571-0.136,1.159-0.656,1.427c-1.444,0.757-3.58,1.219-5.574,1.219c-5.938,0-9.484-4.718-9.484-12.605
	c0-7.85,3.586-13.122,8.926-13.122c4.682,0,7.713,4.383,7.713,11.164C594.697,50.563,594.65,51.196,594.604,51.784z"/>
<path fill="#373637" d="M44.928,104.782C24.152,84.085,12.711,56.581,12.711,27.338c0-4.413,0.273-8.889,0.812-13.304l0.154-1.098H0
	v2h11.422c-0.459,4.123-0.703,8.288-0.703,12.402c0,29.401,11.403,57.155,32.108,78.151l0.147,0.148h2.811L44.928,104.782z"/>
<path fill="#373637" d="M178.799,104.782c20.775-20.697,32.217-48.201,32.217-77.444c0-4.413-0.272-8.889-0.812-13.304l-0.154-1.098
	h15.017v2h-12.762c0.459,4.123,0.702,8.288,0.702,12.402c0,29.401-11.403,57.155-32.108,78.151l-0.146,0.148h-2.812L178.799,104.782
	z"/>
<path fill="#363436" d="M101.311,64.924H71.289c0-6.113,4.012-11.328,9.654-13.391c-1.213-1.232-2.092-3.107-2.53-5.932
	c-0.582,0.119-1.487-0.549-1.75-1.563c-0.274-1.029-0.45-2.695,0.137-2.857c0.173-0.047,0.356-0.014,0.532,0.08V38.39
	c0-4.511-1.063-7.165,6.314-7.919l-0.063-0.018c0,0,5.813-0.559,7.344-1.937c0,0,0.044,1.164,0.661,2.438
	c3.403,1.305,3.828,4.32,3.729,7.44v2.867c0.182-0.094,0.365-0.127,0.539-0.08c0.586,0.16,0.273,1.889,0.004,2.926
	c-0.262,1.004-1.025,1.604-1.603,1.496c-0.428,2.689-1.372,4.621-2.684,5.904C97.259,53.553,101.311,58.777,101.311,64.924z
	 M164.316,12.937v68.376H59.409V12.937H164.316z M158.697,18.557H65.029v57.135h93.668V18.557L158.697,18.557z M151.203,29.796
	h-41.682v5.62h41.682V29.796z M151.203,44.314h-41.682v5.621h41.682V44.314z M151.203,58.837h-41.682v5.62h41.682V58.837z"/>
</svg>
