<?xml version="1.0" encoding="utf-8"?>
<!-- Generator: Adobe Illustrator 15.0.0, SVG Export Plug-In  -->
<!DOCTYPE svg PUBLIC "-//W3C//DTD SVG 1.1//EN" "http://www.w3.org/Graphics/SVG/1.1/DTD/svg11.dtd" [
	<!ENTITY ns_flows "http://ns.adobe.com/Flows/1.0/">
]>
<svg version="1.1"
	 xmlns="http://www.w3.org/2000/svg" xmlns:xlink="http://www.w3.org/1999/xlink" xmlns:a="http://ns.adobe.com/AdobeSVGViewerExtensions/3.0/"
	 x="0px" y="0px" width="102px" height="48px" viewBox="0 -4.608 102 48" style="enable-background:new 0 -4.608 102 48;"
	 xml:space="preserve">
	 <defs>
<symbol id="Visit_site">
<path class="style0" d="M20.337,41.675C10.933,32.304,5.75,19.854,5.75,6.618c0-1.998,0.124-4.023,0.368-6.022l0.07-0.497H0v0.905h5.17
	C4.962,2.87,4.852,4.756,4.852,6.618c0,13.31,5.16,25.87,14.53,35.375l0.066,0.066h1.272L20.337,41.675z"/>
<path class="style0" d="M81.055,41.675c9.404-9.369,14.584-21.816,14.584-35.057c0-1.998-0.123-4.023-0.367-6.022l-0.068-0.497H102
	v0.905h-5.775c0.207,1.87,0.319,3.75,0.319,5.614c0,13.309-5.162,25.874-14.535,35.375l-0.063,0.065H80.67L81.055,41.675z"/>
<path d="M46.172,23.785H32.436c0-2.797,1.836-5.182,4.417-6.125c-0.554-0.564-0.957-1.421-1.157-2.714
	c-0.267,0.055-0.681-0.251-0.801-0.715c-0.125-0.471-0.205-1.232,0.063-1.307c0.079-0.022,0.163-0.007,0.244,0.036v-1.313
	c0-2.063-0.486-3.278,2.888-3.623l-0.028-0.008c0,0,2.659-0.256,3.36-0.886c0,0,0.02,0.533,0.302,1.116
	c1.558,0.597,1.752,1.976,1.707,3.403v1.312c0.082-0.043,0.167-0.058,0.246-0.036c0.269,0.072,0.125,0.864,0.002,1.339
	c-0.121,0.459-0.469,0.734-0.733,0.684c-0.196,1.23-0.627,2.115-1.229,2.701C44.318,18.583,46.172,20.973,46.172,23.785z M75,0
	v31.285H27V0H75z M73.377,1.58H28.625v28.125h44.752V1.58L73.377,1.58z M69.556,6.864H49.927v2.219h19.628V6.864z M69.556,11.977
	H49.927v2.219h19.628V11.977z M69.685,17.089H50.056v2.219h19.629V17.089z M69.685,22.201H50.056v2.22h19.629V22.201z"/>
</symbol>

</defs>

</svg>
