<?xml version="1.0" encoding="utf-8"?>
<!-- Generator: Adobe Illustrator 15.0.0, SVG Export Plug-In  -->
<!DOCTYPE svg PUBLIC "-//W3C//DTD SVG 1.1//EN" "http://www.w3.org/Graphics/SVG/1.1/DTD/svg11.dtd" [
	<!ENTITY ns_flows "http://ns.adobe.com/Flows/1.0/">
]>
<svg version="1.1"
	 xmlns="http://www.w3.org/2000/svg" xmlns:xlink="http://www.w3.org/1999/xlink" xmlns:a="http://ns.adobe.com/AdobeSVGViewerExtensions/3.0/"
	 x="0px" y="0px" width="102px" height="48px" viewBox="0 0 102 48" enable-background="new 0 0 102 48" xml:space="preserve">
<defs>
</defs>
<path fill="#373637" d="M20.353,45.311C10.941,35.934,5.759,23.474,5.759,10.226c0-1.999,0.123-4.026,0.367-6.027l0.07-0.497H0
	v0.906h5.175c-0.208,1.868-0.32,3.755-0.32,5.618c0,13.32,5.166,25.892,14.546,35.405l0.067,0.065h1.272L20.353,45.311z"/>
<path fill="#373637" d="M81.039,45.311c9.412-9.377,14.594-21.836,14.594-35.083c0-1.999-0.12-4.026-0.366-6.027l-0.069-0.497H102
	v0.906h-5.78c0.207,1.868,0.317,3.755,0.317,5.618c0,13.32-5.166,25.892-14.547,35.406l-0.064,0.064h-1.276L81.039,45.311z"/>
<rect x="50.009" y="18.141" fill="#363436" width="17.623" height="2.377"/>
<rect x="50.009" y="12.002" fill="#363436" width="17.623" height="2.376"/>
<rect x="50.009" y="5.825" fill="#363436" width="17.623" height="2.376"/>
<path fill="#363436" d="M28.821,0v36.834H73.18V0H28.821z M70.803,10.3v24.159H31.197V2.376h39.606V10.3z"/>
<rect x="33.843" y="24.281" fill="#363436" width="33.789" height="2.377"/>
<rect x="33.843" y="29.76" fill="#363436" width="33.789" height="2.377"/>
<path fill="#363436" d="M42.419,14.268c0.555-0.542,0.954-1.359,1.135-2.496c0.245,0.045,0.567-0.208,0.678-0.633
	c0.115-0.439,0.246-1.17-0.002-1.237c-0.073-0.021-0.15-0.007-0.228,0.033V8.723c0.042-1.32-0.138-2.594-1.577-3.146
	c-0.26-0.538-0.279-1.03-0.279-1.03c-0.647,0.583-3.105,0.818-3.105,0.818l0.026,0.008c-3.118,0.319-2.669,1.441-2.669,3.349v1.214
	c-0.074-0.04-0.151-0.053-0.225-0.033c-0.249,0.068-0.175,0.771-0.058,1.208c0.111,0.428,0.494,0.71,0.739,0.66
	c0.186,1.194,0.557,1.986,1.07,2.508c-2.385,0.873-4.082,3.077-4.082,5.662h12.694C46.537,17.341,44.824,15.132,42.419,14.268z"/>
</svg>
