<?xml version="1.0" encoding="utf-8"?>
<!-- Generator: Adobe Illustrator 18.0.0, SVG Export Plug-In . SVG Version: 6.00 Build 0)  -->
<!DOCTYPE svg PUBLIC "-//W3C//DTD SVG 1.1//EN" "http://www.w3.org/Graphics/SVG/1.1/DTD/svg11.dtd">
<svg version="1.1" id="Слой_1" xmlns="http://www.w3.org/2000/svg" xmlns:xlink="http://www.w3.org/1999/xlink" x="0px" y="0px"
	 viewBox="0 0 208 180" style="enable-background:new 0 0 208 180;" xml:space="preserve">
<style type="text/css">
	.st0{fill:#EDEFED;}
	.st1{fill:#D7844D;}
</style>
<rect class="st0" width="208" height="180"/>
<g>
	<path class="st1" d="M83.7,59.6C83.7,59.7,83.7,59.7,83.7,59.6c0.1-0.1,0.4-0.4,0.6-0.5c5.7-3.7,12.3-5.7,19.7-5.7
		c6.9,0,13.3,1.9,18.8,5.2c0.4,0.2,1.5,1,2,1.7v0C119.5,54.4,104,67,104,67c-5.4-4.2-10.3-7-14-8C86.9,58.1,84.7,58.8,83.7,59.6z
		 M130.8,65.1c-0.2-0.2-0.3-0.3-0.5-0.5c-1.3-1.5-3-1.8-4.5-1.7c-1.4,0.4-7.6,2.7-15.3,9.9c0,0,8.7,8.4,14,17
		c5.3,8.6,8.5,15.4,6.5,24.8c5.9-6.5,9.5-15.1,9.5-24.6C140.6,80.4,136.9,71.7,130.8,65.1z M117.6,93.5c-2.3-2.6-5.8-6.4-10.5-11
		c-1-1-2.1-2.1-3.2-3.1c0,0-1.7,1.7-3.9,3.9v0c-2.8,2.8-6.5,6.5-8.5,8.7c-3.6,3.8-13.9,15.9-14.5,22.7c0,0-2.3-5.4,2.7-17.7
		c3.3-8.1,13.2-20.2,17.4-24.2c0,0-3.8-4.2-8.6-7.1l0,0c0,0-0.1,0-0.1-0.1c-2.3-1.4-4.8-2.4-7.2-2.6c-2.5,0.2-4,2-4,2
		c-6.1,6.5-9.9,15.3-9.9,25c0,20.2,16.4,36.6,36.6,36.6c10.7,0,20.4-4.6,27.1-12c0,0-0.8-4.8-5.7-11.8
		C124.2,101.2,120,96.2,117.6,93.5z"/>
</g>
</svg>
