<?xml version="1.0" encoding="utf-8"?>
<!-- Generator: Adobe Illustrator 18.0.0, SVG Export Plug-In . SVG Version: 6.00 Build 0)  -->
<!DOCTYPE svg PUBLIC "-//W3C//DTD SVG 1.1//EN" "http://www.w3.org/Graphics/SVG/1.1/DTD/svg11.dtd">
<svg version="1.1" id="Слой_1" xmlns="http://www.w3.org/2000/svg" xmlns:xlink="http://www.w3.org/1999/xlink" x="0px" y="0px"
	 viewBox="0 0 50 43.3" style="enable-background:new 0 0 50 43.3;" xml:space="preserve">
<style type="text/css">
	.st0{fill:#EDEFED;}
	.st1{fill:#D7844D;}
</style>
<rect x="0.1" class="st0" width="50" height="43.3"/>
<g>
	<path class="st1" d="M29.5,21c0.3-0.3,0.7-0.5,0.8-0.6l0.2-0.1l0.5,0l0.1,0c0,0,0.4,0.1,0.8,0.2l0.3,0.1c0.4,0.1,0.8,0.3,1,0.6
		c0.6,0.7,0.5,1.5,0.4,2c0,0,0,0.1,0,0.1c0.1-0.5,0.1-1,0.1-1.6c0-2.3-0.9-4.4-2.3-6c0,0-0.1-0.1-0.1-0.1c-0.3-0.4-0.7-0.4-1.1-0.4
		c-0.3,0.1-1.8,0.6-3.7,2.4C26.6,17.5,28.3,19.1,29.5,21z"/>
	<path class="st1" d="M32.9,25.5C32.9,25.5,32.9,25.5,32.9,25.5C32.9,25.5,32.9,25.5,32.9,25.5C32.9,25.5,32.9,25.5,32.9,25.5z"/>
	<path class="st1" d="M21.7,14.2c0.9,0.2,2.1,0.9,3.4,1.9c0,0,3.7-3,5-1.6c-0.1-0.2-0.4-0.4-0.5-0.4c-1.3-0.8-2.9-1.3-4.5-1.3
		c-1.8,0-3.4,0.5-4.7,1.4c0,0-0.1,0.1-0.1,0.1C20.4,14.1,20.9,14,21.7,14.2z"/>
	<path class="st1" d="M26.9,30L26.9,30l0-0.1c0-0.2,0.1-2.2,0.8-3.2l0.1-0.1c0.1-0.1,0.3-0.3,0.7-0.5c0.5-0.2,0.9-0.3,1.1-0.5
		c0-0.1,0.1-0.1,0.1-0.2c-0.2-0.3-0.4-0.7-0.5-1.1C29.1,24.3,29,24.1,29,24c-0.1-0.4-0.1-0.6,0-0.8c-0.2-0.3-0.5-0.5-0.7-0.8
		c-0.6-0.6-1.4-1.5-2.5-2.6c-0.2-0.2-0.5-0.5-0.8-0.7c0,0-0.4,0.4-0.9,0.9c-0.7,0.7-1.6,1.6-2,2.1c-0.9,0.9-3.3,3.8-3.5,5.5
		c0,0-0.6-1.3,0.6-4.3c0.8-1.9,3.2-4.9,4.2-5.8c0,0-0.9-1-2.1-1.7c0,0,0,0,0,0c-0.6-0.3-1.2-0.6-1.7-0.6c-0.6,0-1,0.5-1,0.5
		c-1.5,1.6-2.4,3.7-2.4,6c0,4.9,3.9,8.8,8.8,8.8c0.7,0,1.3-0.1,1.9-0.2C26.9,30.1,26.9,30.1,26.9,30z"/>
</g>
<g>
	<g>
		<g>
			<path class="st1" d="M30.1,25.8L30.1,25.8L30.1,25.8c0.4,0.3,0.8,0.5,1.2,0.5s0.8-0.2,1.1-0.4l0,0l0.1,0c0,0,0.2,0.1,0.2,0.2
				l0.1,0l0,0h0c0,0,0.1,0.1,0.2,0.1c0.1,0,0.1,0,0.2,0.1c0,0,0.4,0.1,0.8,0.3h0.1c0.4,0.1,0.5,0.4,0.5,0.4c0.6,0.9,0.7,2.7,0.7,3
				c0,0.3-0.1,0.4-0.1,0.4C33.9,30.9,32,31,31.6,31l0,0l0,0h0l0,0l0,0c-0.1,0-0.2,0-0.3,0h0c-0.2,0-2.4-0.1-3.7-0.8
				c0,0-0.1-0.1-0.1-0.4c0,0,0.1-2.1,0.7-3c0,0,0.2-0.2,0.5-0.4c0.3-0.1,1-0.3,1.4-0.6l0,0C29.9,25.9,30,25.8,30.1,25.8z M29.5,23.3
				L29.5,23.3c0,0,0.1-0.1,0.1-0.2c-0.1-0.8,0-1.1,0-1.2c0.2-0.7,0.9-1,1.1-1.1c0,0,0.1,0,0.1,0l0,0h0.1l0,0h0c0,0,0,0,0.1,0h0
				c0,0,0.3,0,0.7,0.2l0.3,0.1c0.5,0.2,0.8,0.4,0.8,0.5c0.4,0.5,0.3,1.2,0.2,1.6c0,0,0,0.1,0,0.1l0,0c0,0,0,0.2,0,0.5
				c0,0.1,0,0.2-0.1,0.3c0,0,0,0,0,0.1C32.8,25,32,26,31.2,26c-0.7,0-1.5-0.9-1.6-1.8c0,0,0,0,0-0.1c0,0-0.1-0.1-0.1-0.3
				C29.4,23.6,29.4,23.4,29.5,23.3z"/>
		</g>
	</g>
</g>
</svg>
