<?xml version="1.0" encoding="utf-8"?>
<!-- Generator: Adobe Illustrator 18.0.0, SVG Export Plug-In . SVG Version: 6.00 Build 0)  -->
<!DOCTYPE svg PUBLIC "-//W3C//DTD SVG 1.1//EN" "http://www.w3.org/Graphics/SVG/1.1/DTD/svg11.dtd">
<svg version="1.1" id="Layer_1" xmlns="http://www.w3.org/2000/svg" xmlns:xlink="http://www.w3.org/1999/xlink" x="0px" y="0px"
	 viewBox="0 0 50 50" style="enable-background:new 0 0 50 50;" xml:space="preserve">
<style type="text/css">
	.st0{fill:none;stroke:#4C4646;stroke-miterlimit:10;}
	.st1{fill:#4C4646;}
</style>
<g>
	<circle class="st0" cx="25" cy="25" r="24.5"/>
	<path class="st1" d="M36.7,17.1l-2.8-3.5c-0.3-0.3-0.7-0.5-1.1-0.5H18.4c-0.4,0-0.8,0.2-1.1,0.5l-2.8,3.5c-0.3,0.4-0.5,1-0.5,1.6
		v2.6c0.2-0.3,0.5-0.6,0.9-0.7c0-0.3,0.1-0.6,0.3-0.8c0.3-0.4,0.7-0.8,1.2-0.9c0.2,0,0.3-0.1,0.5-0.1c0.7,0,1.3,0.3,1.6,0.9
		c0.1,0,0.2,0,0.3,0c0.3,0,0.6,0.1,0.9,0.2l1.5-0.4c0.2-0.1,0.4-0.1,0.6-0.1c1.1,0,2,0.7,2.3,1.8l3,11.6c0.2,0.6,0.1,1.2-0.2,1.8
		c-0.3,0.5-0.8,0.9-1.4,1.1l-1.4,0.4h11.4c1,0,1.7-0.8,1.7-1.7l0-15.6C37.3,18.2,37,17.5,36.7,17.1z M15.5,17.1l0.9-1.2h6.3l0.6-1
		h-6.1l0.7-0.9c0.1-0.2,0.3-0.3,0.5-0.3h14.4c0.2,0,0.4,0.1,0.5,0.3l0.7,0.9h-6.2l0.3,1h6.7l0.9,1.2H15.5z M15.7,21.4l-0.4,0.1
		c-0.4,0.1-0.7,0.5-0.6,0.9l0,0c0.1,0.4,0.5,0.7,0.9,0.6l3.3-0.9c0.4-0.1,0.7-0.5,0.6-0.9l0,0c-0.1-0.4-0.5-0.7-0.9-0.6l-0.4,0.1
		c-0.2,0.1-0.4-0.1-0.5-0.3l0,0c-0.1-0.5-0.6-0.8-1.1-0.6l0,0c-0.5,0.1-0.8,0.6-0.6,1.1l0,0C16.1,21.1,16,21.3,15.7,21.4z
		 M16.8,20.3c0.2-0.1,0.4,0.1,0.5,0.3c0.1,0.2-0.1,0.4-0.3,0.5c-0.2,0.1-0.4-0.1-0.5-0.3C16.5,20.5,16.6,20.3,16.8,20.3z M21.7,32.3
		c0,0.1,0,0.3-0.2,0.3l-4.8,1.3c-0.1,0-0.3,0-0.3-0.2l-0.1-0.3c0-0.1,0-0.3,0.2-0.3l4.8-1.3c0.1,0,0.3,0,0.3,0.2L21.7,32.3z
		 M22.3,27.2l0.1,0.3c0,0.1,0,0.3-0.2,0.3l-6.6,1.7c-0.1,0-0.3,0-0.3-0.2l-0.1-0.3c0-0.1,0-0.3,0.2-0.3L22,27
		C22.1,27,22.2,27.1,22.3,27.2z M21.6,25.5L15,27.2c-0.1,0-0.3,0-0.3-0.2l-0.1-0.3c0-0.1,0-0.3,0.2-0.3l6.6-1.7c0.1,0,0.3,0,0.3,0.2
		l0.1,0.3C21.8,25.3,21.7,25.5,21.6,25.5z M21.4,30.2l-5.3,1.4c-0.1,0-0.3,0-0.3-0.2l-0.1-0.3c0-0.1,0-0.3,0.2-0.3l5.3-1.4
		c0.1,0,0.3,0,0.3,0.2l0.1,0.3C21.6,30,21.6,30.1,21.4,30.2z M26.2,33l-3-11.6c-0.2-0.7-0.9-1.1-1.6-0.9L20,20.8
		c0,0.1,0.1,0.2,0.1,0.2c0.2,0.7-0.2,1.4-0.9,1.6l-3.3,0.8c-0.7,0.2-1.4-0.2-1.6-0.8c0-0.1-0.1-0.2-0.1-0.4l-1.5,0.4
		c-0.7,0.2-1.1,0.9-0.9,1.6l3,11.6c0.2,0.7,0.9,1.1,1.6,0.9l8.9-2.3C26,34.4,26.4,33.7,26.2,33z M16.1,35.6l-2.6-10.1l8.9-2.3
		l2.6,10.1L16.1,35.6z"/>
</g>
</svg>
