<?xml version="1.0" encoding="utf-8"?>
<!-- Generator: Adobe Illustrator 18.0.0, SVG Export Plug-In . SVG Version: 6.00 Build 0)  -->
<!DOCTYPE svg PUBLIC "-//W3C//DTD SVG 1.1//EN" "http://www.w3.org/Graphics/SVG/1.1/DTD/svg11.dtd">
<svg version="1.1" id="Layer_1" xmlns="http://www.w3.org/2000/svg" xmlns:xlink="http://www.w3.org/1999/xlink" x="0px" y="0px"
	 viewBox="0 0 50 50" style="enable-background:new 0 0 50 50;" xml:space="preserve">
<style type="text/css">
	.st0{fill:none;stroke:#4C4646;stroke-miterlimit:10;}
	.st1{fill:#4C4646;}
</style>
<g>
	<circle class="st0" cx="25" cy="25" r="24.5"/>
	<path class="st1" d="M25.9,13h-0.6c-0.3,0-0.6-0.3-0.6-0.6v0c0-0.8-0.6-1.4-1.4-1.4h0c-0.8,0-1.4,0.6-1.4,1.4v0
		c0,0.3-0.3,0.6-0.6,0.6h-0.6c-0.7,0-1.2,0.5-1.2,1.2v0c0,0.7,0.5,1.2,1.2,1.2h5.2c0.7,0,1.2-0.5,1.2-1.2v0
		C27.1,13.5,26.6,13,25.9,13z M23.3,13c-0.3,0-0.6-0.3-0.6-0.6c0-0.3,0.3-0.6,0.6-0.6s0.6,0.3,0.6,0.6C23.9,12.7,23.6,13,23.3,13z
		 M26,36.2H15.9c-0.9,0-1.6-0.7-1.6-1.6V15.4c0-0.9,0.7-1.6,1.2-1.6h3.2c0,0.1,0,0.3,0,0.4c0,1.1,0.9,2,2,2h5.2c1.1,0,2-0.9,2-2
		c0-0.1,0-0.3,0-0.4h2.4c1.3,0,2,0.7,2,1.6v12c-0.1,0-0.3,0-0.4,0c-0.6,0-1.1,0.1-1.6,0.2v-9.4h-14v16h9.2
		C25.6,34.9,25.7,35.6,26,36.2z M31.9,28.6c-2.9,0-5.2,2.3-5.2,5.2c0,2.9,2.3,5.2,5.2,5.2s5.2-2.3,5.2-5.2S34.8,28.6,31.9,28.6z
		 M35.3,32.7l-3.2,3.6c-0.2,0.2-0.4,0.3-0.6,0.3c-0.2,0-0.4-0.1-0.5-0.2l-2-1.6c-0.3-0.3-0.4-0.8-0.1-1.1c0.3-0.3,0.8-0.4,1.1-0.1
		l1.4,1.1l2.7-3c0.3-0.3,0.8-0.4,1.1-0.1C35.6,31.9,35.6,32.4,35.3,32.7z M28.3,25h-6.4c-0.2,0-0.4-0.2-0.4-0.4v-0.4
		c0-0.2,0.2-0.4,0.4-0.4h6.4c0.2,0,0.4,0.2,0.4,0.4v0.4C28.7,24.8,28.5,25,28.3,25z M28.3,21.4h-6.4c-0.2,0-0.4-0.2-0.4-0.4v-0.4
		c0-0.2,0.2-0.4,0.4-0.4h6.4c0.2,0,0.4,0.2,0.4,0.4V21C28.7,21.2,28.5,21.4,28.3,21.4z M26.3,28.2h-4.4c-0.2,0-0.4-0.2-0.4-0.4v-0.4
		c0-0.2,0.2-0.4,0.4-0.4h4.4c0.2,0,0.4,0.2,0.4,0.4v0.4C26.7,28,26.5,28.2,26.3,28.2z M25.5,31.8h-3.6c-0.2,0-0.4-0.2-0.4-0.4V31
		c0-0.2,0.2-0.4,0.4-0.4h3.6c0.2,0,0.4,0.2,0.4,0.4v0.4C25.9,31.6,25.7,31.8,25.5,31.8z M20.7,19.9l-1.5,1.7
		c-0.1,0.1-0.2,0.1-0.3,0.1c-0.1,0-0.2,0-0.2-0.1l-0.9-0.7c-0.2-0.1-0.2-0.4-0.1-0.5c0.1-0.2,0.4-0.2,0.5-0.1l0.6,0.5l1.2-1.4
		c0.1-0.2,0.4-0.2,0.5,0C20.8,19.5,20.9,19.8,20.7,19.9z M20.7,23.5l-1.5,1.7c-0.1,0.1-0.2,0.1-0.3,0.1c-0.1,0-0.2,0-0.2-0.1
		l-0.9-0.7c-0.2-0.1-0.2-0.4-0.1-0.5c0.1-0.2,0.4-0.2,0.5-0.1l0.6,0.5l1.2-1.4c0.1-0.2,0.4-0.2,0.5,0C20.8,23.1,20.9,23.3,20.7,23.5
		z M20.7,26.9l-1.5,1.7c-0.1,0.1-0.2,0.1-0.3,0.1c-0.1,0-0.2,0-0.2-0.1l-0.9-0.7c-0.2-0.1-0.2-0.4-0.1-0.5c0.1-0.2,0.4-0.2,0.5-0.1
		l0.6,0.5l1.2-1.4c0.1-0.2,0.4-0.2,0.5,0C20.8,26.5,20.9,26.7,20.7,26.9z M20.7,30.3L19.2,32c-0.1,0.1-0.2,0.1-0.3,0.1
		c-0.1,0-0.2,0-0.2-0.1l-0.9-0.7c-0.2-0.1-0.2-0.4-0.1-0.5c0.1-0.2,0.4-0.2,0.5-0.1l0.6,0.5l1.2-1.4c0.1-0.2,0.4-0.2,0.5,0
		C20.8,29.9,20.9,30.2,20.7,30.3z"/>
</g>
</svg>
