<?xml version="1.0" encoding="utf-8"?>
<!-- Generator: Adobe Illustrator 18.0.0, SVG Export Plug-In . SVG Version: 6.00 Build 0)  -->
<!DOCTYPE svg PUBLIC "-//W3C//DTD SVG 1.1//EN" "http://www.w3.org/Graphics/SVG/1.1/DTD/svg11.dtd">
<svg version="1.1" id="Layer_1" xmlns="http://www.w3.org/2000/svg" xmlns:xlink="http://www.w3.org/1999/xlink" x="0px" y="0px"
	 viewBox="0 0 50 50" style="enable-background:new 0 0 50 50;" xml:space="preserve">
<style type="text/css">
	.st0{fill:none;stroke:#4C4646;stroke-miterlimit:10;}
	.st1{fill:#4C4646;}
</style>
<g>
	<ellipse class="st0" cx="25" cy="25" rx="24.4" ry="24.4"/>
</g>
<path class="st1" d="M37.5,31.2c0,0.5-0.2,1.1-0.4,1.5l-7.9-8.8l7.8-6.8c0.3,0.5,0.5,1,0.5,1.7V31.2z M25,25.5L35.9,16
	c-0.4-0.2-0.9-0.4-1.5-0.4H15.6c-0.5,0-1,0.1-1.5,0.4L25,25.5z M28,24.9l-2.5,2.2c-0.1,0.1-0.3,0.2-0.5,0.2s-0.4-0.1-0.5-0.2
	L22,24.9l-8,8.9c0.5,0.3,1,0.5,1.6,0.5h18.7c0.6,0,1.2-0.2,1.6-0.5L28,24.9z M13,17.1c-0.3,0.5-0.5,1-0.5,1.7v12.5
	c0,0.5,0.2,1.1,0.4,1.5l7.9-8.8L13,17.1z"/>
</svg>
