<?xml version="1.0" encoding="utf-8"?>
<!-- Generator: Adobe Illustrator 18.0.0, SVG Export Plug-In . SVG Version: 6.00 Build 0)  -->
<!DOCTYPE svg PUBLIC "-//W3C//DTD SVG 1.1//EN" "http://www.w3.org/Graphics/SVG/1.1/DTD/svg11.dtd">
<svg version="1.1" id="Слой_1" xmlns="http://www.w3.org/2000/svg" xmlns:xlink="http://www.w3.org/1999/xlink" x="0px" y="0px"
	 viewBox="0 0 50 50" style="enable-background:new 0 0 50 50;" xml:space="preserve">
<style type="text/css">
	.st0{fill:#4C4646;}
	.st1{fill:none;stroke:#4C4646;stroke-miterlimit:10;}
</style>
<g>
	<g>
		<path class="st0" d="M13.2,15.2c-0.5-1.7,0.3-3.5,1.9-4.1s3.2,0.4,3.7,2l5.8,19.2c-0.5-0.2-1.1-0.2-1.7-0.1l-5.6-18.5
			c-0.2-0.8-1-1.2-1.7-0.9c-0.7,0.3-1.1,1.1-0.9,1.9c0.1,0.5-0.1,0.9-0.5,1.1C13.8,15.9,13.3,15.7,13.2,15.2z M35.9,30.3l-9.5,3.4
			c0.3,0.4,0.6,0.9,0.8,1.5c0,0,0,0,0,0.1l9.2-3.3c0.4-0.1,0.6-0.6,0.5-1.1C36.8,30.4,36.3,30.1,35.9,30.3z M26.5,35.4
			c0.5,1.8-0.3,3.7-2,4.3c-1.6,0.6-3.4-0.4-3.9-2.2c-0.5-1.8,0.3-3.7,2-4.3C24.2,32.7,26,33.7,26.5,35.4z M25,36
			c-0.3-0.9-1.1-1.4-2-1.1c-0.8,0.3-1.3,1.3-1,2.1c0.3,0.9,1.1,1.4,2,1.1C24.8,37.8,25.3,36.9,25,36z M33.5,17.3l3.2,10.7
			c0.1,0.2,0,0.5-0.3,0.5l-10.1,3.7c-0.2,0.1-0.4,0-0.5-0.3l-3.2-10.7c-0.1-0.2,0-0.5,0.3-0.5L33,17C33.3,16.9,33.5,17.1,33.5,17.3z
			 M32.2,23.5l-3.4-2.1l-1.6,3.9l1.1,0.5l0.7-1.7l1.3,4.2l1.2-0.4l-1.3-4.2l1.5,0.9L32.2,23.5z M29.2,17.1l-2.1-6.8
			c0-0.1-0.2-0.2-0.3-0.2l-1.8,0.6l0,0l0,0l-0.9,0.3l0.8,2.5l-1,0.4l-0.8-2.5l-0.9,0.3l0,0l0,0l-1.8,0.6c-0.1,0-0.2,0.2-0.2,0.3
			l2.1,6.8c0,0.1,0.2,0.2,0.3,0.2l6.5-2.3C29.2,17.4,29.2,17.3,29.2,17.1z"/>
	</g>
	<circle class="st1" cx="25" cy="25" r="24.4"/>
</g>
</svg>
