<?xml version="1.0" encoding="utf-8"?>
<!-- Generator: Adobe Illustrator 18.0.0, SVG Export Plug-In . SVG Version: 6.00 Build 0)  -->
<!DOCTYPE svg PUBLIC "-//W3C//DTD SVG 1.1//EN" "http://www.w3.org/Graphics/SVG/1.1/DTD/svg11.dtd">
<svg version="1.1" id="Layer_1" xmlns="http://www.w3.org/2000/svg" xmlns:xlink="http://www.w3.org/1999/xlink" x="0px" y="0px"
	 viewBox="0 0 50 50" style="enable-background:new 0 0 50 50;" xml:space="preserve">
<style type="text/css">
	.st0{fill:none;stroke:#4C4646;stroke-miterlimit:10;}
	.st1{fill:#4C4646;}
</style>
<g>
	<ellipse class="st0" cx="25" cy="25" rx="24.4" ry="24.4"/>
</g>
<g id="_x31_90">
</g>
<path class="st1" d="M20.4,29.8c0.7,1.6,1.8,3,3.3,4.4c-2.8-0.4-5.3-2.1-6.7-4.5L20.4,29.8z M23.6,15.8c-2.7,0.4-5.1,2-6.5,4.3
	l3.3,0C21.1,18.6,22.2,17.2,23.6,15.8z M24.7,20.2l0-4.5c0,0,0,0,0,0c-1.6,1.4-2.8,2.9-3.6,4.4L24.7,20.2z M17.1,21.6l-0.7,0l-0.6,0
	l-0.1,4.6l-2.6-4.7l-0.7,0l-0.7,0l-0.1,6.6l0.6,0l0.6,0l0.1-4.8l2.7,4.8l0.7,0l0.7,0L17.1,21.6z M23.3,22.8l0-0.6l0-0.6l-4.9-0.1
	l-0.1,6.6l5,0.1l0-0.6l0-0.6l-3.6,0l0-1.7l3.2,0l0-0.6l0-0.6l-3.2,0l0-1.4L23.3,22.8z M29.9,26.5L29.9,26.5L29,21.7l-0.7,0l-0.7,0
	l-1,4.8l-1.1-4.9l-0.7,0l-0.7,0l1.8,6.6l0.7,0l0.7,0l1.1-5.2l1,5.2l0.7,0l0.7,0l1.9-6.6l-0.7,0l-0.7,0L29.9,26.5z M25.5,15.7
	C25.5,15.7,25.5,15.7,25.5,15.7l-0.1,4.5l3.5,0C28.2,18.7,27,17.2,25.5,15.7z M33,20.3c-1.4-2.3-3.7-4-6.4-4.4
	c1.4,1.4,2.4,2.9,3.1,4.4L33,20.3z M26.2,34.3c2.8-0.4,5.3-2,6.8-4.3l-3.4,0C28.8,31.4,27.6,32.9,26.2,34.3z M28.7,29.9l-3.4,0
	l0,4.3C26.8,32.8,28,31.4,28.7,29.9z M37.9,25.2c-0.3-0.3-1-0.5-1.9-0.8c-0.7-0.2-1.1-0.3-1.3-0.4c-0.2-0.1-0.3-0.3-0.3-0.5
	c0-0.3,0.1-0.5,0.3-0.6c0.2-0.1,0.5-0.2,0.8-0.2c0.4,0,0.7,0.1,1,0.3c0.2,0.2,0.4,0.4,0.4,0.8l1.3,0c0-0.7-0.3-1.2-0.8-1.6
	c-0.5-0.4-1.1-0.6-1.8-0.6c-0.8,0-1.4,0.2-1.9,0.5c-0.5,0.4-0.7,0.9-0.7,1.5c0,0.6,0.2,1,0.5,1.3c0.4,0.3,1.1,0.5,2.1,0.8
	c0.6,0.1,0.9,0.3,1.1,0.4c0.2,0.1,0.3,0.3,0.3,0.6c0,0.3-0.1,0.4-0.4,0.6c-0.2,0.1-0.6,0.2-1,0.2c-0.4,0-0.8-0.1-1-0.3
	c-0.2-0.2-0.4-0.5-0.4-0.8l-1.3,0c0,0.7,0.3,1.3,0.7,1.7c0.5,0.4,1.1,0.6,2,0.6c0.8,0,1.5-0.2,2-0.5c0.5-0.4,0.7-0.8,0.7-1.5
	C38.3,26,38.2,25.5,37.9,25.2z M24.6,34.1l0-4.3l-3.4,0C22,31.3,23.1,32.8,24.6,34.1z"/>
</svg>
