<?xml version="1.0" encoding="utf-8"?>
<!-- Generator: Adobe Illustrator 18.0.0, SVG Export Plug-In . SVG Version: 6.00 Build 0)  -->
<!DOCTYPE svg PUBLIC "-//W3C//DTD SVG 1.1//EN" "http://www.w3.org/Graphics/SVG/1.1/DTD/svg11.dtd">
<svg version="1.1" id="Layer_1" xmlns="http://www.w3.org/2000/svg" xmlns:xlink="http://www.w3.org/1999/xlink" x="0px" y="0px"
	 viewBox="0 0 50 50" style="enable-background:new 0 0 50 50;" xml:space="preserve">
<style type="text/css">
	.st0{fill:none;stroke:#4C4646;stroke-miterlimit:10;}
	.st1{fill:#4C4646;}
</style>
<g>
	<ellipse class="st0" cx="25" cy="25" rx="24.4" ry="24.4"/>
</g>
<g>
	<g>
		<path class="st1" d="M20.3,20.2c-0.8,0-1.5,0.7-1.5,1.5c0,0.8,0.7,1.5,1.5,1.5c0.8,0,1.5-0.7,1.5-1.5
			C21.8,20.9,21.1,20.2,20.3,20.2z"/>
	</g>
	<g>
		<path class="st1" d="M24.5,17.1c-1.2-0.1-2.5-0.5-4.1-1.2l-0.1,0h-0.1c-4.7,0-8,8.2-8,13.8c0,1.3,0.2,2.4,0.6,3.2
			c0.5,0.9,1.2,1.4,2.1,1.4c2.1,0,3.3-1.2,4.6-2.4c1.4-1.3,2.9-2.7,5.7-2.7c2.4,0,4.2,1.4,5.9,2.8c1.5,1.2,2.8,2.2,4.4,2.2
			c0.8,0,1.5-0.4,1.9-1.2c0.3-0.7,0.5-1.6,0.5-2.7c0-4.9-3.6-14.4-7.9-14.4h-0.1l-0.1,0c-1.7,0.8-3,1.2-4.3,1.2 M20.3,24.1
			c-1.3,0-2.4-1.1-2.4-2.4c0-1.3,1.1-2.4,2.4-2.4c1.3,0,2.4,1.1,2.4,2.4C22.7,23.1,21.6,24.1,20.3,24.1z M29.8,18.3
			c0.5-0.3,1.2-0.2,1.6,0.3c0.2,0.3,0.2,0.6,0.2,0.8c-0.1,0.3-0.2,0.5-0.5,0.7c-0.2,0.1-0.4,0.2-0.6,0.2c-0.4,0-0.7-0.2-1-0.5
			C29.1,19.3,29.2,18.6,29.8,18.3z M27.5,21.8c-0.3-0.5-0.2-1.2,0.3-1.6c0.5-0.3,1.2-0.2,1.6,0.3c0.2,0.3,0.2,0.6,0.2,0.9
			c-0.1,0.3-0.2,0.5-0.5,0.7c-0.2,0.1-0.4,0.2-0.6,0.2C28,22.4,27.7,22.2,27.5,21.8z M30.5,24.5c-0.2,0.1-0.4,0.2-0.6,0.2
			c-0.4,0-0.7-0.2-1-0.5c-0.2-0.3-0.2-0.6-0.2-0.9c0.1-0.3,0.2-0.5,0.5-0.7c0.5-0.3,1.2-0.2,1.6,0.3C31.2,23.5,31,24.2,30.5,24.5z
			 M32.9,21.8c-0.1,0.3-0.2,0.5-0.5,0.7c-0.2,0.1-0.4,0.2-0.6,0.2c-0.4,0-0.7-0.2-1-0.5c-0.2-0.3-0.2-0.6-0.2-0.9
			c0.1-0.3,0.2-0.5,0.5-0.7c0.5-0.3,1.2-0.2,1.6,0.3C33,21.2,33,21.5,32.9,21.8z"/>
	</g>
</g>
</svg>
