<?xml version="1.0" encoding="utf-8"?>
<!-- Generator: Adobe Illustrator 18.0.0, SVG Export Plug-In . SVG Version: 6.00 Build 0)  -->
<!DOCTYPE svg PUBLIC "-//W3C//DTD SVG 1.1//EN" "http://www.w3.org/Graphics/SVG/1.1/DTD/svg11.dtd">
<svg version="1.1" id="Layer_1" xmlns="http://www.w3.org/2000/svg" xmlns:xlink="http://www.w3.org/1999/xlink" x="0px" y="0px"
	 viewBox="11 11 50 50" style="enable-background:new 11 11 50 50;" xml:space="preserve">
<style type="text/css">
	.st0{fill:none;stroke:#4C4646;stroke-miterlimit:10;}
	.st1{fill:#4C4646;}
</style>
<g>
	<ellipse class="st0" cx="36" cy="36" rx="24.4" ry="24.4"/>
	<g>
		<g>
			<path class="st1" d="M31.1,32.8c-1.4,0-2.5,1.1-2.5,2.5c0,1.4,1.1,2.5,2.5,2.5c1.4,0,2.5-1.1,2.5-2.5
				C33.6,33.9,32.5,32.8,31.1,32.8z M31.1,36.8c-0.9,0-1.5-0.7-1.5-1.5c0-0.9,0.7-1.5,1.5-1.5c0.9,0,1.5,0.7,1.5,1.5
				C32.7,36.1,32,36.8,31.1,36.8z"/>
		</g>
		<g>
			<path class="st1" d="M41,29.2h-0.1l-0.1,0c-1.7,0.8-3.1,1.2-4.4,1.3c0-0.6-0.1-1.7,0.5-2.4c0.3-0.4,0.6-0.6,1.1-0.6
				c0.2,0,0.4-0.1,0.6-0.1c2.4-0.4,5.1-0.8,5.8-3.1L43.5,24c-0.5,1.7-2.8,2.1-5.1,2.5c-0.2,0-0.4,0.1-0.6,0.1
				c-0.7,0.1-1.3,0.5-1.7,1c-0.6,0.9-0.7,2.2-0.6,2.9c-1.2-0.1-2.5-0.5-4.2-1.3l-0.1,0h-0.1c-4.8,0-8.2,8.4-8.2,14.1
				c0,1.4,0.2,2.5,0.6,3.3c0.5,1,1.2,1.5,2.1,1.5c2.1,0,3.4-1.2,4.7-2.4c1.4-1.4,2.9-2.8,5.9-2.8c2.4,0,4.3,1.5,6.1,2.9
				c1.5,1.2,2.9,2.3,4.5,2.3c0.9,0,1.5-0.4,2-1.2c0.4-0.7,0.5-1.6,0.5-2.8C49.1,38.9,45.5,29.2,41,29.2z M47.8,46.3
				c-0.3,0.5-0.6,0.8-1.2,0.8c-1.2,0-2.5-1-3.9-2.1c-1.8-1.4-3.9-3.1-6.6-3.1c-3.3,0-5,1.6-6.5,3.1c-1.2,1.2-2.3,2.2-4,2.2
				c-0.6,0-1-0.3-1.3-1c-0.3-0.7-0.5-1.7-0.5-2.9c0-5.2,3.1-13.1,7.2-13.2c2.1,0.9,3.7,1.3,5.2,1.3c1.5,0,3.1-0.4,4.9-1.3
				c3.5,0.2,7.1,8.9,7.1,13.8C48.2,44.9,48.1,45.7,47.8,46.3z"/>
		</g>
		<g>
			<circle class="st1" cx="42.1" cy="33.6" r="0.8"/>
		</g>
		<g>
			<circle class="st1" cx="40.5" cy="35.3" r="0.8"/>
		</g>
		<g>
			<circle class="st1" cx="43.3" cy="35.6" r="0.8"/>
		</g>
		<g>
			<path class="st1" d="M41.2,36.7c-0.4,0.2-0.5,0.7-0.2,1.1c0.2,0.4,0.7,0.5,1.1,0.2c0.4-0.2,0.5-0.7,0.2-1.1
				C42.1,36.5,41.6,36.4,41.2,36.7z"/>
		</g>
	</g>
</g>
</svg>
