<?xml version="1.0" encoding="utf-8"?>
<!-- Generator: Adobe Illustrator 18.0.0, SVG Export Plug-In . SVG Version: 6.00 Build 0)  -->
<!DOCTYPE svg PUBLIC "-//W3C//DTD SVG 1.1//EN" "http://www.w3.org/Graphics/SVG/1.1/DTD/svg11.dtd">
<svg version="1.1" id="Layer_1" xmlns="http://www.w3.org/2000/svg" xmlns:xlink="http://www.w3.org/1999/xlink" x="0px" y="0px"
	 viewBox="0 0 50 50" style="enable-background:new 0 0 50 50;" xml:space="preserve">
<style type="text/css">
	.st0{fill:none;stroke:#4C4646;stroke-miterlimit:10;}
	.st1{fill:#4C4646;}
</style>
<g>
	<circle class="st0" cx="25" cy="25" r="24.5"/>
</g>
<g>
	<path class="st1" d="M16.5,16.8h13.4c0.7,0,1.3-0.6,1.3-1.3v-0.7c0-0.7-0.6-1.3-1.3-1.3H16.5c-0.7,0-1.3,0.6-1.3,1.3v0.7
		C15.2,16.3,15.8,16.8,16.5,16.8z"/>
	<path class="st1" d="M14.5,21.4h13.4c0.7,0,1.3-0.6,1.3-1.3v-0.7c0-0.7-0.6-1.3-1.3-1.3H14.5c-0.7,0-1.3,0.6-1.3,1.3v0.7
		C13.2,20.9,13.8,21.4,14.5,21.4z"/>
	<path class="st1" d="M14.5,26h9.1c0.4-0.8,0.9-1.6,1.6-2.2c0.4-0.4,0.8-0.7,1.3-1H14.5c-0.7,0-1.3,0.6-1.3,1.3v0.7
		C13.2,25.4,13.8,26,14.5,26z"/>
	<path class="st1" d="M16.5,27.2c-0.7,0-1.3,0.6-1.3,1.3v0.7c0,0.7,0.6,1.3,1.3,1.3h6.4c-0.1-0.4-0.1-0.8-0.1-1.2
		c0-0.7,0.1-1.4,0.3-2.1L16.5,27.2L16.5,27.2z"/>
	<path class="st1" d="M14.5,35.1h10.8c-0.1-0.1-0.1-0.1-0.2-0.2c-0.7-0.7-1.3-1.6-1.7-2.5c-0.1-0.2-0.2-0.4-0.2-0.6h-8.7
		c-0.7,0-1.3,0.6-1.3,1.3v0.7C13.2,34.5,13.8,35.1,14.5,35.1z"/>
	<polygon class="st1" points="29.3,27.2 29.3,28.7 30.1,28.7 30.1,27.2 30.1,27 29.3,27 	"/>
	<rect x="31.4" y="30" class="st1" width="0.7" height="1.7"/>
	<path class="st1" d="M28.1,22.7c-1.6,0.6-2.9,1.8-3.7,3.3c-0.2,0.4-0.4,0.8-0.5,1.2c-0.2,0.7-0.3,1.4-0.3,2.1c0,0.4,0,0.8,0.1,1.2
		c0.1,0.5,0.2,0.9,0.4,1.3c0.5,1.3,1.4,2.5,2.5,3.3c1.2,0.9,2.6,1.4,4.2,1.4c3.9,0,7.1-3.2,7.1-7.1s-3.2-7.1-7.1-7.1
		C29.8,22.2,28.9,22.4,28.1,22.7z M31.4,24.8v0.9h1.2c0.4,0,0.6,0.3,0.6,0.6S32.9,27,32.5,27h-1.2v1.7h1.4c0.4,0,0.6,0.3,0.6,0.6v3
		c0,0.4-0.3,0.6-0.6,0.6h-1.4v0.9c0,0.4-0.3,0.6-0.6,0.6s-0.6-0.3-0.6-0.6V33h-0.9h-0.4c-0.4,0-0.6-0.3-0.6-0.6
		c0-0.2,0.1-0.3,0.2-0.4c0.1-0.1,0.3-0.2,0.5-0.2h1.3v-1.2V30h-1.4c-0.4,0-0.6-0.3-0.6-0.6v-2.1v-0.9c0-0.1,0-0.3,0.1-0.4
		c0.1-0.2,0.3-0.3,0.5-0.3h0h1.4v-0.9c0-0.4,0.3-0.6,0.6-0.6S31.4,24.5,31.4,24.8z"/>
</g>
</svg>
