<?xml version="1.0" encoding="utf-8"?>
<!-- Generator: Adobe Illustrator 18.0.0, SVG Export Plug-In . SVG Version: 6.00 Build 0)  -->
<!DOCTYPE svg PUBLIC "-//W3C//DTD SVG 1.1//EN" "http://www.w3.org/Graphics/SVG/1.1/DTD/svg11.dtd">
<svg version="1.1" id="Layer_1" xmlns="http://www.w3.org/2000/svg" xmlns:xlink="http://www.w3.org/1999/xlink" x="0px" y="0px"
	 viewBox="0 0 50 50" style="enable-background:new 0 0 50 50;" xml:space="preserve">
<style type="text/css">
	.st0{fill:none;stroke:#4C4646;stroke-miterlimit:10;}
	.st1{fill:#4C4646;}
</style>
<g>
	<ellipse class="st0" cx="25" cy="25" rx="24.4" ry="24.4"/>
</g>
<g id="_x31_90">
</g>
<g>
	<ellipse class="st0" cx="25" cy="25" rx="24.4" ry="24.4"/>
</g>
<g>
	<path class="st1" d="M31,23.3c0-0.6-0.4-1-0.9-1h-3c-0.5,0-0.9,0.5-0.9,1v0.3H13.6c-0.1,0.4-0.1,0.9-0.1,1.3c0,0.5,0,0.9,0.1,1.3
		h12.6v0.3c0,0.6,0.4,1,0.9,1h3c0.5,0,0.9-0.5,0.9-1v-0.3h5.4c0.1-0.4,0.1-0.9,0.1-1.3c0-0.5,0-0.9-0.1-1.3H31V23.3z M29.8,26.3
		h-2.4v-2.7h2.4V26.3z"/>
	<path class="st1" d="M23.8,17v-0.3c0-0.6-0.4-1-0.9-1h-3c-0.5,0-0.9,0.5-0.9,1V17h-2.2c-0.8,0.8-1.4,1.7-1.9,2.7H19V20
		c0,0.6,0.4,1,0.9,1h3c0.5,0,0.9-0.5,0.9-1v-0.3h11.3c-0.5-1-1.2-1.9-1.9-2.7H23.8z M22.6,19.7h-2.4V17h2.4V19.7z"/>
	<path class="st1" d="M23.8,30.3V30c0-0.6-0.4-1-0.9-1h-3c-0.5,0-0.9,0.5-0.9,1v0.3h-4.1c0.5,1,1.2,1.9,1.9,2.7H19v0.3
		c0,0.6,0.4,1,0.9,1h3c0.5,0,0.9-0.5,0.9-1V33h9.4c0.8-0.8,1.4-1.7,1.9-2.7H23.8z M22.6,33h-2.4v-2.7h2.4V33z"/>
</g>
</svg>
