<?xml version="1.0" encoding="utf-8"?>
<!-- Generator: Adobe Illustrator 15.0.0, SVG Export Plug-In  -->
<!DOCTYPE svg PUBLIC "-//W3C//DTD SVG 1.1//EN" "http://www.w3.org/Graphics/SVG/1.1/DTD/svg11.dtd" [
	<!ENTITY ns_flows "http://ns.adobe.com/Flows/1.0/">
]>
<svg version="1.1"
	 xmlns="http://www.w3.org/2000/svg" xmlns:xlink="http://www.w3.org/1999/xlink" xmlns:a="http://ns.adobe.com/AdobeSVGViewerExtensions/3.0/"
	 x="0px" y="0px" width="77px" height="46px" viewBox="0 0 77 46" enable-background="new 0 0 77 46" xml:space="preserve">
<defs>
</defs>
<path fill="#D7844C" d="M10.985,8.119l-0.322-0.764c0,0,0.748-1.687,0.682-1.752l-0.989-0.967c-0.07-0.066-1.757,0.704-1.757,0.704
	L7.819,5.025c0,0-0.688-1.71-0.782-1.71H5.64c-0.097,0-0.734,1.714-0.734,1.714L4.129,5.344c0,0-1.724-0.732-1.79-0.667L1.351,5.646
	c-0.069,0.066,0.718,1.72,0.718,1.72L1.747,8.128c0,0-1.747,0.673-1.747,0.764v1.37c0,0.096,1.751,0.719,1.751,0.719l0.322,0.762
	c0,0-0.748,1.686-0.682,1.751l0.99,0.969c0.067,0.065,1.756-0.705,1.756-0.705l0.78,0.315c0,0,0.688,1.709,0.783,1.709h1.397
	c0.097,0,0.733-1.714,0.733-1.714l0.78-0.315c0,0,1.72,0.732,1.787,0.668l0.99-0.969c0.069-0.067-0.72-1.72-0.72-1.72l0.321-0.763
	c0,0,1.748-0.674,1.748-0.767V8.835C12.736,8.741,10.985,8.119,10.985,8.119z M8.41,9.548c0,1.101-0.916,1.998-2.042,1.998
	c-1.125,0-2.042-0.897-2.042-1.998s0.917-1.997,2.042-1.997C7.494,7.552,8.41,8.447,8.41,9.548z"/>
<path fill="#D7844C" d="M30.493,3.762c-0.477,0.211-0.823,0.369-0.823,0.369L28.08,3.49c0,0-1.403-3.49-1.596-3.49h-2.852
	c-0.198,0-1.498,3.498-1.498,3.498l-1.585,0.643c0,0-3.517-1.494-3.652-1.361L14.88,4.756c-0.14,0.135,1.466,3.51,1.466,3.51
	l-0.657,1.557c0,0-3.564,1.373-3.564,1.559v2.794c0,0.195,3.573,1.468,3.573,1.468l0.657,1.554c0,0-1.526,3.44-1.392,3.573
	l2.019,1.977c0.137,0.134,3.583-1.438,3.583-1.438l1.59,0.644c0,0,1.403,3.488,1.597,3.488h2.852c0.197,0,1.497-3.498,1.497-3.498
	l1.591-0.644c0,0,0.335,0.143,0.801,0.335V3.762z M25.119,16.797c-2.295,0-4.166-1.83-4.166-4.078c0-2.246,1.871-4.074,4.166-4.074
	c2.298,0.001,4.166,1.828,4.166,4.074C29.284,14.967,27.415,16.797,25.119,16.797z"/>
<path fill="#D7844C" d="M34.652,33.283c0.232,1.958-1.189,3.755-3.192,4.016c-2.015,0.263-3.867-1.13-4.124-3.104
	c-0.255-1.96,1.161-3.765,3.157-4.045v-7.723l-2.258,0.293c-0.173,0.022-0.915,3.243-0.915,3.243l-1.319,0.746
	c0,0-3.258-0.91-3.362-0.778l-1.545,1.966c-0.107,0.135,1.688,2.914,1.688,2.914l-0.398,1.441c0,0-2.973,1.613-2.951,1.776
	l0.319,2.453c0.022,0.171,3.305,0.881,3.305,0.881l0.754,1.289c0,0-0.946,3.195-0.813,3.296l1.999,1.505
	c0.135,0.102,2.982-1.672,2.982-1.672l1.47,0.383c0,0,1.63,2.902,1.801,2.88l2.504-0.326c0.173-0.023,0.915-3.243,0.915-3.243
	l1.323-0.747c0,0,3.252,0.911,3.357,0.782l1.547-1.967c0.107-0.136-1.691-2.914-1.691-2.914l0.397-1.441
	c0,0,2.974-1.616,2.952-1.781l-0.017-0.125H34.652z"/>
<path fill="#D7844C" d="M61.974,33.283c-1.212,0.518-2.611,0.641-3.987,0.253c-0.245-0.069-0.479-0.157-0.708-0.253H43.722
	c-0.687,0.884-1.267,1.679-1.21,1.778l2.006,3.494c0.136,0.237,5.475-0.587,5.475-0.587l1.933,1.499c0,0,0.577,5.33,0.843,5.405
	l3.914,1.102c0.271,0.077,3.408-4.221,3.408-4.221l2.432-0.269c0,0,4.239,3.408,4.476,3.283l3.537-1.932
	c0.245-0.134-0.659-5.385-0.659-5.385l1.501-1.882c0,0,5.426-0.509,5.498-0.767l0.428-1.518H61.974z"/>
</svg>
