<?xml version="1.0" encoding="utf-8"?>
<!-- Generator: Adobe Illustrator 15.0.0, SVG Export Plug-In  -->
<!DOCTYPE svg PUBLIC "-//W3C//DTD SVG 1.1//EN" "http://www.w3.org/Graphics/SVG/1.1/DTD/svg11.dtd" [
	<!ENTITY ns_flows "http://ns.adobe.com/Flows/1.0/">
]>
<svg version="1.1"
	 xmlns="http://www.w3.org/2000/svg" xmlns:xlink="http://www.w3.org/1999/xlink" xmlns:a="http://ns.adobe.com/AdobeSVGViewerExtensions/3.0/"
	 x="0px" y="0px" width="24px" height="23px" viewBox="-0.064 -0.063 24 23" enable-background="new -0.064 -0.063 24 23"
	 xml:space="preserve">
<defs>
</defs>
<path fill="#D7844C" d="M20.161,8.817l-0.59-1.402c0,0,1.373-3.097,1.251-3.217l-1.816-1.773c-0.127-0.122-3.225,1.292-3.225,1.292
	l-1.431-0.577c0,0-1.262-3.139-1.434-3.139h-2.565c-0.177,0-1.348,3.146-1.348,3.146L7.578,3.724c0,0-3.164-1.344-3.286-1.224
	L2.479,4.278c-0.127,0.12,1.318,3.157,1.318,3.157l-0.591,1.4c0,0-3.206,1.235-3.206,1.401v2.514c0,0.175,3.213,1.321,3.213,1.321
	l0.59,1.397c0,0-1.372,3.094-1.252,3.213l1.817,1.779c0.123,0.119,3.223-1.293,3.223-1.293l1.431,0.58c0,0,1.262,3.137,1.437,3.137
	h2.564c0.177,0,1.346-3.147,1.346-3.147l1.431-0.579c0,0,3.158,1.346,3.28,1.226l1.816-1.777c0.127-0.122-1.32-3.156-1.32-3.156
	l0.59-1.4c0,0,3.207-1.237,3.207-1.406v-2.513C23.374,9.959,20.161,8.817,20.161,8.817z M15.435,11.44
	c0,2.021-1.682,3.667-3.748,3.667c-2.064,0-3.746-1.646-3.746-3.667s1.682-3.664,3.746-3.664
	C13.754,7.777,15.435,9.419,15.435,11.44z"/>
</svg>
