<?xml version="1.0" encoding="utf-8"?>
<!-- Generator: Adobe Illustrator 15.0.0, SVG Export Plug-In  -->
<!DOCTYPE svg PUBLIC "-//W3C//DTD SVG 1.1//EN" "http://www.w3.org/Graphics/SVG/1.1/DTD/svg11.dtd" [
	<!ENTITY ns_flows "http://ns.adobe.com/Flows/1.0/">
]>
<svg version="1.1"
	 xmlns="http://www.w3.org/2000/svg" xmlns:xlink="http://www.w3.org/1999/xlink" xmlns:a="http://ns.adobe.com/AdobeSVGViewerExtensions/3.0/"
	 x="0px" y="0px" width="224px" height="106px" viewBox="0 -12.938 224 106" enable-background="new 0 -12.938 224 106"
	 xml:space="preserve">
<defs>
</defs>
<path fill="#373637" d="M44.928,91.846C24.152,71.148,12.711,43.645,12.711,14.402c0-4.413,0.273-8.889,0.812-13.304L13.677,0H0v2
	h11.422c-0.459,4.123-0.703,8.288-0.703,12.402c0,29.401,11.403,57.155,32.108,78.151l0.147,0.148h2.811L44.928,91.846z"/>
<path fill="#373637" d="M178.799,91.846c20.775-20.697,32.217-48.201,32.217-77.444c0-4.413-0.273-8.889-0.812-13.304L210.05,0
	h15.017v2h-12.762c0.459,4.123,0.702,8.288,0.702,12.402c0,29.401-11.403,57.155-32.108,78.151l-0.146,0.148h-2.811L178.799,91.846z
	"/>
<path fill="#363436" d="M101.31,51.987H71.289c0-6.113,4.012-11.328,9.654-13.391c-1.213-1.232-2.091-3.107-2.53-5.932
	c-0.582,0.119-1.487-0.549-1.75-1.563c-0.274-1.029-0.45-2.695,0.137-2.857c0.173-0.047,0.356-0.014,0.532,0.08v-2.871
	c0-4.511-1.062-7.165,6.314-7.919l-0.063-0.018c0,0,5.813-0.559,7.344-1.937c0,0,0.043,1.164,0.661,2.438
	c3.403,1.305,3.828,4.32,3.729,7.44v2.867c0.181-0.094,0.365-0.127,0.538-0.08c0.587,0.16,0.274,1.889,0.005,2.926
	c-0.263,1.004-1.026,1.604-1.603,1.496c-0.428,2.689-1.372,4.621-2.684,5.904C97.259,40.616,101.31,45.841,101.31,51.987z
	 M164.317,0v68.376H59.409V0H164.317z M158.697,5.62H65.029v57.135h93.668V5.62z M151.203,16.86h-41.681v5.62h41.681V16.86z
	 M151.203,31.378h-41.681v5.621h41.681V31.378z M151.203,45.901h-41.681v5.619h41.681V45.901z"/>
</svg>
