<?xml version="1.0" encoding="utf-8"?>
<!-- Generator: Adobe Illustrator 15.0.0, SVG Export Plug-In  -->
<!DOCTYPE svg PUBLIC "-//W3C//DTD SVG 1.1//EN" "http://www.w3.org/Graphics/SVG/1.1/DTD/svg11.dtd" [
	<!ENTITY ns_flows "http://ns.adobe.com/Flows/1.0/">
]>
<svg version="1.1"
	 xmlns="http://www.w3.org/2000/svg" xmlns:xlink="http://www.w3.org/1999/xlink" xmlns:a="http://ns.adobe.com/AdobeSVGViewerExtensions/3.0/"
	 x="0px" y="0px" width="22px" height="22px" viewBox="-0.496 -0.008 22 22" enable-background="new -0.496 -0.008 22 22"
	 xml:space="preserve">
<defs>
</defs>
<path fill="#212121" d="M12.862,11.08c-0.569,0.667-1.082,1.156-1.076,1.151c0.004-0.004-0.445,0.543-1.07,1.16
	c-0.502,0.495-1.061,0.983-1.678,1.449c-0.702,0.526-1.798,0.595-2.395,0.231c-0.595-0.364-1.742-1.1-2.599-0.912
	c-0.72,0.158-1.677,0.687-2.827,2.044c-2.713,3.203-0.283,4.202,1.401,5.495c1.686,1.29,7.246-1.908,12.339-7.115
	c5.094-5.209,7.01-10.597,5.6-12.183c-1.408-1.586-2.584-3.937-5.581-0.999c-1.27,1.246-1.729,2.238-1.833,2.968
	c-0.124,0.868,0.693,1.958,1.098,2.525c0.407,0.568,0.417,1.667-0.057,2.405C13.766,9.95,13.319,10.543,12.862,11.08z"/>
</svg>
