<?xml version="1.0" encoding="utf-8"?>
<!-- Generator: Adobe Illustrator 15.0.0, SVG Export Plug-In  -->
<!DOCTYPE svg PUBLIC "-//W3C//DTD SVG 1.1//EN" "http://www.w3.org/Graphics/SVG/1.1/DTD/svg11.dtd" [
	<!ENTITY ns_flows "http://ns.adobe.com/Flows/1.0/">
]>
<svg version="1.1"
	 xmlns="http://www.w3.org/2000/svg" xmlns:xlink="http://www.w3.org/1999/xlink" xmlns:a="http://ns.adobe.com/AdobeSVGViewerExtensions/3.0/"
	 x="0px" y="0px" width="22px" height="22px" viewBox="0 0 22 22" enable-background="new 0 0 22 22" xml:space="preserve">
<defs>
</defs>
<path fill="#212121" d="M11.895,9.556L8.347,5.994L8.331,1.289L3.521,0L3.007,0.511l2.558,2.555L3.07,5.565L0.515,3.011L0,3.52
	l1.291,4.81l4.575,0.012l-0.027,0.03l3.613,3.629 M9.452,12.001l9.231,9.269l0.015-0.011c0.672,0.65,1.743,0.651,2.401-0.013
	c0.664-0.661,0.666-1.73,0.016-2.406l0.016-0.009l-9.236-9.275 M20.467,20.607c-0.296,0.298-0.773,0.301-1.072,0
	c-0.291-0.295-0.297-0.771-0.002-1.069c0.301-0.296,0.776-0.296,1.074,0C20.766,19.833,20.766,20.313,20.467,20.607z"/>
</svg>
